<?xml version="1.0" encoding="utf-8"?>
<!-- Generator: Adobe Illustrator 19.0.0, SVG Export Plug-In . SVG Version: 6.00 Build 0)  -->
<svg version="1.1" id="_015---Cream-Pot" xmlns="http://www.w3.org/2000/svg" xmlns:xlink="http://www.w3.org/1999/xlink" x="0px"
	 y="0px" viewBox="-227.3 92.8 16.6 16.6" style="enable-background:new -227.3 92.8 16.6 16.6;" xml:space="preserve">
<style type="text/css">
	.st0{fill:#FFC107;}
</style>
<path id="star" class="st0" d="M-211.7,98.8l-4.8-0.7l-2.1-4.6c-0.1-0.2-0.4-0.3-0.7-0.2c-0.1,0-0.1,0.1-0.2,0.2l-2.1,4.6l-4.8,0.7
	c-0.3,0-0.4,0.3-0.4,0.5c0,0,0,0,0,0l0,0c0,0.1,0.1,0.2,0.1,0.3l3.5,3.5l-0.8,5c0,0.3,0.1,0.5,0.4,0.6c0.1,0,0.2,0,0.3-0.1l4.3-2.3
	l4.3,2.3c0.2,0.1,0.5,0,0.6-0.2c0.1-0.1,0.1-0.2,0.1-0.3l-0.8-5l3.5-3.5c0.2-0.2,0.2-0.5,0-0.7c0,0,0,0,0,0l0,0
	C-211.5,98.9-211.6,98.8-211.7,98.8L-211.7,98.8z"/>
</svg>
