<svg id="_015---Cream-Pot" data-name=" 015---Cream-Pot" xmlns="http://www.w3.org/2000/svg" viewBox="0 0 30 30"><defs><style>.cls-1{fill:#f24976;}.cls-2{fill:#eef6ff;}.cls-3{fill:#c3ddf4;}.cls-4{fill:#293d7c;}.cls-5{fill:#1a2b63;}.cls-6{fill:#69cdff;}.cls-7{fill:#52bbef;}.cls-8{fill:#ff9518;}.cls-9{fill:#ef8318;}.cls-10{fill:#ffd00d;}.cls-11{fill:#91e0e8;}.cls-12{fill:#e26693;}.cls-13{fill:#ffaf10;}.cls-14{fill:#37c47a;}.cls-15{fill:#445ea0;}.cls-16{fill:#d9eafc;}</style></defs><circle class="cls-1" cx="15.4" cy="15.4" r="8.83"/><path class="cls-2" d="M14.48,14.48A3.62,3.62,0,0,1,17,13.42a3.56,3.56,0,0,1,1.84.51V7.71H5.77V19.13a.37.37,0,0,0,.36.37h8.26A3.64,3.64,0,0,1,14.48,14.48Z"/><path class="cls-3" d="M6.59,19.13V7.71H5.77V19.13a.37.37,0,0,0,.36.37H7A.37.37,0,0,1,6.59,19.13Z"/><path class="cls-4" d="M18.67,5.77H6A.21.21,0,0,0,5.77,6V7.81H18.88V6A.21.21,0,0,0,18.67,5.77Z"/><path class="cls-5" d="M6.79,5.77H6A.21.21,0,0,0,5.77,6V7.81h.82V6A.2.2,0,0,1,6.79,5.77Z"/><path class="cls-6" d="M11.48,12.21a.19.19,0,0,1-.18.18h-4a.18.18,0,0,1-.18-.18V9.33a.18.18,0,0,1,.18-.18h4a.19.19,0,0,1,.18.18v2.88Z"/><path class="cls-7" d="M7.91,12.21V9.33a.19.19,0,0,1,.18-.18H7.28a.18.18,0,0,0-.18.18v2.88a.18.18,0,0,0,.18.18h.81A.19.19,0,0,1,7.91,12.21Z"/><path class="cls-8" d="M13.6,15.93H7.28a.18.18,0,0,0-.18.18v1.72a.18.18,0,0,0,.18.18h6.28A3.6,3.6,0,0,1,13.6,15.93Z"/><path class="cls-9" d="M7.91,17.83V16.11a.19.19,0,0,1,.18-.18H7.28a.18.18,0,0,0-.18.18v1.72a.18.18,0,0,0,.18.18h.81A.19.19,0,0,1,7.91,17.83Z"/><path class="cls-10" d="M13.6,15.93H12.29V18h1.27A3.6,3.6,0,0,1,13.6,15.93Z"/><path class="cls-11" d="M17.33,9.42H12.91a.27.27,0,0,1,0-.54h4.42a.27.27,0,1,1,0,.54Z"/><path class="cls-11" d="M17.33,10.5H12.91a.27.27,0,0,1,0-.54h4.42a.27.27,0,1,1,0,.54Z"/><path class="cls-11" d="M17.33,11.58H12.91a.27.27,0,0,1,0-.54h4.42a.27.27,0,1,1,0,.54Z"/><path class="cls-11" d="M17.33,12.66H12.91a.27.27,0,0,1,0-.54h4.42a.27.27,0,1,1,0,.54Z"/><path class="cls-11" d="M16.57,13.45H7.1a.28.28,0,0,0,0,.55h8A3.54,3.54,0,0,1,16.57,13.45Z"/><path class="cls-11" d="M14.41,14.56H7.1a.27.27,0,0,0-.27.27.28.28,0,0,0,.27.27H14A3.13,3.13,0,0,1,14.41,14.56Z"/><path class="cls-12" d="M7,7a.27.27,0,1,1,.19-.08A.27.27,0,0,1,7,7Z"/><path class="cls-13" d="M7.91,7a.27.27,0,0,1,0-.54.28.28,0,0,1,.2.08.29.29,0,0,1,0,.38A.28.28,0,0,1,7.91,7Z"/><path class="cls-14" d="M8.8,7A.27.27,0,1,1,9,6.94.27.27,0,0,1,8.8,7Z"/><path class="cls-15" d="M20.54,19.8l-.74.74L21.26,22a8.61,8.61,0,0,0,.74-.74Z"/><path class="cls-4" d="M20.84,19.36l-.62-.62a3.24,3.24,0,0,1-.63.85,3.51,3.51,0,0,1-.85.64l.62.61a.18.18,0,0,0,.25,0l1.23-1.23A.18.18,0,0,0,20.84,19.36Z"/><path class="cls-5" d="M19.78,20.42l-.53-.53a3.48,3.48,0,0,1-.51.34l.62.61a.18.18,0,0,0,.25,0l.42-.42A.18.18,0,0,1,19.78,20.42Z"/><path class="cls-15" d="M19.64,14.43a3.68,3.68,0,1,1-5.21,0A3.68,3.68,0,0,1,19.64,14.43Z"/><path class="cls-6" d="M18.87,18.87a2.59,2.59,0,1,1,0-3.66A2.6,2.6,0,0,1,18.87,18.87Z"/><path class="cls-7" d="M18.87,18.87a3.61,3.61,0,0,0,.25-.3A2.58,2.58,0,0,1,15.5,15a3.47,3.47,0,0,0-.29.25,2.59,2.59,0,0,0,3.66,3.66Z"/><path class="cls-15" d="M18.67,5.77H10v2h8.93V6A.21.21,0,0,0,18.67,5.77Z"/><circle class="cls-16" cx="17.48" cy="15.31" r="0.43"/><circle class="cls-16" cx="18.39" cy="15.76" r="0.31"/></svg>