<svg id="_015---Cream-Pot" data-name=" 015---Cream-Pot" xmlns="http://www.w3.org/2000/svg" viewBox="0 0 30 30"><defs><style>.cls-1{fill:#3cbe55;}</style></defs><g id="cell-phone"><path id="Path_7209" data-name="Path 7209" class="cls-1" d="M18.34,7.05H11.66A1.16,1.16,0,0,0,10.5,8.21h0V21.79A1.16,1.16,0,0,0,11.66,23h6.68a1.16,1.16,0,0,0,1.16-1.16V8.21A1.16,1.16,0,0,0,18.34,7.05Zm-5,.71h3.3c.08,0,.15.12.15.28s-.07.27-.15.27h-3.3c-.08,0-.15-.12-.15-.27S13.27,7.76,13.35,7.76ZM15,21.8a.74.74,0,1,1,.74-.74h0A.74.74,0,0,1,15,21.8Zm3.63-2.53H11.37V9h7.26Z"/></g></svg>