<?xml version="1.0" encoding="utf-8"?>
<!-- Generator: Adobe Illustrator 19.0.0, SVG Export Plug-In . SVG Version: 6.00 Build 0)  -->
<svg version="1.1" id="_015---Cream-Pot" xmlns="http://www.w3.org/2000/svg" xmlns:xlink="http://www.w3.org/1999/xlink" x="0px"
	 y="0px" viewBox="-229.6 95.3 21.1 11.5" style="enable-background:new -229.6 95.3 21.1 11.5;" xml:space="preserve">
<style type="text/css">
	.st0{fill:#B6FA4C;}
	.st1{fill:#A8E83A;}
	.st2{fill:#77DD00;}
	.st3{fill:#73CC00;}
</style>
<g id="money">
	<path id="Path_7104" class="st0" d="M-209.3,106.7h-19.4c-0.5,0-0.9-0.4-0.9-0.9v-9.7c0-0.5,0.4-0.9,0.9-0.9l0,0h19.4
		c0.5,0,0.9,0.4,0.9,0.9v9.7C-208.4,106.3-208.8,106.7-209.3,106.7z"/>
	<path id="Path_7105" class="st1" d="M-209.3,95.3h-2.2c0.5,0,0.9,0.4,0.9,0.9v9.4c-0.1,0.4-0.5,0.6-0.8,0.6h-18
		c0.1,0.3,0.5,0.6,0.8,0.6h19.4c0.4,0,0.7-0.2,0.8-0.6c0,0,0,0,0-0.1c0-0.1,0-0.1,0-0.2l0,0v-9.7l0,0
		C-208.5,95.7-208.8,95.3-209.3,95.3z"/>
	<path id="Path_7106" class="st2" d="M-211.3,96.3h-15.4c-0.1,0-0.2,0.1-0.3,0.2c-0.3,0.6-0.8,1.1-1.4,1.4c-0.1,0-0.2,0.2-0.2,0.3
		v5.7c0,0.1,0.1,0.2,0.2,0.3c0.6,0.3,1.1,0.8,1.4,1.4c0.1,0.1,0.2,0.2,0.3,0.2h15.4c0.1,0,0.2-0.1,0.3-0.2c0.3-0.6,0.8-1.1,1.4-1.4
		c0.1,0,0.2-0.2,0.2-0.3v-5.7c0-0.1-0.1-0.2-0.2-0.3c-0.6-0.3-1.1-0.8-1.4-1.4C-211,96.3-211.2,96.3-211.3,96.3z"/>
	<path id="Path_7107" class="st3" d="M-209.6,97.9c-0.6-0.3-1.1-0.8-1.4-1.4c0-0.1-0.2-0.2-0.3-0.2h-1.7c0.3,0.5,0.7,0.9,1.2,1.1
		c0.1,0,0.2,0.2,0.2,0.3v5.7c0,0.1-0.1,0.2-0.2,0.3c-0.6,0.3-1.1,0.8-1.4,1.4c0,0.1-0.2,0.2-0.3,0.2h-13.7c0.1,0.1,0.1,0.2,0.2,0.3
		c0.1,0.1,0.2,0.2,0.3,0.2h15.4c0.1,0,0.2-0.1,0.3-0.2c0.3-0.6,0.8-1.1,1.4-1.4c0.1,0,0.2-0.2,0.2-0.3v-5.7
		C-209.4,98-209.5,97.9-209.6,97.9z"/>
	<circle id="Ellipse_136" class="st0" cx="-219" cy="101" r="3.6"/>
</g>
</svg>
