<?xml version="1.0" encoding="utf-8"?>
<!-- Generator: Adobe Illustrator 19.0.0, SVG Export Plug-In . SVG Version: 6.00 Build 0)  -->
<svg version="1.1" id="_015---Cream-Pot" xmlns="http://www.w3.org/2000/svg" xmlns:xlink="http://www.w3.org/1999/xlink" x="0px"
	 y="0px" viewBox="-229.3 90.1 21.3 21.4" style="enable-background:new -229.3 90.1 21.3 21.4;" xml:space="preserve">
<style type="text/css">
	.st0{fill:#455A64;}
	.st1{fill:#4CAF50;}
	.st2{fill:#F44336;}
	.st3{fill:#FFC107;}
</style>
<g id="cart">
	<path id="Path_7259" class="st0" d="M-212.7,93.8c-0.7-0.6-1.7-0.6-2.3,0l-1,0.9c-0.1,0.1-0.1,0.1-0.1,0.2v1.9
		c0,0.2,0.1,0.3,0.3,0.3h1.9c0.1,0,0.2,0,0.2-0.1l0.9-1C-212.1,95.4-212.1,94.4-212.7,93.8L-212.7,93.8z"/>
	<path id="Path_7260" class="st1" d="M-215.8,93.3h-2.6c-0.2,0-0.3,0.1-0.3,0.3v2.6c0,0.2,0.1,0.3,0.3,0.3l2.6,0.6h0.1
		c0.2,0,0.3-0.1,0.3-0.3c0,0,0,0,0,0v-3.2C-215.5,93.4-215.6,93.3-215.8,93.3z"/>
	<path id="Path_7261" class="st2" d="M-217.5,96.6l-3.2-3.2c-0.1-0.1-0.3-0.1-0.4,0c0,0,0,0,0,0l0,0l-1.9,1.9
		c-0.1,0.1-0.1,0.3,0,0.5l0,0l1.3,1.3c0.1,0.1,0.1,0.1,0.2,0.1h3.9c0.2,0,0.3-0.2,0.3-0.3C-217.4,96.7-217.4,96.6-217.5,96.6
		L-217.5,96.6z"/>
	<g id="Group_2902">
		<circle id="Ellipse_163" class="st0" cx="-214.5" cy="107.1" r="1.6"/>
		<circle id="Ellipse_164" class="st0" cx="-220.9" cy="107.1" r="1.6"/>
	</g>
	<path id="Path_7262" class="st3" d="M-211.7,96.6c-0.1-0.1-0.1-0.1-0.2-0.1h-11.6c-0.2,0-0.3,0.1-0.3,0.3c0,0,0,0,0,0
		c0,0,0,0,0,0.1l1,5.2c0,0.2,0.2,0.3,0.3,0.3h8.9c0.8,0,1.5-0.6,1.6-1.4l0.5-4C-211.5,96.8-211.6,96.7-211.7,96.6z"/>
	<path id="Path_7263" class="st0" d="M-213.2,104.9h-7.4c-1.1,0-2-0.8-2.2-1.8l-1.6-7.9h-1.7c-0.2,0-0.4-0.1-0.4-0.3
		c0-0.2,0.1-0.4,0.3-0.4c0,0,0.1,0,0.1,0h1.9c0.2,0,0.3,0.1,0.3,0.3l1.6,8.1c0.2,0.8,0.8,1.3,1.6,1.3h7.4c0.2,0,0.3,0.2,0.3,0.4
		C-213,104.7-213.1,104.8-213.2,104.9z"/>
</g>
</svg>
