<?xml version="1.0" encoding="utf-8"?>
<!-- Generator: Adobe Illustrator 19.0.0, SVG Export Plug-In . SVG Version: 6.00 Build 0)  -->
<svg version="1.1" id="_015---Cream-Pot" xmlns="http://www.w3.org/2000/svg" xmlns:xlink="http://www.w3.org/1999/xlink" x="0px"
	 y="0px" viewBox="-228.6 90.5 19.2 18.8" style="enable-background:new -228.6 90.5 19.2 18.8;" xml:space="preserve">
<style type="text/css">
	.st0{fill:#707070;}
</style>
<g id="Group_2844">
	<path id="Path_7233" class="st0" d="M-212,97.5h-2.6V94h-12.2c-1,0-1.8,0.8-1.8,1.7c0,0,0,0,0,0l0,0v9.6h1.8c0,1.4,1.2,2.6,2.6,2.6
		s2.6-1.2,2.6-2.6c0,0,0,0,0,0h5.2c0,1.4,1.2,2.6,2.6,2.6c1.4,0,2.6-1.2,2.6-2.6h1.8V101L-212,97.5z M-224.2,106.7
		c-0.7,0-1.3-0.6-1.3-1.3c0-0.7,0.6-1.3,1.3-1.3s1.3,0.6,1.3,1.3c0,0,0,0,0,0C-222.9,106.1-223.5,106.7-224.2,106.7z M-213.8,106.7
		c-0.7,0-1.3-0.6-1.3-1.3c0-0.7,0.6-1.3,1.3-1.3c0.7,0,1.3,0.6,1.3,1.3c0,0,0,0,0,0C-212.4,106.1-213,106.7-213.8,106.7z
		 M-214.6,101v-2.2h2.2l1.7,2.2H-214.6z"/>
</g>
</svg>
