<svg id="_015---Cream-Pot" data-name=" 015---Cream-Pot" xmlns="http://www.w3.org/2000/svg" viewBox="0 0 30 30"><defs><style>.cls-1{fill:#353744;}.cls-2{fill:#55525b;}.cls-3{fill:#f04b37;}.cls-4{fill:#ff6955;}</style></defs><g id="cooking-tools"><g id="Group_2257" data-name="Group 2257"><path id="Path_6808" data-name="Path 6808" class="cls-1" d="M10.38,17.41h2v2.15h-2Z"/></g><g id="Group_2258" data-name="Group 2258"><path id="Path_6809" data-name="Path 6809" class="cls-1" d="M21.26,12.08h1.36v7.48H21.26Z"/></g><g id="Group_2259" data-name="Group 2259"><path id="Path_6810" data-name="Path 6810" class="cls-2" d="M21.26,12.08h.68v7.48h-.68Z"/></g><g id="Group_2260" data-name="Group 2260"><ellipse id="Ellipse_115" data-name="Ellipse 115" class="cls-2" cx="11.5" cy="12" rx="6.5" ry="7"/></g><g id="Group_2261" data-name="Group 2261"><circle id="Ellipse_116" data-name="Ellipse 116" class="cls-1" cx="11.5" cy="11.5" r="6.5"/></g><g id="Group_2262" data-name="Group 2262"><circle id="Ellipse_117" data-name="Ellipse 117" class="cls-2" cx="11.4" cy="11.74" r="4.94"/></g><g id="Group_2263" data-name="Group 2263"><path id="Path_6811" data-name="Path 6811" class="cls-3" d="M12.42,19.56h-2a.34.34,0,0,0-.34.34v3.74a1.36,1.36,0,1,0,2.72,0V19.9a.34.34,0,0,0-.34-.34Zm-1,4.76a.68.68,0,1,1,.68-.68h0A.68.68,0,0,1,11.4,24.32Z"/></g><g id="Group_2264" data-name="Group 2264"><path id="Path_6812" data-name="Path 6812" class="cls-4" d="M10.78,22.73a.28.28,0,0,1-.29-.28V20.18a.29.29,0,0,1,.57,0v2.27a.28.28,0,0,1-.28.28Z"/></g><g id="Group_2265" data-name="Group 2265"><path id="Path_6813" data-name="Path 6813" class="cls-3" d="M22.62,19.56H21.26a.34.34,0,0,0-.34.34V24a1,1,0,0,0,2,0V19.9a.34.34,0,0,0-.34-.34Zm-.68,4.76a.34.34,0,1,1,.34-.34h0a.34.34,0,0,1-.34.34Z"/></g><g id="Group_2266" data-name="Group 2266"><path id="Path_6814" data-name="Path 6814" class="cls-4" d="M21.66,23.3a.29.29,0,0,0,.28-.28V20.18a.29.29,0,0,0-.57,0V23a.29.29,0,0,0,.29.28Z"/></g><g id="Group_2267" data-name="Group 2267"><path id="Path_6815" data-name="Path 6815" class="cls-1" d="M24,5.28H19.9a1,1,0,0,0-1,1h0V9.7a2.39,2.39,0,0,0,2.38,2.38h1.36A2.39,2.39,0,0,0,25,9.7h0V6.3A1,1,0,0,0,24,5.28ZM20.58,9.7a.34.34,0,0,1-.68,0V6.64a.34.34,0,1,1,.68,0Zm1.7,0a.34.34,0,0,1-.68,0h0V6.64a.34.34,0,1,1,.68,0h0Zm1.7,0a.34.34,0,0,1-.68,0h0V6.64a.34.34,0,0,1,.68,0h0Z"/></g></g></svg>