<svg id="_015---Cream-Pot" data-name=" 015---Cream-Pot" xmlns="http://www.w3.org/2000/svg" viewBox="0 0 30 30"><defs><style>.cls-1{fill:#167ee6;}.cls-2{fill:#12b347;}.cls-3{fill:#0f993e;}.cls-4{fill:#ffd500;}.cls-5{fill:#ff4b26;}.cls-6{fill:#d93f21;}</style></defs><path id="Path_7004" data-name="Path 7004" class="cls-1" d="M24.71,13.17H16.14a.68.68,0,0,0-.68.69v2.73a.68.68,0,0,0,.68.69H21a6.43,6.43,0,0,1-2.77,3.25l2.06,3.56a10.31,10.31,0,0,0,5.25-9,7.53,7.53,0,0,0-.12-1.35A.68.68,0,0,0,24.71,13.17Z"/><path id="Path_7005" data-name="Path 7005" class="cls-2" d="M15,21.39a6.38,6.38,0,0,1-5.53-3.2l-3.56,2a10.49,10.49,0,0,0,14.33,3.85h0l-2.06-3.56A6.38,6.38,0,0,1,15,21.39Z"/><path id="Path_7006" data-name="Path 7006" class="cls-3" d="M20.25,24.09h0l-2.06-3.56a6.28,6.28,0,0,1-3.19.86V25.5A10.54,10.54,0,0,0,20.25,24.09Z"/><path id="Path_7007" data-name="Path 7007" class="cls-4" d="M8.61,15a6.42,6.42,0,0,1,.86-3.2L5.91,9.75a10.46,10.46,0,0,0,0,10.49l3.56-2A6.38,6.38,0,0,1,8.61,15Z"/><path id="Path_7008" data-name="Path 7008" class="cls-5" d="M15,8.61a6.39,6.39,0,0,1,4.06,1.45A.68.68,0,0,0,20,10l1.93-1.94a.68.68,0,0,0,0-1l0,0a10.49,10.49,0,0,0-14.79,1A11.35,11.35,0,0,0,5.91,9.75L9.47,11.8A6.4,6.4,0,0,1,15,8.61Z"/><path id="Path_7009" data-name="Path 7009" class="cls-6" d="M19.06,10.06A.68.68,0,0,0,20,10l1.93-1.94a.68.68,0,0,0,0-1l0,0A10.48,10.48,0,0,0,15,4.5V8.61A6.33,6.33,0,0,1,19.06,10.06Z"/></svg>