<?xml version="1.0" encoding="utf-8"?>
<!-- Generator: Adobe Illustrator 19.0.0, SVG Export Plug-In . SVG Version: 6.00 Build 0)  -->
<svg version="1.1" id="_015---Cream-Pot" xmlns="http://www.w3.org/2000/svg" xmlns:xlink="http://www.w3.org/1999/xlink" x="0px"
	 y="0px" viewBox="-225.7 94.8 13.4 12.4" style="enable-background:new -225.7 94.8 13.4 12.4;" xml:space="preserve">
<style type="text/css">
	.st0{fill:#FFFFFF;}
</style>
<g id="comment">
	<path id="Path_7244" d="M-225.1,95.5l-0.4,5l0.4,3.2l1.6,0.3l-0.2,2.4l3.7-2.3l6.5-0.3l0.7-0.9v-6.2l-0.7-1.1l-2.4-0.3l-8.1,0.3
		H-225.1z"/>
	<path id="Path_3" d="M-214.1,94.8h-9.8c-1,0-1.9,0.8-1.9,1.9v6c0,1,0.8,1.8,1.8,1.8l0,0v2.7l3.9-2.7h5.9c1,0,1.8-0.8,1.8-1.8
		c0,0,0,0,0,0v-6C-212.3,95.6-213.1,94.8-214.1,94.8z M-213.1,102.6c0,0.6-0.5,1.1-1.1,1.1h-6.1l-2.9,2v-2h-0.8
		c-0.6,0-1.1-0.5-1.1-1.1v-6c0-0.6,0.5-1.1,1.1-1.1h9.8c0.6,0,1.1,0.5,1.1,1.1c0,0,0,0,0,0V102.6z"/>
	<path id="Path_4" class="st0" d="M-222.1,97.6h6.3v0.8h-6.3V97.6z"/>
	<path id="Path_5" class="st0" d="M-222.1,99.3h6.3v0.8h-6.3V99.3z"/>
	<path id="Path_6" class="st0" d="M-222.1,101h6.3v0.8h-6.3V101z"/>
</g>
</svg>
