<svg id="_015---Cream-Pot" data-name=" 015---Cream-Pot" xmlns="http://www.w3.org/2000/svg" viewBox="0 0 30 30"><defs><style>.cls-1{fill:#fff;}.cls-2{fill:none;stroke:#ededed;}.cls-3,.cls-4{isolation:isolate;}.cls-4{font-size:6.66px;font-family:Muli-Regular, Muli;}.cls-5{fill:#ffc107;}</style></defs><g id="Group_2865" data-name="Group 2865"><g id="Rectangle_396" data-name="Rectangle 396"><rect class="cls-1" x="2.13" y="5.24" width="25.74" height="19.52" rx="7.99"/><rect class="cls-2" x="2.35" y="5.46" width="25.29" height="19.08" rx="7.77"/></g><g id="_3" data-name=" 3" class="cls-3"><text class="cls-4" transform="translate(18.11 16.78)">3</text></g><path id="star" class="cls-5" d="M15.64,13.06l-2.84-.43L11.53,9.92a.3.3,0,0,0-.41-.12.34.34,0,0,0-.12.12L9.73,12.63l-2.84.43a.3.3,0,0,0-.24.33.3.3,0,0,0,.08.16l2.06,2.12-.48,3a.28.28,0,0,0,.23.33.31.31,0,0,0,.19,0l2.54-1.4L13.81,19a.29.29,0,0,0,.39-.12.28.28,0,0,0,0-.18l-.49-3,2.07-2.12a.29.29,0,0,0,0-.41.3.3,0,0,0-.16-.08Z"/></g></svg>