<svg id="_015---Cream-Pot" data-name=" 015---Cream-Pot" xmlns="http://www.w3.org/2000/svg" viewBox="0 0 30 30"><defs><style>.cls-1{fill:#ffcb74;}.cls-2{fill:#da922a;}.cls-3{fill:#fbb540;}.cls-4{fill:#ea9d2d;}</style></defs><path id="Path_6816" data-name="Path 6816" class="cls-1" d="M9.23,24.69H3.46l.82-2.48.83-.41H7.58l.41.41,1.24.42Z"/><path id="Path_6817" data-name="Path 6817" class="cls-2" d="M20.77,20.56,15,24.69l-1.65-2.06.41-.42,5.78-4.12Z"/><path id="Path_6818" data-name="Path 6818" class="cls-3" d="M10.05,18.09,4.28,22.21H8l5.77-4.12Z"/><path id="Path_6819" data-name="Path 6819" class="cls-3" d="M21.6,18.09l-5.77,4.12.41.42h2.89l.41-.42,5.77-4.12Z"/><path id="Path_6820" data-name="Path 6820" class="cls-2" d="M15,20.56,9.23,24.69,8,22.21l5.77-4.12Z"/><path id="Path_6821" data-name="Path 6821" class="cls-1" d="M15,24.69H9.23l.82-2.48.83-.41h2.47l.41.41Z"/><path id="Path_6822" data-name="Path 6822" class="cls-4" d="M26.54,20.56l-5.77,4.13-1.65-2.06.41-.42,5.78-4.12Z"/><path id="Path_6823" data-name="Path 6823" class="cls-3" d="M15.83,18.09l-5.78,4.12h3.71l5.78-4.12Z"/><path id="Path_6824" data-name="Path 6824" class="cls-1" d="M20.77,24.69H15l.83-2.48h3.71Z"/><path id="Path_6825" data-name="Path 6825" class="cls-4" d="M24.07,16.85,18.3,21l-1.65-2.06.41-.42,5.77-4.12Z"/><path id="Path_6826" data-name="Path 6826" class="cls-3" d="M13.35,14.38,7.58,18.5l.82.42h2.48l.41-.42,5.77-4.12Z"/><path id="Path_6827" data-name="Path 6827" class="cls-2" d="M18.3,16.85,12.53,21l-1.65-2.06.41-.42,5.77-4.12Z"/><g id="Group_2268" data-name="Group 2268"><path id="Path_6828" data-name="Path 6828" class="cls-3" d="M13.52,6.47l-.58-1.16-.57,1.16a1.66,1.66,0,0,1-.74.74l-1.16.57,1.15.58a1.66,1.66,0,0,1,.74.74l.58,1.16.57-1.16a1.66,1.66,0,0,1,.74-.74l1.16-.58-1.15-.57A1.56,1.56,0,0,1,13.52,6.47Z"/><path id="Path_6829" data-name="Path 6829" class="cls-3" d="M25,9.57l-.49-1-.48,1a1.41,1.41,0,0,1-.61.62l-1,.48,1,.48a1.38,1.38,0,0,1,.61.61l.48,1,.48-1a1.41,1.41,0,0,1,.62-.61l1-.48-1-.48A1.36,1.36,0,0,1,25,9.57Z"/><path id="Path_6830" data-name="Path 6830" class="cls-3" d="M6.41,13.7l-.48-1-.48,1a1.41,1.41,0,0,1-.62.61l-1,.48,1,.48a1.43,1.43,0,0,1,.62.62l.48,1,.48-1A1.38,1.38,0,0,1,7,15.27l1-.48-1-.48A1.36,1.36,0,0,1,6.41,13.7Z"/><path id="Path_6831" data-name="Path 6831" class="cls-3" d="M19.12,14.38,13.35,18.5l.41.42h2.89l.41-.42,5.77-4.12Z"/><path id="Path_6832" data-name="Path 6832" class="cls-3" d="M15.82,11.08,10.05,15.2l.83.42h2.06l.82-.42,5.78-4.12Z"/></g><path id="Path_6833" data-name="Path 6833" class="cls-4" d="M20.77,13.56,15,17.68l-1.65-2.06.41-.42,5.78-4.12Z"/><path id="Path_6834" data-name="Path 6834" class="cls-1" d="M18.3,21H12.53l.82-2.48h3.71Z"/><path id="Path_6835" data-name="Path 6835" class="cls-1" d="M12.53,21H6.75l.83-2.48h3.71Z"/><path id="Path_6836" data-name="Path 6836" class="cls-1" d="M15,17.68H9.23l.82-2.48h3.71Z"/></svg>