<svg id="_015---Cream-Pot" data-name=" 015---Cream-Pot" xmlns="http://www.w3.org/2000/svg" viewBox="0 0 30 30"><defs><style>.cls-1{fill:#707070;}</style></defs><g id="edit"><path id="Path_7169" data-name="Path 7169" class="cls-1" d="M24,17.05a.5.5,0,0,0-.5.5V22a1.5,1.5,0,0,1-1.5,1.5H8A1.5,1.5,0,0,1,6.47,22V9A1.5,1.5,0,0,1,8,7.46H12.4a.5.5,0,0,0,.5-.5.5.5,0,0,0-.5-.5H8A2.5,2.5,0,0,0,5.47,9V22A2.5,2.5,0,0,0,8,24.48H22a2.51,2.51,0,0,0,2.5-2.5V17.55a.5.5,0,0,0-.5-.5Z"/><path id="Path_7170" data-name="Path 7170" class="cls-1" d="M13.28,14.42l7.3-7.3,2.35,2.35-7.3,7.3Z"/><path id="Path_7171" data-name="Path 7171" class="cls-1" d="M12.09,18l2.6-.72-1.88-1.88Z"/><path id="Path_7172" data-name="Path 7172" class="cls-1" d="M23.58,5.88a1.27,1.27,0,0,0-1.77,0l-.53.53,2.36,2.36.53-.53a1.25,1.25,0,0,0,0-1.77Z"/></g></svg>