<svg id="_015---Cream-Pot" data-name=" 015---Cream-Pot" xmlns="http://www.w3.org/2000/svg" viewBox="0 0 30 30"><defs><style>.cls-1{fill:#d93174;}</style></defs><path id="Path_6952" data-name="Path 6952" class="cls-1" d="M16.81,15A1.81,1.81,0,1,1,15,13.19,1.81,1.81,0,0,1,16.81,15Z"/><path id="Path_6953" data-name="Path 6953" class="cls-1" d="M19.23,11.8a1.75,1.75,0,0,0-1-1,2.87,2.87,0,0,0-1-.19c-.57,0-.74,0-2.19,0s-1.62,0-2.19,0a2.87,2.87,0,0,0-1,.19,1.75,1.75,0,0,0-1,1,2.87,2.87,0,0,0-.19,1c0,.57,0,.74,0,2.19s0,1.62,0,2.19a2.87,2.87,0,0,0,.19,1,1.75,1.75,0,0,0,1,1,2.87,2.87,0,0,0,1,.19c.57,0,.74,0,2.19,0s1.62,0,2.19,0a2.87,2.87,0,0,0,1-.19,1.75,1.75,0,0,0,1-1,2.87,2.87,0,0,0,.19-1c0-.57,0-.74,0-2.19s0-1.62,0-2.19A2.87,2.87,0,0,0,19.23,11.8Zm-4.23,6A2.79,2.79,0,1,1,17.79,15h0A2.79,2.79,0,0,1,15,17.79Zm2.9-5a.65.65,0,1,1,.65-.65.65.65,0,0,1-.65.65Z"/><path id="Path_6954" data-name="Path 6954" class="cls-1" d="M15,5.55A9.45,9.45,0,1,0,24.45,15h0A9.45,9.45,0,0,0,15,5.55Zm5.4,11.69a4,4,0,0,1-.26,1.32,2.79,2.79,0,0,1-1.58,1.58,3.77,3.77,0,0,1-1.32.25c-.58,0-.77,0-2.24,0s-1.66,0-2.24,0a3.77,3.77,0,0,1-1.32-.25,2.79,2.79,0,0,1-1.58-1.58,3.77,3.77,0,0,1-.25-1.32c0-.58,0-.77,0-2.24s0-1.66,0-2.24a4,4,0,0,1,.25-1.32,2.76,2.76,0,0,1,1.58-1.58,3.77,3.77,0,0,1,1.32-.25c.58,0,.77,0,2.24,0s1.66,0,2.24,0a3.77,3.77,0,0,1,1.32.25,2.75,2.75,0,0,1,1.58,1.59,3.92,3.92,0,0,1,.26,1.31c0,.58,0,.77,0,2.24S20.42,16.66,20.4,17.24Z"/></svg>