<?xml version="1.0" encoding="utf-8"?>
<!-- Generator: Adobe Illustrator 19.0.0, SVG Export Plug-In . SVG Version: 6.00 Build 0)  -->
<svg version="1.1" id="_015---Cream-Pot" xmlns="http://www.w3.org/2000/svg" xmlns:xlink="http://www.w3.org/1999/xlink" x="0px"
	 y="0px" viewBox="-229.2 90.8 20 20" style="enable-background:new -229.2 90.8 20 20;" xml:space="preserve">
<style type="text/css">
	.st0{fill:#3CBE55;}
</style>
<g id="Group_2575">
	<path id="Path_6439" class="st0" d="M-224.6,94.9v9l1.6-0.7l1.5,0.4l0.5,1l0.4,0.4h4.4l0.9-1.2l1.3-0.3l1,0.6l0.8,0.9h1.9v-4.3
		l-0.7-1.2h-5.2V97l-0.3-2L-224.6,94.9z"/>
	<g id="delivery">
		<g id="Group_1616">
			<g id="Group_1615">
				<path id="Path_6251" class="st0" d="M-214.1,102.8c-1.4,0-2.5,1.1-2.5,2.4c0,1.4,1.1,2.5,2.5,2.5c1.4,0,2.4-1.1,2.4-2.5l0,0
					C-211.6,103.9-212.7,102.8-214.1,102.8z M-214.1,106.5c-0.7,0-1.2-0.6-1.2-1.2c0-0.7,0.6-1.2,1.2-1.2c0.7,0,1.2,0.6,1.2,1.2
					C-212.8,105.9-213.4,106.5-214.1,106.5C-214.1,106.5-214.1,106.5-214.1,106.5z"/>
			</g>
		</g>
		<g id="Group_1618">
			<g id="Group_1617">
				<path id="Path_6252" class="st0" d="M-222.3,102.8c-1.4,0-2.5,1.1-2.5,2.4c0,1.4,1.1,2.5,2.4,2.5c1.4,0,2.5-1.1,2.5-2.4l0,0
					C-219.9,103.9-221,102.8-222.3,102.8C-222.3,102.8-222.3,102.8-222.3,102.8z M-222.3,106.5c-0.7,0.1-1.3-0.4-1.3-1.1
					c-0.1-0.7,0.4-1.3,1.1-1.3c0.7-0.1,1.3,0.4,1.3,1.1c0,0,0,0.1,0,0.1C-221.2,105.9-221.7,106.4-222.3,106.5z"/>
			</g>
		</g>
		<g id="Group_1620">
			<g id="Group_1619">
				<path id="Path_6253" class="st0" d="M-212.4,95.8c-0.1-0.2-0.3-0.4-0.6-0.3h-3.2v1.2h2.8l1.7,3.3l1.1-0.6L-212.4,95.8z"/>
			</g>
		</g>
		<g id="Group_1622">
			<g id="Group_1621">
				<rect id="Rectangle_190" x="-220.5" y="104.7" class="st0" width="4.6" height="1.2"/>
			</g>
		</g>
		<g id="Group_1624">
			<g id="Group_1623">
				<path id="Path_6254" class="st0" d="M-224.2,104.7h-2.1c-0.3,0-0.6,0.3-0.6,0.6c0,0.3,0.3,0.6,0.6,0.6h2.1
					c0.3,0,0.6-0.3,0.6-0.6C-223.6,104.9-223.9,104.7-224.2,104.7z"/>
			</g>
		</g>
		<g id="Group_1626">
			<g id="Group_1625">
				<path id="Path_6255" class="st0" d="M-209.4,101l-1.2-1.5c-0.1-0.1-0.3-0.2-0.5-0.2h-4.4v-4.3c0-0.3-0.3-0.6-0.6-0.6h-10.2
					c-0.3,0-0.6,0.4-0.5,0.7c0,0.3,0.3,0.5,0.5,0.5h9.6v4.3c0,0.3,0.3,0.6,0.6,0.6c0,0,0,0,0,0h4.8l0.9,1.1v3.2h-1.7
					c-0.3,0-0.6,0.3-0.6,0.6c0,0.3,0.3,0.6,0.6,0.6c0,0,0,0,0,0h2.3c0.3,0,0.6-0.3,0.6-0.6c0,0,0,0,0,0l0,0v-4
					C-209.3,101.2-209.4,101.1-209.4,101z"/>
			</g>
		</g>
		<g id="Group_1628">
			<g id="Group_1627">
				<path id="Path_6256" class="st0" d="M-224.3,101.6h-2.8c-0.3,0-0.6,0.2-0.7,0.5c0,0.3,0.2,0.6,0.5,0.7l0,0c0.1,0,0.1,0,0.2,0
					h2.8c0.3,0,0.6-0.2,0.7-0.5c0-0.3-0.2-0.6-0.5-0.7H-224.3z"/>
			</g>
		</g>
		<g id="Group_1630">
			<g id="Group_1629">
				<path id="Path_6257" class="st0" d="M-222.9,99.2h-5.2c-0.3,0-0.6,0.3-0.6,0.6c0,0.3,0.3,0.6,0.6,0.6c0,0,0,0,0,0h5.2
					c0.3,0,0.6-0.3,0.6-0.6l0,0l0,0C-222.3,99.5-222.5,99.2-222.9,99.2z"/>
			</g>
		</g>
		<g id="Group_1632">
			<g id="Group_1631">
				<path id="Path_6258" class="st0" d="M-221.9,96.8h-5.2c-0.3,0-0.6,0.2-0.7,0.5c0,0.3,0.2,0.6,0.5,0.7h5.4c0.3,0,0.6-0.2,0.7-0.5
					c0-0.3-0.2-0.6-0.5-0.7H-221.9z"/>
			</g>
		</g>
	</g>
</g>
</svg>
