<svg id="_015---Cream-Pot" data-name=" 015---Cream-Pot" xmlns="http://www.w3.org/2000/svg" viewBox="0 0 30 30"><defs><style>.cls-1{fill:#5e69e2;}.cls-2{fill:#006ac1;}.cls-3{fill:#6ba7ff;}.cls-4{fill:#f2f2fc;}.cls-5{fill:#00e4ef;}.cls-6{fill:#ffdf40;}.cls-7{fill:#ace233;}.cls-8{fill:#65cc3a;}.cls-9{fill:#d6d6f2;}</style></defs><path class="cls-1" d="M19.38,7.26H8.62A1.36,1.36,0,0,0,7.26,8.62V16a1.36,1.36,0,0,0,1.36,1.36H19.38A1.36,1.36,0,0,0,20.74,16V8.62A1.36,1.36,0,0,0,19.38,7.26Z"/><path class="cls-2" d="M20.74,8.62V16a1.36,1.36,0,0,1-1.36,1.36H16V7.26h3.38A1.36,1.36,0,0,1,20.74,8.62Z"/><path class="cls-3" d="M9.26,12.34v5.59a1.36,1.36,0,0,0,1.36,1.36H21.38a1.36,1.36,0,0,0,1.36-1.36V12.34Z"/><path class="cls-1" d="M22.74,12.34v5.59a1.36,1.36,0,0,1-1.36,1.36H16V12.34Z"/><path class="cls-4" d="M12.61,17.39h-1a.47.47,0,0,1-.46-.46.46.46,0,0,1,.46-.45h1a.46.46,0,0,1,.46.45A.47.47,0,0,1,12.61,17.39Z"/><path class="cls-4" d="M15.51,17.39h-1a.47.47,0,0,1-.46-.46.46.46,0,0,1,.46-.45h1a.46.46,0,0,1,.46.45A.47.47,0,0,1,15.51,17.39Z"/><path class="cls-5" d="M22.74,10.59v1.75H9.26V10.59a1.36,1.36,0,0,1,1.36-1.36H21.38A1.36,1.36,0,0,1,22.74,10.59Z"/><path class="cls-3" d="M22.74,10.59v1.75H16V9.23h5.38A1.36,1.36,0,0,1,22.74,10.59Z"/><path class="cls-6" d="M15,13.76H11.62a.46.46,0,0,1-.46-.45V11.37a.46.46,0,0,1,.46-.45H15a.45.45,0,0,1,.45.45v1.94A.45.45,0,0,1,15,13.76Z"/><path class="cls-7" d="M22.28,14.82h0a4.76,4.76,0,0,1-3-1.1.48.48,0,0,0-.29-.11.44.44,0,0,0-.29.11,4.8,4.8,0,0,1-3,1.1h-.05a.45.45,0,0,0-.45.45V17.8a5.12,5.12,0,0,0,3.71,4.92l.13,0,.12,0a5.14,5.14,0,0,0,3.72-4.92V15.27A.46.46,0,0,0,22.28,14.82Z"/><path class="cls-8" d="M22.74,15.27V17.8A5.14,5.14,0,0,1,19,22.72l-.12,0V13.61a.48.48,0,0,1,.29.11,4.76,4.76,0,0,0,3,1.1h0a.46.46,0,0,1,.46.45Z"/><path class="cls-4" d="M21.09,17.38l-1.87,1.87a.45.45,0,0,1-.32.13.44.44,0,0,1-.32-.13l-1-1a.45.45,0,0,1,.64-.64l.65.65,1.55-1.56a.47.47,0,0,1,.64,0,.46.46,0,0,1,0,.65Z"/><path class="cls-9" d="M21.09,17.38l-1.87,1.87a.45.45,0,0,1-.32.13V18.29l1.55-1.56a.47.47,0,0,1,.64,0,.46.46,0,0,1,0,.65Z"/></svg>