<?xml version="1.0" encoding="utf-8"?>
<!-- Generator: Adobe Illustrator 19.0.0, SVG Export Plug-In . SVG Version: 6.00 Build 0)  -->
<svg version="1.1" id="_015---Cream-Pot" xmlns="http://www.w3.org/2000/svg" xmlns:xlink="http://www.w3.org/1999/xlink" x="0px"
	 y="0px" viewBox="-228.5 91.5 19 19" style="enable-background:new -228.5 91.5 19 19;" xml:space="preserve">
<style type="text/css">
	.st0{fill:#463C4B;}
	.st1{fill:#32283C;}
	.st2{fill:#218639;}
	.st3{fill:#3CBE55;}
	.st4{fill:#E6E6EB;}
</style>
<g id="ICON16">
	<g id="Group_2047">
		<path id="Path_6587" class="st0" d="M-224.2,100.1c-0.3,0-0.6-0.3-0.6-0.6l0,0c0-0.1,0-0.2,0-0.2l2.2-5.1c0.1-0.3,0.5-0.5,0.8-0.3
			c0.3,0.1,0.4,0.5,0.3,0.8l0,0l-2.2,5.1C-223.8,100-224,100.1-224.2,100.1z"/>
	</g>
	<g id="Group_2048">
		<path id="Path_6588" class="st0" d="M-218,100.1c-0.2,0-0.5-0.1-0.6-0.4l-2.2-5.1c-0.1-0.3,0.1-0.7,0.4-0.8c0.3-0.1,0.6,0,0.7,0.2
			l0,0l2.2,5.2c0.1,0.3,0,0.6-0.3,0.8C-217.9,100.1-217.9,100.1-218,100.1L-218,100.1z"/>
	</g>
	<g id="Group_2032">
		<path id="Path_6575" class="st1" d="M-213.8,100.1c-0.2,0-0.5-0.1-0.6-0.4l-2-4.8h-5.6c-0.3,0-0.6-0.2-0.7-0.5
			c0-0.3,0.2-0.6,0.5-0.7c0,0,0.1,0,0.1,0h6c0.2,0,0.5,0.1,0.6,0.4l2.2,5.1c0.1,0.3,0,0.6-0.3,0.8
			C-213.6,100.1-213.7,100.1-213.8,100.1L-213.8,100.1z"/>
	</g>
	<g id="Group_2033">
		<path id="Path_6576" class="st2" d="M-227.1,100.4l1.4,6.8c0.1,0.6,0.6,1,1.2,1h11c0.6,0,1.1-0.4,1.2-1l1.4-6.8H-227.1z"/>
	</g>
	<g id="Group_2034">
		<path id="Path_6577" class="st3" d="M-227.1,100.4l1.4,6.8c0.1,0.6,0.6,1,1.2,1h6.9c0.6,0,1.1-0.4,1.2-1l1.4-6.8H-227.1z"/>
	</g>
	<g id="Group_2035">
		<path id="Path_6578" class="st2" d="M-210.3,100.4h-17.4c-0.2,0-0.3-0.1-0.3-0.3c0,0,0,0,0,0h0v-1.2c0-0.2,0.1-0.3,0.3-0.3h17.4
			c0.2,0,0.3,0.1,0.3,0.3c0,0,0,0,0,0l0,0v1.2C-210,100.3-210.1,100.4-210.3,100.4C-210.3,100.4-210.3,100.4-210.3,100.4
			L-210.3,100.4z"/>
	</g>
	<g id="Group_2036">
		<path id="Path_6579" class="st2" d="M-215.4,101.6l0.2-1.2h-12l0.3,1.2H-215.4z"/>
	</g>
	<g id="Group_2037">
		<path id="Path_6580" class="st3" d="M-214.5,100.4h-13.2c-0.2,0-0.3-0.1-0.3-0.3c0,0,0,0,0,0h0v-1.2c0-0.2,0.1-0.3,0.3-0.3h13.2
			c0.2,0,0.3,0.1,0.3,0.3v1.2C-214.2,100.3-214.3,100.4-214.5,100.4C-214.5,100.4-214.5,100.4-214.5,100.4z"/>
	</g>
	<g id="Group_2046">
		<g id="Group_2041">
			<g id="Group_2038">
				<path id="Path_6581" class="st4" d="M-218.4,103.4h-0.6c-0.2,0-0.3-0.1-0.3-0.3c0,0,0,0,0,0l0,0v-1.2c0-0.2,0.1-0.3,0.3-0.3
					c0,0,0,0,0,0h0.6c0.2,0,0.3,0.1,0.3,0.3c0,0,0,0,0,0l0,0v1.2C-218.1,103.3-218.2,103.4-218.4,103.4
					C-218.4,103.4-218.4,103.4-218.4,103.4z"/>
			</g>
			<g id="Group_2039">
				<path id="Path_6582" class="st4" d="M-220.8,103.4h-0.6c-0.2,0-0.3-0.1-0.3-0.3c0,0,0,0,0,0l0,0v-1.2c0-0.2,0.1-0.3,0.3-0.3
					c0,0,0,0,0,0h0.6c0.2,0,0.3,0.1,0.3,0.3c0,0,0,0,0,0l0,0v1.2C-220.5,103.3-220.6,103.4-220.8,103.4
					C-220.8,103.4-220.8,103.4-220.8,103.4z"/>
			</g>
			<g id="Group_2040">
				<path id="Path_6583" class="st4" d="M-223.2,103.4h-0.6c-0.2,0-0.3-0.1-0.3-0.3c0,0,0,0,0,0l0,0v-1.2c0-0.2,0.1-0.3,0.3-0.3
					c0,0,0,0,0,0h0.6c0.2,0,0.3,0.1,0.3,0.3c0,0,0,0,0,0v1.2C-222.9,103.3-223,103.4-223.2,103.4
					C-223.2,103.4-223.2,103.4-223.2,103.4z"/>
			</g>
		</g>
		<g id="Group_2045">
			<g id="Group_2042">
				<path id="Path_6584" class="st4" d="M-218.4,106.4h-0.6c-0.2,0-0.3-0.1-0.3-0.3l0,0v-1.2c0-0.2,0.1-0.3,0.3-0.3h0.6
					c0.2,0,0.3,0.1,0.3,0.3v1.2C-218.1,106.3-218.2,106.4-218.4,106.4z"/>
			</g>
			<g id="Group_2043">
				<path id="Path_6585" class="st4" d="M-220.8,106.4h-0.6c-0.2,0-0.3-0.1-0.3-0.3c0,0,0,0,0,0l0,0v-1.2c0-0.2,0.1-0.3,0.3-0.3
					c0,0,0,0,0,0h0.6c0.2,0,0.3,0.1,0.3,0.3v1.2C-220.5,106.3-220.6,106.4-220.8,106.4z"/>
			</g>
			<g id="Group_2044">
				<path id="Path_6586" class="st4" d="M-223.2,106.4h-0.6c-0.2,0-0.3-0.1-0.3-0.3c0,0,0,0,0,0l0,0v-1.2c0-0.2,0.1-0.3,0.3-0.3
					c0,0,0,0,0,0h0.6c0.2,0,0.3,0.1,0.3,0.3v1.2C-222.9,106.3-223,106.4-223.2,106.4z"/>
			</g>
		</g>
	</g>
</g>
</svg>
