<?xml version="1.0" encoding="utf-8"?>
<!-- Generator: Adobe Illustrator 19.0.0, SVG Export Plug-In . SVG Version: 6.00 Build 0)  -->
<svg version="1.1" id="_015---Cream-Pot" xmlns="http://www.w3.org/2000/svg" xmlns:xlink="http://www.w3.org/1999/xlink" x="0px"
	 y="0px" viewBox="-230.5 90.3 22.8 21.2" style="enable-background:new -230.5 90.3 22.8 21.2;" xml:space="preserve">
<style type="text/css">
	.st0{fill:none;stroke:#707070;}
</style>
<g id="like">
	<g id="Group_2218">
		<g id="Group_2217">
			<path id="Path_6783" class="st0" d="M-227,101c-1.4,0-2.5,0.8-2.5,1.9v6c0,1,1.1,1.9,2.5,1.9h3c0.5,0,1-0.1,1.5-0.4V101H-227z"/>
		</g>
	</g>
	<g id="Group_2220">
		<g id="Group_2219">
			<path id="Path_6784" class="st0" d="M-208.4,103.4c0-0.5-0.2-1-0.6-1.4c0.4-0.5,0.6-1.1,0.6-1.7c-0.1-1.2-1.1-2-2.3-2h-5.5
				c0.4-1.1,0.6-2.3,0.7-3.5c0-1.9-1.6-3.5-2.6-3.5c-0.6,0-1.1,0.2-1.6,0.5c-0.1,0.1-0.2,0.2-0.2,0.3v3l-2.5,5.5l-0.1,0.1v9.4
				c0.7,0.3,1.4,0.5,2.2,0.5h8.1c1.1,0,2-0.9,2-2c0-0.3-0.1-0.6-0.2-0.9c1-0.5,1.3-1.7,0.9-2.6
				C-208.9,104.8-208.5,104.2-208.4,103.4z"/>
		</g>
	</g>
</g>
</svg>
