<svg id="_015---Cream-Pot" data-name=" 015---Cream-Pot" xmlns="http://www.w3.org/2000/svg" viewBox="0 0 30 30"><defs><style>.cls-1{fill:#707070;}</style></defs><g id="settings"><path id="Path_36" data-name="Path 36" class="cls-1" d="M15.68,25.81H14.32a2,2,0,0,1-2-2v-.45A9.5,9.5,0,0,1,11,22.8l-.33.32a2,2,0,0,1-2.81,0h0l-1-1a2,2,0,0,1,0-2.81h0L7.2,19a9.48,9.48,0,0,1-.56-1.36H6.18a2,2,0,0,1-2-2V14.33a2,2,0,0,1,2-2h.46A8.57,8.57,0,0,1,7.2,11l-.32-.33a2,2,0,0,1,0-2.81h0l1-1a2,2,0,0,1,2.81,0h0l.31.34a7.54,7.54,0,0,1,1.35-.56V6.19a2,2,0,0,1,2-2h1.36a2,2,0,0,1,2,2v.46A7.74,7.74,0,0,1,19,7.21l.33-.33a2,2,0,0,1,2.81,0h0l1,1a2,2,0,0,1,0,2.81h0L22.8,11a8.92,8.92,0,0,1,.56,1.35h.46a2,2,0,0,1,2,2v1.36a2,2,0,0,1-2,2h-.46A8.78,8.78,0,0,1,22.8,19l.32.33a2,2,0,0,1,0,2.8h0l-1,1a2,2,0,0,1-2.81,0h0L19,22.8a7.54,7.54,0,0,1-1.35.56v.46A2,2,0,0,1,15.68,25.81Zm-4.49-4.34a7.29,7.29,0,0,0,1.94.8.64.64,0,0,1,.47.61v.95a.71.71,0,0,0,.72.71h1.36a.72.72,0,0,0,.73-.71v-.94a.62.62,0,0,1,.47-.61,7.64,7.64,0,0,0,1.94-.8.62.62,0,0,1,.77.11l.66.66a.74.74,0,0,0,1,0h0l1-1a.72.72,0,0,0,0-1h0l-.66-.67a.64.64,0,0,1-.1-.78,7.79,7.79,0,0,0,.8-1.93.64.64,0,0,1,.61-.48h.94a.72.72,0,0,0,.72-.72V14.33a.73.73,0,0,0-.72-.73h-.93a.62.62,0,0,1-.61-.47,7.67,7.67,0,0,0-.81-1.94.61.61,0,0,1,.1-.76l.66-.66a.74.74,0,0,0,0-1h0l-1-1a.72.72,0,0,0-1,0h0l-.66.67a.67.67,0,0,1-.77.1,7.16,7.16,0,0,0-1.94-.8.65.65,0,0,1-.47-.62V6.19a.73.73,0,0,0-.73-.72H14.32a.72.72,0,0,0-.72.72h0v.93a.65.65,0,0,1-.48.62,6.8,6.8,0,0,0-1.93.8.62.62,0,0,1-.77-.11l-.66-.66a.74.74,0,0,0-1,0h0l-1,1a.72.72,0,0,0,0,1h0l.66.66a.65.65,0,0,1,.1.77,7.29,7.29,0,0,0-.8,1.94.63.63,0,0,1-.61.48h-1a.73.73,0,0,0-.72.73h0v1.36a.72.72,0,0,0,.72.72h.94a.61.61,0,0,1,.61.46,7.22,7.22,0,0,0,.8,1.95.65.65,0,0,1-.1.77l-.66.66a.72.72,0,0,0,0,1h0l1,1a.74.74,0,0,0,1,0h0l.66-.67a.64.64,0,0,1,.77-.1Z"/><path id="Path_37" data-name="Path 37" class="cls-1" d="M15,19.71A4.7,4.7,0,1,1,19.7,15h0A4.72,4.72,0,0,1,15,19.71Zm0-8.14A3.44,3.44,0,1,0,18.43,15h0A3.43,3.43,0,0,0,15,11.57Z"/></g></svg>