<svg id="_015---Cream-Pot" data-name=" 015---Cream-Pot" xmlns="http://www.w3.org/2000/svg" viewBox="0 0 30 30"><defs><style>.cls-1{fill:#3cbe55;}</style></defs><g id="Group_2472" data-name="Group 2472"><path id="Path_7084" data-name="Path 7084" class="cls-1" d="M10.57,13.73l.16-1.87a1.49,1.49,0,0,1,1.5-1.46,1.34,1.34,0,0,1,.35,0,1.48,1.48,0,0,1,1.59,1.37,1.3,1.3,0,0,1,0,.34L14,14a1.5,1.5,0,0,1-1.51,1.46,2.11,2.11,0,0,1-.35-.05,1.48,1.48,0,0,1-1.58-1.36A1.45,1.45,0,0,1,10.57,13.73Zm2.68-1.65a.69.69,0,0,0-.56-.81.55.55,0,0,0-.18,0,.68.68,0,0,0-.83.49.62.62,0,0,0,0,.19l-.16,1.88a.67.67,0,0,0,.53.8.62.62,0,0,0,.19,0,.69.69,0,0,0,.84-.5.55.55,0,0,0,0-.18Zm5-1.15a.46.46,0,0,1-.05.2L12.71,20a.48.48,0,0,1-.46.2.49.49,0,0,1-.45-.51.34.34,0,0,1,.07-.19l5.47-8.91a.41.41,0,0,1,.4-.2A.51.51,0,0,1,18.23,10.93ZM15.8,18.54,16,16.66a1.48,1.48,0,0,1,1.5-1.46,2.27,2.27,0,0,1,.35.05,1.49,1.49,0,0,1,1.59,1.37,1.94,1.94,0,0,1,0,.34l-.16,1.88a1.49,1.49,0,0,1-1.51,1.46,1.27,1.27,0,0,1-.34-.05,1.47,1.47,0,0,1-1.59-1.36,1.38,1.38,0,0,1,0-.35Zm2.68-1.66a.7.7,0,0,0-.56-.81h-.18a.69.69,0,0,0-.83.5,1.1,1.1,0,0,0,0,.18l-.16,1.88a.68.68,0,0,0,.53.81h.19a.68.68,0,0,0,.84-.5.37.37,0,0,0,0-.18Z"/><g id="Group_2471" data-name="Group 2471"><g id="Group_2470" data-name="Group 2470"><path id="Path_7089" data-name="Path 7089" class="cls-1" d="M24.51,13.41c-.33-.24-.74-.55-.8-.75A2.46,2.46,0,0,1,24,11.57c.3-.67.6-1.36.26-1.94S23.2,9,22.47,8.88a2.47,2.47,0,0,1-1.1-.26,2.73,2.73,0,0,1-.26-1.09C21,6.8,21,6,20.36,5.7s-1.26,0-1.93.26a2.9,2.9,0,0,1-1.1.32c-.2,0-.5-.46-.75-.8-.42-.56-.89-1.21-1.58-1.21s-1.17.65-1.59,1.22c-.24.33-.55.74-.83.8a3.05,3.05,0,0,1-1-.33A2.38,2.38,0,0,0,9.63,5.7C9,6,9,6.8,8.88,7.53a2.57,2.57,0,0,1-.26,1.09,2.43,2.43,0,0,1-1.09.26C6.79,9,6,9.05,5.7,9.63s0,1.27.26,1.94a2.46,2.46,0,0,1,.32,1.1c0,.2-.47.5-.8.75-.57.42-1.22.9-1.22,1.58s.65,1.17,1.22,1.59c.33.24.75.55.8.75A2.46,2.46,0,0,1,6,18.43c-.29.67-.59,1.36-.26,1.94s1.1.67,1.83.75a2.43,2.43,0,0,1,1.09.26,2.43,2.43,0,0,1,.26,1.09c.08.73.17,1.49.75,1.82s1.26,0,1.94-.26a3.18,3.18,0,0,1,1.1-.32c.2.06.5.47.75.8.42.57.9,1.22,1.58,1.22s1.17-.65,1.59-1.22c.24-.33.55-.74.83-.8a2.93,2.93,0,0,1,1,.33,2.41,2.41,0,0,0,1.94.26c.58-.34.67-1.1.75-1.83a2.43,2.43,0,0,1,.26-1.09,2.43,2.43,0,0,1,1.09-.26C23.2,21,24,21,24.3,20.37s0-1.27-.26-1.94a2.46,2.46,0,0,1-.32-1.09c.05-.2.47-.51.8-.75.57-.42,1.22-.9,1.22-1.59S25.08,13.83,24.51,13.41ZM24,15.83a2.75,2.75,0,0,0-1.15,1.26,2.82,2.82,0,0,0,.37,1.71c.16.37.4.93.31,1.1s-.72.25-1.13.29a2.77,2.77,0,0,0-1.64.53,2.73,2.73,0,0,0-.53,1.65c0,.4-.11,1-.29,1.12l-.1,0a2.89,2.89,0,0,1-1-.33,2.92,2.92,0,0,0-1.71-.36A2.63,2.63,0,0,0,15.84,24c-.25.34-.62.84-.84.84s-.59-.5-.83-.84a2.73,2.73,0,0,0-1.26-1.14,1.24,1.24,0,0,0-.33,0,3.55,3.55,0,0,0-1.38.41,3.19,3.19,0,0,1-1,.32.16.16,0,0,1-.1,0c-.18-.1-.25-.71-.29-1.12a2.8,2.8,0,0,0-.53-1.65,2.8,2.8,0,0,0-1.65-.53c-.4,0-1-.11-1.12-.29s.15-.72.31-1.1a2.75,2.75,0,0,0,.36-1.71,2.61,2.61,0,0,0-1.14-1.25c-.34-.25-.84-.62-.84-.84s.5-.59.84-.84A2.66,2.66,0,0,0,7.18,12.9a2.67,2.67,0,0,0-.37-1.7c-.16-.37-.4-.93-.3-1.1s.71-.25,1.12-.29a2.8,2.8,0,0,0,1.65-.53,2.8,2.8,0,0,0,.53-1.65c0-.41.11-1,.29-1.12a.16.16,0,0,1,.1,0,3,3,0,0,1,1,.33,2.9,2.9,0,0,0,1.71.36A2.63,2.63,0,0,0,14.16,6c.25-.33.62-.84.84-.84s.59.5.84.84A2.59,2.59,0,0,0,17.1,7.18a2.87,2.87,0,0,0,1.7-.36,3,3,0,0,1,1-.33l.1,0c.17.1.24.72.29,1.12a2.73,2.73,0,0,0,.53,1.65,2.75,2.75,0,0,0,1.64.53c.41,0,1,.11,1.12.29s-.14.72-.3,1.1a2.69,2.69,0,0,0-.37,1.71A2.75,2.75,0,0,0,24,14.17c.33.24.84.62.84.83s-.51.59-.84.83Z"/></g></g></g></svg>