<?xml version="1.0" encoding="utf-8"?>
<!-- Generator: Adobe Illustrator 19.0.0, SVG Export Plug-In . SVG Version: 6.00 Build 0)  -->
<svg version="1.1" id="_015---Cream-Pot" xmlns="http://www.w3.org/2000/svg" xmlns:xlink="http://www.w3.org/1999/xlink" x="0px"
	 y="0px" viewBox="-226.3 94 14.2 14" style="enable-background:new -226.3 94 14.2 14;" xml:space="preserve">
<style type="text/css">
	.st0{fill:#707070;}
</style>
<g id="google-place">
	<path id="Path_7231" class="st0" d="M-218.8,94c-2.8-0.1-5.1,2.1-5.2,4.8c0,0,0,0,0,0V99c0,3.2,3.1,5.5,4.8,8.9
		c0.1,0.1,0.2,0.2,0.3,0.1c0,0,0.1-0.1,0.1-0.1c1.6-3,4.2-5,4.7-8c0.5-2.8-1.4-5.4-4.1-5.9c0,0,0,0,0,0C-218.4,94-218.6,94-218.8,94
		z M-219,101.6c-1.5,0-2.6-1.2-2.6-2.6s1.2-2.6,2.6-2.6c1.4,0,2.6,1.2,2.6,2.6l0,0C-216.4,100.5-217.5,101.6-219,101.6
		C-219,101.6-219,101.6-219,101.6z"/>
</g>
</svg>
