<svg id="_015---Cream-Pot" data-name=" 015---Cream-Pot" xmlns="http://www.w3.org/2000/svg" viewBox="0 0 30 30"><defs><style>.cls-1{fill:#0f9f99;}</style></defs><g id="wifi"><g id="Group_2273" data-name="Group 2273"><g id="Group_2272" data-name="Group 2272"><path id="Path_6878" data-name="Path 6878" class="cls-1" d="M24.18,12A11.7,11.7,0,0,0,5.82,12a.67.67,0,0,0,1,.86l0,0a10.36,10.36,0,0,1,14.56-1.72,10,10,0,0,1,1.72,1.72.67.67,0,0,0,.93.13.68.68,0,0,0,.14-.93l0,0Z"/><path id="Path_6879" data-name="Path 6879" class="cls-1" d="M8.86,14.44a.65.65,0,0,0,.15.92.66.66,0,0,0,.89-.1,6.49,6.49,0,0,1,10.2,0,.67.67,0,0,0,1-.83,7.82,7.82,0,0,0-11-1.29A7.93,7.93,0,0,0,8.86,14.44Z"/><path id="Path_6880" data-name="Path 6880" class="cls-1" d="M11.89,16.84a.68.68,0,0,0,.14.93.67.67,0,0,0,.91-.11,2.62,2.62,0,0,1,3.69-.43,2.5,2.5,0,0,1,.43.43.67.67,0,0,0,.94.08.66.66,0,0,0,.1-.9,4,4,0,0,0-5.56-.65A4.44,4.44,0,0,0,11.89,16.84Z"/><circle id="Ellipse_119" data-name="Ellipse 119" class="cls-1" cx="15" cy="20.74" r="1.67"/></g></g></g></svg>