<svg id="_015---Cream-Pot" data-name=" 015---Cream-Pot" xmlns="http://www.w3.org/2000/svg" viewBox="0 0 30 30"><defs><style>.cls-1{fill:#7b727b;}.cls-2{fill:#686169;}.cls-3{fill:#d6faec;}.cls-4{fill:#ccfae8;}.cls-5{fill:#2fd9e7;}.cls-6{fill:#00d0e4;}.cls-7{fill:#f8f7f7;}.cls-8{fill:#ffe589;}.cls-9{fill:#ff6167;}</style></defs><path class="cls-1" d="M16.18,25.44h-9A1.68,1.68,0,0,1,5.5,23.76V6.24A1.68,1.68,0,0,1,7.18,4.56h9a1.68,1.68,0,0,1,1.68,1.68V23.76A1.68,1.68,0,0,1,16.18,25.44Z"/><path class="cls-2" d="M16.18,4.56H14.92A1.68,1.68,0,0,1,16.6,6.24V23.76a1.68,1.68,0,0,1-1.68,1.68h1.26a1.68,1.68,0,0,0,1.68-1.68V6.24A1.68,1.68,0,0,0,16.18,4.56Z"/><path class="cls-3" d="M16.76,6.24V23.76a.58.58,0,0,1-.58.59h-9a.58.58,0,0,1-.58-.59V6.24a.58.58,0,0,1,.58-.59H8.87a.24.24,0,0,1,.22.15l.22.65a.23.23,0,0,0,.22.15h4.31a.23.23,0,0,0,.21-.15l.22-.65a.24.24,0,0,1,.22-.15h1.69A.58.58,0,0,1,16.76,6.24Z"/><path class="cls-4" d="M16.18,5.65H14.92a.58.58,0,0,1,.58.59V23.76a.58.58,0,0,1-.58.59h1.26a.58.58,0,0,0,.58-.59V6.24A.58.58,0,0,0,16.18,5.65Z"/><path class="cls-5" d="M13.32,21.64H10a.89.89,0,0,1,0-1.77h3.28a.89.89,0,0,1,0,1.77Z"/><path class="cls-5" d="M23.67,18H9.19a.83.83,0,0,1-.83-.82V8.72a.83.83,0,0,1,.83-.82H23.67a.83.83,0,0,1,.83.82v8.44a.83.83,0,0,1-.83.82Z"/><path class="cls-6" d="M23.67,7.9H22.41a.83.83,0,0,1,.83.82v8.44a.83.83,0,0,1-.83.82h1.26a.83.83,0,0,0,.83-.82V8.72A.83.83,0,0,0,23.67,7.9Z"/><path class="cls-7" d="M20.24,14h0a.36.36,0,0,0-.33-.22h0a.38.38,0,0,0-.34.22h0l-.91,2.4a.31.31,0,0,0,.17.39l.11,0a.3.3,0,0,0,.29-.2l.15-.4h1.05l.15.4a.3.3,0,0,0,.39.18.3.3,0,0,0,.18-.39Zm-.63,1.6.3-.76.29.76Z"/><path class="cls-7" d="M23,13.86a.31.31,0,0,0-.42.09l-.52.79L21.5,14a.3.3,0,0,0-.42-.09.31.31,0,0,0-.09.42l.73,1.11v1.15a.3.3,0,0,0,.3.31h0a.31.31,0,0,0,.31-.31V15.39l.72-1.1a.32.32,0,0,0-.09-.43Z"/><path class="cls-7" d="M17.86,13.81h-.68a.27.27,0,0,0-.21.09.29.29,0,0,0-.09.21v2.43a.3.3,0,0,0,.3.31.31.31,0,0,0,.31-.31v-.75h.37a1,1,0,1,0,0-2Zm0,1.37h-.37v-.76h.37a.38.38,0,1,1,0,.76Z"/><path class="cls-8" d="M13.11,11.72H10.5a.25.25,0,0,1-.25-.25V9.79a.25.25,0,0,1,.25-.25h2.61a.25.25,0,0,1,.25.25v1.68A.25.25,0,0,1,13.11,11.72Z"/><path class="cls-9" d="M12.06,16.42H8.36V14.24h3.7a1.09,1.09,0,0,1,0,2.18Z"/><path class="cls-7" d="M16.07,10a.31.31,0,0,0-.31.31v.5a.31.31,0,0,0,.31.31.3.3,0,0,0,.3-.31v-.5A.3.3,0,0,0,16.07,10Z"/><path class="cls-7" d="M21.27,10a.31.31,0,0,0-.31.31v.5a.31.31,0,1,0,.61,0v-.5A.31.31,0,0,0,21.27,10Z"/><path class="cls-7" d="M22.39,10a.31.31,0,0,0-.31.31v.5a.31.31,0,0,0,.62,0v-.5A.31.31,0,0,0,22.39,10Z"/><path class="cls-7" d="M17.7,10a.31.31,0,0,0-.31.31v.5a.31.31,0,0,0,.31.31.3.3,0,0,0,.3-.31v-.5A.3.3,0,0,0,17.7,10Z"/><path class="cls-7" d="M18.89,10a.31.31,0,0,0-.31.31v.5a.31.31,0,1,0,.62,0v-.5A.31.31,0,0,0,18.89,10Z"/></svg>