<svg id="_015---Cream-Pot" data-name=" 015---Cream-Pot" xmlns="http://www.w3.org/2000/svg" viewBox="0 0 30 30"><defs><style>.cls-1{fill:#e0e0e2;}.cls-2{fill:#ffda44;}.cls-3{fill:#acabb1;}</style></defs><g id="lamp"><g id="Group_2271" data-name="Group 2271"><path id="Path_6873" data-name="Path 6873" class="cls-1" d="M8,16.35h14.1v1.34H8Z"/><path id="Path_6874" data-name="Path 6874" class="cls-2" d="M21.38,16.35H8.62L11.31,4.93h7.38Z"/><path id="Path_6875" data-name="Path 6875" class="cls-1" d="M20.37,25.08H9.63L10,23.73H20Z"/><path id="Path_6876" data-name="Path 6876" class="cls-3" d="M18.69,23.73H11.31L14,20.37V17.69h2v2.68Z"/><circle id="Ellipse_118" data-name="Ellipse 118" class="cls-2" cx="20.39" cy="20.41" r="1"/></g><path id="Path_6877" data-name="Path 6877" d="M22.05,16h-.4L19,4.85a.34.34,0,0,0-.33-.26H11.31a.34.34,0,0,0-.33.26L8.35,16H8a.34.34,0,0,0-.34.34v1.34A.34.34,0,0,0,8,18h5.71v2.23l-2.51,3.13H10a.34.34,0,0,0-.33.25L9.3,25a.33.33,0,0,0,.24.41l.09,0H20.37a.34.34,0,0,0,.34-.34.22.22,0,0,0,0-.08l-.34-1.34a.34.34,0,0,0-.32-.26H18.85l-2.51-3.14V18H20v1.4a1,1,0,0,0-.62,1.29,1,1,0,1,0,1.28-1.29.09.09,0,0,0,0-.05V18h1.34a.34.34,0,0,0,.34-.33V16.35A.34.34,0,0,0,22.05,16ZM11.57,5.26h6.86L21,16H9Zm8.2,18.8.17.68H10.07l.19-.68ZM18,23.39H12l2.25-2.81a.32.32,0,0,0,.08-.21V18h1.34v2.36a.33.33,0,0,0,.07.21Zm2.72-3a.34.34,0,1,1-.33-.33h0A.33.33,0,0,1,20.71,20.37Zm1-3H8.28v-.67H21.71Z"/></g></svg>