<svg id="_015---Cream-Pot" data-name=" 015---Cream-Pot" xmlns="http://www.w3.org/2000/svg" viewBox="0 0 30 30"><path d="M17.31,5.86H15V7.31h1.59V10a4.34,4.34,0,1,1-8.68,0V7.31H9.45V5.86H7.19a.73.73,0,0,0-.73.72V10A5.79,5.79,0,0,0,18,10V6.58A.73.73,0,0,0,17.31,5.86Z"/><path d="M20.14,16.42v3.43a3.62,3.62,0,0,1-7.24,0V15.12H11.46v4.73a5.06,5.06,0,1,0,10.12,0V16.42Z"/><path d="M20.86,11.74a2.68,2.68,0,1,0,2.68,2.68A2.69,2.69,0,0,0,20.86,11.74Zm0,3.91a1.23,1.23,0,1,1,1.23-1.23A1.23,1.23,0,0,1,20.86,15.65Z"/><path d="M9.43,5.09a.72.72,0,0,0-.72.72V7.36a.72.72,0,1,0,1.44,0V5.81A.72.72,0,0,0,9.43,5.09Z"/><path d="M15,5.09a.72.72,0,0,0-.72.72V7.36a.72.72,0,0,0,.72.72.73.73,0,0,0,.73-.72V5.81A.73.73,0,0,0,15,5.09Z"/></svg>