<?xml version="1.0" encoding="utf-8"?>
<!-- Generator: Adobe Illustrator 19.0.0, SVG Export Plug-In . SVG Version: 6.00 Build 0)  -->
<svg version="1.1" id="_015---Cream-Pot" xmlns="http://www.w3.org/2000/svg" xmlns:xlink="http://www.w3.org/1999/xlink" x="0px"
	 y="0px" viewBox="-228 92.7 18 16.6" style="enable-background:new -228 92.7 18 16.6;" xml:space="preserve">
<style type="text/css">
	.st0{fill:#3CBE55;}
	.st1{fill:#FFFFFF;}
</style>
<g id="comment">
	<path id="Path_7244" class="st0" d="M-227.1,93.7l-0.5,6.7l0.5,4.2l2.1,0.4l-0.2,3.2l4.9-3.2l8.7-0.4l0.9-1.2v-8.2l-0.9-1.5
		l-3.3-0.4l-10.8,0.4H-227.1z"/>
	<path id="Path_3" class="st0" d="M-212.5,92.7h-13c-1.4,0-2.5,1.1-2.5,2.4c0,0,0,0,0,0v8c0,1.4,1.1,2.5,2.5,2.5v3.6l5.2-3.6h7.8
		c1.4,0,2.5-1.1,2.5-2.4c0,0,0,0,0-0.1v-8C-210,93.8-211.1,92.7-212.5,92.7z M-211.1,103.2c0,0.8-0.6,1.4-1.4,1.4h-8.2l-3.8,2.7
		v-2.7h-1c-0.8,0-1.4-0.6-1.4-1.4v-8c0-0.8,0.6-1.4,1.4-1.4h13c0.8,0,1.4,0.6,1.4,1.4L-211.1,103.2z"/>
	<path id="Path_4" class="st1" d="M-223.2,96.5h8.3v1h-8.3V96.5z"/>
	<path id="Path_5" class="st1" d="M-223.2,98.7h8.3v1.1h-8.3V98.7z"/>
	<path id="Path_6" class="st1" d="M-223.2,101h8.3v1h-8.3V101z"/>
</g>
</svg>
