<?xml version="1.0" encoding="utf-8"?>
<!-- Generator: Adobe Illustrator 19.0.0, SVG Export Plug-In . SVG Version: 6.00 Build 0)  -->
<svg version="1.1" id="_015---Cream-Pot" xmlns="http://www.w3.org/2000/svg" xmlns:xlink="http://www.w3.org/1999/xlink" x="0px"
	 y="0px" viewBox="-227.9 92.1 17.8 17.8" style="enable-background:new -227.9 92.1 17.8 17.8;" xml:space="preserve">
<style type="text/css">
	.st0{fill:#3CBE55;}
</style>
<g id="google-place">
	<path id="Path_7044" class="st0" d="M-218.8,92.3c-3.4-0.1-6.3,2.6-6.5,6v0.2c0,4,3.8,6.9,6,11c0.1,0.1,0.3,0.2,0.4,0.1
		c0.1,0,0.1-0.1,0.1-0.1c1.9-3.7,5.3-6.3,5.9-9.9c0.6-3.4-1.7-6.7-5.2-7.3C-218.3,92.3-218.5,92.3-218.8,92.3z M-219,101.8
		c-1.8,0-3.3-1.5-3.3-3.3s1.5-3.3,3.3-3.3c1.8,0,3.3,1.5,3.3,3.3c0,0,0,0,0,0l0,0C-215.7,100.3-217.2,101.8-219,101.8
		C-219,101.8-219,101.8-219,101.8z"/>
</g>
</svg>
