<svg id="_015---Cream-Pot" data-name=" 015---Cream-Pot" xmlns="http://www.w3.org/2000/svg" viewBox="0 0 30 30"><defs><style>.cls-1{fill:#fff;}.cls-2,.cls-3{fill:none;}.cls-2{stroke:#ededed;}.cls-3{stroke:#707070;}</style></defs><g id="Group_2914" data-name="Group 2914"><g id="Rectangle_395" data-name="Rectangle 395"><rect class="cls-1" x="3.24" y="8.14" width="23.52" height="13.72" rx="3.92"/><rect class="cls-2" x="3.44" y="8.34" width="23.13" height="13.33" rx="3.72"/></g><g id="like"><g id="Group_2218" data-name="Group 2218"><g id="Group_2217" data-name="Group 2217"><path id="Path_6783" data-name="Path 6783" class="cls-3" d="M11.9,14.59c-.54,0-1,.32-1,.72v2.34c0,.4.44.73,1,.73h1.18a1.27,1.27,0,0,0,.6-.15V14.59Z"/></g></g><g id="Group_2220" data-name="Group 2220"><g id="Group_2219" data-name="Group 2219"><path id="Path_6784" data-name="Path 6784" class="cls-3" d="M19.19,15.53A.77.77,0,0,0,19,15a.89.89,0,0,0,.22-.66.9.9,0,0,0-.9-.78H16.16a5,5,0,0,0,.27-1.38,1.4,1.4,0,0,0-1-1.38,1.16,1.16,0,0,0-.63.21.2.2,0,0,0-.06.14v1.17l-1,2.15,0,0v3.69a2.18,2.18,0,0,0,.86.21H17.7a.8.8,0,0,0,.78-.6.77.77,0,0,0-.06-.52.78.78,0,0,0,.34-1A.75.75,0,0,0,19.19,15.53Z"/></g></g></g></g></svg>