<?xml version="1.0" encoding="utf-8"?>
<!-- Generator: Adobe Illustrator 19.0.0, SVG Export Plug-In . SVG Version: 6.00 Build 0)  -->
<svg version="1.1" id="_015---Cream-Pot" xmlns="http://www.w3.org/2000/svg" xmlns:xlink="http://www.w3.org/1999/xlink" x="0px"
	 y="0px" viewBox="-240 92.6 17.1 17.4" style="enable-background:new -240 92.6 17.1 17.4;" xml:space="preserve">
<style type="text/css">
	.st0{fill:#707070;}
</style>
<g id="surface1">
	<path class="st0" d="M-228.4,102.7c1.9-2.7,1.3-6.6-1.5-8.5c-2.7-1.9-6.6-1.3-8.5,1.5c-1.9,2.7-1.3,6.6,1.5,8.5
		c2,1.4,4.6,1.5,6.6,0.3l4.5,4.5c0.4,0.6,1.2,0.7,1.8,0.3c0.6-0.4,0.7-1.2,0.3-1.8c-0.1-0.1-0.2-0.2-0.3-0.3l-0.1-0.1L-228.4,102.7z
		 M-233.4,103.1c-2.2,0-3.9-1.8-3.9-4s1.8-3.9,3.9-3.9c2.2,0,3.9,1.8,3.9,3.9C-229.4,101.4-231.2,103.1-233.4,103.1
		C-233.3,103.1-233.4,103.1-233.4,103.1L-233.4,103.1z"/>
</g>
</svg>
