<?xml version="1.0" encoding="utf-8"?>
<!-- Generator: Adobe Illustrator 19.0.0, SVG Export Plug-In . SVG Version: 6.00 Build 0)  -->
<svg version="1.1" id="_015---Cream-Pot" xmlns="http://www.w3.org/2000/svg" xmlns:xlink="http://www.w3.org/1999/xlink" x="0px"
	 y="0px" viewBox="-228.2 91.8 18.3 18.3" style="enable-background:new -228.2 91.8 18.3 18.3;" xml:space="preserve">
<style type="text/css">
	.st0{fill:#E4E4E4;}
	.st1{fill:#EBF0F3;}
	.st2{fill:#D5D6DB;}
	.st3{fill:#ADADAD;}
	.st4{fill:#D4D4D4;}
	.st5{fill:#3E6B82;}
</style>
<g id="shop">
	<g id="Circle_Grid">
		<circle id="Ellipse_128" class="st0" cx="-219" cy="101" r="9"/>
	</g>
	<g id="icon">
		<path id="Path_7060" class="st1" d="M-224,97.9h9.5v6.5h-9.5V97.9z"/>
		<path id="Path_7061" class="st2" d="M-222.7,100.7h2.3v3.5h-2.3V100.7z"/>
		<path id="Path_7062" class="st3" d="M-220.6,100.9v3.3h-1.9v-3.3H-220.6z"/>
		<path id="Path_7063" class="st2" d="M-219.5,100.7h4.2v2.2h-4.2V100.7z"/>
		<path id="Path_7064" class="st3" d="M-215.5,100.9v1.8h-3.8v-1.8H-215.5z"/>
		<path id="Path_7065" class="st4" d="M-221.6,98.4h-1.5l0.6-1.4h1.3L-221.6,98.4z"/>
		<path id="Path_7066" class="st3" d="M-220,98.4h-1.6l0.3-1.4h1.3L-220,98.4z"/>
		<path id="Path_7067" class="st4" d="M-218.5,98.4h-1.5l0.1-1.4h1.3L-218.5,98.4z"/>
		<path id="Path_7068" class="st3" d="M-217,98.4h-1.5l-0.1-1.4h1.3L-217,98.4z"/>
		<path id="Path_7069" class="st4" d="M-215.4,98.4h-1.6l-0.3-1.4h1.3L-215.4,98.4z"/>
		<path id="Path_7070" class="st3" d="M-224,97.1l-0.7,1.3h1.5l0.6-1.4h-1.1C-223.8,96.9-223.9,97-224,97.1L-224,97.1z"/>
		<path id="Path_7071" class="st3" d="M-214.6,97.1c0-0.1-0.1-0.2-0.3-0.2h-1.2l0.5,1.4h1.5L-214.6,97.1z"/>
		<path id="Path_7072" class="st3" d="M-224.7,98.4v0.5c0,0.4,0.3,0.8,0.7,0.8c0.4,0,0.8-0.3,0.8-0.7c0,0,0,0,0,0c0,0,0-0.1,0-0.1
			v-0.5H-224.7z"/>
		<path id="Path_7073" class="st4" d="M-223.1,98.4v0.5c0,0.4,0.3,0.8,0.7,0.8s0.8-0.3,0.8-0.7v-0.7H-223.1z"/>
		<path id="Path_7074" class="st3" d="M-221.6,98.4v0.5c0,0.4,0.3,0.8,0.7,0.8c0.4,0,0.8-0.3,0.8-0.7l0,0v-0.7L-221.6,98.4z"/>
		<path id="Path_7075" class="st4" d="M-220,98.4v0.5c0,0.4,0.3,0.8,0.8,0.8c0.4,0,0.8-0.3,0.8-0.8v-0.5H-220z"/>
		<path id="Path_7076" class="st3" d="M-218.5,98.4v0.5c0,0.4,0.3,0.8,0.7,0.8c0.4,0,0.8-0.3,0.8-0.7v-0.7L-218.5,98.4z"/>
		<path id="Path_7077" class="st4" d="M-217,98.4v0.5c-0.1,0.4,0.2,0.8,0.6,0.9s0.8-0.2,0.9-0.6c0,0,0-0.1,0-0.1c0,0,0-0.1,0-0.1
			v-0.5H-217z"/>
		<path id="Path_7078" class="st3" d="M-215.4,98.4v0.5c0,0.4,0.3,0.8,0.7,0.8c0.4,0,0.8-0.3,0.8-0.7c0,0,0,0,0,0c0,0,0-0.1,0-0.1
			v-0.5H-215.4z"/>
		<path id="Path_7079" class="st2" d="M-224.5,104h10.5v0.5h-10.5V104z"/>
		<circle id="Ellipse_129" class="st5" cx="-222.2" cy="102.5" r="0.1"/>
	</g>
</g>
</svg>
