<svg id="_015---Cream-Pot" data-name=" 015---Cream-Pot" xmlns="http://www.w3.org/2000/svg" viewBox="0 0 30 30"><g id="Group_2877" data-name="Group 2877"><g id="share"><g id="Group_2876" data-name="Group 2876"><path id="Path_7241" data-name="Path 7241" d="M19.11,17.08a2.45,2.45,0,0,0-2,1l-3.87-2a2.57,2.57,0,0,0-.08-1.62L17.23,12a2.45,2.45,0,1,0-.42-.7l-4.07,2.44a2.47,2.47,0,1,0-.23,3.48,2.49,2.49,0,0,0,.38-.42l3.87,2a2.47,2.47,0,1,0,3.09-1.62A2.33,2.33,0,0,0,19.11,17.08Zm0-8.28a1.65,1.65,0,1,1-1.64,1.64A1.65,1.65,0,0,1,19.11,8.8Zm-8.22,8.25a1.65,1.65,0,1,1,1.64-1.64,1.64,1.64,0,0,1-1.64,1.64Zm8.22,4.14a1.65,1.65,0,1,1,1.65-1.64,1.64,1.64,0,0,1-1.65,1.64Z"/></g></g><path id="Path_7242" data-name="Path 7242" d="M18.7,8.67c1.69-.32,2.27.9,2.27,2a2.25,2.25,0,0,1-2.27,2,2,2,0,0,1-2-2C16.7,9.57,17,9,18.7,8.67Z"/><path id="Path_7243" data-name="Path 7243" d="M18.7,17.67a2.31,2.31,0,0,1,2.33,2c0,1.1-.85,1.66-2,1.66S17,20.77,17,19.67A1.77,1.77,0,0,1,18.7,17.67Z"/><circle id="Ellipse_153" data-name="Ellipse 153" cx="10.7" cy="15.67" r="2"/></g></svg>