<?xml version="1.0" encoding="utf-8"?>
<!-- Generator: Adobe Illustrator 19.0.0, SVG Export Plug-In . SVG Version: 6.00 Build 0)  -->
<svg version="1.1" id="_015---Cream-Pot" xmlns="http://www.w3.org/2000/svg" xmlns:xlink="http://www.w3.org/1999/xlink" x="0px"
	 y="0px" viewBox="-229.8 90.6 21.6 20.9" style="enable-background:new -229.8 90.6 21.6 20.9;" xml:space="preserve">
<style type="text/css">
	.st0{fill:#FFD782;}
	.st1{fill:#FFAF5F;}
	.st2{fill:#B4E1FA;}
	.st3{fill:#A0D2F0;}
	.st4{fill:#DAF0FD;}
	.st5{fill:#D2555A;}
	.st6{fill:#C7CFE2;}
	.st7{fill:#FF6464;}
	.st8{fill:#EFF2FA;}
	.st9{fill:#8F96AC;}
	.st10{fill:#AFB9D2;}
</style>
<path class="st0" d="M-209.5,110.5h-18.9V93.1c0-0.1,0.1-0.2,0.2-0.2h18.6c0.1,0,0.2,0.1,0.2,0.2V110.5z"/>
<rect x="-228.5" y="107.3" class="st1" width="18.9" height="2.8"/>
<path class="st1" d="M-209.5,99.2c-0.1,0-0.1,0-0.2,0c-0.5,0-0.9-0.4-0.9-0.9c0,0,0,0,0,0c0.1,0.5-0.3,1-0.8,1c-0.5,0.1-1-0.3-1-0.8
	c0-0.1,0-0.1,0-0.2c0.1,0.5-0.3,1-0.8,1c-0.5,0.1-1-0.3-1-0.8c0-0.1,0-0.1,0-0.2c0.1,0.5-0.3,1-0.8,1c-0.5,0.1-1-0.3-1-0.8
	c0-0.1,0-0.1,0-0.2c0.1,0.5-0.3,1-0.8,1c-0.5,0.1-1-0.3-1-0.8c0-0.1,0-0.1,0-0.2c0.1,0.5-0.3,1-0.8,1c-0.5,0.1-1-0.3-1-0.8
	c0-0.1,0-0.1,0-0.2c0,0.5-0.4,0.9-0.9,0.9s-0.9-0.4-0.9-0.9c0.1,0.5-0.3,1-0.8,1c-0.5,0.1-1-0.3-1-0.8c0-0.1,0-0.1,0-0.2
	c0.1,0.5-0.3,1-0.8,1c-0.5,0.1-1-0.3-1-0.8c0-0.1,0-0.1,0-0.2c0.1,0.5-0.3,1-0.8,1c-0.5,0.1-1-0.3-1-0.8c0-0.1,0-0.1,0-0.2
	c0,0.5-0.4,0.9-0.9,0.9l0,0c-0.1,0-0.1,0-0.2,0v0.7h0.2c0.3,0,0.7-0.1,0.9-0.3c0.3,0.2,0.6,0.3,0.9,0.4c0.3,0,0.7-0.1,0.9-0.3
	c0.3,0.2,0.6,0.3,0.9,0.3c0.3,0,0.7-0.1,0.9-0.3c0.3,0.2,0.6,0.3,0.9,0.3c0.3,0,0.7-0.1,0.9-0.3c0.3,0.2,0.6,0.3,0.9,0.3
	c0.3,0,0.7-0.1,0.9-0.3c0.6,0.4,1.3,0.4,1.8,0c0.3,0.2,0.6,0.3,0.9,0.3c0.3,0,0.6-0.1,0.9-0.3c0.3,0.2,0.6,0.3,0.9,0.3
	c0.3,0,0.6-0.1,0.9-0.3c0.3,0.2,0.6,0.3,0.9,0.3c0.3,0,0.6-0.1,0.9-0.3c0.3,0.2,0.6,0.3,0.9,0.3c0.3,0,0.6-0.1,0.9-0.3
	c0.3,0.2,0.6,0.3,0.9,0.3c0.1,0,0.1,0,0.2,0V99.2L-209.5,99.2z"/>
<rect x="-226.7" y="101.3" class="st2" width="9.8" height="7"/>
<rect x="-215.5" y="101.3" class="st2" width="4.2" height="7"/>
<rect x="-215.5" y="101.3" class="st3" width="4.2" height="1"/>
<polygon class="st4" points="-211.3,104.6 -213.7,101.3 -214.4,101.3 -211.3,105.6 "/>
<polygon class="st3" points="-215.1,101.3 -215.5,101.3 -215.5,102.8 -211.3,108.4 -211.3,106.5 "/>
<polygon class="st2" points="-212.9,102.4 -213.7,101.3 -214.4,101.3 -213.6,102.4 "/>
<polygon class="st4" points="-217.9,108.4 -218.6,108.4 -223.9,101.3 -223.2,101.3 "/>
<polygon class="st3" points="-219.4,108.4 -220.8,108.4 -226,101.3 -224.6,101.3 "/>
<rect x="-226.7" y="101.3" class="st3" width="9.8" height="1"/>
<polygon class="st2" points="-222.4,102.4 -223.2,101.3 -223.9,101.3 -223.1,102.4 "/>
<path class="st5" d="M-220.9,99.3L-220.9,99.3c-0.5,0-0.9-0.4-0.9-0.9v-0.8h1.9v0.8C-219.9,98.8-220.3,99.3-220.9,99.3
	C-220.9,99.3-220.9,99.3-220.9,99.3z"/>
<path class="st5" d="M-217.1,99.3L-217.1,99.3c-0.5,0-0.9-0.4-0.9-0.9c0,0,0,0,0,0v-0.8h1.9v0.8C-216.2,98.8-216.6,99.2-217.1,99.3z
	"/>
<path class="st5" d="M-224.6,99.3L-224.6,99.3c-0.5,0-0.9-0.4-0.9-0.9v-0.8h1.9v0.8C-223.6,98.8-224,99.3-224.6,99.3
	C-224.6,99.3-224.6,99.3-224.6,99.3z"/>
<path class="st5" d="M-228.3,99.3L-228.3,99.3c-0.5,0-0.9-0.4-0.9-0.9v-0.8h1.8v0.8C-227.3,98.8-227.7,99.3-228.3,99.3L-228.3,99.3z
	"/>
<path class="st5" d="M-213.4,99.3L-213.4,99.3c-0.5,0-0.9-0.4-0.9-0.9c0,0,0,0,0,0v-0.8h1.9v0.8C-212.5,98.8-212.9,99.2-213.4,99.3z
	"/>
<path class="st6" d="M-222.7,99.3L-222.7,99.3c-0.5,0-0.9-0.4-0.9-0.9v-0.8h1.8v0.8C-221.8,98.8-222.2,99.3-222.7,99.3
	C-222.7,99.3-222.7,99.3-222.7,99.3z"/>
<path class="st6" d="M-215.3,99.3L-215.3,99.3c-0.5,0-0.9-0.4-0.9-0.9c0,0,0,0,0,0v-0.8h1.8v0.8C-214.4,98.8-214.8,99.2-215.3,99.3z
	"/>
<path class="st5" d="M-209.8,99.3L-209.8,99.3c-0.5,0-0.9-0.4-0.9-0.9c0,0,0,0,0,0v-0.8h1.8v0.8C-208.8,98.8-209.2,99.2-209.8,99.3z
	"/>
<path class="st6" d="M-211.6,99.3L-211.6,99.3c-0.5,0-0.9-0.4-0.9-0.9c0,0,0,0,0,0v-0.8h1.9v0.8C-210.7,98.8-211.1,99.2-211.6,99.3z
	"/>
<path class="st6" d="M-226.4,99.3L-226.4,99.3c-0.5,0-0.9-0.4-0.9-0.9v-0.8h1.9v0.8C-225.5,98.8-225.9,99.3-226.4,99.3L-226.4,99.3z
	"/>
<path class="st6" d="M-219,99.3L-219,99.3c-0.5,0-0.9-0.4-0.9-0.9v-0.8h1.8v0.8C-218.1,98.8-218.5,99.2-219,99.3z"/>
<polygon class="st7" points="-219.9,97.5 -221.8,97.5 -221.6,94.7 -219.9,94.7 "/>
<polygon class="st7" points="-216.2,97.5 -218.1,97.5 -218.1,94.7 -216.4,94.7 "/>
<polygon class="st7" points="-223.6,97.5 -225.5,97.5 -225,94.7 -223.3,94.7 "/>
<polygon class="st7" points="-227.3,97.5 -229.2,97.5 -228.5,94.7 -226.8,94.7 "/>
<polygon class="st7" points="-212.5,97.5 -214.4,97.5 -214.7,94.7 -213,94.7 "/>
<polygon class="st8" points="-221.8,97.5 -223.6,97.5 -223.3,94.7 -221.6,94.7 "/>
<polygon class="st8" points="-214.4,97.5 -216.2,97.5 -216.4,94.7 -214.7,94.7 "/>
<polygon class="st7" points="-208.8,97.5 -210.7,97.5 -211.3,94.7 -209.5,94.7 "/>
<polygon class="st8" points="-210.7,97.5 -212.5,97.5 -213,94.7 -211.3,94.7 "/>
<polygon class="st8" points="-225.5,97.5 -227.3,97.5 -226.8,94.7 -225,94.7 "/>
<polygon class="st8" points="-218.1,97.5 -219.9,97.5 -219.9,94.7 -218.1,94.7 "/>
<path class="st9" d="M-217.3,101.7v6.3h-9.1v-6.3H-217.3 M-216.9,101h-9.8c-0.2,0-0.4,0.2-0.4,0.3l0,0v7c0,0.2,0.2,0.3,0.4,0.3
	c0,0,0,0,0,0h9.8c0.2,0,0.4-0.2,0.4-0.3v-7C-216.5,101.2-216.7,101-216.9,101z"/>
<path class="st9" d="M-211.3,101h-4.2c-0.2,0-0.3,0.2-0.3,0.3l0,0v8.8h4.9v-8.8C-210.9,101.2-211.1,101-211.3,101L-211.3,101z
	 M-211.6,108h-3.5v-6.3h3.5V108z"/>
<path class="st10" d="M-213.4,94.7h-11.2c-0.4,0-0.7-0.3-0.7-0.7v-2.1c0-0.4,0.3-0.7,0.7-0.7h11.2c0.4,0,0.7,0.3,0.7,0.7l0,0V94
	C-212.7,94.4-213,94.7-213.4,94.7z"/>
<path class="st0" d="M-213.6,94h-10.9c-0.1,0-0.2-0.1-0.2-0.2l0,0v-1.8c0-0.1,0.1-0.2,0.2-0.2h10.9c0.1,0,0.2,0.1,0.2,0.2v1.8
	C-213.4,93.9-213.4,94-213.6,94C-213.5,94-213.6,94-213.6,94z"/>
<path class="st1" d="M-224.4,94h10.9c0.1,0,0.2-0.1,0.2-0.2l0,0v-0.7c0,0.1-0.1,0.2-0.2,0.2h-10.9c-0.1,0-0.2-0.1-0.2-0.2v0.7
	C-224.6,93.9-224.5,94-224.4,94L-224.4,94z"/>
<path class="st9" d="M-209,110.8h-20c-0.1,0-0.2-0.1-0.2-0.2l0,0v-0.3c0-0.1,0.1-0.2,0.2-0.2c0,0,0,0,0,0h20c0.1,0,0.2,0.1,0.2,0.2
	c0,0,0,0,0,0v0.3C-208.8,110.7-208.9,110.8-209,110.8z"/>
</svg>
