<svg id="_015---Cream-Pot" data-name=" 015---Cream-Pot" xmlns="http://www.w3.org/2000/svg" viewBox="0 0 30 30"><g id="qa"><path id="Path_7245" data-name="Path 7245" d="M13.49,13.28l.56.34a.27.27,0,0,0,.37-.12.27.27,0,0,0-.09-.34l-.5-.31a2.56,2.56,0,0,0,.36-1.35c0-1.19-.72-2.15-1.61-2.15S11,10.31,11,11.5s.73,2.15,1.62,2.15A1.35,1.35,0,0,0,13.49,13.28Zm-2-1.78c0-.87.5-1.61,1.08-1.61s1.07.74,1.07,1.61a2.05,2.05,0,0,1-.28,1.08L13,12.35a.27.27,0,0,0-.37.11.28.28,0,0,0,.09.35L13,13a.78.78,0,0,1-.42.14C12,13.12,11.5,12.38,11.5,11.5Z"/><path id="Path_7246" data-name="Path 7246" d="M17.68,16a.28.28,0,0,0-.35-.17.3.3,0,0,0-.16.17l-1.35,3.76a.27.27,0,0,0,.18.34.27.27,0,0,0,.33-.16l.42-1.16H18.1l.42,1.16a.27.27,0,0,0,.5-.18Zm-.74,2.24.48-1.35.49,1.35Z"/><path id="Path_7247" data-name="Path 7247" d="M22,20.26a4.32,4.32,0,0,0,1.07-2.84c0-2.44-2.14-4.49-4.93-4.8a4,4,0,0,0,.09-.85c0-2.67-2.54-4.84-5.65-4.84S6.93,9.1,6.93,11.77a4.22,4.22,0,0,0,.92,2.64l-.91,2.38a.26.26,0,0,0,.16.34.23.23,0,0,0,.2,0L9.84,16a6.21,6.21,0,0,0,2,.56,4,4,0,0,0-.09.85c0,2.67,2.54,4.85,5.65,4.85a6.36,6.36,0,0,0,2.51-.51l2.76,1.29a.27.27,0,0,0,.36-.35ZM9.74,15.47l-2.06.91.72-1.92a.25.25,0,0,0,0-.26,3.85,3.85,0,0,1-.9-2.43c0-2.37,2.3-4.31,5.12-4.31s5.11,1.94,5.11,4.31a3.55,3.55,0,0,1-.15,1,5,5,0,0,1-5,3.29,2.36,2.36,0,0,1-.37,0A5.81,5.81,0,0,1,10,15.48a.26.26,0,0,0-.23,0Zm10.31,5.75a.28.28,0,0,0-.22,0,5.89,5.89,0,0,1-2.41.51c-2.82,0-5.11-1.94-5.11-4.31a3.72,3.72,0,0,1,.09-.81h.18a3.62,3.62,0,0,0,.47,0h.16l.31,0,.19,0,.27-.05.19-.05.25-.06.19-.06.24-.08.19-.08.21-.09.19-.1a1.86,1.86,0,0,0,.2-.1l.19-.11.19-.12.17-.12.17-.12.17-.14.16-.14.15-.14L17,14.8l.14-.16.13-.15.12-.17.12-.17a1.63,1.63,0,0,1,.11-.17l.1-.18.09-.18.09-.2.07-.18a1,1,0,0,1,0-.1c2.56.24,4.54,2.09,4.54,4.28A3.81,3.81,0,0,1,21.49,20a.26.26,0,0,0,0,.29l.83,2Z"/></g></svg>