<svg id="_015---Cream-Pot" data-name=" 015---Cream-Pot" xmlns="http://www.w3.org/2000/svg" viewBox="0 0 30 30"><defs><style>.cls-1{fill:#dadcde;}.cls-2{fill:#eb423f;}.cls-3{fill:#d13330;}.cls-4{fill:#a82a27;}.cls-5{fill:#eba72e;}.cls-6{fill:#e09f2c;}.cls-7{fill:#f7b030;}.cls-8{fill:#e9eef2;}</style></defs><g id="online-shopping"><path id="Path_7264" data-name="Path 7264" class="cls-1" d="M16.13,12.19a.38.38,0,0,1-.38-.38V8.06a2.63,2.63,0,0,0-5.25,0h0v3.75a.37.37,0,0,1-.37.38.37.37,0,0,1-.38-.37h0V8.06a3.38,3.38,0,0,1,6.75,0h0v3.75A.38.38,0,0,1,16.13,12.19Z"/><path id="Path_7265" data-name="Path 7265" class="cls-2" d="M16.88,25.31H4.12l.75-15H16.13Z"/><path id="Path_7266" data-name="Path 7266" class="cls-3" d="M19.88,25.31h-3l-.75-15h3Z"/><path id="Path_7267" data-name="Path 7267" class="cls-4" d="M18.4,23.44h0a.38.38,0,0,1-.37-.35l-.75-12.76v0H18L18.75,23A.38.38,0,0,1,18.4,23.44Z"/><path id="Path_7268" data-name="Path 7268" class="cls-5" d="M25.88,25.31h-3l-.05-.6h0l-.7-9.15h3l.69,9h0Z"/><path id="Path_7269" data-name="Path 7269" class="cls-6" d="M24.41,23.44h0A.38.38,0,0,1,24,23.1V23l-.74-7.37v0H24l.74,7.37V23a.38.38,0,0,1-.34.41Z"/><path id="Path_7270" data-name="Path 7270" class="cls-6" d="M25.88,25.31h-.46l-1-1.57-1.05,1.57h-.45l-.05-.6h0L24,23l.07-.11a.38.38,0,0,1,.52-.11.29.29,0,0,1,.11.11l0,.07,1.08,1.62h0Z"/><path id="Path_7271" data-name="Path 7271" class="cls-7" d="M22.88,25.31H13.12l.75-9.75h8.26Z"/><path id="Path_7272" data-name="Path 7272" class="cls-8" d="M18.38,22.69h-.75a1.88,1.88,0,0,1-1.88-1.88v-3a.38.38,0,0,1,.37-.38.37.37,0,0,1,.38.37h0v3a1.13,1.13,0,0,0,1.13,1.13h.75a1.13,1.13,0,0,0,1.12-1.13v-3a.38.38,0,0,1,.38-.37.38.38,0,0,1,.37.37v3A1.88,1.88,0,0,1,18.38,22.69Z"/><path id="Path_7273" data-name="Path 7273" class="cls-1" d="M7.5,11.81h.75v2.25H7.5Z"/><path id="Path_7274" data-name="Path 7274" class="cls-8" d="M7.87,12.19a.38.38,0,0,1-.37-.38h0V8.06a3.38,3.38,0,0,1,6.75,0h0v3.75a.37.37,0,0,1-.37.38.37.37,0,0,1-.38-.37h0V8.06a2.63,2.63,0,0,0-5.25,0v3.75A.38.38,0,0,1,7.87,12.19Z"/><path id="Path_7275" data-name="Path 7275" class="cls-7" d="M9,17.06H6.75v-3l1.12-.75L9,14.06Z"/></g></svg>