<svg id="_015---Cream-Pot" data-name=" 015---Cream-Pot" xmlns="http://www.w3.org/2000/svg" viewBox="0 0 30 30"><defs><style>.cls-1{fill:#fff;stroke:#fff;}</style></defs><g id="cancel"><g id="Group_2764" data-name="Group 2764"><path id="Path_7135" data-name="Path 7135" class="cls-1" d="M15.36,15l2.9-2.89a.27.27,0,0,0,0-.37.26.26,0,0,0-.37,0h0L15,14.63l-2.89-2.89a.26.26,0,0,0-.37,0,.25.25,0,0,0,0,.36L14.63,15l-2.89,2.89a.26.26,0,0,0,0,.37.27.27,0,0,0,.37,0L15,15.37l2.89,2.89a.27.27,0,0,0,.37,0,.26.26,0,0,0,0-.37h0Z"/></g></g></svg>