<svg id="_015---Cream-Pot" data-name=" 015---Cream-Pot" xmlns="http://www.w3.org/2000/svg" viewBox="0 0 30 30"><defs><style>.cls-1{fill:#fff;}.cls-2{fill:none;stroke:#ededed;}.cls-3,.cls-4{isolation:isolate;}.cls-4{font-size:6.49px;font-family:Muli-Regular, Muli;}.cls-5{fill:#ffc107;}</style></defs><g id="Group_2867" data-name="Group 2867"><g id="Rectangle_396" data-name="Rectangle 396"><rect class="cls-1" x="2.45" y="5.48" width="25.1" height="19.04" rx="7.79"/><rect class="cls-2" x="2.67" y="5.7" width="24.67" height="18.61" rx="7.57"/></g><g id="_1" data-name=" 1" class="cls-3"><text class="cls-4" transform="translate(18.03 16.73)">1</text></g><path id="star" class="cls-5" d="M15.63,13.11l-2.77-.42L11.61,10a.29.29,0,0,0-.4-.11L11.1,10,9.86,12.69l-2.77.42a.28.28,0,0,0-.23.32.29.29,0,0,0,.07.16l2,2.06-.48,2.92a.28.28,0,0,0,.23.32.31.31,0,0,0,.19,0l2.47-1.37,2.48,1.37a.27.27,0,0,0,.38-.11.29.29,0,0,0,0-.18l-.48-2.92,2-2.06a.29.29,0,0,0,0-.4.28.28,0,0,0-.15-.08Z"/></g></svg>