<svg id="_015---Cream-Pot" data-name=" 015---Cream-Pot" xmlns="http://www.w3.org/2000/svg" viewBox="0 0 30 30"><defs><style>.cls-1{fill:#ffc107;}</style></defs><g id="Group_2837" data-name="Group 2837"><path id="star" class="cls-1" d="M7.47,14.45l-1.19-.19-.54-1.14a.13.13,0,0,0-.17,0l-.05,0L5,14.26l-1.2.19a.12.12,0,0,0-.1.14.09.09,0,0,0,0,.06l.87.89-.2,1.26a.11.11,0,0,0,.1.14h.07l1.07-.59,1.07.59a.13.13,0,0,0,.17-.05.19.19,0,0,0,0-.08l-.21-1.26.87-.89a.12.12,0,0,0,0-.17.09.09,0,0,0-.07,0Z"/><path id="star-2" class="cls-1" d="M12.16,14.45,11,14.26l-.53-1.14a.13.13,0,0,0-.17,0l0,0-.54,1.14-1.2.19a.12.12,0,0,0-.1.14l0,.06.86.89-.2,1.26a.12.12,0,0,0,.1.14h.08l1.07-.59,1.06.59a.13.13,0,0,0,.17-.05.11.11,0,0,0,0-.08l-.2-1.26.87-.89a.12.12,0,0,0,0-.17.07.07,0,0,0-.06,0Z"/><path id="star-3" class="cls-1" d="M16.84,14.45l-1.19-.19-.54-1.14a.13.13,0,0,0-.17,0l0,0-.54,1.14-1.19.19a.12.12,0,0,0-.1.14.09.09,0,0,0,0,.06l.87.89-.21,1.26a.12.12,0,0,0,.1.14h.08L15,16.34l1.07.59a.12.12,0,0,0,.16-.05.11.11,0,0,0,0-.08L16,15.54l.87-.89a.12.12,0,0,0,0-.17.09.09,0,0,0-.07,0Z"/><path id="star-4" class="cls-1" d="M21.53,14.45l-1.2-.19-.54-1.14a.13.13,0,0,0-.17,0l-.05,0L19,14.26l-1.2.19a.12.12,0,0,0-.1.14s0,0,0,.06l.87.89-.2,1.26a.12.12,0,0,0,.1.14h.08l1.06-.59,1.07.59a.13.13,0,0,0,.17-.05.11.11,0,0,0,0-.08l-.2-1.26.86-.89a.12.12,0,0,0,0-.17l-.06,0Z"/><path id="star-5" class="cls-1" d="M26.21,14.45,25,14.26l-.53-1.14a.13.13,0,0,0-.17,0s0,0,0,0l-.54,1.14-1.19.19a.12.12,0,0,0-.1.14.09.09,0,0,0,0,.06l.87.89-.21,1.26a.12.12,0,0,0,.1.14h.08l1.07-.59,1.07.59a.12.12,0,0,0,.16-.05.11.11,0,0,0,0-.08l-.21-1.26.87-.89a.12.12,0,0,0,0-.17.11.11,0,0,0-.07,0Z"/></g></svg>