<svg id="_015---Cream-Pot" data-name=" 015---Cream-Pot" xmlns="http://www.w3.org/2000/svg" viewBox="0 0 30 30"><defs><style>.cls-1{fill:#f07281;}.cls-2{fill:#eb5569;}.cls-3{fill:#eaf6ff;}.cls-4{fill:#c8effe;}.cls-5{fill:#99e6fc;}.cls-6{fill:#62dbfb;}.cls-7{fill:#0268b4;}.cls-8{fill:#015a9a;}.cls-9{fill:#0593fc;}.cls-10{fill:#0181fa;}.cls-11{fill:#fff3be;}.cls-12{fill:#ffec9c;}.cls-13{fill:#4fc123;}</style></defs><path class="cls-1" d="M21.08,7.35V23.94a.93.93,0,0,1-.93.93H7.59a.93.93,0,0,1-.93-.93V7.35a.93.93,0,0,1,.93-.92h.26l6,.4,6-.4h.26a.93.93,0,0,1,.93.92Z"/><path class="cls-2" d="M21.08,7.35V23.94a.93.93,0,0,1-.93.93h-.74a.93.93,0,0,0,.93-.93V14.27l-1.59,1.58V13.08l1.36-1.36a.79.79,0,0,0,.23-.55V7.35a.92.92,0,0,0-.73-.91h.54A.93.93,0,0,1,21.08,7.35Z"/><path class="cls-3" d="M19.89,6.43V23.31a.37.37,0,0,1-.37.37H8.22a.37.37,0,0,1-.37-.37V6.43H9.64l4.23.18,4.23-.18Z"/><path class="cls-4" d="M19.89,11.94h0V6.43H19v6a1.05,1.05,0,0,1-.31.74L13.88,18l-.1.11a1.67,1.67,0,0,0-.47.8L13.16,20a.22.22,0,0,0,.22.25h.71a3.94,3.94,0,0,0,1.07-.8l.11-.11L19,15.65v7.66a.37.37,0,0,1-.37.37h.94a.37.37,0,0,0,.37-.37v-8.6h0Z"/><path class="cls-5" d="M17.58,12H13.85a.3.3,0,1,1,0-.59h3.73a.3.3,0,1,1,0,.59Z"/><path class="cls-5" d="M17.88,16a.29.29,0,0,1-.3.29H13.85a.3.3,0,1,1,0-.59h3.73A.29.29,0,0,1,17.88,16Z"/><path class="cls-6" d="M17.88,16a.29.29,0,0,1-.3.29H15.52l.59-.59h1.47A.29.29,0,0,1,17.88,16Z"/><path class="cls-7" d="M17,6.43l-3.15.18-3.15-.18V5.54a.41.41,0,0,1,.41-.41h5.48a.41.41,0,0,1,.41.41Z"/><path class="cls-8" d="M16.61,5.13h-.95a.41.41,0,0,1,.42.41v.89l.1,0,.84,0V5.54A.41.41,0,0,0,16.61,5.13Z"/><path class="cls-4" d="M11.72,13.1H10a.49.49,0,0,1-.49-.49V10.84a.49.49,0,0,1,.49-.49h1.77a.49.49,0,0,1,.49.49v1.77A.49.49,0,0,1,11.72,13.1Z"/><path class="cls-5" d="M11.72,10.35h-.94a.49.49,0,0,1,.49.49v1.77a.49.49,0,0,1-.49.49h.94a.49.49,0,0,0,.49-.49V10.84A.49.49,0,0,0,11.72,10.35Z"/><path class="cls-4" d="M11.72,17.39H10a.49.49,0,0,1-.49-.49V15.13a.49.49,0,0,1,.49-.49h1.77a.49.49,0,0,1,.49.49V16.9A.49.49,0,0,1,11.72,17.39Z"/><path class="cls-5" d="M11.72,14.64h-.94a.49.49,0,0,1,.49.49V16.9a.49.49,0,0,1-.49.49h.94a.49.49,0,0,0,.49-.49V15.13a.49.49,0,0,0-.49-.49Z"/><path class="cls-4" d="M11.72,21.68H10a.49.49,0,0,1-.49-.49V19.42a.49.49,0,0,1,.49-.49h1.77a.49.49,0,0,1,.49.49v1.77A.49.49,0,0,1,11.72,21.68Z"/><path class="cls-5" d="M11.72,18.93h-.94a.49.49,0,0,1,.49.49v1.77a.49.49,0,0,1-.49.49h.94a.49.49,0,0,0,.49-.49V19.42A.49.49,0,0,0,11.72,18.93Z"/><path class="cls-7" d="M22,13.58l-5.75,5.75-.67-.26-.34-.14-.37-1,5.74-5.75,1,.35.12.34Z"/><path class="cls-8" d="M22,13.58l-5.75,5.75-.67-.26,6.17-6.18Z"/><path class="cls-9" d="M23.05,12.49,22,13.58,20.57,12.2l1.1-1.09a1,1,0,0,1,1.38,0,1,1,0,0,1,0,1.38Z"/><path class="cls-10" d="M23.05,11.11a1,1,0,0,0-1.16-.17,1.18,1.18,0,0,1,.22.17,1,1,0,0,1,0,1.38l-.62.62.47.47,1.09-1.09a1,1,0,0,0,0-1.38Z"/><path class="cls-11" d="M16.21,19.33l-.11.11a1.91,1.91,0,0,1-.8.47l-1.17.32a.16.16,0,0,1-.2-.2l.32-1.17a1.76,1.76,0,0,1,.47-.8l.11-.11Z"/><path class="cls-12" d="M15.27,19.33l-.11.11a1.91,1.91,0,0,1-.8.47l-.43.12a.16.16,0,0,0,.2.2l1.17-.32a1.91,1.91,0,0,0,.8-.47l.11-.11-.47-.47Z"/><path class="cls-8" d="M17.14,8.9l-.22,0-2.75-.49a2,2,0,0,0-.6,0l-2.75.49a1.31,1.31,0,0,1-1-.27,1.29,1.29,0,0,1-.45-1V6.72a.3.3,0,0,1,.3-.29H18.1a.3.3,0,0,1,.3.29v.92A1.25,1.25,0,0,1,17.14,8.9ZM13.87,7.77a2.69,2.69,0,0,1,.4,0L17,8.29a.65.65,0,0,0,.54-.14.67.67,0,0,0,.24-.51V7H9.94v.62a.67.67,0,0,0,.24.51.65.65,0,0,0,.54.14l2.74-.49A2.83,2.83,0,0,1,13.87,7.77Z"/><path class="cls-13" d="M10.91,12.29a.29.29,0,0,1-.21-.08l-.42-.42a.32.32,0,0,1,0-.43.31.31,0,0,1,.42,0l.21.22,1.45-1.45a.3.3,0,1,1,.42.42l-1.66,1.66a.26.26,0,0,1-.21.08Z"/><path class="cls-13" d="M10.91,16.61a.3.3,0,0,1-.21-.09l-.42-.42a.31.31,0,0,1,0-.42.29.29,0,0,1,.42,0l.21.21,1.45-1.45a.31.31,0,0,1,.42,0,.29.29,0,0,1,0,.42l-1.66,1.66a.27.27,0,0,1-.21.09Z"/></svg>