<svg id="_015---Cream-Pot" data-name=" 015---Cream-Pot" xmlns="http://www.w3.org/2000/svg" viewBox="0 0 30 30"><defs><style>.cls-1{fill:#cef;}.cls-2{fill:#9df;}.cls-3{fill:#fff;}.cls-4{fill:#80aaff;}</style></defs><path class="cls-1" d="M21.91,16.34A1.34,1.34,0,0,0,20.57,15H19.9v5.37h.67A1.34,1.34,0,0,0,21.91,19a1.35,1.35,0,0,0,0-2.69Z"/><path class="cls-1" d="M8.09,16.34a1.35,1.35,0,0,0,0,2.69,1.34,1.34,0,0,0,1.34,1.34h.67V15H9.43A1.34,1.34,0,0,0,8.09,16.34Z"/><circle class="cls-2" cx="15" cy="22.25" r="1.01"/><path class="cls-3" d="M15,6.75a6.88,6.88,0,0,0-6.91,6.71,1.53,1.53,0,0,0,1.48-1.19,5.62,5.62,0,0,1,10.87,0,1.5,1.5,0,0,0,1.47,1.18A6.88,6.88,0,0,0,15,6.75Z"/><path class="cls-4" d="M22.25,16V13.46a7.25,7.25,0,0,0-14.5,0V16a1.68,1.68,0,0,0,0,3.29A1.68,1.68,0,0,0,9.43,20.7h.67a.34.34,0,0,0,.34-.33V15a.34.34,0,0,0-.34-.34H9.43a1.7,1.7,0,0,0-1,.34V13.76a1.83,1.83,0,0,0,1.47-1.41,5.29,5.29,0,0,1,10.22,0,1.84,1.84,0,0,0,1.47,1.41V15a1.7,1.7,0,0,0-1-.34H19.9a.34.34,0,0,0-.34.34v5.37a.34.34,0,0,0,.34.33h.67a1.67,1.67,0,0,0,1-.33,1.68,1.68,0,0,1-1.67,1.54H16.3a1.35,1.35,0,1,0,0,.67h3.6a2.35,2.35,0,0,0,2.35-2.35v-.9a1.68,1.68,0,0,0,0-3.29ZM15,22.92a.67.67,0,1,1,.67-.67A.67.67,0,0,1,15,22.92ZM9.43,15.34h.34V20H9.43a1,1,0,0,1-1-1,.34.34,0,0,0-.33-.34,1,1,0,1,1,0-2,.34.34,0,0,0,.33-.34A1,1,0,0,1,9.43,15.34ZM20.77,12.2a6,6,0,0,0-11.53,0,1.2,1.2,0,0,1-.8.87,6.59,6.59,0,0,1,13.12,0A1.15,1.15,0,0,1,20.77,12.2Zm1.14,6.49a.34.34,0,0,0-.33.34,1,1,0,0,1-1,1h-.34V15.34h.34a1,1,0,0,1,1,1,.34.34,0,0,0,.33.34,1,1,0,1,1,0,2Z"/></svg>