<svg id="_015---Cream-Pot" data-name=" 015---Cream-Pot" xmlns="http://www.w3.org/2000/svg" viewBox="0 0 30 30"><defs><style>.cls-1{fill:#fff;}</style></defs><g id="Group_2544" data-name="Group 2544"><path id="Path_7115" data-name="Path 7115" class="cls-1" d="M4.75,15.82a.51.51,0,0,0,.4.46l1.8.39a6.61,6.61,0,0,0,.24.9L5.84,18.8a.52.52,0,0,0-.13.6,11.37,11.37,0,0,0,.82,1.44.55.55,0,0,0,.59.2l1.74-.57a8.36,8.36,0,0,0,.66.67L9,22.88a.51.51,0,0,0,.2.58,9.63,9.63,0,0,0,1.43.82.5.5,0,0,0,.6-.12l1.23-1.36a7.49,7.49,0,0,0,.9.24l.39,1.8a.52.52,0,0,0,.46.4c.28,0,.55,0,.83,0s.55,0,.83,0a.52.52,0,0,0,.46-.4l.39-1.8a7.49,7.49,0,0,0,.9-.24l1.23,1.36a.52.52,0,0,0,.6.12,12,12,0,0,0,1.43-.82.51.51,0,0,0,.2-.58l-.56-1.75a8.22,8.22,0,0,0,.66-.66l1.74.56a.5.5,0,0,0,.58-.2,8.82,8.82,0,0,0,.82-1.43.52.52,0,0,0-.11-.6l-1.36-1.23a6.61,6.61,0,0,0,.24-.9l1.79-.39a.51.51,0,0,0,.4-.46c0-.27,0-.54,0-.82s0-.56,0-.83a.51.51,0,0,0-.4-.46l-1.79-.39a7.49,7.49,0,0,0-.24-.9l1.36-1.23a.52.52,0,0,0,.11-.6,9.63,9.63,0,0,0-.82-1.43.5.5,0,0,0-.58-.2l-1.74.56q-.32-.35-.66-.66L21,7.12a.52.52,0,0,0-.2-.59,11.25,11.25,0,0,0-1.43-.82.52.52,0,0,0-.6.12L17.58,7.19a7.49,7.49,0,0,0-.9-.24l-.39-1.79a.51.51,0,0,0-.46-.4,9.09,9.09,0,0,0-1.65,0,.51.51,0,0,0-.47.4L13.33,7a6.61,6.61,0,0,0-.9.24L11.19,5.83a.52.52,0,0,0-.6-.12,11.25,11.25,0,0,0-1.43.82.51.51,0,0,0-.2.58l.56,1.75a8.22,8.22,0,0,0-.66.66L7.11,9a.51.51,0,0,0-.58.2,10.6,10.6,0,0,0-.82,1.43.54.54,0,0,0,.12.6l1.36,1.23a6.61,6.61,0,0,0-.24.9l-1.79.38a.52.52,0,0,0-.4.46c0,.28,0,.55,0,.83s0,.55,0,.83Zm1-1.19,1.75-.38a.5.5,0,0,0,.4-.42,7.4,7.4,0,0,1,.37-1.38.51.51,0,0,0-.13-.56l-1.33-1.2.36-.63,1.7.54a.5.5,0,0,0,.55-.16,8.19,8.19,0,0,1,1-1,.5.5,0,0,0,.17-.55l-.55-1.7.63-.36,1.2,1.32a.53.53,0,0,0,.57.14,7.2,7.2,0,0,1,1.38-.37.52.52,0,0,0,.42-.4l.38-1.75h.73l.37,1.75a.52.52,0,0,0,.42.4,7.3,7.3,0,0,1,1.39.37.51.51,0,0,0,.56-.14l1.2-1.32.63.36-.54,1.7a.5.5,0,0,0,.16.55,8.19,8.19,0,0,1,1,1,.5.5,0,0,0,.55.16l1.7-.54.36.63-1.32,1.2a.51.51,0,0,0-.14.56,7.3,7.3,0,0,1,.37,1.39.52.52,0,0,0,.4.42l1.75.37c0,.12,0,.25,0,.37s0,.24,0,.36l-1.75.38a.5.5,0,0,0-.4.42,7.2,7.2,0,0,1-.37,1.38.53.53,0,0,0,.14.57l1.32,1.2q-.18.33-.36.63l-1.7-.55a.5.5,0,0,0-.55.17,7.49,7.49,0,0,1-1,1,.52.52,0,0,0-.16.56l.54,1.69a6.44,6.44,0,0,1-.63.36l-1.2-1.32a.51.51,0,0,0-.56-.13,7.3,7.3,0,0,1-1.39.37.51.51,0,0,0-.42.4l-.37,1.75c-.25,0-.49,0-.73,0l-.38-1.75a.51.51,0,0,0-.42-.4,7.5,7.5,0,0,1-1.39-.37.51.51,0,0,0-.56.13l-1.2,1.32a6.44,6.44,0,0,1-.63-.36l.55-1.69a.53.53,0,0,0-.17-.56,7.49,7.49,0,0,1-1-1,.5.5,0,0,0-.55-.17l-1.7.55q-.18-.3-.36-.63l1.33-1.2a.53.53,0,0,0,.13-.57,7.4,7.4,0,0,1-.37-1.38.5.5,0,0,0-.4-.42l-1.75-.38c0-.12,0-.24,0-.36s0-.25,0-.37Z"/><path id="Path_7118" data-name="Path 7118" class="cls-1" d="M15,20.65A5.66,5.66,0,1,0,9.34,15h0A5.67,5.67,0,0,0,15,20.65Zm0-10.28A4.63,4.63,0,1,1,10.37,15h0A4.63,4.63,0,0,1,15,10.37Z"/></g></svg>