<svg id="_015---Cream-Pot" data-name=" 015---Cream-Pot" xmlns="http://www.w3.org/2000/svg" viewBox="0 0 30 30"><defs><style>.cls-1{fill:#d2d4d8;}.cls-2{fill:#fff;stroke:#fff;}</style></defs><g id="Group_2765" data-name="Group 2765"><circle id="Ellipse_143" data-name="Ellipse 143" class="cls-1" cx="15" cy="15" r="9"/><g id="cancel"><g id="Group_2764" data-name="Group 2764"><path id="Path_7135" data-name="Path 7135" class="cls-2" d="M15.7,15.34l2.9-2.9a.27.27,0,0,0,0-.37.26.26,0,0,0-.37,0h0L15.34,15l-2.9-2.89a.25.25,0,0,0-.36.36L15,15.34l-2.89,2.89a.26.26,0,0,0,0,.37.27.27,0,0,0,.37,0l2.9-2.9,2.89,2.9a.26.26,0,0,0,.37-.37h0Z"/></g></g></g></svg>