<?xml version="1.0" encoding="utf-8"?>
<!-- Generator: Adobe Illustrator 19.0.0, SVG Export Plug-In . SVG Version: 6.00 Build 0)  -->
<svg version="1.1" id="_015---Cream-Pot" xmlns="http://www.w3.org/2000/svg" xmlns:xlink="http://www.w3.org/1999/xlink" x="0px"
	 y="0px" viewBox="-227.3 92.7 16.7 16.7" style="enable-background:new -227.3 92.7 16.7 16.7;" xml:space="preserve">
<style type="text/css">
	.st0{fill:#707070;}
</style>
<path id="star" class="st0" d="M-211.5,98.8l-4.9-0.8l-2.2-4.7c-0.1-0.2-0.4-0.3-0.7-0.2c0,0,0,0,0,0c-0.1,0-0.2,0.1-0.2,0.2
	l-2.2,4.7l-4.9,0.8c-0.3,0-0.5,0.3-0.4,0.6c0,0.1,0.1,0.2,0.1,0.3l3.5,3.6l-0.8,5.1c0,0.3,0.2,0.5,0.4,0.6c0.1,0,0.2,0,0.3,0
	l4.3-2.4l4.4,2.4c0.2,0.1,0.6,0,0.7-0.2c0-0.1,0-0.2,0-0.3l-0.8-5.1l3.5-3.6c0.2-0.2,0.2-0.5,0-0.7c0,0,0,0,0,0
	C-211.3,98.8-211.4,98.8-211.5,98.8L-211.5,98.8z"/>
</svg>
