<svg id="_015---Cream-Pot" data-name=" 015---Cream-Pot" xmlns="http://www.w3.org/2000/svg" viewBox="0 0 30 30"><defs><style>.cls-1{fill:#365e7d;}.cls-2{fill:#2b4d66;}.cls-3{fill:#f9f6f9;}.cls-4{fill:#dddaec;}.cls-5{fill:#9d6b6b;}.cls-6{fill:#8b5e5e;}.cls-7{fill:#9dc6fb;}.cls-8{fill:#698ed5;}.cls-9{fill:#d3effb;}.cls-10{fill:#95d6a4;}</style></defs><circle class="cls-1" cx="12.17" cy="15.55" r="1.57"/><path class="cls-2" d="M12.49,17.09a1.73,1.73,0,0,1-.32,0,1.58,1.58,0,0,1,0-3.15,1.73,1.73,0,0,1,.32,0,1.58,1.58,0,0,0,0,3.09Z"/><ellipse class="cls-3" cx="11.88" cy="16.65" rx="3.18" ry="1.23"/><path class="cls-4" d="M15.06,16.65a3.73,3.73,0,0,1-3.18,1.28A3.75,3.75,0,0,1,8.7,16.65a10.51,10.51,0,0,0,3.18.33,10.47,10.47,0,0,0,3.18-.33Z"/><path class="cls-3" d="M8.21,17.88H21.56v1.35H8.21Z"/><path class="cls-5" d="M7.81,18.54H22V21.6H7.81Z"/><path class="cls-6" d="M7.81,18.54H9.08V21.6H7.81Z"/><path class="cls-5" d="M8.13,23H7.56A.57.57,0,0,1,7,22.44V13.31a.58.58,0,0,1,.58-.57h.57a.58.58,0,0,1,.57.57v9.13A.57.57,0,0,1,8.13,23Z"/><path class="cls-6" d="M8.21,23H7.56A.57.57,0,0,1,7,22.44V13.31a.58.58,0,0,1,.58-.57h.65a.56.56,0,0,0-.5.56v9.13a.58.58,0,0,0,.5.57Z"/><path class="cls-4" d="M13.74,13h-1a.23.23,0,0,1-.21-.13.23.23,0,0,1,0-.24l.69-1.07h-.46a.24.24,0,1,1,0-.47h.9a.22.22,0,0,1,.21.12.23.23,0,0,1,0,.24l-.69,1.07h.51a.24.24,0,1,1,0,.48Z"/><path class="cls-4" d="M12.51,10.77H11.13a.24.24,0,0,1-.21-.12.25.25,0,0,1,0-.25L12,8.7h-.87a.24.24,0,1,1,0-.47h1.31a.24.24,0,0,1,.21.12.25.25,0,0,1,0,.24L11.57,10.3h.94a.24.24,0,1,1,0,.47Z"/><path class="cls-7" d="M21.06,16.76l.5,1.12-.5.87L18.13,20.7l-6.25-2.82a9.21,9.21,0,0,1,.24-2.18,1.67,1.67,0,0,1,1.46-1.26l.34,0h.58c.56,0,1.1.76,1.8.89s1.66-.34,2.5,0a10.35,10.35,0,0,1,2.26,1.41Z"/><path class="cls-8" d="M18.13,20.7l-6.25-2.82a9.21,9.21,0,0,1,.24-2.18,1.67,1.67,0,0,1,1.46-1.26l.34,0C13.6,15.67,13.58,18.38,18.13,20.7Z"/><path class="cls-3" d="M18.8,15.35l-2,1.45a.46.46,0,0,1-.63-.11L14.5,14.41A10.19,10.19,0,0,1,18.8,15.35Z"/><circle class="cls-9" cx="19.16" cy="10.84" r="3.64"/><path class="cls-7" d="M19.8,14.42a3.26,3.26,0,0,1-.62.06,3.64,3.64,0,1,1,0-7.27,3.24,3.24,0,0,1,.62,0,3.63,3.63,0,0,0,0,7.16Z"/><path class="cls-1" d="M19.16,11.31H17.47a.47.47,0,0,1,0-.93h1.69c.26,0,0,.21,0,.46Z"/><path class="cls-2" d="M19.16,11.31a.46.46,0,0,1-.46-.47V9.66a.46.46,0,0,1,.92,0v1.18a.46.46,0,0,1-.46.47Z"/><path class="cls-1" d="M19.16,8.28a.22.22,0,0,1-.22-.23V7.32a.22.22,0,1,1,.44,0v.73A.22.22,0,0,1,19.16,8.28Z"/><path class="cls-1" d="M19.16,14.58a.22.22,0,0,1-.22-.22v-.73a.22.22,0,1,1,.44,0v.73A.22.22,0,0,1,19.16,14.58Z"/><path class="cls-1" d="M22.68,11.06H22a.22.22,0,1,1,0-.44h.73a.22.22,0,0,1,0,.44Z"/><path class="cls-1" d="M16.37,11.06h-.73a.22.22,0,0,1,0-.44h.73a.22.22,0,0,1,0,.44Z"/><path class="cls-1" d="M21.84,9.52a.23.23,0,0,1-.2-.11.22.22,0,0,1,.08-.3l.38-.22a.22.22,0,0,1,.3.08.21.21,0,0,1-.08.3L22,9.49Z"/><path class="cls-1" d="M16.11,12.82a.22.22,0,0,1-.11-.41l.38-.22a.22.22,0,0,1,.3.09.23.23,0,0,1-.08.3l-.38.21a.2.2,0,0,1-.11,0Z"/><path class="cls-1" d="M20.7,8.39l-.11,0a.23.23,0,0,1-.08-.3l.22-.38A.23.23,0,0,1,21,7.6a.22.22,0,0,1,.08.3l-.21.38A.23.23,0,0,1,20.7,8.39Z"/><path class="cls-1" d="M17.4,14.11a.2.2,0,0,1-.11,0,.21.21,0,0,1-.08-.3l.21-.37a.23.23,0,0,1,.31-.09.24.24,0,0,1,.08.31l-.22.37a.21.21,0,0,1-.19.11Z"/><path class="cls-1" d="M17.62,8.39a.24.24,0,0,1-.2-.11l-.21-.38a.22.22,0,0,1,.08-.3.22.22,0,0,1,.3.08l.22.38a.23.23,0,0,1-.08.3Z"/><path class="cls-1" d="M20.92,14.11a.21.21,0,0,1-.19-.11l-.22-.37a.24.24,0,0,1,.08-.31.23.23,0,0,1,.31.09l.21.37a.21.21,0,0,1-.08.3A.2.2,0,0,1,20.92,14.11Z"/><path class="cls-1" d="M16.49,9.52a.2.2,0,0,1-.11,0L16,9.27a.22.22,0,0,1-.08-.3.22.22,0,0,1,.3-.08l.38.22a.22.22,0,0,1,.08.3A.23.23,0,0,1,16.49,9.52Z"/><path class="cls-1" d="M22.21,12.82a.2.2,0,0,1-.11,0l-.38-.21a.23.23,0,0,1-.08-.3.23.23,0,0,1,.31-.09l.37.22a.22.22,0,0,1,.08.3.21.21,0,0,1-.19.11Z"/><path class="cls-10" d="M19.16,14.7A3.86,3.86,0,1,1,23,10.84,3.86,3.86,0,0,1,19.16,14.7Zm0-7.27a3.42,3.42,0,1,0,3.41,3.41A3.41,3.41,0,0,0,19.16,7.43Z"/><path class="cls-5" d="M22.21,23h-.57a.57.57,0,0,1-.58-.57V16.76a.57.57,0,0,1,.58-.57h.57a.57.57,0,0,1,.57.57v5.68A.57.57,0,0,1,22.21,23Z"/><path class="cls-6" d="M22.26,23h-.62a.57.57,0,0,1-.58-.57V16.76a.57.57,0,0,1,.58-.57h.62a.58.58,0,0,0-.52.57v5.68a.58.58,0,0,0,.52.57Z"/></svg>