<svg id="_015---Cream-Pot" data-name=" 015---Cream-Pot" xmlns="http://www.w3.org/2000/svg" viewBox="0 0 30 30"><defs><style>.cls-1{fill:none;stroke:#3cbe55;stroke-width:1.3px;}</style></defs><g id="google-place"><path id="Path_7164" data-name="Path 7164" class="cls-1" d="M15.21,6.59A6,6,0,0,0,9,12.39c0,.07,0,.14,0,.21,0,3.85,3.7,6.64,5.77,10.66a.28.28,0,0,0,.38.13.25.25,0,0,0,.12-.13c1.88-3.61,5.08-6,5.67-9.52a6.1,6.1,0,0,0-5-7.07A6.53,6.53,0,0,0,15.21,6.59ZM15,15.75a3.15,3.15,0,1,1,3.15-3.15A3.15,3.15,0,0,1,15,15.75Z"/></g></svg>