<svg id="_015---Cream-Pot" data-name=" 015---Cream-Pot" xmlns="http://www.w3.org/2000/svg" viewBox="0 0 30 30"><defs><style>.cls-1{fill:#fff;}.cls-2{fill:none;stroke:#ededed;}.cls-3,.cls-4{isolation:isolate;}.cls-4{font-size:7.05px;font-family:Muli-Regular, Muli;}.cls-5{fill:#ffc107;}</style></defs><g id="Group_2864" data-name="Group 2864"><g id="Rectangle_396" data-name="Rectangle 396"><rect class="cls-1" x="1.37" y="4.66" width="27.27" height="20.68" rx="8.46"/><rect class="cls-2" x="1.6" y="4.89" width="26.79" height="20.21" rx="8.23"/></g><g id="_2" data-name=" 2" class="cls-3"><text class="cls-4" transform="translate(18.29 16.88)">2</text></g><path id="star" class="cls-5" d="M15.68,13l-3-.46L11.32,9.62a.31.31,0,0,0-.43-.12.28.28,0,0,0-.12.12L9.42,12.49l-3,.46a.31.31,0,0,0-.26.35.32.32,0,0,0,.09.17l2.18,2.24-.51,3.17a.3.3,0,0,0,.25.35.28.28,0,0,0,.2,0l2.69-1.48,2.68,1.48a.31.31,0,0,0,.42-.12.26.26,0,0,0,0-.19l-.51-3.17,2.18-2.24a.31.31,0,0,0,0-.44.38.38,0,0,0-.17-.08Z"/></g></svg>