<svg id="_015---Cream-Pot" data-name=" 015---Cream-Pot" xmlns="http://www.w3.org/2000/svg" viewBox="0 0 30 30"><defs><style>.cls-1{fill:#fff;}.cls-2{fill:none;stroke:#3cbe55;}.cls-3{fill:#3cbe55;}</style></defs><g id="Group_2916" data-name="Group 2916"><g id="Ellipse_161" data-name="Ellipse 161"><circle class="cls-1" cx="15" cy="15" r="11.03"/><circle class="cls-2" cx="15" cy="15" r="10.66"/></g><g id="settings"><path id="Path_36" data-name="Path 36" class="cls-3" d="M15.37,20.88h-.74a1.09,1.09,0,0,1-1.09-1.08h0v-.25a4.87,4.87,0,0,1-.71-.3l-.18.18a1.09,1.09,0,0,1-1.53,0h0l-.54-.55a1.07,1.07,0,0,1,0-1.52h0l.18-.17a4.78,4.78,0,0,1-.3-.74h-.25a1.08,1.08,0,0,1-1.09-1.08v-.73a1.09,1.09,0,0,1,1.09-1.09h.25a4.87,4.87,0,0,1,.3-.71l-.17-.18a1.09,1.09,0,0,1,0-1.53h0l.54-.54a1.09,1.09,0,0,1,1.53,0h0l.17.18a4.78,4.78,0,0,1,.74-.3v-.25a1.08,1.08,0,0,1,1.08-1.09h.74a1.08,1.08,0,0,1,1.08,1.09h0v.25a4.45,4.45,0,0,1,.71.3l.17-.17a1.09,1.09,0,0,1,1.53,0h0l.55.54a1.09,1.09,0,0,1,0,1.53h0l-.19.17a6.07,6.07,0,0,1,.31.74h.25a1.09,1.09,0,0,1,1.09,1.08v.74a1.08,1.08,0,0,1-1.09,1.08h-.25a4.49,4.49,0,0,1-.31.71l.18.17a1.09,1.09,0,0,1,0,1.53h0l-.55.55a1.07,1.07,0,0,1-1.52,0h0l-.17-.19a4.82,4.82,0,0,1-.74.31v.25A1.08,1.08,0,0,1,15.37,20.88Zm-2.44-2.36A4.48,4.48,0,0,0,14,19a.33.33,0,0,1,.25.33v.51a.39.39,0,0,0,.39.39h.74a.39.39,0,0,0,.4-.39v-.51A.34.34,0,0,1,16,19a4.38,4.38,0,0,0,1-.43.33.33,0,0,1,.42,0l.36.36a.38.38,0,0,0,.54,0h0L19,18.4a.41.41,0,0,0,0-.55h0l-.36-.37a.32.32,0,0,1-.06-.41A4.18,4.18,0,0,0,19,16a.34.34,0,0,1,.33-.27h.52a.39.39,0,0,0,.39-.39h0v-.73a.39.39,0,0,0-.39-.39h-.51A.35.35,0,0,1,19,14a4.58,4.58,0,0,0-.44-1.05.32.32,0,0,1,.05-.41l.36-.36a.41.41,0,0,0,0-.55h0l-.54-.54a.39.39,0,0,0-.55,0h0l-.36.37a.35.35,0,0,1-.42.05,3.87,3.87,0,0,0-1-.43.36.36,0,0,1-.26-.34v-.5a.4.4,0,0,0-.39-.4h-.75a.4.4,0,0,0-.39.4h0v.5a.35.35,0,0,1-.26.34,3.72,3.72,0,0,0-1.05.44.34.34,0,0,1-.42-.06l-.36-.36a.4.4,0,0,0-.54,0h0l-.55.55a.4.4,0,0,0,0,.54h0l.36.36a.36.36,0,0,1,.06.42A3.69,3.69,0,0,0,11.05,14a.35.35,0,0,1-.34.26h-.54a.39.39,0,0,0-.39.39h0v.74a.38.38,0,0,0,.39.39h.51A.35.35,0,0,1,11,16a3.58,3.58,0,0,0,.43,1,.35.35,0,0,1,0,.42l-.36.36a.39.39,0,0,0,0,.55h0l.54.54a.39.39,0,0,0,.55,0h0l.35-.37a.35.35,0,0,1,.42,0Z"/><path id="Path_37" data-name="Path 37" class="cls-3" d="M15,17.56A2.56,2.56,0,1,1,17.56,15h0A2.56,2.56,0,0,1,15,17.56Zm0-4.43A1.87,1.87,0,1,0,16.87,15h0A1.88,1.88,0,0,0,15,13.13Z"/></g></g></svg>