<?xml version="1.0" encoding="utf-8"?>
<!-- Generator: Adobe Illustrator 19.0.0, SVG Export Plug-In . SVG Version: 6.00 Build 0)  -->
<svg version="1.1" id="_015---Cream-Pot" xmlns="http://www.w3.org/2000/svg" xmlns:xlink="http://www.w3.org/1999/xlink" x="0px"
	 y="0px" viewBox="-226.4 93.6 14.8 14.8" style="enable-background:new -226.4 93.6 14.8 14.8;" xml:space="preserve">
<style type="text/css">
	.st0{fill:#3CBE55;}
	.st1{fill:#FFC13F;}
</style>
<path id="Path_6890" class="st0" d="M-219,93.6c-4.1,0-7.4,3.3-7.4,7.4c0,4.1,3.3,7.4,7.4,7.4c4.1,0,7.4-3.3,7.4-7.4l0,0
	C-211.6,96.9-214.9,93.6-219,93.6z"/>
<g id="Group_2317">
	<path id="Path_6891" class="st1" d="M-215.8,104.4h-6.4c-0.2,0-0.4-0.2-0.4-0.4l-0.7-3.9c0-0.3,0.1-0.5,0.4-0.5c0.1,0,0.2,0,0.3,0
		l1.8,0.9l1.5-2.6c0.1-0.2,0.4-0.3,0.6-0.1c0,0,0,0,0,0c0.1,0,0.1,0.1,0.1,0.1l1.5,2.6l1.8-0.9c0.2-0.1,0.5,0,0.6,0.2
		c0,0.1,0,0.2,0,0.3l-0.6,4C-215.4,104.2-215.6,104.4-215.8,104.4z"/>
	<path id="Path_6893" class="st1" d="M-219,97.6c-0.2,0-0.3,0.1-0.4,0.2l-1.5,2.6l-1.8-0.9c-0.2-0.1-0.5,0-0.6,0.2
		c0,0.1,0,0.2,0,0.3l0.6,3.9c0,0.2,0.2,0.4,0.4,0.4h3.2V97.6z"/>
</g>
</svg>
