<svg id="_015---Cream-Pot" data-name=" 015---Cream-Pot" xmlns="http://www.w3.org/2000/svg" viewBox="0 0 30 30"><defs><style>.cls-1{fill:#fcbd3e;stroke:#fcbd3e;stroke-width:0.5px;}</style></defs><g id="lamp"><g id="Group_2819" data-name="Group 2819"><path id="Path_7213" data-name="Path 7213" class="cls-1" d="M16.22,24.72H13.79a1.31,1.31,0,0,1-1.22-1.41V21.56a2.82,2.82,0,0,0-1.05-2.11,5.61,5.61,0,0,1-2.19-4.53A5.67,5.67,0,0,1,19,11,5.76,5.76,0,0,1,20.67,15a5.43,5.43,0,0,1-2.11,4.37,3,3,0,0,0-1.13,2.27V23.5A1.25,1.25,0,0,1,16.22,24.72ZM15,10.14a5,5,0,0,0-4.86,4.78A4.8,4.8,0,0,0,12,18.81a3.49,3.49,0,0,1,1.38,2.75v1.7c0,.16,0,.65.41.65h2.43a.38.38,0,0,0,.4-.36V21.64a3.92,3.92,0,0,1,1.46-2.92A4.72,4.72,0,0,0,19.86,15,4.85,4.85,0,0,0,15,10.14Z"/></g><g id="Group_2820" data-name="Group 2820"><path id="Path_7214" data-name="Path 7214" class="cls-1" d="M17,22.29H13a.41.41,0,1,1,0-.81h4a.41.41,0,1,1,0,.81Z"/></g><g id="Group_2821" data-name="Group 2821"><path id="Path_7215" data-name="Path 7215" class="cls-1" d="M15,7.71a.37.37,0,0,1-.4-.36,0,0,0,0,1,0,0V5.69a.4.4,0,1,1,.8,0V7.31a.37.37,0,0,1-.35.4Z"/></g><g id="Group_2822" data-name="Group 2822"><path id="Path_7216" data-name="Path 7216" class="cls-1" d="M20.42,10a.53.53,0,0,1-.32-.08.38.38,0,0,1,0-.55v0L21.23,8.2a.4.4,0,0,1,.57.57h0L20.67,9.9a.75.75,0,0,1-.24.08Z"/></g><g id="Group_2823" data-name="Group 2823"><path id="Path_7217" data-name="Path 7217" class="cls-1" d="M24.31,15.4H22.69a.4.4,0,0,1-.4-.4.42.42,0,0,1,.4-.41h1.62a.42.42,0,0,1,.41.41A.41.41,0,0,1,24.31,15.4Z"/></g><g id="Group_2824" data-name="Group 2824"><path id="Path_7218" data-name="Path 7218" class="cls-1" d="M21.56,22a.43.43,0,0,1-.33-.08L20.1,20.75a.4.4,0,0,1,0-.57.42.42,0,0,1,.57,0l1.13,1.13a.4.4,0,0,1,0,.56h0c0,.08-.08.08-.24.08Z"/></g><g id="Group_2825" data-name="Group 2825"><path id="Path_7219" data-name="Path 7219" class="cls-1" d="M8.44,22a.41.41,0,0,1-.32-.08.39.39,0,0,1,0-.55h0l1.13-1.14a.4.4,0,0,1,.57.57L8.68,21.88a.3.3,0,0,1-.24.08Z"/></g><g id="Group_2826" data-name="Group 2826"><path id="Path_7220" data-name="Path 7220" class="cls-1" d="M7.31,15.4H5.69a.41.41,0,0,1-.41-.4.42.42,0,0,1,.41-.41H7.31a.41.41,0,0,1,.4.41A.4.4,0,0,1,7.31,15.4Z"/></g><g id="Group_2827" data-name="Group 2827"><path id="Path_7221" data-name="Path 7221" class="cls-1" d="M9.58,10a.54.54,0,0,1-.33-.08L8.12,8.68a.4.4,0,1,1,.56-.56L9.82,9.25a.39.39,0,0,1,0,.55v0c-.08.08-.16.16-.24.16Z"/></g><g id="Group_2828" data-name="Group 2828"><path id="Path_7222" data-name="Path 7222" class="cls-1" d="M18.24,15.41a.4.4,0,0,1-.41-.36V15A2.86,2.86,0,0,0,15,12.17a.41.41,0,0,1,0-.81h0A3.62,3.62,0,0,1,18.64,15v0a.38.38,0,0,1-.36.41Z"/></g></g></svg>