<?xml version="1.0" encoding="utf-8"?>
<!-- Generator: Adobe Illustrator 19.0.0, SVG Export Plug-In . SVG Version: 6.00 Build 0)  -->
<svg version="1.1" id="_015---Cream-Pot" xmlns="http://www.w3.org/2000/svg" xmlns:xlink="http://www.w3.org/1999/xlink" x="0px"
	 y="0px" viewBox="-225.6 94.3 13.3 13.5" style="enable-background:new -225.6 94.3 13.3 13.5;" xml:space="preserve">
<style type="text/css">
	.st0{fill:#7A0FC9;}
	.st1{fill:#DB8725;}
</style>
<g id="Group_2319">
	<g id="heart-form-with-squares">
		<g id="Group_2307">
			<path id="Path_6886" class="st0" d="M-217.3,95.9c-0.4,0.5-1,0.7-1.7,0.7c-0.7-0.1-1.3-0.5-1.6-1c-2-2.4-4.7,0.4-4.6,2.9v6.6
				c-0.1,1,0.7,2,1.7,2.1h6c2.7,0,4.8-2.7,4.8-6v-2.9C-212.8,96-215.3,93.6-217.3,95.9z"/>
		</g>
	</g>
	<g id="check">
		<g id="Group_2308">
			<path id="Path_6887" class="st1" d="M-219.2,104c-0.4,0.4-1,0.4-1.4,0c0,0,0,0,0,0l0,0l-2.2-2.2c-0.4-0.4-0.4-1,0-1.4
				s1-0.4,1.4,0l1.3,1.3c0.1,0.1,0.3,0.1,0.4,0c0,0,0,0,0,0l0,0l3.5-3.5c0.4-0.4,1-0.4,1.4,0c0,0,0,0,0,0c0.4,0.4,0.4,1,0,1.4
				L-219.2,104z"/>
		</g>
	</g>
</g>
</svg>
