<svg id="_015---Cream-Pot" data-name=" 015---Cream-Pot" xmlns="http://www.w3.org/2000/svg" viewBox="0 0 30 30"><defs><style>.cls-1{fill:#d6dade;}.cls-2{fill:#fff;}.cls-3{fill:none;}.cls-3,.cls-4{stroke:#cecece;}.cls-4{fill:#8d8d8d;}</style></defs><g id="Group_95" data-name="Group 95"><g id="Rectangle_61" data-name="Rectangle 61"><path id="Path_7162" data-name="Path 7162" class="cls-1" d="M10.94,8.66h8.12A6.34,6.34,0,0,1,25.4,15h0a6.34,6.34,0,0,1-6.34,6.34H10.94A6.34,6.34,0,0,1,4.6,15h0a6.34,6.34,0,0,1,6.34-6.34Z"/></g><circle id="Ellipse_146" data-name="Ellipse 146" class="cls-2" cx="11.11" cy="15.17" r="5.16"/><circle id="Ellipse_147" data-name="Ellipse 147" class="cls-3" cx="11.11" cy="15.17" r="5.33"/><g id="cancel"><g id="Group_2764" data-name="Group 2764"><path id="Path_7135" data-name="Path 7135" class="cls-4" d="M11.29,15.11l2-1.95a.18.18,0,0,0-.25-.25l-2,1.95L9.09,12.91a.16.16,0,0,0-.24,0,.18.18,0,0,0,0,.25l2,1.95-2,1.95a.18.18,0,0,0,0,.25.17.17,0,0,0,.25,0l1.95-2,2,2a.18.18,0,0,0,.25-.25Z"/></g></g></g></svg>