<svg id="_015---Cream-Pot" data-name=" 015---Cream-Pot" xmlns="http://www.w3.org/2000/svg" viewBox="0 0 30 30"><defs><style>.cls-1{fill:#704537;}.cls-2{fill:#90a4ae;}.cls-3{fill:#78909c;}.cls-4{fill:#e8916f;}.cls-5{fill:#ebad88;}.cls-6{fill:#f76c57;}.cls-7{fill:#e7387f;}.cls-8{fill:#fff7e6;}.cls-9{fill:#7d4d3d;}.cls-10{fill:#ffd740;}.cls-11{fill:#ffc400;}.cls-12{fill:#607d8b;}.cls-13{fill:#546e7a;}</style></defs><g id="customer-service"><path id="Path_7232" data-name="Path 7232" class="cls-1" d="M10.37,13.94h9.26v8.11H10.37Z"/><path id="Path_7233" data-name="Path 7233" class="cls-2" d="M20.87,13.47H9.13V10.73a5.15,5.15,0,0,1,5.15-5.15h1.57a5,5,0,0,1,5,5Z"/><path id="Path_7234" data-name="Path 7234" class="cls-3" d="M15.85,5.58H14.71a5,5,0,0,1,5,5h0v2.86h1.13V10.61a5,5,0,0,0-5-5Z"/><path id="Path_7235" data-name="Path 7235" class="cls-4" d="M13.86,17.9h2.28v3.79H13.86Z"/><path id="Path_7236" data-name="Path 7236" class="cls-5" d="M10.91,14.43v-3a3.86,3.86,0,0,1,3.86-3.86h.46a3.85,3.85,0,0,1,3.86,3.86h0v3A4.09,4.09,0,0,1,15,18.52h0a4.09,4.09,0,0,1-4.09-4.09Z"/><path id="Path_7237" data-name="Path 7237" class="cls-4" d="M15.23,7.53h-.8A3.86,3.86,0,0,1,18,11.39v3a4.09,4.09,0,0,1-3.53,4.05,3.64,3.64,0,0,0,.57,0h0a4.09,4.09,0,0,0,4.09-4.09v-3a3.86,3.86,0,0,0-3.86-3.86Z"/><path id="Path_7238" data-name="Path 7238" class="cls-6" d="M12.8,20.09h4.4a3.49,3.49,0,0,1,3.49,3.49h0v.61a.23.23,0,0,1-.23.23H9.54a.23.23,0,0,1-.23-.23h0v-.61A3.49,3.49,0,0,1,12.8,20.09Z"/><path id="Path_7239" data-name="Path 7239" class="cls-7" d="M17.2,20.09H16.06a3.49,3.49,0,0,1,3.49,3.49h0v.84h.91a.23.23,0,0,0,.23-.23h0v-.61a3.49,3.49,0,0,0-3.49-3.49Z"/><path id="Path_7240" data-name="Path 7240" class="cls-8" d="M13.82,19.43l-.74.61a.09.09,0,0,0,0,.11h0l1.05,1.17a.09.09,0,0,0,.11,0s0,0,0,0L15,20.09l-1.09-.67A.1.1,0,0,0,13.82,19.43Z"/><path id="Path_7241" data-name="Path 7241" class="cls-8" d="M16.18,19.43l.74.61a.09.09,0,0,1,0,.11h0l-1.05,1.17a.09.09,0,0,1-.11,0s0,0,0,0L15,20.09l1.09-.67A.1.1,0,0,1,16.18,19.43Z"/><path id="Path_7242" data-name="Path 7242" class="cls-9" d="M19.63,12.66c-.53.09-.54,1.09-.54,1.09s-.39.16-.53-.08a26.6,26.6,0,0,1-3.44-5.28A.12.12,0,0,0,15,8.32a.18.18,0,0,0-.08.07,26.72,26.72,0,0,1-3.43,5.28c-.14.24-.53.08-.53.08s0-1-.54-1.09a5.19,5.19,0,0,1-.21-2.53C10.48,8.5,11.38,6.94,15,6.94s4.53,1.56,4.84,3.19a5.19,5.19,0,0,1-.21,2.53Z"/><path id="Path_7243" data-name="Path 7243" class="cls-1" d="M19.84,10.13C19.53,8.5,18.62,6.94,15,6.94h-.57c3.15.16,4,1.63,4.27,3.18a5.07,5.07,0,0,1-.2,2.53.57.57,0,0,0-.42.4l.48.61c.14.24.53.07.53.07s0-1,.54-1.08A5.19,5.19,0,0,0,19.84,10.13Z"/><path id="Path_7244" data-name="Path 7244" class="cls-10" d="M19.61,15.72h1.3A1.06,1.06,0,0,0,22,14.66V12.23a1.06,1.06,0,0,0-1.06-1.06h-1.3a.52.52,0,0,0-.52.52V15.2A.52.52,0,0,0,19.61,15.72Z"/><path id="Path_7245" data-name="Path 7245" class="cls-11" d="M20.91,11.17H19.78a1.07,1.07,0,0,1,1.06,1.06v2.43a1.07,1.07,0,0,1-1.06,1.06h1.13A1.06,1.06,0,0,0,22,14.66V12.23A1.06,1.06,0,0,0,20.91,11.17Z"/><path id="Path_7246" data-name="Path 7246" class="cls-3" d="M13.87,16.51h-4a.11.11,0,0,1-.1-.11v-.68a.28.28,0,0,0-.28-.27.27.27,0,0,0-.27.27v.68a.66.66,0,0,0,.65.66h4a.28.28,0,0,0,.27-.28.27.27,0,0,0-.27-.27Z"/><path id="Path_7247" data-name="Path 7247" class="cls-8" d="M16.14,24.42v-1a.15.15,0,0,1,.15-.16h2.42a.16.16,0,0,1,.16.16h0v1Z"/><path id="Path_7248" data-name="Path 7248" class="cls-12" d="M15.83,17.39H14.17a.31.31,0,0,1-.31-.31v-.6a.31.31,0,0,1,.31-.31h1.66a.31.31,0,0,1,.31.31v.6a.31.31,0,0,1-.31.31Z"/><path id="Path_7249" data-name="Path 7249" class="cls-13" d="M15.83,16.18H14.7a.3.3,0,0,1,.3.3v.61a.31.31,0,0,1-.3.3h1.13a.31.31,0,0,0,.31-.3v-.61A.3.3,0,0,0,15.83,16.18Z"/><path id="Path_7250" data-name="Path 7250" class="cls-10" d="M10.39,15.72H9.09A1.06,1.06,0,0,1,8,14.66V12.23a1.06,1.06,0,0,1,1.06-1.06h1.3a.52.52,0,0,1,.52.52V15.2A.52.52,0,0,1,10.39,15.72Z"/><path id="Path_7251" data-name="Path 7251" class="cls-11" d="M10.39,11.17H9.25a.52.52,0,0,1,.52.52V15.2a.52.52,0,0,1-.52.52h1.14a.52.52,0,0,0,.52-.52V11.69A.52.52,0,0,0,10.39,11.17Z"/></g></svg>