<svg id="_015---Cream-Pot" data-name=" 015---Cream-Pot" xmlns="http://www.w3.org/2000/svg" viewBox="0 0 30 30"><defs><style>.cls-1{fill:#3cbe55;stroke:#3cbe55;stroke-width:0.1px;}</style></defs><g id="engineering"><path id="Path_6448" data-name="Path 6448" class="cls-1" d="M4.31,15.86a.54.54,0,0,0,.43.48l1.87.4a6.54,6.54,0,0,0,.25.94L5.44,19a.52.52,0,0,0-.12.63,11.11,11.11,0,0,0,.85,1.5.55.55,0,0,0,.61.2l1.81-.58a9.13,9.13,0,0,0,.7.69L8.7,23.22a.53.53,0,0,0,.21.6,10.48,10.48,0,0,0,1.49.86.55.55,0,0,0,.63-.12l1.28-1.42a8.16,8.16,0,0,0,.94.25l.4,1.87a.54.54,0,0,0,.48.42,8.46,8.46,0,0,0,.87.05,8.27,8.27,0,0,0,.86-.05.53.53,0,0,0,.49-.42l.4-1.87a8.23,8.23,0,0,0,.94-.26L19,24.56a.55.55,0,0,0,.63.12,10.48,10.48,0,0,0,1.49-.86.53.53,0,0,0,.21-.6l-.59-1.82a7.49,7.49,0,0,0,.69-.69l1.82.58a.54.54,0,0,0,.61-.2,11.11,11.11,0,0,0,.85-1.5.51.51,0,0,0-.12-.62l-1.42-1.29a7.23,7.23,0,0,0,.26-.94l1.87-.4a.53.53,0,0,0,.42-.48c0-.28,0-.57,0-.86s0-.58,0-.86a.54.54,0,0,0-.42-.49l-1.87-.4c-.07-.32-.15-.63-.25-.94L24.56,11a.54.54,0,0,0,.13-.63,11.18,11.18,0,0,0-.86-1.5.54.54,0,0,0-.6-.2l-1.82.58q-.33-.36-.69-.69l.58-1.82a.52.52,0,0,0-.2-.6,11.18,11.18,0,0,0-1.5-.86.52.52,0,0,0-.62.13L17.69,6.85c-.31-.1-.62-.18-.94-.25l-.4-1.87a.53.53,0,0,0-.48-.42,9.88,9.88,0,0,0-1.72,0,.54.54,0,0,0-.49.42l-.4,1.87c-.31.07-.63.15-.94.25L11,5.43a.55.55,0,0,0-.63-.12,10.42,10.42,0,0,0-1.49.85.55.55,0,0,0-.21.61l.59,1.82a6.42,6.42,0,0,0-.69.69L6.78,8.69a.54.54,0,0,0-.61.21,10.42,10.42,0,0,0-.85,1.49.55.55,0,0,0,.12.63L6.86,12.3a8.16,8.16,0,0,0-.25.94l-1.87.4a.54.54,0,0,0-.43.49c0,.28,0,.57,0,.86s0,.58,0,.86Zm1-1.25,1.83-.39a.56.56,0,0,0,.42-.44A7.11,7.11,0,0,1,8,12.34a.54.54,0,0,0-.14-.59L6.46,10.5c.12-.23.25-.45.38-.66l1.77.57a.53.53,0,0,0,.58-.17,7.08,7.08,0,0,1,1.06-1.06.53.53,0,0,0,.17-.58L9.85,6.83c.21-.13.43-.26.66-.38l1.25,1.38a.53.53,0,0,0,.58.15,7.22,7.22,0,0,1,1.45-.39.54.54,0,0,0,.44-.42l.39-1.82a4.82,4.82,0,0,1,.76,0l.39,1.82a.54.54,0,0,0,.44.42A7.22,7.22,0,0,1,17.66,8a.53.53,0,0,0,.58-.15l1.25-1.37c.23.12.46.24.66.37L19.58,8.6a.55.55,0,0,0,.17.58,7.66,7.66,0,0,1,1.07,1.06.53.53,0,0,0,.58.17l1.76-.57a7.08,7.08,0,0,1,.38.66l-1.38,1.25a.54.54,0,0,0-.14.59,7.11,7.11,0,0,1,.38,1.44.56.56,0,0,0,.42.44l1.83.39c0,.13,0,.25,0,.38s0,.26,0,.38l-1.83.4a.52.52,0,0,0-.41.43A7.22,7.22,0,0,1,22,17.65a.55.55,0,0,0,.14.59l1.38,1.24c-.12.23-.25.46-.38.66l-1.76-.57a.53.53,0,0,0-.58.17,7.73,7.73,0,0,1-1.07,1.07.53.53,0,0,0-.17.57l.57,1.77a6,6,0,0,1-.66.38l-1.24-1.37a.55.55,0,0,0-.59-.15,7.22,7.22,0,0,1-1.45.39.52.52,0,0,0-.43.42l-.4,1.82h-.76l-.39-1.82a.53.53,0,0,0-.44-.42A7.13,7.13,0,0,1,12.35,22a.53.53,0,0,0-.59.15l-1.25,1.37c-.23-.12-.45-.25-.66-.38l.57-1.76a.53.53,0,0,0-.17-.58,7.58,7.58,0,0,1-1.06-1.06.54.54,0,0,0-.58-.18l-1.77.57c-.13-.2-.26-.42-.38-.65l1.38-1.25A.53.53,0,0,0,8,17.65a8,8,0,0,1-.38-1.44.53.53,0,0,0-.42-.44l-1.82-.4c0-.12,0-.25,0-.38S5.35,14.74,5.35,14.61Z"/><path id="Path_6451" data-name="Path 6451" class="cls-1" d="M15,20.89A5.9,5.9,0,1,0,9.1,15h0A5.9,5.9,0,0,0,15,20.89Zm0-10.73A4.83,4.83,0,1,1,10.17,15h0A4.85,4.85,0,0,1,15,10.16Z"/></g></svg>