<svg id="_015---Cream-Pot" data-name=" 015---Cream-Pot" xmlns="http://www.w3.org/2000/svg" viewBox="0 0 30 30"><defs><style>.cls-1{fill:#fec641;}.cls-2{fill:#fff7e0;}</style></defs><g id="Group_2690" data-name="Group 2690"><path id="Path_6589" data-name="Path 6589" class="cls-1" d="M4.58,11.43l4.22-.24,9.86-3.85,1-2.19L21.48,6v6.26l2.69.77V15.6l-2.69,1.06V23l-1.18.67-1.14-.38-.75-1.94L8.48,17.2S9.23,20.14,9.74,22s.9,2.05.9,2.05l-4.12.75L4.85,17.4,2.73,16l-.25-2.93Z"/><g id="megaphone"><g id="Group_2172" data-name="Group 2172"><g id="Group_2171" data-name="Group 2171"><path id="Path_6585" data-name="Path 6585" class="cls-2" d="M20.12,4.86a1.72,1.72,0,0,0-1.73,1.73v.3l-10.08,4a.41.41,0,0,0-.27.4v6a.43.43,0,0,0,.27.4l10.08,4v.31a1.73,1.73,0,0,0,3.45.09V6.59A1.72,1.72,0,0,0,20.12,4.86ZM21,22.12a.85.85,0,0,1-.86.86.87.87,0,0,1-.87-.86h0v-.6a.41.41,0,0,0-.27-.4l-10.08-4V11.63L19,7.59a.41.41,0,0,0,.27-.4v-.6a.87.87,0,0,1,1.73,0Z"/></g></g><g id="Group_2174" data-name="Group 2174"><g id="Group_2173" data-name="Group 2173"><path id="Path_6586" data-name="Path 6586" class="cls-2" d="M8.47,10.9h-3a3.45,3.45,0,0,0,0,6.9h3a.43.43,0,0,0,.43-.43v-6A.43.43,0,0,0,8.47,10.9Zm-.43,6H5.45a2.59,2.59,0,0,1-.1-5.18H8v5.18Z"/></g></g><g id="Group_2176" data-name="Group 2176"><g id="Group_2175" data-name="Group 2175"><path id="Path_6587" data-name="Path 6587" class="cls-2" d="M24.14,12.65l-2.59-.86a.43.43,0,0,0-.55.27.59.59,0,0,0,0,.14v4.31a.43.43,0,0,0,.43.43l.14,0,2.59-.86a.45.45,0,0,0,.3-.41V13.06A.44.44,0,0,0,24.14,12.65Zm-.57,2.69-1.73.57V12.79l1.73.58Z"/></g></g><g id="Group_2178" data-name="Group 2178"><g id="Group_2177" data-name="Group 2177"><path id="Path_6588" data-name="Path 6588" class="cls-2" d="M10.59,22.76l-.43-.43L8.89,17.27a.44.44,0,0,0-.42-.33H5a.43.43,0,0,0-.43.43.31.31,0,0,0,0,.1l1.72,7.34a.44.44,0,0,0,.42.33h.09l3.24-.63h0a1,1,0,0,0,.5-.27,1,1,0,0,0,0-1.46h0Zm-.61.85a.14.14,0,0,1-.08.05l-2.83.55-1.5-6.4H8.14l1.21,4.85a.56.56,0,0,0,.11.2l.52.51a.18.18,0,0,1,0,.12.14.14,0,0,1-.06.12Z"/></g></g><g id="Group_2180" data-name="Group 2180"><g id="Group_2179" data-name="Group 2179"><rect id="Rectangle_339" data-name="Rectangle 339" class="cls-2" x="25.3" y="13.92" width="2.59" height="0.86"/></g></g><g id="Group_2182" data-name="Group 2182"><g id="Group_2181" data-name="Group 2181"><rect id="Rectangle_340" data-name="Rectangle 340" class="cls-2" x="25.12" y="9.39" width="2.52" height="0.86" transform="matrix(0.86, -0.51, 0.51, 0.86, -1.3, 14.97)"/></g></g><g id="Group_2184" data-name="Group 2184"><g id="Group_2183" data-name="Group 2183"><rect id="Rectangle_341" data-name="Rectangle 341" class="cls-2" x="25.95" y="17.62" width="0.86" height="2.52" transform="translate(-3.39 31.79) rotate(-59.04)"/></g></g><g id="Group_2186" data-name="Group 2186"><g id="Group_2185" data-name="Group 2185"><rect id="Rectangle_342" data-name="Rectangle 342" class="cls-2" x="18.39" y="7.02" width="0.86" height="14.67"/></g></g><g id="Group_2188" data-name="Group 2188"><g id="Group_2187" data-name="Group 2187"><rect id="Rectangle_343" data-name="Rectangle 343" class="cls-2" x="6.31" y="12.63" width="0.86" height="1.73"/></g></g><g id="Group_2190" data-name="Group 2190"><g id="Group_2189" data-name="Group 2189"><rect id="Rectangle_344" data-name="Rectangle 344" class="cls-2" x="4.59" y="12.63" width="0.86" height="1.73"/></g></g></g></g></svg>