<svg id="_015---Cream-Pot" data-name=" 015---Cream-Pot" xmlns="http://www.w3.org/2000/svg" viewBox="0 0 30 30"><defs><style>.cls-1{fill:#707070;}</style></defs><g id="Group_2413" data-name="Group 2413"><g id="Group_2412" data-name="Group 2412"><path id="Path_7055" data-name="Path 7055" class="cls-1" d="M23.22,21.83,21.8,19.46a7,7,0,0,1-1-3.63V13.76a5.8,5.8,0,0,0-4.14-5.55V6.72a1.66,1.66,0,1,0-3.32,0V8.2A5.82,5.82,0,0,0,9.2,13.76v2.08a7,7,0,0,1-1,3.62L6.78,21.83a.42.42,0,0,0,.35.63H22.87a.42.42,0,0,0,.41-.42.39.39,0,0,0-.06-.21Z"/></g></g><g id="Group_2415" data-name="Group 2415"><g id="Group_2414" data-name="Group 2414"><path id="Path_7056" data-name="Path 7056" class="cls-1" d="M12.39,23.28a2.89,2.89,0,0,0,3.83,1.39,2.93,2.93,0,0,0,1.39-1.39Z"/></g></g></svg>