<svg id="_015---Cream-Pot" data-name=" 015---Cream-Pot" xmlns="http://www.w3.org/2000/svg" viewBox="0 0 30 30"><defs><style>.cls-1{fill:#a53737;}.cls-2{fill:#fff;}</style></defs><g id="Group_2474" data-name="Group 2474"><circle id="Ellipse_133-2" data-name="Ellipse 133-2" class="cls-1" cx="15" cy="15" r="8.92"/><g id="clothes-hanger"><path id="Path_7093" data-name="Path 7093" class="cls-1" d="M19,17.78a.87.87,0,0,1-.86.86h-6.6a.87.87,0,0,1-.85-.87.83.83,0,0,1,.41-.72l3.74-2.27.57-.85-.57-.86a1.71,1.71,0,0,0-1.63,1.2,1.63,1.63,0,0,1-.56.8l-2,1.59a1.43,1.43,0,0,0,.89,2.55h6a1.59,1.59,0,0,0,1.71-1.43Z"/><path id="Path_7094" data-name="Path 7094" class="cls-1" d="M19,16.66l-2-1.59a1.74,1.74,0,0,1-.56-.8,1.71,1.71,0,0,0-1.63-1.2v1.71l3.74,2.27a.84.84,0,0,1,.42.73,1.43,1.43,0,0,1-1.43,1.43h.57A1.43,1.43,0,0,0,19,16.66Z"/><path id="Path_7095" data-name="Path 7095" class="cls-2" d="M19.1,16.55,17.1,15a1.53,1.53,0,0,1-.51-.74A1.86,1.86,0,0,0,15,12.93V12.6a.43.43,0,0,1,.18-.34l.45-.34a1.29,1.29,0,1,0-1.54-2.06,1.31,1.31,0,0,0-.51,1,.14.14,0,0,0,.28,0h0a1,1,0,0,1,2,0,1,1,0,0,1-.4.8L15,12a.72.72,0,0,0-.28.57v.33a1.86,1.86,0,0,0-1.63,1.3,1.5,1.5,0,0,1-.51.73l-2,1.59a1.57,1.57,0,0,0,1,2.8h6.6a1.57,1.57,0,0,0,1.57-1.57,1.58,1.58,0,0,0-.59-1.23Zm-1,2.51h-6.6a1.28,1.28,0,0,1-.8-2.28l2-1.6a1.78,1.78,0,0,0,.6-.87,1.58,1.58,0,0,1,1.36-1.09V14.7L11,16.92a1,1,0,0,0,.51,1.86.14.14,0,0,0,.14-.14.15.15,0,0,0-.14-.15.71.71,0,0,1-.37-1.32L14.82,15l3.67,2.22a.7.7,0,0,1,.24,1,.72.72,0,0,1-.61.34h-6a.15.15,0,0,0-.14.15.14.14,0,0,0,.14.14h6a1,1,0,0,0,.52-1.86L15,14.7V13.22a1.57,1.57,0,0,1,1.36,1.09,1.78,1.78,0,0,0,.6.87l2,1.59a1.29,1.29,0,0,1,.21,1.81,1.32,1.32,0,0,1-1,.48Z"/></g></g></svg>