<svg id="_015---Cream-Pot" data-name=" 015---Cream-Pot" xmlns="http://www.w3.org/2000/svg" viewBox="0 0 30 30"><defs><style>.cls-1{fill:#e2ae83;}.cls-2{fill:#c48d69;}.cls-3{fill:#d39c72;}.cls-4{fill:#f2c397;}.cls-5{fill:#ffd2a6;}</style></defs><g id="open-box"><path id="Path_7191" data-name="Path 7191" class="cls-1" d="M17.62,18.2a.32.32,0,0,1-.37-.06L15.09,16a.32.32,0,0,1-.09-.23.32.32,0,0,1-.09.23l-2.16,2.15a.32.32,0,0,1-.37.06L7,15.28V21.2H7v0H7v0H7v0h0v0h0l0,0h0v0h0l0,0,7.68,4.15a.32.32,0,0,0,.3,0l7.68-4.15,0,0h0v0h0l0,0h0v0h0v0h0v0h0v0h0V15.28Z"/><path id="Path_7192" data-name="Path 7192" class="cls-2" d="M14.84,7.11A.33.33,0,0,0,15,6.88v0a.3.3,0,0,0,.16.27l7.69,4.15a.23.23,0,0,0,.14,0,.23.23,0,0,0-.14,0l-7.69,4.15a.35.35,0,0,0-.16.23v0a.35.35,0,0,0-.16-.23L7.16,11.34a.33.33,0,0,0-.13,0,.22.22,0,0,0,.13,0Z"/><path id="Path_7193" data-name="Path 7193" class="cls-3" d="M25.44,8.79a.31.31,0,0,1-.09.26l-2.14,2.16a.32.32,0,0,1-.37.06L15.16,7.11A.33.33,0,0,1,15,6.88v0h0a.31.31,0,0,1,.09-.22l2.16-2.16a.31.31,0,0,1,.37,0l7.66,4.15A.35.35,0,0,1,25.44,8.79Z"/><path id="Path_7194" data-name="Path 7194" class="cls-4" d="M25.35,13.55a.31.31,0,0,1,0,.44l-.07,0L17.62,18.2a.32.32,0,0,1-.37-.06L15.09,16a.32.32,0,0,1-.09-.23v0a.35.35,0,0,1,.16-.23l7.68-4.15a.31.31,0,0,1,.37.05Z"/><g id="Group_2650" data-name="Group 2650"><path id="Path_7195" data-name="Path 7195" class="cls-1" d="M25.35,13.55l-2.14-2.16a.31.31,0,0,0-.37-.05l-.81.44a.3.3,0,0,1,.37.05L24.54,14a.31.31,0,0,1,0,.44l-.07.05.81-.44a.31.31,0,0,0,.12-.42Z"/><path id="Path_7196" data-name="Path 7196" class="cls-1" d="M15,6.84h0v0a.33.33,0,0,1-.16.23L7.16,11.26a.22.22,0,0,1-.13,0H7a.27.27,0,0,1-.21-.09L4.65,9.05a.31.31,0,0,1,0-.44l.07,0,7.66-4.15a.3.3,0,0,1,.37,0l2.16,2.16A.31.31,0,0,1,15,6.84Z"/></g><path id="Path_7197" data-name="Path 7197" class="cls-5" d="M15,15.72v0a.31.31,0,0,1-.09.22l-2.16,2.15a.32.32,0,0,1-.37.06L4.72,14a.31.31,0,0,1-.12-.42l.05-.07,2.14-2.16A.31.31,0,0,1,7,11.3H7a.33.33,0,0,1,.13,0l7.68,4.15A.35.35,0,0,1,15,15.72Z"/><path id="Path_7198" data-name="Path 7198" class="cls-1" d="M7,11.3H7Z"/><path id="Path_7199" data-name="Path 7199" class="cls-3" d="M22.9,15.33h0L21.75,16v5.91h0v0h0v0h0v0h0v0h0v0H21.6l1.23-.66,0,0h0v0h0l0,0h0v0h0v0h0v0h0v0h0V15.28Z"/><path id="Path_7200" data-name="Path 7200" class="cls-4" d="M14.91,16l-2.16,2.15a.32.32,0,0,1-.37.06L7,15.28V21.2H7v0H7v0H7v0h0v0h0l0,0h0v0h0l0,0,7.68,4.15a.28.28,0,0,0,.15,0V15.77A.31.31,0,0,1,14.91,16Z"/></g></svg>