<svg id="_015---Cream-Pot" data-name=" 015---Cream-Pot" xmlns="http://www.w3.org/2000/svg" viewBox="0 0 30 30"><defs><style>.cls-1{fill:#2e78df;}.cls-2{fill:#e5eefb;}</style></defs><g id="Group_2167" data-name="Group 2167"><path id="Path_6482" data-name="Path 6482" class="cls-1" d="M9,7.47H21L23.72,12v1L22.6,14.21l-.47.24v8H7.93V14.91L6.56,13.38l-.3-1.09L7.93,9.42Z"/><g id="shop"><g id="Group_1965" data-name="Group 1965"><path id="Path_6480" data-name="Path 6480" class="cls-2" d="M18.84,15.71H16.36a1.23,1.23,0,0,0-1.23,1.23v1.9a1.23,1.23,0,0,0,1.23,1.23h2.48a1.23,1.23,0,0,0,1.23-1.23v-1.9A1.23,1.23,0,0,0,18.84,15.71Zm.33,3.13a.33.33,0,0,1-.33.33H16.36a.35.35,0,0,1-.34-.33v-1.9a.35.35,0,0,1,.34-.34h2.48a.34.34,0,0,1,.33.34Z"/><path id="Path_6481" data-name="Path 6481" class="cls-2" d="M24.12,12.26a.4.4,0,0,0-.06-.22L21.35,7.27A.45.45,0,0,0,21,7H9a.43.43,0,0,0-.39.23L5.94,12a.46.46,0,0,0-.06.23,2.62,2.62,0,0,0,1.56,2.39v7.86a.45.45,0,0,0,.45.45H22.1a.45.45,0,0,0,.45-.45V14.65A2.6,2.6,0,0,0,24.12,12.26ZM9.3,7.93H20.7l2.12,3.73H7.18Zm9.56,4.63a1.72,1.72,0,0,1-3.38,0Zm-4.33,0a1.72,1.72,0,0,1-3.39,0Zm-7.73,0h3.39a1.72,1.72,0,0,1-3.39,0Zm6.59,9.51H10.82V17.24a.64.64,0,0,1,.64-.64h1.3a.64.64,0,0,1,.64.64h0v4.83Zm8.27,0H14.29V17.24a1.54,1.54,0,0,0-1.53-1.53h-1.3a1.55,1.55,0,0,0-1.54,1.53v4.83H8.34v-7.2H8.5a2.61,2.61,0,0,0,2.17-1.16,2.6,2.6,0,0,0,3.62.71,2.4,2.4,0,0,0,.71-.71,2.61,2.61,0,0,0,4.34,0,2.59,2.59,0,0,0,2.17,1.16h.15v7.2ZM21.5,14a1.72,1.72,0,0,1-1.69-1.42H23.2A1.74,1.74,0,0,1,21.5,14Z"/></g></g></g></svg>