<svg id="_015---Cream-Pot" data-name=" 015---Cream-Pot" xmlns="http://www.w3.org/2000/svg" viewBox="0 0 30 30"><defs><style>.cls-1{fill:#d00a1a;}.cls-2{fill:#e5eefb;}.cls-3,.cls-4{fill:none;}.cls-3{stroke:#e5eefb;}.cls-4{stroke:#fff;stroke-linecap:round;stroke-width:0.5px;}</style></defs><g id="Group_2222" data-name="Group 2222"><g id="Group_2197" data-name="Group 2197"><path id="Path_6592" data-name="Path 6592" class="cls-1" d="M6.75,11c1.72-.11,14.57,0,14.57,0l1.74,12.1-17.88.15Z"/><path id="shopping-bag" class="cls-1" d="M23.54,23.14l-1.36-12.2a.56.56,0,0,0-.56-.5h-3.4v-1a4.11,4.11,0,0,0-8.22,0v1H6.59a.54.54,0,0,0-.55.49L4.67,23.14a.56.56,0,0,0,.49.61H23a.55.55,0,0,0,.55-.54ZM11.1,9.47a3,3,0,0,1,6,0v1h-6ZM5.84,22.65l1.24-11.1H10v1.2a1.66,1.66,0,1,0,2.11,1,1.63,1.63,0,0,0-1-1v-1.2h6v1.2a1.66,1.66,0,1,0,1.11,0v-1.2h2.91l1.24,11.1Zm4.71-8.89a.56.56,0,1,1-.55.55h0a.55.55,0,0,1,.55-.55Zm7.11,0a.56.56,0,0,1,0,1.11.56.56,0,0,1-.55-.56h0a.55.55,0,0,1,.55-.55Z"/></g><circle id="Ellipse_95" data-name="Ellipse 95" class="cls-2" cx="10.18" cy="14.31" r="1.38"/><circle id="Ellipse_96" data-name="Ellipse 96" class="cls-2" cx="17.75" cy="14.31" r="1.38"/><g id="Ellipse_97" data-name="Ellipse 97"><circle class="cls-1" cx="22.23" cy="21.54" r="3.1"/><circle class="cls-3" cx="22.23" cy="21.54" r="2.75"/></g><path id="Path_6593" data-name="Path 6593" class="cls-4" d="M22.23,20.12v2.65"/><path id="Path_6594" data-name="Path 6594" class="cls-4" d="M23.55,21.45H20.9"/></g></svg>