<svg id="_015---Cream-Pot" data-name=" 015---Cream-Pot" xmlns="http://www.w3.org/2000/svg" viewBox="0 0 30 30"><defs><style>.cls-1{fill:#fec641;}.cls-2{fill:none;stroke:#fff7e0;}.cls-3{fill:#fff7e0;}.cls-4,.cls-5{isolation:isolate;}.cls-5{font-size:3.62px;fill:#fff;font-family:Roboto-Medium, Roboto;font-weight:500;}</style></defs><g id="Group_2689" data-name="Group 2689"><g id="Rectangle_337" data-name="Rectangle 337"><rect class="cls-1" x="6.93" y="6.67" width="14.48" height="2.41"/><rect class="cls-2" x="7.24" y="6.97" width="13.88" height="1.81"/></g><g id="Rectangle_338" data-name="Rectangle 338"><path class="cls-1" d="M6.93,9.68H21.41v3a9,9,0,0,1-9,9.05H6.93V9.68Z"/><path class="cls-2" d="M7.54,10H20.81a.29.29,0,0,1,.3.3V12.7a8.75,8.75,0,0,1-8.75,8.75H7.54a.3.3,0,0,1-.3-.3V10.29A.29.29,0,0,1,7.54,10Z"/></g><g id="Group_2191" data-name="Group 2191"><path id="Path_6589" data-name="Path 6589" class="cls-1" d="M16.2,19.29l1.25-.07,2.9-1.13.29-.65.54.26v1.85l.79.22v.75l-.79.31V22.7l-.35.19-.33-.11-.23-.57L17.35,21s.22.86.37,1.4S18,23,18,23l-1.21.22-.49-2.18-.63-.41-.07-.87Z"/><g id="megaphone"><g id="Group_2172" data-name="Group 2172"><g id="Group_2171" data-name="Group 2171"><path id="Path_6585" data-name="Path 6585" class="cls-3" d="M20.78,17.36a.51.51,0,0,0-.51.51V18l-3,1.19a.13.13,0,0,0-.08.12v1.78a.13.13,0,0,0,.08.12l3,1.19v.09a.51.51,0,0,0,1,0h0V17.87A.51.51,0,0,0,20.78,17.36ZM21,22.44a.26.26,0,0,1-.25.26.26.26,0,0,1-.26-.26v-.17a.11.11,0,0,0-.08-.12l-3-1.19V19.35l3-1.19a.12.12,0,0,0,.08-.12v-.17a.26.26,0,0,1,.26-.26.26.26,0,0,1,.25.26h0Z"/></g></g><g id="Group_2174" data-name="Group 2174"><g id="Group_2173" data-name="Group 2173"><path id="Path_6586" data-name="Path 6586" class="cls-3" d="M17.35,19.14h-.89a1,1,0,1,0,0,2h.89a.12.12,0,0,0,.12-.13V19.27A.12.12,0,0,0,17.35,19.14Zm-.13,1.78h-.76a.77.77,0,1,1,0-1.53h.8Z"/></g></g><g id="Group_2176" data-name="Group 2176"><g id="Group_2175" data-name="Group 2175"><path id="Path_6587" data-name="Path 6587" class="cls-3" d="M22,19.65l-.76-.25a.12.12,0,0,0-.16.08.06.06,0,0,0,0,0v1.27a.13.13,0,0,0,.13.13h0l.76-.25a.14.14,0,0,0,.09-.12v-.77A.14.14,0,0,0,22,19.65Zm-.17.79-.5.17v-.92l.5.17Z"/></g></g><g id="Group_2178" data-name="Group 2178"><g id="Group_2177" data-name="Group 2177"><path id="Path_6588" data-name="Path 6588" class="cls-3" d="M18,22.63l-.13-.13L17.47,21a.12.12,0,0,0-.12-.09h-1a.12.12,0,0,0-.13.12,0,0,0,0,0,0,0l.51,2.16a.12.12,0,0,0,.12.1h0l.95-.18h0a.44.44,0,0,0,.15-.08.31.31,0,0,0,0-.44Zm-.18.25,0,0-.84.16-.44-1.89h.76l.35,1.43,0,.06.15.15a.06.06,0,0,1,0,0,0,0,0,0,1,0,0Z"/></g></g><g id="Group_2180" data-name="Group 2180"><g id="Group_2179" data-name="Group 2179"><rect id="Rectangle_339" data-name="Rectangle 339" class="cls-3" x="22.3" y="20.03" width="0.76" height="0.25"/></g></g><g id="Group_2182" data-name="Group 2182"><g id="Group_2181" data-name="Group 2181"><rect id="Rectangle_340" data-name="Rectangle 340" class="cls-3" x="22.25" y="18.69" width="0.74" height="0.25" transform="translate(-6.46 14.32) rotate(-30.97)"/></g></g><g id="Group_2184" data-name="Group 2184"><g id="Group_2183" data-name="Group 2183"><rect id="Rectangle_341" data-name="Rectangle 341" class="cls-3" x="22.49" y="21.12" width="0.25" height="0.74" transform="translate(-7.44 29.83) rotate(-59.04)"/></g></g><g id="Group_2186" data-name="Group 2186"><g id="Group_2185" data-name="Group 2185"><rect id="Rectangle_342" data-name="Rectangle 342" class="cls-3" x="20.27" y="18" width="0.25" height="4.32"/></g></g><g id="Group_2188" data-name="Group 2188"><g id="Group_2187" data-name="Group 2187"><rect id="Rectangle_343" data-name="Rectangle 343" class="cls-3" x="16.71" y="19.65" width="0.25" height="0.51"/></g></g><g id="Group_2190" data-name="Group 2190"><g id="Group_2189" data-name="Group 2189"><rect id="Rectangle_344" data-name="Rectangle 344" class="cls-3" x="16.2" y="19.65" width="0.25" height="0.51"/></g></g></g></g><g id="ADS" class="cls-4"><text class="cls-5" transform="translate(9.95 16.32)">ADS</text></g></g></svg>