<svg id="_015---Cream-Pot" data-name=" 015---Cream-Pot" xmlns="http://www.w3.org/2000/svg" viewBox="0 0 30 30"><defs><style>.cls-1{stroke:#000;stroke-width:0.5px;}</style></defs><path id="price-tag" class="cls-1" d="M7.16,7a.28.28,0,0,1,.38,0h0l1,1h6.24L22.64,16a.94.94,0,0,1,0,1.33l-5.49,5.5a1,1,0,0,1-1.34,0L8.16,14.91V8.4l-1-1A.27.27,0,0,1,7.16,7ZM8.69,14.7l7.5,7.7a.41.41,0,0,0,.58,0l5.49-5.5a.41.41,0,0,0,0-.58l-7.7-7.76H9.07l1.3,1.3A1.35,1.35,0,1,1,10,11.72a1.33,1.33,0,0,1,0-1.48l-1.3-1.3ZM10.3,11a.81.81,0,1,0,.81-.8.72.72,0,0,0-.35.08l.54.53a.28.28,0,0,1,0,.38.26.26,0,0,1-.38,0l-.54-.53A.77.77,0,0,0,10.3,11Z"/></svg>