<svg id="_015---Cream-Pot" data-name=" 015---Cream-Pot" xmlns="http://www.w3.org/2000/svg" viewBox="0 0 30 30"><defs><style>.cls-1{fill:#707070;}</style></defs><path id="Path_7057" data-name="Path 7057" class="cls-1" d="M21.78,16.12l2-5.38a.63.63,0,0,0-.37-.8.78.78,0,0,0-.22,0H10.47L10,6.19a.61.61,0,0,0-.48-.52L6.93,5.09a.62.62,0,0,0-.27,1.22l2.13.47,1.43,10.54a.62.62,0,0,0,.69.54h0L18,17l2.36,1.46a.58.58,0,0,1-.3,1.08h-9.1a.62.62,0,0,0-.62.62.62.62,0,0,0,.62.62H20a1.82,1.82,0,0,0,1-3.37l-1.07-.66,1.37-.18a.63.63,0,0,0,.5-.4Z"/><path id="Path_7058" data-name="Path 7058" class="cls-1" d="M12.27,21.44A1.74,1.74,0,1,0,14,23.18,1.74,1.74,0,0,0,12.27,21.44Z"/><path id="Path_7059" data-name="Path 7059" class="cls-1" d="M18.26,21.44A1.74,1.74,0,1,0,20,23.18,1.74,1.74,0,0,0,18.26,21.44Z"/></svg>