<svg id="_015---Cream-Pot" data-name=" 015---Cream-Pot" xmlns="http://www.w3.org/2000/svg" viewBox="0 0 30 30"><path id="Path_7112" data-name="Path 7112" d="M15,17.78a.41.41,0,0,0,.41-.41A.41.41,0,0,0,15,17a.42.42,0,0,0-.42.42.41.41,0,0,0,.42.41Z"/><path id="Path_7113" data-name="Path 7113" d="M17.27,14.64a6.61,6.61,0,0,0,2.31-2.39,6.5,6.5,0,0,0,.82-3.13V6.79a1.25,1.25,0,0,0,.83-1.18V4.78a.41.41,0,0,0-.42-.41H9.19a.41.41,0,0,0-.42.41v.83A1.25,1.25,0,0,0,9.6,6.79V9.12a6.5,6.5,0,0,0,.82,3.13,6.61,6.61,0,0,0,2.31,2.39.44.44,0,0,1,.13.6.49.49,0,0,1-.13.12,6.61,6.61,0,0,0-2.31,2.39,6.44,6.44,0,0,0-.82,3.13v2.33a1.25,1.25,0,0,0-.83,1.18v.83a.41.41,0,0,0,.42.41H20.81a.41.41,0,0,0,.42-.41h0v-.83a1.27,1.27,0,0,0-.83-1.18V20.88a6.44,6.44,0,0,0-.82-3.13,6.59,6.59,0,0,0-2.31-2.38.44.44,0,0,1-.13-.6.53.53,0,0,1,.13-.13ZM9.6,5.2H20.4v.41A.41.41,0,0,1,20,6H10a.42.42,0,0,1-.42-.42ZM20.4,24.8H9.6v-.42A.42.42,0,0,1,10,24H20a.42.42,0,0,1,.42.41Zm-3.56-8.73a5.61,5.61,0,0,1,2.73,4.81v2.26H10.43V20.88a5.61,5.61,0,0,1,2.73-4.81,1.26,1.26,0,0,0,.4-1.74,1.21,1.21,0,0,0-.4-.41,5.59,5.59,0,0,1-2.73-4.8V6.86h9.14V9.12a5.61,5.61,0,0,1-2.73,4.81,1.26,1.26,0,0,0,0,2.14Z"/><path id="Path_7114" data-name="Path 7114" d="M15.33,18.76a.4.4,0,0,0-.33-.17h0a.4.4,0,0,0-.33.17,2.21,2.21,0,0,1-.58.52,10.13,10.13,0,0,1-1.28.63c-.83.35-1.55.65-1.55,1.8v.18a.41.41,0,0,0,.42.41h6.64a.41.41,0,0,0,.42-.41h0v-.18c0-1.15-.72-1.46-1.56-1.81a10.13,10.13,0,0,1-1.28-.63A2.32,2.32,0,0,1,15.33,18.76Zm2.56,2.72H12.11c.06-.39.32-.51,1-.81A10.39,10.39,0,0,0,14.52,20h0a2.74,2.74,0,0,0,.48-.36,2.66,2.66,0,0,0,.46.35h0a9.1,9.1,0,0,0,1.4.69C17.56,21,17.83,21.09,17.89,21.48Z"/><path id="Path_7115" data-name="Path 7115" d="M18.74,9.12V8.35a.42.42,0,0,0-.42-.41A.43.43,0,0,0,18.1,8a5.83,5.83,0,0,1-6.2,0,.42.42,0,0,0-.57.13.46.46,0,0,0-.06.22v.77a3.91,3.91,0,0,0,.8,2.23,6.75,6.75,0,0,0,2,1.87,2,2,0,0,1,.48.43v2a.41.41,0,0,0,.41.42.42.42,0,0,0,.42-.42v-2a2.11,2.11,0,0,1,.5-.44A5.37,5.37,0,0,0,18.74,9.12ZM15.48,12.5h0a2.4,2.4,0,0,0-.47.37,2.35,2.35,0,0,0-.47-.36h0A4.57,4.57,0,0,1,12.1,9.12V9.06a6.75,6.75,0,0,0,5.82,0v.06a4.6,4.6,0,0,1-2.44,3.38Z"/></svg>