<svg id="_015---Cream-Pot" data-name=" 015---Cream-Pot" xmlns="http://www.w3.org/2000/svg" viewBox="0 0 30 30"><defs><style>.cls-1{fill:#23aced;}</style></defs><path id="twitter" class="cls-1" d="M15,3.17A11.83,11.83,0,1,0,26.83,15h0A11.83,11.83,0,0,0,15,3.17Zm5.4,9.22c0,.12,0,.24,0,.35a7.67,7.67,0,0,1-7.62,7.73h-.11a7.68,7.68,0,0,1-4.16-1.22,4.73,4.73,0,0,0,.65,0,5.48,5.48,0,0,0,3.37-1.16A2.74,2.74,0,0,1,10,16.24a2.69,2.69,0,0,0,1.23,0,2.7,2.7,0,0,1-2.18-2.66v0a2.8,2.8,0,0,0,1.23.34,2.73,2.73,0,0,1-.84-3.63A7.7,7.7,0,0,0,15,13.05a2.72,2.72,0,0,1,4.63-2.48,5.6,5.6,0,0,0,1.72-.65,2.74,2.74,0,0,1-1.2,1.5A5.56,5.56,0,0,0,21.75,11a5.44,5.44,0,0,1-1.35,1.4Z"/></svg>