<svg id="_015---Cream-Pot" data-name=" 015---Cream-Pot" xmlns="http://www.w3.org/2000/svg" viewBox="0 0 30 30"><defs><style>.cls-1{fill:#3cbe55;stroke:#3cbe55;stroke-width:0.5px;}</style></defs><path id="user" class="cls-1" d="M8.4,21.72A15.48,15.48,0,0,0,15,23.44a13.93,13.93,0,0,0,6.62-1.73.28.28,0,0,0,.13-.24,9.05,9.05,0,0,0-2-5.85,6.4,6.4,0,0,0-3.22-2.1,3.65,3.65,0,1,0-3.14,0,6.36,6.36,0,0,0-3.22,2.1,9.05,9.05,0,0,0-2,5.85.28.28,0,0,0,.15.25Zm3.51-11.5A3.1,3.1,0,1,1,15,13.31a3.09,3.09,0,0,1-3.09-3.09ZM10.64,16a5.58,5.58,0,0,1,7.83-.9,5.82,5.82,0,0,1,.89.9,8.43,8.43,0,0,1,1.83,5.33A13.75,13.75,0,0,1,15,22.87,15,15,0,0,1,8.81,21.3,8.48,8.48,0,0,1,10.64,16Z"/></svg>