<svg id="_015---Cream-Pot" data-name=" 015---Cream-Pot" xmlns="http://www.w3.org/2000/svg" viewBox="0 0 30 30"><defs><style>.cls-1{fill:#ffc850;}.cls-2{fill:#fea82f;}.cls-3{fill:#e4eaf8;}.cls-4{fill:#c2c7d0;}.cls-5{fill:#abb0b7;}.cls-6{fill:#ff9052;}.cls-7{fill:#ff8031;}.cls-8{fill:#abffdb;}.cls-9{fill:#92e0c0;}.cls-10{fill:#fff;}.cls-11{fill:#afb5bc;}.cls-12{fill:#474d54;}</style></defs><g id="mall"><rect id="Rectangle_293" data-name="Rectangle 293" class="cls-1" x="7.24" y="12.72" width="2.3" height="8.01"/><rect id="Rectangle_294" data-name="Rectangle 294" class="cls-2" x="7.24" y="12.72" width="0.66" height="8.01"/><rect id="Rectangle_295" data-name="Rectangle 295" class="cls-3" x="7.24" y="12.72" width="2.3" height="3.96"/><rect id="Rectangle_296" data-name="Rectangle 296" class="cls-4" x="7.24" y="12.72" width="1.15" height="3.96"/><rect id="Rectangle_297" data-name="Rectangle 297" class="cls-5" x="7.24" y="12.72" width="0.66" height="3.96"/><path id="Path_6895" data-name="Path 6895" class="cls-6" d="M9.54,11.86H7.24a.42.42,0,0,0-.42.42v.09a.42.42,0,0,0,.42.42h2.3Z"/><rect id="Rectangle_298" data-name="Rectangle 298" class="cls-1" x="20.46" y="12.72" width="2.3" height="8.01"/><rect id="Rectangle_299" data-name="Rectangle 299" class="cls-2" x="20.46" y="12.72" width="0.69" height="8.01"/><rect id="Rectangle_300" data-name="Rectangle 300" class="cls-3" x="20.46" y="12.72" width="2.3" height="3.96"/><rect id="Rectangle_301" data-name="Rectangle 301" class="cls-4" x="20.46" y="12.72" width="1.15" height="3.96"/><rect id="Rectangle_302" data-name="Rectangle 302" class="cls-5" x="20.46" y="12.72" width="0.69" height="3.96"/><path id="Path_6896" data-name="Path 6896" class="cls-6" d="M22.76,11.86h-2.3v.93h2.3a.42.42,0,0,0,.42-.42v-.09A.42.42,0,0,0,22.76,11.86Z"/><g id="Group_2333" data-name="Group 2333"><path id="Path_6897" data-name="Path 6897" class="cls-7" d="M6.9,12a.44.44,0,0,0-.08.25v.09a.42.42,0,0,0,.42.42h2.3V12.2H7.24A.42.42,0,0,1,6.9,12Z"/><path id="Path_6898" data-name="Path 6898" class="cls-7" d="M22.76,12.2h-2.3v.59h2.3a.42.42,0,0,0,.42-.42v-.09a.38.38,0,0,0-.09-.25A.4.4,0,0,1,22.76,12.2Z"/></g><path id="Path_6899" data-name="Path 6899" class="cls-8" d="M20.24,8.35H9.75a.25.25,0,0,0-.25.24h0V20.73h11V8.6A.25.25,0,0,0,20.24,8.35Z"/><path id="Path_6900" data-name="Path 6900" class="cls-9" d="M10.42,8.35H9.75a.25.25,0,0,0-.25.24h0V20.73h.67V8.59A.25.25,0,0,1,10.42,8.35Z"/><path id="Path_6901" data-name="Path 6901" class="cls-10" d="M10.68,13.81v6.92h8.64V13.81Z"/><path id="Path_6902" data-name="Path 6902" class="cls-1" d="M19.12,9.52H10.87a.2.2,0,0,0-.19.19v3h8.64v-3A.2.2,0,0,0,19.12,9.52Z"/><path id="Path_6903" data-name="Path 6903" class="cls-2" d="M11.53,9.52h-.66a.2.2,0,0,0-.19.19v3h.66v-3A.2.2,0,0,1,11.53,9.52Z"/><g id="Group_2334" data-name="Group 2334"><rect id="Rectangle_303" data-name="Rectangle 303" class="cls-3" x="10.68" y="12.72" width="8.64" height="1.16"/><path id="Path_6904" data-name="Path 6904" class="cls-3" d="M10.68,13.81v6.92h.66V13.81Z"/></g><rect id="Rectangle_304" data-name="Rectangle 304" class="cls-4" x="10.68" y="12.72" width="0.66" height="1.16"/><path id="Path_6905" data-name="Path 6905" class="cls-1" d="M17,16.68H13a.09.09,0,0,0-.09.09v4h4.28V16.78a.09.09,0,0,0-.1-.1Z"/><path id="Path_6906" data-name="Path 6906" class="cls-2" d="M15,16.68H13a.09.09,0,0,0-.09.09v4H15V16.68Z"/><path id="Path_6907" data-name="Path 6907" class="cls-7" d="M13.61,16.68H13a.09.09,0,0,0-.09.09v4h.66v-4a.09.09,0,0,1,.09-.09Z"/><path id="Path_6908" data-name="Path 6908" class="cls-4" d="M22.79,20.7H7.2a.42.42,0,0,0-.41.43v.09a.42.42,0,0,0,.41.43H22.79a.42.42,0,0,0,.42-.43v-.09A.42.42,0,0,0,22.79,20.7Z"/><path id="Path_6909" data-name="Path 6909" class="cls-5" d="M22.79,21.08H7.2a.39.39,0,0,1-.34-.19.42.42,0,0,0-.07.24v.09a.42.42,0,0,0,.41.43H22.79a.42.42,0,0,0,.42-.43v-.09a.51.51,0,0,0-.07-.24A.42.42,0,0,1,22.79,21.08Z"/><path id="Path_6910" data-name="Path 6910" class="cls-11" d="M17.14,16.06H12.86a.25.25,0,1,1,0-.5h4.28a.25.25,0,1,1,0,.5Z"/><g id="Group_2335" data-name="Group 2335"><path id="Path_6911" data-name="Path 6911" class="cls-10" d="M13.09,11.44a.13.13,0,0,1-.14.07.11.11,0,0,1-.12-.07L12.58,11v1c0,.08-.1.12-.2.12s-.21,0-.21-.12V10.42a.19.19,0,0,1,.17-.21h0c.14,0,.2,0,.31.21l.27.46.26-.46c.11-.19.17-.21.32-.21a.19.19,0,0,1,.2.17V12c0,.08-.1.12-.2.12s-.2,0-.2-.12V11Z"/><path id="Path_6912" data-name="Path 6912" class="cls-10" d="M13.89,11.94v0l.48-1.59c0-.09.15-.13.27-.13s.23,0,.26.13l.49,1.59v0c0,.1-.15.17-.26.17S15,12.09,15,12l-.09-.33h-.55l-.09.33c0,.05-.06.07-.13.07S13.89,12,13.89,11.94Zm.95-.54-.19-.7-.19.7Z"/><path id="Path_6913" data-name="Path 6913" class="cls-10" d="M15.73,12.11c-.09,0-.18,0-.18-.12V10.33c0-.08.1-.12.2-.12s.21,0,.21.12v1.43h.59c.08,0,.12.09.12.17s0,.18-.12.18Z"/><path id="Path_6914" data-name="Path 6914" class="cls-10" d="M17,12.11c-.09,0-.18,0-.18-.12V10.33c0-.08.1-.12.2-.12s.2,0,.2.12v1.43h.6c.07,0,.11.09.11.17s0,.18-.11.18Z"/></g><path id="Path_6915" data-name="Path 6915" class="cls-12" d="M22.79,18.26A.25.25,0,0,0,23,18h0V16.68h0V12.92a.66.66,0,0,0,.42-.62v-.09a.67.67,0,0,0-.67-.66H20.74v-3a.5.5,0,0,0-.5-.5H15.58a.25.25,0,1,0,0,.49h4.67V20.48h-.68V9.72a.45.45,0,0,0-.45-.45H10.87a.44.44,0,0,0-.44.44V20.48H9.75V8.59h4.67a.25.25,0,1,0,0-.49H9.75a.49.49,0,0,0-.49.49v3h-2a.67.67,0,0,0-.67.66v.09a.66.66,0,0,0,.42.62v7.61a.68.68,0,0,0-.42.62v.09a.67.67,0,0,0,.67.66H22.79a.67.67,0,0,0,.67-.66v-.09a.68.68,0,0,0-.42-.62V19.16a.25.25,0,0,0-.49,0v1.32H20.74V16.92h1.81V18a.25.25,0,0,0,.24.25ZM7.45,20.48V16.92H9.26v3.56Zm0-7.51h.66v3.46H7.45V13Zm1.81,0v3.46H8.6V13Zm1.67-3.2h8.14v2.7H10.93Zm0,3.2h8.14v7.51H10.93ZM7,12.21a.16.16,0,0,1,.17-.16H9.26v.42h-2A.16.16,0,0,1,7,12.3v-.09ZM22.79,21a.16.16,0,0,1,.17.17v.09a.18.18,0,0,1-.17.17H7.21A.18.18,0,0,1,7,21.24v-.09A.16.16,0,0,1,7.21,21Zm0-8.93a.16.16,0,0,1,.17.16v.09a.16.16,0,0,1-.17.17H20.74v-.42Zm-2.05,4.38V13h.66v3.46Zm1.15,0V13h.66v3.46Z"/></g></svg>