<svg id="_015---Cream-Pot" data-name=" 015---Cream-Pot" xmlns="http://www.w3.org/2000/svg" viewBox="0 0 30 30"><defs><style>.cls-1{fill:#5c95e6;}.cls-2{fill:#e5eefb;}</style></defs><g id="Group_2166" data-name="Group 2166"><path id="Path_6464" data-name="Path 6464" class="cls-1" d="M3,7.91H27l.31,3.79a3.65,3.65,0,0,0-2.32,1,4.63,4.63,0,0,0-.67,2.67,3.06,3.06,0,0,0,.95,2.15,5.18,5.18,0,0,0,2,1L27,22.26H3l-.3-3.81,2.06-1L5.87,15l-.93-2.28-2.21-1Z"/><g id="gift-voucher"><path id="Path_6455" data-name="Path 6455" class="cls-2" d="M26.92,22.36H3.08A.35.35,0,0,1,2.73,22h0V18.43A.35.35,0,0,1,3,18.09a3.15,3.15,0,0,0,0-6.18.36.36,0,0,1-.28-.34V8a.35.35,0,0,1,.35-.35H26.92a.35.35,0,0,1,.35.35h0v3.58a.35.35,0,0,1-.28.34,3.15,3.15,0,0,0,0,6.18.35.35,0,0,1,.28.34V22a.35.35,0,0,1-.35.35Zm-23.48-.7H26.56V18.71a3.86,3.86,0,0,1,0-7.42v-3H3.44v3A3.86,3.86,0,0,1,6.1,16a3.9,3.9,0,0,1-2.66,2.67Z"/><path id="Path_6456" data-name="Path 6456" class="cls-2" d="M20.26,9.62a.35.35,0,0,1-.35-.35h0V8a.35.35,0,0,1,.35-.35.35.35,0,0,1,.35.35V9.27A.35.35,0,0,1,20.26,9.62Z"/><path id="Path_6457" data-name="Path 6457" class="cls-2" d="M20.26,12.8a.35.35,0,0,1-.35-.35h0V11.18a.34.34,0,0,1,.35-.35.35.35,0,0,1,.35.35v1.27A.35.35,0,0,1,20.26,12.8Z"/><path id="Path_6458" data-name="Path 6458" class="cls-2" d="M20.26,16a.35.35,0,0,1-.35-.35h0V14.36a.35.35,0,0,1,.35-.35.35.35,0,0,1,.35.35h0v1.28A.35.35,0,0,1,20.26,16Z"/><path id="Path_6459" data-name="Path 6459" class="cls-2" d="M20.26,19.17a.34.34,0,0,1-.35-.35h0V17.55a.35.35,0,0,1,.35-.35.35.35,0,0,1,.35.35v1.27A.35.35,0,0,1,20.26,19.17Z"/><path id="Path_6460" data-name="Path 6460" class="cls-2" d="M20.26,22.36a.35.35,0,0,1-.35-.35h0V20.73a.35.35,0,0,1,.35-.35.35.35,0,0,1,.35.35h0V22A.35.35,0,0,1,20.26,22.36Z"/><path id="Path_6461" data-name="Path 6461" class="cls-2" d="M9.37,18.69A.34.34,0,0,1,9,18.34a.35.35,0,0,1,.1-.24l6.5-6.5a.35.35,0,0,1,.49.49l-6.49,6.5A.35.35,0,0,1,9.37,18.69Z"/><path id="Path_6462" data-name="Path 6462" class="cls-2" d="M14.78,18.86a1.62,1.62,0,1,1,1.62-1.62,1.62,1.62,0,0,1-1.62,1.62Zm0-2.54a.92.92,0,1,0,.92.92.92.92,0,0,0-.92-.92Z"/><path id="Path_6463" data-name="Path 6463" class="cls-2" d="M10.31,14.36a1.62,1.62,0,1,1,1.62-1.62,1.63,1.63,0,0,1-1.62,1.62Zm0-2.54a.92.92,0,1,0,.92.92h0A.92.92,0,0,0,10.31,11.82Z"/></g></g></svg>