<svg id="_015---Cream-Pot" data-name=" 015---Cream-Pot" xmlns="http://www.w3.org/2000/svg" viewBox="0 0 30 30"><defs><style>.cls-1{fill:#3cbe55;}</style></defs><g id="house-black-silhouette-without-door"><path id="Path_7104" data-name="Path 7104" class="cls-1" d="M25.69,14.75a1.05,1.05,0,0,0-.06-1.48l0,0L15.8,4.67a1.21,1.21,0,0,0-1.59,0l-9.83,9a1,1,0,0,0-.07,1.46l0,0,.25.26a1.07,1.07,0,0,0,1.47.11l.74-.66v9.63a1.06,1.06,0,0,0,1.06,1.07h3.84a1.06,1.06,0,0,0,1.07-1.06h0V17.81h4.89v6.73a1,1,0,0,0,1,1.07h4.11a1.07,1.07,0,0,0,1.07-1.07h0V15l.45.4c.25.22.78.05,1.17-.39Z"/></g></svg>