<svg id="_015---Cream-Pot" data-name=" 015---Cream-Pot" xmlns="http://www.w3.org/2000/svg" viewBox="0 0 30 30"><defs><style>.cls-1{fill:#3cbe55;}.cls-2{fill:#ffc13f;}</style></defs><path id="Path_6890" data-name="Path 6890" class="cls-1" d="M15,9.55A5.45,5.45,0,1,0,20.45,15,5.46,5.46,0,0,0,15,9.55Z"/><g id="Group_2317" data-name="Group 2317"><path id="Path_6891" data-name="Path 6891" class="cls-2" d="M17.34,17.27H12.65a.34.34,0,0,1-.33-.28l-.5-2.88a.34.34,0,0,1,.28-.39.39.39,0,0,1,.21,0l1.31.64,1.08-1.94a.36.36,0,0,1,.49-.11.57.57,0,0,1,.11.11l1.07,1.94,1.32-.64a.33.33,0,0,1,.45.15.39.39,0,0,1,0,.21L17.68,17A.34.34,0,0,1,17.34,17.27Z"/><path id="Path_6893" data-name="Path 6893" class="cls-2" d="M15,12.29a.32.32,0,0,0-.3.16l-1.08,1.94-1.31-.64a.35.35,0,0,0-.46.15.39.39,0,0,0,0,.21l.5,2.88a.34.34,0,0,0,.33.28H15Z"/></g></svg>