<svg id="_015---Cream-Pot" data-name=" 015---Cream-Pot" xmlns="http://www.w3.org/2000/svg" viewBox="0 0 30 30"><defs><style>.cls-1{fill:#f8ec7d;}.cls-2{fill:#6fe3ff;}.cls-3{fill:#2561a1;}.cls-4{fill:#e48e66;}</style></defs><g id="_Group_2" data-name=" Group 2"><path id="Path_7219" data-name="Path 7219" class="cls-1" d="M22.21,7.76V23.67a1.82,1.82,0,0,1-1.82,1.82H9.61a1.82,1.82,0,0,1-1.82-1.82h0V7.76A1.83,1.83,0,0,1,9.61,5.94h2.45A1.34,1.34,0,0,0,13.41,7.3h3.18A1.35,1.35,0,0,0,17.94,6h2.45a1.83,1.83,0,0,1,1.82,1.82ZM12.84,17.83V15.24h-2.6v2.59Z"/><path id="Path_7220" data-name="Path 7220" class="cls-2" d="M12.06,5.94V5.86a1.35,1.35,0,0,1,1.35-1.35h3.18a1.36,1.36,0,0,1,1.35,1.35h0V6A1.34,1.34,0,0,1,16.59,7.3H13.41A1.34,1.34,0,0,1,12.06,6h0Z"/><rect id="Rectangle_425" data-name="Rectangle 425" class="cls-2" x="10.24" y="15.24" width="2.6" height="2.6"/><path id="Path_7225" data-name="Path 7225" class="cls-2" d="M10.82,13.34h-.58a.55.55,0,0,1-.55-.55v-2.6a.55.55,0,0,1,.55-.55h2.6a.55.55,0,0,1,.55.55v.37a.55.55,0,0,1-.55.55.54.54,0,0,1-.52-.37H10.79v1.5h0a.55.55,0,0,1,.55.55.55.55,0,0,1-.55.55Z"/><path id="Path_7226" data-name="Path 7226" class="cls-2" d="M10.82,23.43h-.58a.55.55,0,0,1-.55-.55V20.29a.56.56,0,0,1,.55-.56h2.6a.56.56,0,0,1,.55.56v.53a.55.55,0,0,1-.55.55.54.54,0,0,1-.55-.53h-1.5v1.49h0a.55.55,0,0,1,0,1.1Z"/><path id="Path_7227" data-name="Path 7227" class="cls-3" d="M12.49,13.26a.59.59,0,0,1-.39-.16l-.88-.88a.56.56,0,0,1,0-.78.54.54,0,0,1,.78,0l.49.49,1.62-1.62a.55.55,0,0,1,.77,0,.54.54,0,0,1,0,.78l-2,2A.55.55,0,0,1,12.49,13.26Z"/><path id="Path_7228" data-name="Path 7228" class="cls-3" d="M12.49,23.43a.59.59,0,0,1-.39-.16l-.88-.88a.55.55,0,1,1,.78-.78h0l.49.49,1.62-1.61a.53.53,0,0,1,.77,0,.54.54,0,0,1,0,.78h0l-2,2A.55.55,0,0,1,12.49,23.43Z"/><path id="Path_7229" data-name="Path 7229" class="cls-4" d="M19.76,12H16.3a.55.55,0,0,1-.55-.55.54.54,0,0,1,.55-.55h3.46a.55.55,0,0,1,.55.55A.55.55,0,0,1,19.76,12Z"/><path id="Path_7230" data-name="Path 7230" class="cls-4" d="M19.76,17.09H16.3a.56.56,0,0,1,0-1.11h3.46a.56.56,0,0,1,0,1.11Z"/><path id="Path_7231" data-name="Path 7231" class="cls-4" d="M19.76,22.13H16.3a.54.54,0,0,1-.55-.55A.55.55,0,0,1,16.3,21h3.46a.55.55,0,0,1,.55.55A.55.55,0,0,1,19.76,22.13Z"/></g></svg>