<svg id="_015---Cream-Pot" data-name=" 015---Cream-Pot" xmlns="http://www.w3.org/2000/svg" viewBox="0 0 30 30"><defs><style>.cls-1{fill:#ebf0f3;}.cls-2{fill:#d5d6db;}.cls-3{fill:#029bc5;}.cls-4{fill:#fcd462;}.cls-5{fill:#0489a8;}.cls-6{fill:#f7be56;}.cls-7{fill:#3e6b82;}</style></defs><g id="shop_2" data-name="shop 2"><g id="icon"><path id="Path_7288" data-name="Path 7288" class="cls-1" d="M4.6,8.79H25.4V23.12H4.6Z"/><path id="Path_7289" data-name="Path 7289" class="cls-2" d="M7.55,14.93h5v7.74h-5Z"/><path id="Path_7290" data-name="Path 7290" class="cls-3" d="M12.09,15.36v7.31H8V15.36Z"/><path id="Path_7291" data-name="Path 7291" class="cls-2" d="M14.59,14.93h9.1v4.84h-9.1Z"/><path id="Path_7292" data-name="Path 7292" class="cls-3" d="M23.26,15.36v4H15v-4Z"/><path id="Path_7293" data-name="Path 7293" class="cls-4" d="M9.93,9.77H6.55L7.76,6.62h2.9Z"/><path id="Path_7294" data-name="Path 7294" class="cls-3" d="M13.31,9.77H9.93l.73-3.15h2.9Z"/><path id="Path_7295" data-name="Path 7295" class="cls-4" d="M16.69,9.77H13.31l.24-3.15h2.9Z"/><path id="Path_7296" data-name="Path 7296" class="cls-3" d="M20.07,9.77H16.69l-.24-3.15h2.9Z"/><path id="Path_7297" data-name="Path 7297" class="cls-4" d="M23.45,9.77H20.07l-.72-3.15h2.9Z"/><path id="Path_7298" data-name="Path 7298" class="cls-3" d="M4.69,7,3.17,9.77H6.55L7.76,6.62H5.24A.62.62,0,0,0,4.69,7Z"/><path id="Path_7299" data-name="Path 7299" class="cls-3" d="M25.31,7a.63.63,0,0,0-.55-.33H22.24l1.21,3.15h3.38Z"/><path id="Path_7300" data-name="Path 7300" class="cls-5" d="M3.17,9.77V11a1.69,1.69,0,1,0,3.38.08V9.77Z"/><path id="Path_7301" data-name="Path 7301" class="cls-6" d="M6.55,9.77V11a1.69,1.69,0,0,0,3.38,0V9.77Z"/><path id="Path_7302" data-name="Path 7302" class="cls-5" d="M9.93,9.77V11a1.69,1.69,0,0,0,3.38.08V9.77Z"/><path id="Path_7303" data-name="Path 7303" class="cls-6" d="M13.31,9.77V11a1.69,1.69,0,0,0,3.38,0V9.77Z"/><path id="Path_7304" data-name="Path 7304" class="cls-5" d="M16.69,9.77V11a1.69,1.69,0,1,0,3.38.08V9.77Z"/><path id="Path_7305" data-name="Path 7305" class="cls-6" d="M20.07,9.77V11a1.69,1.69,0,0,0,3.38,0V9.77Z"/><path id="Path_7306" data-name="Path 7306" class="cls-5" d="M23.45,9.77V11a1.69,1.69,0,1,0,3.38.08V9.77Z"/><path id="Path_7307" data-name="Path 7307" class="cls-2" d="M3.48,22.24h23v1.14h-23Z"/><circle id="Ellipse_160" data-name="Ellipse 160" class="cls-7" cx="8.59" cy="18.84" r="0.23"/></g></g></svg>