<svg id="_015---Cream-Pot" data-name=" 015---Cream-Pot" xmlns="http://www.w3.org/2000/svg" viewBox="0 0 30 30"><path id="line" d="M11.07,20.77a16.56,16.56,0,0,0,1.71-.19v5.34H11.07Zm-7,5.15H5.78V20.79H4.07Zm3.5-5.13v5.13H9.28V20.79Zm14,5.13h1.7v-13a14.31,14.31,0,0,1-1.7,2.57Zm-3.5,0h1.7V17.31A14.55,14.55,0,0,1,18,18.56Zm-3.5-5.76v5.76h1.7v-6.4l-.27.12a14.53,14.53,0,0,1-1.44.52Zm7.8-16.08L18.71,7.71l1.21,1.2,1.5-1.5a11.25,11.25,0,0,1-11.16,10H4.07v1.7h6.19a12.82,12.82,0,0,0,9.15-3.79,12.84,12.84,0,0,0,3.74-8l1.57,1.57,1.21-1.2Z"/></svg>