<svg id="_015---Cream-Pot" data-name=" 015---Cream-Pot" xmlns="http://www.w3.org/2000/svg" viewBox="0 0 30 30"><defs><style>.cls-1{fill:#5e97e6;}.cls-2{fill:#e5eefb;stroke:#5e97e6;stroke-width:0.1px;}.cls-3,.cls-4{isolation:isolate;}.cls-4{font-size:4.93px;fill:#fff;font-family:Roboto-Medium, Roboto;font-weight:500;}.cls-5{letter-spacing:-0.01em;}.cls-6{letter-spacing:-0.01em;}</style></defs><g id="Group_2221" data-name="Group 2221"><path id="Path_6584" data-name="Path 6584" class="cls-1" d="M3.91,7.22V20.88l.37.87H5.64l.9-1.32,1.23-.34,1.34,1.18.24.48H20.76l1.09-1.32,1.08-.34,1.13.79.34.87h1.22l.54-.87V16.21l-1-.78h-5V10.16h2.81V9.42L21.85,9H18.73V7.22l-.58-.71H3.91Z"/><circle id="Ellipse_93" data-name="Ellipse 93" class="cls-1" cx="7.53" cy="21.82" r="1.64"/><circle id="Ellipse_94" data-name="Ellipse 94" class="cls-1" cx="22.31" cy="21.82" r="1.64"/><g id="free-delivery"><path id="Path_6284" data-name="Path 6284" class="cls-2" d="M25.2,15.16H23.27V10A1.26,1.26,0,0,0,22,8.69h-2.9V7.44a1.22,1.22,0,0,0-1.22-1.22H4.75A1.22,1.22,0,0,0,3.53,7.44V10a.34.34,0,0,0,.34.34A.34.34,0,0,0,4.21,10V7.44a.55.55,0,0,1,.54-.55H17.89a.55.55,0,0,1,.55.55V18H4.21V9.55a.34.34,0,0,0-.34-.33.34.34,0,0,0-.34.33V20.94a1.22,1.22,0,0,0,1.22,1.22h.77a2,2,0,0,0,3.9,0H16.6a.34.34,0,1,0,0-.67H9.42a2,2,0,0,0-3.9,0H4.75a.55.55,0,0,1-.54-.55V18.69H18.44v2.79H16.3a.34.34,0,0,0,0,.68h4.36a2,2,0,0,0,3.89,0h.66a1.27,1.27,0,0,0,1.26-1.26V16.42A1.26,1.26,0,0,0,25.2,15.16ZM7.47,20.49a1.31,1.31,0,0,1,0,2.62,1.31,1.31,0,0,1,0-2.62ZM22.6,23.11a1.31,1.31,0,1,1,1.31-1.31A1.31,1.31,0,0,1,22.6,23.11Zm3.19-4.86H24.9a.34.34,0,0,1-.34-.34.34.34,0,0,1,.34-.34h.89Zm0-1.35H24.9a1,1,0,1,0,0,2h.89v2a.59.59,0,0,1-.58.59h-.66a2,2,0,0,0-3.9,0H19.11V9.36H22a.58.58,0,0,1,.58.59h0V10H20.35a.34.34,0,0,0-.34.34V15.5a.34.34,0,0,0,.34.33h4.84a.6.6,0,0,1,.6.6v.48ZM22.6,10.7v4.46H20.68V10.7Z"/></g><g id="Free" class="cls-3"><text class="cls-4" transform="translate(6.71 14.43)"><tspan class="cls-5">F</tspan><tspan class="cls-6" x="2.64" y="0">r</tspan><tspan x="4.33" y="0">ee</tspan></text></g></g></svg>