<svg id="_015---Cream-Pot" data-name=" 015---Cream-Pot" xmlns="http://www.w3.org/2000/svg" viewBox="0 0 30 30"><defs><style>.cls-1{fill:#8d96aa;}</style></defs><g id="Group_2613" data-name="Group 2613"><g id="Group_2612" data-name="Group 2612"><path id="Path_7182" data-name="Path 7182" class="cls-1" d="M10,5.09a.7.7,0,0,0-.7.71h0V7.21h1.41V5.8A.71.71,0,0,0,10,5.09Z"/></g></g><g id="Group_2615" data-name="Group 2615"><g id="Group_2614" data-name="Group 2614"><path id="Path_7183" data-name="Path 7183" class="cls-1" d="M20,5.09a.7.7,0,0,0-.7.71h0V7.21h1.41V5.8A.71.71,0,0,0,20,5.09Z"/></g></g><g id="Group_2617" data-name="Group 2617"><g id="Group_2616" data-name="Group 2616"><path id="Path_7184" data-name="Path 7184" class="cls-1" d="M22.79,7.21H20.66V10a.71.71,0,1,1-1.41,0V7.21h-8.5V10a.71.71,0,0,1-.71.71.7.7,0,0,1-.7-.71h0V7.21H7.21A2.12,2.12,0,0,0,5.09,9.34h0V22.79a2.12,2.12,0,0,0,2.12,2.12H22.79a2.12,2.12,0,0,0,2.12-2.12h0V9.34a2.12,2.12,0,0,0-2.12-2.13Zm.71,15.58a.7.7,0,0,1-.71.7H7.21a.7.7,0,0,1-.71-.7h0v-9.2h17Z"/></g></g><g id="Group_2619" data-name="Group 2619"><g id="Group_2618" data-name="Group 2618"><path id="Path_7185" data-name="Path 7185" class="cls-1" d="M19.75,15.21a.7.7,0,0,0-1,0l-5.17,5.16L11.25,18a.71.71,0,0,0-1,1l2.83,2.83a.7.7,0,0,0,1,0l5.66-5.66A.71.71,0,0,0,19.75,15.21Z"/></g></g></svg>