<svg id="_015---Cream-Pot" data-name=" 015---Cream-Pot" xmlns="http://www.w3.org/2000/svg" viewBox="0 0 30 30"><defs><style>.cls-1{fill:#e4e4e4;}.cls-2{fill:#ebf0f3;}.cls-3{fill:#d5d6db;}.cls-4{fill:#adadad;}.cls-5{fill:#d4d4d4;}.cls-6{fill:#3e6b82;}</style></defs><g id="shop"><g id="Circle_Grid" data-name="Circle Grid"><circle id="Ellipse_128" data-name="Ellipse 128" class="cls-1" cx="15" cy="15" r="11.35"/></g><g id="icon"><path id="Path_7060" data-name="Path 7060" class="cls-2" d="M8.69,11.09H20.63v8.23H8.69Z"/><path id="Path_7061" data-name="Path 7061" class="cls-3" d="M10.38,14.62h2.85v4.44H10.38Z"/><path id="Path_7062" data-name="Path 7062" class="cls-4" d="M13,14.86v4.2H10.63v-4.2Z"/><path id="Path_7063" data-name="Path 7063" class="cls-3" d="M14.42,14.62h5.23v2.77H14.42Z"/><path id="Path_7064" data-name="Path 7064" class="cls-4" d="M19.4,14.86v2.29H14.67V14.86Z"/><path id="Path_7065" data-name="Path 7065" class="cls-5" d="M11.75,11.65H9.81l.69-1.8h1.66Z"/><path id="Path_7066" data-name="Path 7066" class="cls-4" d="M13.69,11.65H11.75l.41-1.8h1.67Z"/><path id="Path_7067" data-name="Path 7067" class="cls-5" d="M15.63,11.65H13.69l.14-1.8h1.66Z"/><path id="Path_7068" data-name="Path 7068" class="cls-4" d="M17.57,11.65H15.63l-.14-1.8h1.66Z"/><path id="Path_7069" data-name="Path 7069" class="cls-5" d="M19.51,11.65H17.57l-.42-1.8h1.66Z"/><path id="Path_7070" data-name="Path 7070" class="cls-4" d="M8.74,10l-.87,1.63H9.81l.69-1.81H9.05a.34.34,0,0,0-.31.19Z"/><path id="Path_7071" data-name="Path 7071" class="cls-4" d="M20.57,10a.34.34,0,0,0-.31-.19H18.81l.7,1.8h1.94Z"/><path id="Path_7072" data-name="Path 7072" class="cls-4" d="M7.87,11.66v.69a1,1,0,0,0,1.94.16v-.85Z"/><path id="Path_7073" data-name="Path 7073" class="cls-5" d="M9.81,11.66v.69a1,1,0,1,0,1.94.16v-.85Z"/><path id="Path_7074" data-name="Path 7074" class="cls-4" d="M11.75,11.66v.69a1,1,0,0,0,1.94.16v-.85Z"/><path id="Path_7075" data-name="Path 7075" class="cls-5" d="M13.69,11.66v.69a1,1,0,0,0,1.05.89,1,1,0,0,0,.89-.89v-.69Z"/><path id="Path_7076" data-name="Path 7076" class="cls-4" d="M15.63,11.66v.69a1,1,0,0,0,.89,1.05,1,1,0,0,0,1.05-.89v-.85Z"/><path id="Path_7077" data-name="Path 7077" class="cls-5" d="M17.57,11.66v.69a1,1,0,0,0,.89,1.05,1,1,0,0,0,1.05-.89v-.85Z"/><path id="Path_7078" data-name="Path 7078" class="cls-4" d="M19.51,11.66v.69a1,1,0,0,0,.89,1.05,1,1,0,0,0,1.05-.89v-.85Z"/><path id="Path_7079" data-name="Path 7079" class="cls-3" d="M8.05,18.81H21.27v.66H8.05Z"/><circle id="Ellipse_129" data-name="Ellipse 129" class="cls-6" cx="10.98" cy="16.86" r="0.13"/></g></g></svg>