<svg id="_015---Cream-Pot" data-name=" 015---Cream-Pot" xmlns="http://www.w3.org/2000/svg" xmlns:xlink="http://www.w3.org/1999/xlink" viewBox="0 0 30 30"><defs><style>.cls-1{fill:url(#linear-gradient);}.cls-2{fill:#fff;}.cls-3{fill:#1da883;}</style><linearGradient id="linear-gradient" x1="-568.44" y1="188.56" x2="-568.86" y2="188.56" gradientTransform="matrix(45, 0, 0, -45, 25603.67, 8500.22)" gradientUnits="userSpaceOnUse"><stop offset="0" stop-color="#3cbe55"/><stop offset="1" stop-color="#0f9f99"/></linearGradient></defs><g id="Group_2755" data-name="Group 2755"><circle id="Ellipse_138" data-name="Ellipse 138" class="cls-1" cx="15" cy="15" r="10.11"/><g id="happy"><path id="Path_7155" data-name="Path 7155" class="cls-2" d="M15.07,10.36a4.27,4.27,0,1,1-4.26,4.26h0A4.26,4.26,0,0,1,15.07,10.36Z"/><g id="Group_2569" data-name="Group 2569"><path id="Path_7154" data-name="Path 7154" class="cls-3" d="M17.7,14.63a2.63,2.63,0,0,1-5.26,0,.16.16,0,0,0-.17-.17.17.17,0,0,0-.17.17h0a3,3,0,0,0,5.94,0,.16.16,0,0,0-.18-.16A.17.17,0,0,0,17.7,14.63Z"/><circle id="Ellipse_140" data-name="Ellipse 140" class="cls-3" cx="13.78" cy="13.15" r="0.67"/><circle id="Ellipse_141" data-name="Ellipse 141" class="cls-3" cx="16.31" cy="13.15" r="0.67"/></g></g></g></svg>