<svg id="_015---Cream-Pot" data-name=" 015---Cream-Pot" xmlns="http://www.w3.org/2000/svg" viewBox="0 0 30 30"><defs><style>.cls-1{fill:none;stroke:#9fa6b0;stroke-linecap:round;}.cls-2{fill:#9fa6b0;}</style></defs><g id="Group_2477" data-name="Group 2477"><g id="Group_2338" data-name="Group 2338"><path id="Path_6814" data-name="Path 6814" class="cls-1" d="M11.52,17.54v6L15,21l3.29,2.61V18.2l-1.71.31-1.83.23-2-.38Z"/><g id="dollar"><path id="Path_6270" data-name="Path 6270" class="cls-2" d="M15,19.09a6.32,6.32,0,1,1,4.48-1.85A6.32,6.32,0,0,1,15,19.09ZM15,7.22a5.54,5.54,0,1,0,5.54,5.54h0A5.55,5.55,0,0,0,15,7.22Z"/></g></g><path id="star" class="cls-2" d="M18.18,11.75l-2.09-.32-.93-2a.22.22,0,0,0-.3-.08.24.24,0,0,0-.09.08l-.93,2-2.09.32a.22.22,0,0,0-.18.24.24.24,0,0,0,.06.11l1.52,1.56-.36,2.2a.21.21,0,0,0,.18.24.2.2,0,0,0,.13,0l1.87-1,1.86,1a.22.22,0,0,0,.29-.09.2.2,0,0,0,0-.13l-.35-2.2L18.3,12.1a.22.22,0,0,0,0-.3A.17.17,0,0,0,18.18,11.75Z"/></g></svg>