<svg id="_015---Cream-Pot" data-name=" 015---Cream-Pot" xmlns="http://www.w3.org/2000/svg" xmlns:xlink="http://www.w3.org/1999/xlink" viewBox="0 0 30 30"><defs><style>.cls-1{fill:url(#linear-gradient);}.cls-2,.cls-3,.cls-5,.cls-7{isolation:isolate;}.cls-3,.cls-5{font-size:1.7px;}.cls-3,.cls-4,.cls-7{fill:#fff;}.cls-3,.cls-5,.cls-7{font-family:Muli-Bold, Muli;font-weight:700;}.cls-5{fill:#52c87c;}.cls-6{fill:#d00a1a;}.cls-7{font-size:1.42px;}</style><linearGradient id="linear-gradient" x1="-678.06" y1="239.7" x2="-677.92" y2="239.7" gradientTransform="matrix(178, 0, 0, -44, 120696.57, 10561.64)" gradientUnits="userSpaceOnUse"><stop offset="0" stop-color="#3cbe55"/><stop offset="1" stop-color="#0f9f99"/></linearGradient></defs><g id="Group_2757" data-name="Group 2757"><rect id="Rectangle_392" data-name="Rectangle 392" class="cls-1" x="2.39" y="11.88" width="25.22" height="6.23" rx="1.13"/><g id="Info_Penjualan" data-name="Info Penjualan" class="cls-2"><text class="cls-3" transform="translate(8.62 15.42)">Info Penjualan</text></g><g id="Group_2602" data-name="Group 2602"><g id="Ellipse_150" data-name="Ellipse 150"><circle class="cls-4" cx="6" cy="14.93" r="1.2"/><path class="cls-4" d="M6,16.13a1.21,1.21,0,1,1,1.21-1.2A1.2,1.2,0,0,1,6,16.13Zm0-2.26a1.06,1.06,0,1,0,1.07,1.06A1.06,1.06,0,0,0,6,13.87Z"/></g><g id="i" class="cls-2"><text class="cls-5" transform="translate(5.79 15.57)">i</text></g></g><g id="Group_2756" data-name="Group 2756"><g id="Ellipse_149" data-name="Ellipse 149"><circle class="cls-6" cx="23.57" cy="15.07" r="1.49"/><path class="cls-4" d="M23.57,16.56a1.49,1.49,0,1,1,1.49-1.49A1.49,1.49,0,0,1,23.57,16.56Zm0-2.76a1.28,1.28,0,0,0,0,2.55,1.28,1.28,0,1,0,0-2.55Z"/></g><g id="_2" data-name=" 2" class="cls-2"><text class="cls-7" transform="translate(23.08 15.57)">2</text></g></g></g></svg>