<svg id="_015---Cream-Pot" data-name=" 015---Cream-Pot" xmlns="http://www.w3.org/2000/svg" viewBox="0 0 30 30"><defs><style>.cls-1{fill:#6fe3ff;}.cls-2{fill:#e48e66;}.cls-3{fill:#f8ec7d;}.cls-4{fill:#63316d;}</style></defs><path id="Path_7130" data-name="Path 7130" class="cls-1" d="M18.21,11.28h-7.3A1.91,1.91,0,0,0,9,13.19H9v9.92a2.38,2.38,0,0,1-1.93.2l0,0V11.66A1.91,1.91,0,0,1,9,9.75h7.68a1.53,1.53,0,0,1,1.53,1.53Z"/><path id="Path_7131" data-name="Path 7131" class="cls-2" d="M9,23.11a2.41,2.41,0,0,0,1.12-1.51l2.08-7.35a1.92,1.92,0,0,1,1.86-1.47h8.61a1.9,1.9,0,0,1,1.91,1.91,1.55,1.55,0,0,1,0,.37l-1.63,6.83A1.9,1.9,0,0,1,21,23.43H7.8A2.42,2.42,0,0,0,9,23.11Z"/><path id="Path_7132" data-name="Path 7132" class="cls-3" d="M21.08,10.45v2.33h-1a1.5,1.5,0,0,0-1.49-1.5h-.42a1.53,1.53,0,0,0-1.53-1.53H9a1.91,1.91,0,0,0-1.91,1.91v11.6l0,.06a2.4,2.4,0,0,1-1.65-2.27V8.6a2,2,0,0,1,2-2h4.72A2,2,0,0,1,13.43,7L14.48,8a2,2,0,0,0,1.26.47h3.31A2,2,0,0,1,21.08,10.45Z"/><path id="Path_7133" data-name="Path 7133" class="cls-1" d="M20.12,12.78H14.06a1.92,1.92,0,0,0-1.86,1.47L10.12,21.6A2.38,2.38,0,0,1,9,23.11V13.19a1.91,1.91,0,0,1,1.91-1.91h7.72A1.5,1.5,0,0,1,20.12,12.78Z"/><path id="Path_7134" data-name="Path 7134" class="cls-4" d="M22.67,12.44H21.41v-2a2.36,2.36,0,0,0-2.36-2.36H15.74a1.59,1.59,0,0,1-1-.38l-1-.92a2.22,2.22,0,0,0-1.48-.55H7.45A2.35,2.35,0,0,0,5.09,8.6V21.05a2.7,2.7,0,0,0,2.57,2.71H21a2.24,2.24,0,0,0,2.2-1.8l1.63-6.83h0a2.24,2.24,0,0,0-1.77-2.63,2,2,0,0,0-.43-.05ZM5.75,21.05V8.6a1.7,1.7,0,0,1,1.7-1.7h4.72a1.6,1.6,0,0,1,1,.39l1,.92a2.28,2.28,0,0,0,1.48.55h3.31a1.69,1.69,0,0,1,1.69,1.69v2h-.32A1.82,1.82,0,0,0,18.63,11h-.11a1.87,1.87,0,0,0-1.84-1.53H9a2.24,2.24,0,0,0-2.25,2.24V22.81a2.38,2.38,0,0,1-.4-.31A2.09,2.09,0,0,1,5.75,21.05Zm12.88-9.43a1.16,1.16,0,0,1,1.11.82H14.06a2.24,2.24,0,0,0-2.18,1.72L9.8,21.51h0a2.07,2.07,0,0,1-.47.89V13.19a1.59,1.59,0,0,1,1.58-1.58ZM7.42,23.06V11.66A1.57,1.57,0,0,1,9,10.09h7.68a1.2,1.2,0,0,1,1.15.86H10.91a2.24,2.24,0,0,0-2.25,2.24v9.72A2,2,0,0,1,7.42,23.06ZM24.22,15l-1.63,6.82v0A1.57,1.57,0,0,1,21,23.1H9.59a2.82,2.82,0,0,0,.86-1.42l2.08-7.34h0a1.57,1.57,0,0,1,1.53-1.22h8.61a1.58,1.58,0,0,1,1.58,1.58,1.53,1.53,0,0,1,0,.3Z"/></svg>