<svg id="_015---Cream-Pot" data-name=" 015---Cream-Pot" xmlns="http://www.w3.org/2000/svg" viewBox="0 0 30 30"><defs><style>.cls-1{fill:#3cbe55;}</style></defs><g id="Group_2346" data-name="Group 2346"><path id="Path_6955" data-name="Path 6955" class="cls-1" d="M15,5.91h0A9.09,9.09,0,0,0,7.64,20.33L6.5,23.71,10,22.6A9.1,9.1,0,1,0,15,5.91Zm5.3,12.84A2.6,2.6,0,0,1,18.51,20c-.48.1-1.1.18-3.19-.68a11.4,11.4,0,0,1-4.52-4A5.13,5.13,0,0,1,9.72,12.6a2.89,2.89,0,0,1,.92-2.21,1.38,1.38,0,0,1,.93-.33h.3c.27,0,.4,0,.58.45s.75,1.84.82,2a.56.56,0,0,1,0,.49,1.6,1.6,0,0,1-.3.42c-.13.16-.26.27-.39.44a.42.42,0,0,0-.11.57A8.38,8.38,0,0,0,14,16.24a6.82,6.82,0,0,0,2.15,1.32.58.58,0,0,0,.64-.1c.25-.31.49-.62.71-.95a.5.5,0,0,1,.65-.19c.25.08,1.55.72,1.82.86s.44.19.5.31A2.27,2.27,0,0,1,20.3,18.75Z"/></g></svg>