<svg id="_015---Cream-Pot" data-name=" 015---Cream-Pot" xmlns="http://www.w3.org/2000/svg" viewBox="0 0 30 30"><g id="list"><g id="Group_1680" data-name="Group 1680"><g id="Group_1679" data-name="Group 1679"><circle id="Ellipse_57" data-name="Ellipse 57" cx="8.49" cy="15" r="2.36"/><path id="Path_6302" data-name="Path 6302" d="M23.39,14.52H12.49a.48.48,0,0,0,0,1h10.9a.48.48,0,0,0,0-1Z"/><circle id="Ellipse_58" data-name="Ellipse 58" cx="8.49" cy="8.25" r="2.36"/><path id="Path_6303" data-name="Path 6303" d="M12.49,8.73h10.9a.48.48,0,0,0,.48-.48.47.47,0,0,0-.48-.48H12.49a.47.47,0,0,0-.48.48A.48.48,0,0,0,12.49,8.73Z"/><circle id="Ellipse_59" data-name="Ellipse 59" cx="8.49" cy="21.75" r="2.36"/><path id="Path_6304" data-name="Path 6304" d="M23.39,21.27H12.49a.47.47,0,0,0-.48.48.47.47,0,0,0,.48.48h10.9a.48.48,0,0,0,0-1Z"/></g></g></g></svg>