<svg id="_015---Cream-Pot" data-name=" 015---Cream-Pot" xmlns="http://www.w3.org/2000/svg" viewBox="0 0 30 30"><defs><style>.cls-1{fill:#3cbe55;}</style></defs><g id="like"><g id="Group_2543" data-name="Group 2543"><g id="Group_2542" data-name="Group 2542"><path id="Path_7118" data-name="Path 7118" class="cls-1" d="M7.33,13.79a2,2,0,0,0-2,2v6.46a2,2,0,0,0,2,2H9.75a2,2,0,0,0,1.21-.4V13.79Z"/></g></g><g id="Group_2545" data-name="Group 2545"><g id="Group_2544" data-name="Group 2544"><path id="Path_7119" data-name="Path 7119" class="cls-1" d="M24.69,16.82a1.77,1.77,0,0,0-.53-1.27A2,2,0,0,0,24.68,14a2.1,2.1,0,0,0-2.11-1.83h-5A11.8,11.8,0,0,0,18.23,9c0-1.76-1.49-3.23-2.42-3.23a2.52,2.52,0,0,0-1.47.49.42.42,0,0,0-.15.31V9.26l-2.32,5-.1,0V23a5.39,5.39,0,0,0,2,.48h7.4A1.86,1.86,0,0,0,23,22.07a1.84,1.84,0,0,0-.14-1.22,1.81,1.81,0,0,0,.81-2.42A1.8,1.8,0,0,0,24.69,16.82Z"/></g></g></g></svg>