<svg id="_015---Cream-Pot" data-name=" 015---Cream-Pot" xmlns="http://www.w3.org/2000/svg" viewBox="0 0 30 30"><defs><style>.cls-1{fill:#fff;}.cls-2,.cls-3{isolation:isolate;}.cls-3{font-size:2.91px;font-family:Muli-Bold, Muli;font-weight:700;}.cls-3,.cls-4{fill:#3cbe55;}</style></defs><g id="Group_2754" data-name="Group 2754"><path id="Rectangle_361-2" data-name="Rectangle 361-2" class="cls-1" d="M8.17,10.63H21.83A4.37,4.37,0,0,1,26.2,15h0a4.37,4.37,0,0,1-4.37,4.37H8.17A4.37,4.37,0,0,1,3.8,15h0A4.37,4.37,0,0,1,8.17,10.63Z"/><g id="Chat" class="cls-2"><text class="cls-3" transform="translate(15.09 15.91)">Chat</text></g><g id="chat-2"><g id="Group_1612" data-name="Group 1612"><path id="Path_6245" data-name="Path 6245" class="cls-4" d="M11.35,13.34h.77a.42.42,0,0,1,.43.42h0V16a.43.43,0,0,1-.43.43H12v.68l-.69-.68H9.05A.43.43,0,0,1,8.62,16v-.43"/><path id="Path_6246" data-name="Path 6246" class="cls-4" d="M11.35,12.91v2.22a.42.42,0,0,1-.42.42H8.62l-.68.69v-.69H7.86a.42.42,0,0,1-.43-.42V12.91a.43.43,0,0,1,.43-.43h3.07A.42.42,0,0,1,11.35,12.91Z"/></g><g id="Group_1613" data-name="Group 1613"><path id="Path_6247" data-name="Path 6247" class="cls-1" d="M12.12,13.25h-.68v-.34a.51.51,0,0,0-.51-.51H7.86a.51.51,0,0,0-.51.51v2.22a.51.51,0,0,0,.51.51v.6a.08.08,0,0,0,.08.08l.06,0,.54-.54V16a.51.51,0,0,0,.51.51h2.27l.66.66a.09.09,0,0,0,.12,0,.14.14,0,0,0,0-.06v-.6a.51.51,0,0,0,.51-.51V13.76A.51.51,0,0,0,12.12,13.25Zm-3.5,2.22-.06,0L8,16v-.48a.09.09,0,0,0-.09-.08H7.86a.35.35,0,0,1-.35-.34V12.91a.35.35,0,0,1,.35-.34h3.07a.34.34,0,0,1,.34.34v2.22a.34.34,0,0,1-.34.34Zm3.84.51a.34.34,0,0,1-.34.34H12a.09.09,0,0,0-.08.09v.47l-.54-.53a.06.06,0,0,0-.06,0H9.05A.34.34,0,0,1,8.71,16v-.34h2.22a.51.51,0,0,0,.51-.51V13.42h.68a.34.34,0,0,1,.34.34Z"/><g id="Group_1614" data-name="Group 1614"><path id="Path_6248" data-name="Path 6248" class="cls-1" d="M9.39,14.19a.26.26,0,1,0,0-.51.25.25,0,0,0-.25.25h0A.25.25,0,0,0,9.39,14.19Zm0-.34a.09.09,0,0,1,.09.08.09.09,0,0,1-.09.09.08.08,0,0,1-.08-.09.08.08,0,0,1,.08-.08Z"/><path id="Path_6249" data-name="Path 6249" class="cls-1" d="M8.54,14.19a.26.26,0,0,0,0-.51.26.26,0,0,0-.26.25h0A.26.26,0,0,0,8.54,14.19Zm0-.34a.08.08,0,0,1,.08.08.08.08,0,0,1-.08.09.09.09,0,0,1-.09-.09.09.09,0,0,1,.09-.08Z"/><path id="Path_6250" data-name="Path 6250" class="cls-1" d="M10.24,14.19a.26.26,0,1,0,0-.51.25.25,0,0,0-.25.25h0A.25.25,0,0,0,10.24,14.19Zm0-.34a.09.09,0,0,1,.09.08.09.09,0,0,1-.09.09.09.09,0,0,1-.08-.09h0A.09.09,0,0,1,10.24,13.85Z"/></g></g></g></g></svg>