<svg id="_015---Cream-Pot" data-name=" 015---Cream-Pot" xmlns="http://www.w3.org/2000/svg" viewBox="0 0 30 30"><defs><style>.cls-1{stroke:#707070;stroke-width:0.25px;}</style></defs><g id="headphones_2" data-name="headphones 2"><g id="Group_2484" data-name="Group 2484"><path id="Path_7109" data-name="Path 7109" class="cls-1" d="M22.27,11.65a7.27,7.27,0,0,0-14.54,0h0a2.19,2.19,0,0,0-2,2.35v3.83a2.26,2.26,0,0,0,2.08,2.42,1.93,1.93,0,0,0,.34,0H9.3a.4.4,0,0,0,.4-.4V12a.4.4,0,0,0-.4-.4H8.54a6.46,6.46,0,0,1,12.92,0h-.77a.4.4,0,0,0-.4.4h0v7.8a.4.4,0,0,0,.4.4h.77C21.35,23,20,23.65,17.35,23.77V23.5a.8.8,0,0,0-.8-.81H14a.81.81,0,0,0-.81.81v1.31a.81.81,0,0,0,.81.81h2.54a.81.81,0,0,0,.81-.81v-.23c2.56-.11,4.77-.64,4.91-4.37a2.19,2.19,0,0,0,2-2.35V14a2.2,2.2,0,0,0-2-2.38ZM8.9,12.41v7H8.12a1.46,1.46,0,0,1-1.62-1.3,1.61,1.61,0,0,1,0-.31V14A1.48,1.48,0,0,1,7.81,12.4H8.9Zm7.66,11.8v.62H14V23.51h2.55Zm6.92-6.38a1.46,1.46,0,0,1-1.3,1.61H21.1v-7h.78a1.48,1.48,0,0,1,1.62,1.3,1.71,1.71,0,0,1,0,.32Z"/></g></g></svg>