<svg id="_015---Cream-Pot" data-name=" 015---Cream-Pot" xmlns="http://www.w3.org/2000/svg" viewBox="0 0 30 30"><defs><style>.cls-1{stroke:#000;stroke-width:0.25px;}</style></defs><g id="qa"><path id="Path_7103" data-name="Path 7103" class="cls-1" d="M23.68,21.52A5.42,5.42,0,0,0,25,18c0-3-2.66-5.57-6.12-5.94A5.45,5.45,0,0,0,19,11c0-3.31-3.14-6-7-6S5,7.69,5,11a5.34,5.34,0,0,0,1.13,3.28L5,17.22a.33.33,0,0,0,.19.43.31.31,0,0,0,.25,0l3.15-1.38a7.56,7.56,0,0,0,2.5.68A5.45,5.45,0,0,0,11,18c0,3.31,3.14,6,7,6a7.92,7.92,0,0,0,3.11-.62L24.53,25a.33.33,0,0,0,.44-.16.32.32,0,0,0,0-.27ZM8.49,15.58,5.92,16.71l.9-2.37A.33.33,0,0,0,6.77,14a4.76,4.76,0,0,1-1.11-3C5.66,8.06,8.5,5.66,12,5.66s6.34,2.4,6.34,5.34a4.53,4.53,0,0,1-.19,1.26c-.68,2.4-3.21,4.07-6.15,4.07h-.46a7,7,0,0,1-2.77-.73A.31.31,0,0,0,8.49,15.58Zm12.77,7.13a.34.34,0,0,0-.28,0,7.28,7.28,0,0,1-3,.63c-3.49,0-6.33-2.39-6.33-5.34a4.26,4.26,0,0,1,.11-1H12a5.72,5.72,0,0,0,.59,0l.2,0,.38,0,.23,0,.34-.06.24-.06.3-.08.25-.08.28-.1.24-.1.27-.11.23-.12L15.8,16l.23-.13.23-.14.22-.15.21-.16.2-.17.2-.17.19-.18.18-.18a1.63,1.63,0,0,0,.17-.2c.06-.06.11-.13.17-.2l.15-.2c.06-.07.1-.14.15-.21l.13-.22.13-.22.11-.23c0-.07.07-.15.11-.23l.09-.24a.54.54,0,0,1,0-.11c3.17.3,5.62,2.58,5.62,5.3a4.75,4.75,0,0,1-1.29,3.22.34.34,0,0,0-.06.36L24,24Z"/><g id="Group_2480" data-name="Group 2480"><path id="Path_6248" data-name="Path 6248" d="M11.76,11.67a1,1,0,1,0-1-1,1,1,0,0,0,1,1Zm0-1.33a.34.34,0,1,1-.33.34h0a.33.33,0,0,1,.33-.34Z"/><path id="Path_6249" data-name="Path 6249" d="M8.45,11.67a1,1,0,1,0-1-1,1,1,0,0,0,1,1Zm0-1.33a.34.34,0,1,1-.33.34h0a.34.34,0,0,1,.33-.34Z"/><path id="Path_6250" data-name="Path 6250" d="M15.06,11.67a1,1,0,1,0-1-1,1,1,0,0,0,1,1Zm0-1.33a.34.34,0,1,1,0,.67.33.33,0,0,1-.33-.33h0a.34.34,0,0,1,.33-.34Z"/></g></g></svg>