<svg id="_015---Cream-Pot" data-name=" 015---Cream-Pot" xmlns="http://www.w3.org/2000/svg" viewBox="0 0 30 30"><defs><style>.cls-1{fill:#f07281;}.cls-2{fill:#eb5569;}.cls-3{fill:#eaf6ff;}.cls-4{fill:#c8effe;}.cls-5{fill:#99e6fc;}.cls-6{fill:#62dbfb;}.cls-7{fill:#0268b4;}.cls-8{fill:#015a9a;}.cls-9{fill:#0593fc;}.cls-10{fill:#0181fa;}.cls-11{fill:#fff3be;}.cls-12{fill:#ffec9c;}.cls-13{fill:#4fc123;}</style></defs><path id="Path_7253" data-name="Path 7253" class="cls-1" d="M21.37,7V24.37a1,1,0,0,1-1,1H7.24a1,1,0,0,1-1-1V7a1,1,0,0,1,1-1h.27l6.31.42L20.13,6h.27a1,1,0,0,1,1,1Z"/><path id="Path_7254" data-name="Path 7254" class="cls-2" d="M21.37,7V24.37a1,1,0,0,1-1,1h-.78a1,1,0,0,0,1-1V14.23l-1.66,1.66V13l1.42-1.42a.84.84,0,0,0,.24-.58V7a1,1,0,0,0-.76-1h.57a1,1,0,0,1,1,1Z"/><path id="Path_7255" data-name="Path 7255" class="cls-3" d="M20.13,6V23.71a.4.4,0,0,1-.4.39H7.9a.39.39,0,0,1-.39-.39h0V6H9.39l4.43.19L18.25,6Z"/><path id="Path_7256" data-name="Path 7256" class="cls-4" d="M20.13,11.79h0V6h-1v6.3a1.1,1.1,0,0,1-.32.78l-5,5-.11.11a1.83,1.83,0,0,0-.49.84l-.16,1.19a.23.23,0,0,0,.2.25H14a3.83,3.83,0,0,0,1.13-.84l.11-.11,3.86-3.86v8a.4.4,0,0,1-.39.39h1a.4.4,0,0,0,.39-.39v-9h0Z"/><g id="Group_2716" data-name="Group 2716"><g id="Group_2713" data-name="Group 2713"><g id="Group_2712" data-name="Group 2712"><path id="Path_7257" data-name="Path 7257" class="cls-5" d="M17.7,11.88H13.8a.31.31,0,1,1,0-.62h3.9a.31.31,0,1,1,0,.62Z"/></g></g><g id="Group_2715" data-name="Group 2715"><g id="Group_2714" data-name="Group 2714"><path id="Path_7258" data-name="Path 7258" class="cls-5" d="M18,16.06a.32.32,0,0,1-.32.32H13.8a.32.32,0,1,1,0-.63h3.9A.31.31,0,0,1,18,16.06Z"/></g></g><path id="Path_7259" data-name="Path 7259" class="cls-6" d="M18,16.06a.32.32,0,0,1-.32.32H15.54l.63-.63H17.7a.31.31,0,0,1,.32.31Z"/></g><path id="Path_7260" data-name="Path 7260" class="cls-7" d="M17.11,6l-3.29.19L10.52,6V5.09A.43.43,0,0,1,11,4.66h5.73a.43.43,0,0,1,.43.43Z"/><path id="Path_7261" data-name="Path 7261" class="cls-8" d="M16.68,4.66h-1a.43.43,0,0,1,.43.43h0V6l.1.05L17.11,6V5.09a.43.43,0,0,0-.43-.43Z"/><g id="Group_2717" data-name="Group 2717"><path id="Path_7262" data-name="Path 7262" class="cls-4" d="M11.56,13H9.71a.52.52,0,0,1-.52-.52h0V10.64a.51.51,0,0,1,.52-.51h1.85a.51.51,0,0,1,.52.51h0v1.85A.52.52,0,0,1,11.56,13Z"/></g><path id="Path_7263" data-name="Path 7263" class="cls-5" d="M11.56,10.13h-1a.51.51,0,0,1,.52.51h0V12.5a.51.51,0,0,1-.52.51h1a.51.51,0,0,0,.52-.51h0V10.64a.51.51,0,0,0-.52-.51Z"/><g id="Group_2718" data-name="Group 2718"><path id="Path_7264" data-name="Path 7264" class="cls-4" d="M11.56,17.51H9.71A.52.52,0,0,1,9.19,17h0V15.14a.52.52,0,0,1,.52-.52h1.85a.52.52,0,0,1,.52.52h0V17A.52.52,0,0,1,11.56,17.51Z"/></g><path id="Path_7265" data-name="Path 7265" class="cls-5" d="M11.56,14.62h-1a.52.52,0,0,1,.52.52h0V17a.52.52,0,0,1-.52.52h1a.52.52,0,0,0,.52-.52h0V15.14a.52.52,0,0,0-.52-.52Z"/><g id="Group_2719" data-name="Group 2719"><path id="Path_7266" data-name="Path 7266" class="cls-4" d="M11.56,22H9.71a.51.51,0,0,1-.52-.51V19.63a.51.51,0,0,1,.52-.51h1.85a.51.51,0,0,1,.52.51v1.86A.51.51,0,0,1,11.56,22Z"/></g><path id="Path_7267" data-name="Path 7267" class="cls-5" d="M11.56,19.12h-1a.51.51,0,0,1,.52.51v1.86a.51.51,0,0,1-.52.51h1a.51.51,0,0,0,.52-.51V19.63A.51.51,0,0,0,11.56,19.12Z"/><g id="Group_2720" data-name="Group 2720"><path id="Path_7268" data-name="Path 7268" class="cls-7" d="M22.29,13.52l-6,6-.71-.28-.36-.14-.38-1,6-6,1.07.37.12.36Z"/><path id="Path_7269" data-name="Path 7269" class="cls-8" d="M22.29,13.52l-6,6-.71-.28L22,12.79Z"/><path id="Path_7270" data-name="Path 7270" class="cls-9" d="M23.44,12.37l-1.15,1.15-1.45-1.46L22,10.92a1,1,0,0,1,1.46,0A1,1,0,0,1,23.44,12.37Z"/><path id="Path_7271" data-name="Path 7271" class="cls-10" d="M23.44,10.92a1,1,0,0,0-1.22-.17,1,1,0,0,1,.4,1.39.76.76,0,0,1-.17.23L21.8,13l.49.5,1.15-1.15a1,1,0,0,0,0-1.45Z"/><path id="Path_7272" data-name="Path 7272" class="cls-11" d="M16.27,19.54l-.12.11a1.86,1.86,0,0,1-.83.49l-1.23.34a.17.17,0,0,1-.21-.12.14.14,0,0,1,0-.09L14.21,19a1.93,1.93,0,0,1,.49-.84l.12-.11Z"/><path id="Path_7273" data-name="Path 7273" class="cls-12" d="M15.28,19.54l-.11.11a1.83,1.83,0,0,1-.84.49l-.45.13a.17.17,0,0,0,.12.21h.09l1.23-.34a1.86,1.86,0,0,0,.83-.49l.12-.11-.49-.49Z"/></g><g id="Group_2721" data-name="Group 2721"><path id="Path_7274" data-name="Path 7274" class="cls-8" d="M17.24,8.61l-.23,0-2.88-.52a2.22,2.22,0,0,0-.63,0l-2.88.52A1.32,1.32,0,0,1,9.09,7.52a1.79,1.79,0,0,1,0-.23v-1A.31.31,0,0,1,9.39,6h8.86a.31.31,0,0,1,.31.31h0v1a1.32,1.32,0,0,1-1.32,1.32ZM13.81,7.42a3.13,3.13,0,0,1,.43,0L17.12,8a.68.68,0,0,0,.8-.56.49.49,0,0,0,0-.12V6.64H9.7v.65a.69.69,0,0,0,.69.69h.12l2.88-.51a3,3,0,0,1,.42,0Z"/></g><g id="Group_2722" data-name="Group 2722"><path id="Path_7275" data-name="Path 7275" class="cls-13" d="M10.72,12.17a.32.32,0,0,1-.22-.1l-.44-.44a.31.31,0,0,1,0-.44.32.32,0,0,1,.43,0l.22.22,1.52-1.52a.31.31,0,0,1,.44,0,.32.32,0,0,1,0,.43l-1.74,1.74A.32.32,0,0,1,10.72,12.17Z"/></g><g id="Group_2723" data-name="Group 2723"><path id="Path_7276" data-name="Path 7276" class="cls-13" d="M10.72,16.69a.32.32,0,0,1-.22-.1l-.44-.44a.31.31,0,0,1,0-.44.32.32,0,0,1,.43,0l.22.22,1.52-1.52a.31.31,0,0,1,.44,0,.32.32,0,0,1,0,.43l-1.74,1.73a.32.32,0,0,1-.22.1Z"/></g></svg>