<svg id="_015---Cream-Pot" data-name=" 015---Cream-Pot" xmlns="http://www.w3.org/2000/svg" viewBox="0 0 30 30"><defs><style>.cls-1{fill:#8d96aa;}.cls-2{fill:#fff;stroke:#fff;}</style></defs><g id="Group_2704" data-name="Group 2704"><circle id="Ellipse_158" data-name="Ellipse 158" class="cls-1" cx="15" cy="15" r="8"/><g id="cancel"><g id="Group_2542" data-name="Group 2542"><path id="Path_7111" data-name="Path 7111" class="cls-2" d="M15,15.28l2.84-2.84a.26.26,0,0,0,0-.37.25.25,0,0,0-.36,0h0l-2.84,2.85-2.84-2.85a.26.26,0,0,0-.37.37l2.85,2.84-2.85,2.84a.26.26,0,0,0,0,.36.25.25,0,0,0,.36,0l2.84-2.84,2.84,2.84a.25.25,0,1,0,.37-.35h0Z"/></g></g></g></svg>