<svg id="_015---Cream-Pot" data-name=" 015---Cream-Pot" xmlns="http://www.w3.org/2000/svg" viewBox="0 0 30 30"><g id="logout"><g id="Group_2486" data-name="Group 2486"><g id="Group_2485" data-name="Group 2485"><path id="Path_7110" data-name="Path 7110" d="M20.57,16.3l-2.2,4a.49.49,0,0,1-.68.19l-7.94-4.4a.51.51,0,0,1-.2-.68l2.2-4a.51.51,0,0,0-.19-.69.52.52,0,0,0-.69.2l-2.2,4A1.52,1.52,0,0,0,9.26,17l7.94,4.4a1.52,1.52,0,0,0,2.06-.59l2.2-4a.51.51,0,1,0-.89-.49Z"/></g></g><g id="Group_2488" data-name="Group 2488"><g id="Group_2487" data-name="Group 2487"><path id="Path_7111" data-name="Path 7111" d="M18.73,8.48,14.59,9.7a.5.5,0,0,0-.34.62.5.5,0,0,0,.63.34l2.95-.87L15,14.94a.51.51,0,0,0,.89.48l2.84-5.13.83,3a.5.5,0,0,0,.62.35.49.49,0,0,0,.35-.62L19.35,8.83a.49.49,0,0,0-.61-.35h0Z"/></g></g></g></svg>