<svg id="_015---Cream-Pot" data-name=" 015---Cream-Pot" xmlns="http://www.w3.org/2000/svg" viewBox="0 0 30 30"><defs><style>.cls-1{fill:#fcbd3e;}</style></defs><g id="Group_2733" data-name="Group 2733"><path id="Path_7287" data-name="Path 7287" class="cls-1" d="M23.74,6.27a6.94,6.94,0,0,0-11.51,7L4.42,21.12a.63.63,0,0,0-.18.45v3.57a.63.63,0,0,0,.63.63H8.44a.63.63,0,0,0,.44-.19l.89-.89a.6.6,0,0,0,.18-.52l-.11-1,1.33-.12a.64.64,0,0,0,.57-.57l.12-1.33,1,.11a.58.58,0,0,0,.49-.15.62.62,0,0,0,.22-.47V19.5h1.15a.63.63,0,0,0,.44-.18l1.62-1.6a6.84,6.84,0,0,0,7-1.64A7,7,0,0,0,23.74,6.27ZM22,10.73a1.89,1.89,0,1,1,0-2.68h0A1.9,1.9,0,0,1,22,10.73Z"/></g></svg>