<svg id="_015---Cream-Pot" data-name=" 015---Cream-Pot" xmlns="http://www.w3.org/2000/svg" viewBox="0 0 30 30"><defs><style>.cls-1{fill:#f0f7ff;}.cls-2{fill:#dfe7f4;}.cls-3{fill:#c0ccdd;}.cls-4{fill:#bde239;}.cls-5{fill:#4793ff;}.cls-6{fill:#fabe2c;}.cls-7{fill:#df5ccb;}.cls-8{fill:#8bbc43;}</style></defs><g id="Group_2549" data-name="Group 2549"><g id="Group_2547" data-name="Group 2547"><path id="Path_7120" data-name="Path 7120" class="cls-1" d="M20.37,5.38V20.19l-5,5h-10a.6.6,0,0,1-.6-.6V5.38a.6.6,0,0,1,.6-.6H19.77a.59.59,0,0,1,.6.59Z"/></g><path id="Path_7121" data-name="Path 7121" class="cls-2" d="M20.37,5.38V20.19l-5,5H12.61V4.78h7.16a.6.6,0,0,1,.6.6Z"/><g id="Group_2548" data-name="Group 2548"><path id="Path_7122" data-name="Path 7122" class="cls-3" d="M15.34,25.22V20.79a.6.6,0,0,1,.6-.6h4.43v.6a.61.61,0,0,1-.19.44l-3.82,3.82a.59.59,0,0,1-.42.17Z"/></g></g><g id="Group_2551" data-name="Group 2551"><g id="Group_2550" data-name="Group 2550"><path id="Path_7123" data-name="Path 7123" class="cls-4" d="M24.9,13.19a8.82,8.82,0,0,1-4.23,5.73.61.61,0,0,1-.3.08h0a.67.67,0,0,1-.3-.08,8.82,8.82,0,0,1-4.23-5.73,10.61,10.61,0,0,1-.28-3.46.6.6,0,0,1,.54-.52,8.18,8.18,0,0,0,2.12-.55,6.28,6.28,0,0,0,1.7-1.28.59.59,0,0,1,.45-.2h0a.59.59,0,0,1,.45.2,6.44,6.44,0,0,0,1.7,1.28,8.25,8.25,0,0,0,2.13.55.59.59,0,0,1,.53.52,10.61,10.61,0,0,1-.28,3.46Z"/></g></g><g id="Group_2552" data-name="Group 2552"><path id="Path_7124" data-name="Path 7124" class="cls-5" d="M10.78,7.77v2.4a.6.6,0,0,1-.6.6H7.78a.6.6,0,0,1-.6-.6V7.77a.6.6,0,0,1,.6-.6h2.4A.6.6,0,0,1,10.78,7.77Z"/></g><g id="Group_2553" data-name="Group 2553"><path id="Path_7125" data-name="Path 7125" class="cls-6" d="M10.78,12.56V15a.6.6,0,0,1-.6.6H7.78a.6.6,0,0,1-.6-.6h0v-2.4a.59.59,0,0,1,.6-.59h2.4a.59.59,0,0,1,.6.59Z"/></g><g id="Group_2554" data-name="Group 2554"><path id="Path_7126" data-name="Path 7126" class="cls-7" d="M10.78,17.35v2.4a.6.6,0,0,1-.6.6H7.78a.6.6,0,0,1-.6-.6h0v-2.4a.59.59,0,0,1,.6-.59h2.4a.59.59,0,0,1,.6.59Z"/></g><path id="Path_7127" data-name="Path 7127" class="cls-8" d="M24.9,13.19a8.82,8.82,0,0,1-4.23,5.73.61.61,0,0,1-.3.08V7.17h0a.59.59,0,0,1,.45.21,6.1,6.1,0,0,0,1.71,1.27,7.36,7.36,0,0,0,2.12.55.6.6,0,0,1,.53.53A10.61,10.61,0,0,1,24.9,13.19Z"/><g id="Group_2555" data-name="Group 2555"><path id="Path_7128" data-name="Path 7128" class="cls-1" d="M23.11,12.18l-2.25,2.6a.6.6,0,0,1-.85.06l0,0-1.47-1.47a.59.59,0,0,1,0-.85.6.6,0,0,1,.85,0l1,1,1.83-2.12a.6.6,0,0,1,.85-.06A.61.61,0,0,1,23.11,12.18Z"/></g><path id="Path_7129" data-name="Path 7129" class="cls-2" d="M23.11,12.18l-2.25,2.6a.6.6,0,0,1-.49.21V13.51l1.83-2.12a.6.6,0,0,1,.91.79Z"/></svg>