<svg id="_015---Cream-Pot" data-name=" 015---Cream-Pot" xmlns="http://www.w3.org/2000/svg" viewBox="0 0 30 30"><defs><style>.cls-1{stroke:#000;stroke-width:0.25px;}</style></defs><g id="box"><path id="Path_6470" data-name="Path 6470" class="cls-1" d="M24.56,9.2,15.14,4.65a.32.32,0,0,0-.27,0L5.44,9.2a.31.31,0,0,0-.17.27V20.53a.31.31,0,0,0,.17.27l9.43,4.55a.3.3,0,0,0,.26,0l9.43-4.55a.31.31,0,0,0,.17-.27V9.47A.29.29,0,0,0,24.56,9.2ZM15,5.26l8.73,4.21L21.2,10.7l-.05,0L12.48,6.48ZM11.79,6.82,20.51,11l-1.79.86L10,7.69ZM19,12.41l1.67-.8V14.8L19,15.6ZM15.3,24.59V14.22l3.19-1.52a.31.31,0,0,0,.14-.41.31.31,0,0,0-.41-.14L15,13.69l-.84-.41a.3.3,0,1,0-.26.55l.8.39V24.59L5.88,20.33V10l8.06,3.87a.31.31,0,0,0,.27-.55L6.28,9.47,9.3,8l9.13,4.41h0v3.65a.3.3,0,0,0,.3.31.35.35,0,0,0,.14,0l2.27-1.1a.31.31,0,0,0,.18-.28V11.31L24.12,10V20.33Z"/></g></svg>