<svg id="_015---Cream-Pot" data-name=" 015---Cream-Pot" xmlns="http://www.w3.org/2000/svg" viewBox="0 0 30 30"><defs><style>.cls-1{fill:#3cbe55;stroke:#3cbe55;stroke-width:0.1px;}</style></defs><path id="shopping-bag" class="cls-1" d="M24.48,23.62,23.11,11.36a.55.55,0,0,0-.55-.49H19.13v-1a4.13,4.13,0,1,0-8.26,0v1H7.44a.55.55,0,0,0-.55.49L5.52,23.62a.57.57,0,0,0,.49.62H23.93a.55.55,0,0,0,.55-.55ZM12,9.89a3,3,0,0,1,6,0v1H12ZM6.7,23.13,7.94,12h2.93v1.21a1.68,1.68,0,1,0,1.11,0V12h6v1.21a1.68,1.68,0,1,0,1.11,0V12h2.93l1.25,11.15Zm4.73-8.93a.56.56,0,1,1-.56.56h0A.56.56,0,0,1,11.43,14.2Zm7.15,0a.56.56,0,1,1-.56.56h0A.56.56,0,0,1,18.58,14.2Z"/></svg>