<svg id="_015---Cream-Pot" data-name=" 015---Cream-Pot" xmlns="http://www.w3.org/2000/svg" viewBox="0 0 30 30"><g id="shop"><g id="Group_1633" data-name="Group 1633"><path id="Path_6268" data-name="Path 6268" d="M19.67,15.87h-3a1.5,1.5,0,0,0-1.5,1.5v2.31a1.5,1.5,0,0,0,1.5,1.5h3a1.5,1.5,0,0,0,1.5-1.5V17.37a1.5,1.5,0,0,0-1.5-1.5Zm.41,3.81a.42.42,0,0,1-.41.41h-3a.43.43,0,0,1-.41-.41V17.36a.41.41,0,0,1,.41-.4h3a.41.41,0,0,1,.41.4Z"/><path id="Path_6269" data-name="Path 6269" d="M26.1,11.66a.5.5,0,0,0-.07-.27l-3.3-5.81a.55.55,0,0,0-.48-.27H7.74a.55.55,0,0,0-.47.27L4,11.39a.5.5,0,0,0-.07.27,3.18,3.18,0,0,0,1.91,2.91v9.58a.54.54,0,0,0,.54.54h17.3a.54.54,0,0,0,.54-.54V14.64a.06.06,0,0,0,0-.06A3.2,3.2,0,0,0,26.1,11.66ZM8.06,6.4H21.94l2.58,4.54h-19ZM19.7,12a2.09,2.09,0,0,1-4.12,0Zm-5.28,0a2.1,2.1,0,0,1-4.12,0ZM5,12H9.15A2.1,2.1,0,0,1,5,12Zm8,11.58H9.92V17.73a.78.78,0,0,1,.77-.78h1.58a.78.78,0,0,1,.78.78h0v5.88Zm10.05,0h-9V17.73a1.86,1.86,0,0,0-1.86-1.86H10.69a1.87,1.87,0,0,0-1.87,1.86v5.88H6.89V14.84h.19a3.17,3.17,0,0,0,2.64-1.4,3.19,3.19,0,0,0,4.42.86,3.24,3.24,0,0,0,.87-.86,3.18,3.18,0,0,0,4.4.87,3.27,3.27,0,0,0,.87-.87,3.17,3.17,0,0,0,2.64,1.4h.18v8.77Zm-.18-9.85A2.1,2.1,0,0,1,20.86,12H25a2.1,2.1,0,0,1-2.06,1.73Z"/></g></g></svg>