<svg id="_015---Cream-Pot" data-name=" 015---Cream-Pot" xmlns="http://www.w3.org/2000/svg" viewBox="0 0 30 30"><defs><style>.cls-1{fill:#707070;}</style></defs><g id="phone"><g id="Group_2218" data-name="Group 2218"><path id="Path_6780" data-name="Path 6780" class="cls-1" d="M20.32,6.26h0a1.77,1.77,0,0,0-1.25-.52H10.92A1.77,1.77,0,0,0,9.17,7.5v15a1.77,1.77,0,0,0,1.75,1.76h8.16a1.77,1.77,0,0,0,1.75-1.76V7.5A1.76,1.76,0,0,0,20.32,6.26ZM15,23.06h0a.47.47,0,0,1-.47-.47.47.47,0,1,1,.94,0h0a.47.47,0,0,1-.47.47Zm4.44-3a1.15,1.15,0,0,1-1.15,1.15H11.71a1.14,1.14,0,0,1-1.15-1.14h0V8.91a1.14,1.14,0,0,1,1.15-1.15h6.58a1.14,1.14,0,0,1,1.15,1.15h0Z"/></g></g></svg>