<svg id="_015---Cream-Pot" data-name=" 015---Cream-Pot" xmlns="http://www.w3.org/2000/svg" viewBox="0 0 30 30"><defs><style>.cls-1{fill:#2baf9d;}.cls-2,.cls-5{fill:#e3f5f3;}.cls-3{fill:none;stroke:#e3f5f3;}.cls-4,.cls-5{isolation:isolate;}.cls-5{font-size:7.98px;font-family:Roboto-Regular, Roboto;}</style></defs><g id="Group_2168" data-name="Group 2168"><g id="gift"><g id="Group_1964" data-name="Group 1964"><path id="Path_6474" data-name="Path 6474" class="cls-1" d="M15.81,11.82H22.1V23.73H5.55V11.82h6.29"/><path id="Path_6475" data-name="Path 6475" class="cls-1" d="M15.81,11.82h7.28v-4H4.56v4h7.28"/><g id="Group_1963" data-name="Group 1963"><path id="Path_6476" data-name="Path 6476" class="cls-1" d="M11.84,7.85h4V23.73h-4Z"/><path id="Path_6477" data-name="Path 6477" class="cls-1" d="M11.84,3.87a2,2,0,0,1,2,2v2h-2a2,2,0,0,1,0-4Z"/><path id="Path_6478" data-name="Path 6478" class="cls-1" d="M15.81,7.85h-2v-2a2,2,0,1,1,2,2Z"/></g></g><path id="Path_6479" data-name="Path 6479" class="cls-2" d="M23.1,7.51H17.43a2.31,2.31,0,1,0-3.24-3.3,2.28,2.28,0,0,0-.36.46,2.32,2.32,0,1,0-4,2.4,2.51,2.51,0,0,0,.35.44H4.56a.34.34,0,0,0-.33.34h0v4a.33.33,0,0,0,.33.33h.66V23.73a.33.33,0,0,0,.33.33H22.1a.32.32,0,0,0,.33-.33h0V12.15h.67a.33.33,0,0,0,.33-.33h0v-4a.34.34,0,0,0-.33-.34ZM11.51,23.4H5.88V12.15h5.63Zm0-11.91H4.89V8.18h6.62ZM10.19,5.86a1.66,1.66,0,0,1,3.31,0V7.51H11.84A1.65,1.65,0,0,1,10.19,5.86ZM15.48,23.4H12.17V8.18h3.31ZM14.16,7.51V5.86a1.66,1.66,0,1,1,1.65,1.65ZM21.77,23.4H16.14V12.15h5.63Zm1-11.91H16.14V8.18h6.62Z"/></g><g id="Ellipse_69" data-name="Ellipse 69"><circle class="cls-1" cx="21.38" cy="21.5" r="4.39"/><circle class="cls-3" cx="21.38" cy="21.5" r="3.99"/></g><g id="_" data-name=" " class="cls-4"><text class="cls-5" transform="translate(19.39 24.29)">+</text></g></g></svg>