<svg id="_015---Cream-Pot" data-name=" 015---Cream-Pot" xmlns="http://www.w3.org/2000/svg" viewBox="0 0 30 30"><defs><style>.cls-1{fill:#d93174;}</style></defs><g id="instagram"><path id="Path_6952" data-name="Path 6952" class="cls-1" d="M17.63,15A2.63,2.63,0,1,1,15,12.37,2.63,2.63,0,0,1,17.63,15Z"/><path id="Path_6953" data-name="Path 6953" class="cls-1" d="M21.15,10.34a2.64,2.64,0,0,0-1.5-1.5,4.6,4.6,0,0,0-1.47-.27c-.83,0-1.08,0-3.18,0s-2.36,0-3.19,0a4.6,4.6,0,0,0-1.47.27,2.64,2.64,0,0,0-1.5,1.5,4.6,4.6,0,0,0-.27,1.47c0,.83,0,1.08,0,3.19s0,2.35,0,3.19a4.54,4.54,0,0,0,.27,1.46,2.64,2.64,0,0,0,1.5,1.5,4.35,4.35,0,0,0,1.47.27c.83,0,1.08,0,3.19,0s2.35,0,3.18,0a4.35,4.35,0,0,0,1.47-.27,2.64,2.64,0,0,0,1.5-1.5,4.54,4.54,0,0,0,.27-1.46c0-.84,0-1.09,0-3.19s0-2.36,0-3.19A4.6,4.6,0,0,0,21.15,10.34ZM15,19a4.05,4.05,0,1,1,4.05-4h0A4,4,0,0,1,15,19.05Zm4.21-7.31a.95.95,0,1,1,.95-1,1,1,0,0,1-.95,1Z"/><path id="Path_6954" data-name="Path 6954" class="cls-1" d="M15,1.26A13.74,13.74,0,1,0,28.74,15h0A13.74,13.74,0,0,0,15,1.26Zm7.84,17a6,6,0,0,1-.36,1.92,4,4,0,0,1-2.31,2.3,5.74,5.74,0,0,1-1.92.37c-.84,0-1.11.05-3.25.05s-2.41,0-3.25-.05a5.74,5.74,0,0,1-1.92-.37,4,4,0,0,1-2.31-2.3,6,6,0,0,1-.36-1.92c0-.84,0-1.11,0-3.25s0-2.41,0-3.25a5.69,5.69,0,0,1,.37-1.92,4,4,0,0,1,2.3-2.31,6,6,0,0,1,1.92-.36c.84,0,1.11,0,3.25,0s2.41,0,3.25,0a5.69,5.69,0,0,1,1.92.37,4,4,0,0,1,2.31,2.3,5.73,5.73,0,0,1,.36,1.92c0,.84.05,1.11.05,3.25S22.88,17.41,22.84,18.25Z"/></g></svg>