<svg id="_015---Cream-Pot" data-name=" 015---Cream-Pot" xmlns="http://www.w3.org/2000/svg" viewBox="0 0 30 30"><defs><style>.cls-1{stroke:#000;stroke-width:0.25px;}</style></defs><g id="chat"><g id="Group_1613" data-name="Group 1613"><path id="Path_6247" data-name="Path 6247" class="cls-1" d="M23.26,9.05H20.62V7.72a2,2,0,0,0-2-2H6.73a2,2,0,0,0-2,2v8.6a2,2,0,0,0,2,2v2.31a.33.33,0,0,0,.34.33.33.33,0,0,0,.23-.09l2.08-2.08v.85a2,2,0,0,0,2,2h8.79l2.55,2.55a.33.33,0,0,0,.47,0,.32.32,0,0,0,.09-.23V21.61a2,2,0,0,0,2-2V11A2,2,0,0,0,23.26,9.05ZM9.71,17.64a.37.37,0,0,0-.24.1L7.39,19.82V18a.32.32,0,0,0-.33-.33H6.73a1.32,1.32,0,0,1-1.32-1.32V7.72A1.32,1.32,0,0,1,6.73,6.4h11.9A1.32,1.32,0,0,1,20,7.72v8.6a1.32,1.32,0,0,1-1.31,1.32Zm14.88,2A1.34,1.34,0,0,1,23.26,21h-.33a.33.33,0,0,0-.33.33h0v1.84L20.52,21a.33.33,0,0,0-.23-.1H11.36A1.32,1.32,0,0,1,10,19.62V18.3h8.6a2,2,0,0,0,2-2V9.71h2.65A1.32,1.32,0,0,1,24.59,11Z"/><g id="Group_1614" data-name="Group 1614"><path id="Path_6248" data-name="Path 6248" class="cls-1" d="M12.69,12.68a1,1,0,1,0-1-1,1,1,0,0,0,1,1Zm0-1.32a.33.33,0,0,1,.33.33.34.34,0,0,1-.67,0h0a.33.33,0,0,1,.33-.33Z"/><path id="Path_6249" data-name="Path 6249" class="cls-1" d="M9.38,12.68a1,1,0,1,0-1-1,1,1,0,0,0,1,1Zm0-1.32a.33.33,0,0,1,.33.33.33.33,0,0,1-.66,0h0a.33.33,0,0,1,.33-.33Z"/><path id="Path_6250" data-name="Path 6250" class="cls-1" d="M16,12.68a1,1,0,1,0-1-1,1,1,0,0,0,1,1Zm0-1.32a.33.33,0,0,1,.33.33.33.33,0,0,1-.66,0h0a.33.33,0,0,1,.33-.33Z"/></g></g></g></svg>