<svg id="_015---Cream-Pot" data-name=" 015---Cream-Pot" xmlns="http://www.w3.org/2000/svg" viewBox="0 0 30 30"><defs><style>.cls-1{fill:#9fa6b0;}.cls-2{fill:#fff;}</style></defs><g id="Group_2478" data-name="Group 2478"><g id="connection"><path id="Path_7096" data-name="Path 7096" class="cls-1" d="M18.55,16.77a6,6,0,0,0-3.14-1.63,4.43,4.43,0,1,0-2.8,0,5.63,5.63,0,0,0-4.72,6,1,1,0,0,0,1,1H19.1a1,1,0,0,0,1-1A5.9,5.9,0,0,0,18.55,16.77Z"/></g><g id="Group_2476" data-name="Group 2476"><g id="Path_7097" data-name="Path 7097"><path class="cls-1" d="M18.63,23.22A3.25,3.25,0,1,1,21.88,20,3.24,3.24,0,0,1,18.63,23.22Z"/><path class="cls-2" d="M18.63,17a3,3,0,1,0,3,3,3,3,0,0,0-3-3m0-.5a3.5,3.5,0,1,1-3.5,3.5A3.5,3.5,0,0,1,18.63,16.47Z"/></g><g id="check"><g id="Group_2473" data-name="Group 2473"><path id="Path_7090" data-name="Path 7090" class="cls-2" d="M18.35,20.77a.33.33,0,0,1-.48,0h0L17.12,20a.34.34,0,0,1,.48-.48l.45.45a.09.09,0,0,0,.12,0l1.21-1.21a.34.34,0,0,1,.49,0,.34.34,0,0,1,0,.48Z"/></g></g></g></g></svg>