<svg id="_015---Cream-Pot" data-name=" 015---Cream-Pot" xmlns="http://www.w3.org/2000/svg" viewBox="0 0 30 30"><defs><style>.cls-1{fill:#c3ea21;}.cls-2{fill:#8adb53;}.cls-3{fill:#ba7400;}.cls-4{fill:#4fc16e;}.cls-5{fill:#369151;}.cls-6{fill:#804d00;}</style></defs><g id="forest"><path id="Path_7122" data-name="Path 7122" class="cls-1" d="M20.79,12.94a3.75,3.75,0,0,0-7.47,0,3.74,3.74,0,0,0,2.52,7,3.68,3.68,0,0,0,1.21-.71A3.75,3.75,0,1,0,22,13.65,3.89,3.89,0,0,0,20.79,12.94Z"/><path id="Path_7123" data-name="Path 7123" class="cls-2" d="M20.79,12.94a3.75,3.75,0,0,0-3.74-3.46v9.8A3.75,3.75,0,1,0,22,13.65a3.89,3.89,0,0,0-1.21-.71Z"/><path id="Path_7124" data-name="Path 7124" class="cls-3" d="M19.32,15.28l-.46-.87-1.31.68V13.65h-1v3.24l-1.31-.69-.46.88,1.77.93v5.43h1V16.21Z"/><path id="Path_7125" data-name="Path 7125" class="cls-4" d="M10.45,18.85h0a3.73,3.73,0,0,1-3.72-3.73,3.4,3.4,0,0,1,0-.45l.66-5.42a3.06,3.06,0,0,1,3-2.69h0a3.06,3.06,0,0,1,3,2.69l.66,5.42a3.72,3.72,0,0,1-3.24,4.15A3.44,3.44,0,0,1,10.45,18.85Z"/><path id="Path_7126" data-name="Path 7126" class="cls-5" d="M10.46,18.85h0V6.56h0a3.06,3.06,0,0,1,3,2.69l.66,5.42a3.72,3.72,0,0,1-3.24,4.15A3.4,3.4,0,0,1,10.46,18.85Z"/><path id="Path_7127" data-name="Path 7127" class="cls-6" d="M12.26,14.62,11,15.31V12.8l1.77-.93L12.26,11,11,11.68V10.24H10V13.5l-1.31-.69-.46.87,1.77.93v8.83h1v-7l1.76-.93Z"/></g></svg>