<svg id="_015---Cream-Pot" data-name=" 015---Cream-Pot" xmlns="http://www.w3.org/2000/svg" viewBox="0 0 30 30"><defs><style>.cls-1{fill:#f8ec7d;}.cls-2{fill:#6fe3ff;}.cls-3{fill:#c16752;}.cls-4{fill:#af593c;}.cls-5{fill:#e48e66;}.cls-6{fill:#2561a1;}</style></defs><g id="_Group_2" data-name=" Group 2"><path id="Path_7167" data-name="Path 7167" class="cls-1" d="M25,14.92v8.45a1,1,0,0,1-1,1H18.34a1,1,0,0,1-1-1V14.92a1,1,0,0,1,1-1h1.3a.72.72,0,0,0,.72.72H22a.72.72,0,0,0,.72-.72h1.3a1,1,0,0,1,1,1Zm-5,5.35V18.89H18.67v1.38Z"/><path id="Path_7168" data-name="Path 7168" class="cls-2" d="M19.64,14v0a.72.72,0,0,1,.72-.72H22a.72.72,0,0,1,.72.72h0v0a.72.72,0,0,1-.72.72H20.36a.72.72,0,0,1-.72-.72Z"/><path id="Path_7169" data-name="Path 7169" class="cls-3" d="M20.65,10.2v3h-.29a.72.72,0,0,0-.72.72h0v0h-1.3a1,1,0,0,0-1,1h0v6.22l-4.56,2.63v-9l7.84-4.53Z"/><path id="Path_7170" data-name="Path 7170" class="cls-4" d="M12.81,14.72l-4-2.31,7.83-4.52h0l4,2.31Z"/><rect id="Rectangle_394" data-name="Rectangle 394" class="cls-2" x="18.67" y="18.89" width="1.38" height="1.38"/><path id="Path_7171" data-name="Path 7171" class="cls-3" d="M16.65,7.89,8.82,12.41,5,10.19l7.83-4.52Z"/><path id="Path_7172" data-name="Path 7172" class="cls-5" d="M12.81,14.72v9L5,19.25v-9H5l3.84,2.21Z"/><path id="Path_7173" data-name="Path 7173" class="cls-2" d="M19,17.88h-.31a.29.29,0,0,1-.29-.29V16.21a.29.29,0,0,1,.29-.29h1.38a.29.29,0,0,1,.29.29v.2a.29.29,0,0,1-.29.29.32.32,0,0,1-.28-.19H19v.79h0a.29.29,0,0,1,0,.58Z"/><path id="Path_7174" data-name="Path 7174" class="cls-2" d="M19,23.24h-.31a.29.29,0,0,1-.29-.29V21.57a.29.29,0,0,1,.29-.29h1.38a.29.29,0,0,1,.29.29v.28a.29.29,0,0,1-.3.29.3.3,0,0,1-.28-.28H19v.79h0a.3.3,0,0,1,.28.31.29.29,0,0,1-.28.28Z"/><path id="Path_7175" data-name="Path 7175" class="cls-6" d="M19.87,17.84a.29.29,0,0,1-.21-.09l-.47-.46a.3.3,0,0,1,0-.42.29.29,0,0,1,.41,0h0l.26.26.85-.85a.29.29,0,1,1,.42.41h0l-1.07,1.06A.25.25,0,0,1,19.87,17.84Z"/><path id="Path_7176" data-name="Path 7176" class="cls-6" d="M19.87,23.24a.29.29,0,0,1-.21-.09l-.47-.46a.3.3,0,0,1,0-.42.29.29,0,0,1,.41,0h0l.26.26.85-.85a.29.29,0,1,1,.42.41h0l-1.07,1.06A.25.25,0,0,1,19.87,23.24Z"/><path id="Path_7177" data-name="Path 7177" class="cls-5" d="M23.72,17.19H21.89a.29.29,0,0,1,0-.58h1.83a.29.29,0,1,1,0,.58Z"/><path id="Path_7178" data-name="Path 7178" class="cls-5" d="M23.72,19.87H21.89a.3.3,0,0,1-.31-.28.29.29,0,0,1,.29-.3h1.85a.29.29,0,1,1,0,.58Z"/><path id="Path_7179" data-name="Path 7179" class="cls-5" d="M23.72,22.55H21.89a.3.3,0,0,1-.31-.28.29.29,0,0,1,.29-.3h1.85a.29.29,0,0,1,.31.28.3.3,0,0,1-.28.3Z"/></g></svg>