<svg id="_015---Cream-Pot" data-name=" 015---Cream-Pot" xmlns="http://www.w3.org/2000/svg" xmlns:xlink="http://www.w3.org/1999/xlink" viewBox="0 0 30 30"><defs><style>.cls-1{fill:url(#linear-gradient);}.cls-2{fill:url(#linear-gradient-2);}.cls-3{fill:url(#linear-gradient-3);}.cls-4{fill:url(#linear-gradient-4);}.cls-5{fill:#fff;}.cls-6{fill:url(#linear-gradient-5);}.cls-7{fill:url(#linear-gradient-6);}</style><linearGradient id="linear-gradient" x1="-476.4" y1="431.24" x2="-476.3" y2="431.34" gradientTransform="matrix(83.34, 0, 0, -83.34, 39721.12, 35958.48)" gradientUnits="userSpaceOnUse"><stop offset="0" stop-color="#a7f3ce"/><stop offset="1" stop-color="#61db99"/></linearGradient><linearGradient id="linear-gradient-2" x1="-476.37" y1="431.28" x2="-476.41" y2="431.24" gradientTransform="matrix(83.34, 0, 0, -83.34, 39721.12, 35958.48)" gradientUnits="userSpaceOnUse"><stop offset="0" stop-color="#61db99" stop-opacity="0"/><stop offset="1" stop-color="#009e74"/></linearGradient><linearGradient id="linear-gradient-3" x1="-477.05" y1="431.7" x2="-476.97" y2="431.78" gradientTransform="matrix(101.52, 0, 0, -101.54, 48441.26, 43849.54)" gradientUnits="userSpaceOnUse"><stop offset="0" stop-color="#62e1fb"/><stop offset="1" stop-color="#00a2f3"/></linearGradient><linearGradient id="linear-gradient-4" x1="-467.54" y1="424.55" x2="-467.67" y2="424.42" gradientTransform="matrix(33.11, 0, 0, -33.11, 15491.98, 14070.07)" gradientUnits="userSpaceOnUse"><stop offset="0" stop-color="#00a2f3" stop-opacity="0"/><stop offset="1" stop-color="#0075cd"/></linearGradient><linearGradient id="linear-gradient-5" x1="-468.12" y1="424.55" x2="-468.25" y2="424.42" gradientTransform="matrix(33.11, 0, 0, -33.11, 15514.17, 14070.01)" xlink:href="#linear-gradient-4"/><linearGradient id="linear-gradient-6" x1="-468.71" y1="424.55" x2="-468.84" y2="424.42" gradientTransform="matrix(33.11, 0, 0, -33.11, 15536.39, 14070.01)" xlink:href="#linear-gradient-4"/></defs><g id="chat"><path id="Path_7156" data-name="Path 7156" class="cls-1" d="M17.68,12.09a5.36,5.36,0,0,1,5.44,5.28A5.65,5.65,0,0,1,23,18.6a9.87,9.87,0,0,0-.24,2.1v1.36a.38.38,0,0,1-.38.38H21a9.18,9.18,0,0,0-2.09.24A5.36,5.36,0,0,1,16.6,12.21a4.83,4.83,0,0,1,1.08-.12Z"/><path id="Path_7157" data-name="Path 7157" class="cls-2" d="M17.68,12.09a5.36,5.36,0,0,1,5.44,5.28A5.65,5.65,0,0,1,23,18.6a9.87,9.87,0,0,0-.24,2.1v1.36a.38.38,0,0,1-.38.38H21a9.18,9.18,0,0,0-2.09.24A5.36,5.36,0,0,1,16.6,12.21a4.83,4.83,0,0,1,1.08-.12Z"/><path id="Path_7158" data-name="Path 7158" class="cls-3" d="M13.51,7.2a6.53,6.53,0,0,0-6.63,6.43A7,7,0,0,0,7,15.14a12.06,12.06,0,0,1,.29,2.54v1.66a.46.46,0,0,0,.46.46H9.45a12.17,12.17,0,0,1,2.55.3A6.53,6.53,0,0,0,14.82,7.35,5.79,5.79,0,0,0,13.51,7.2Z"/><path id="Path_7159" data-name="Path 7159" class="cls-4" d="M11.07,13.37a1,1,0,0,0-1.48,1.37l.06.06L11.83,17a1,1,0,1,0,1.48-1.37l-.05-.06Z"/><circle id="Ellipse_142" data-name="Ellipse 142" class="cls-5" cx="10.34" cy="14.07" r="1.01"/><path id="Path_7160" data-name="Path 7160" class="cls-6" d="M13.93,13.37a1,1,0,0,0-1.48,1.37l.06.06L14.69,17a1,1,0,1,0,1.48-1.37l-.05-.06Z"/><circle id="Ellipse_143" data-name="Ellipse 143" class="cls-5" cx="13.2" cy="14.07" r="1.01"/><path id="Path_7161" data-name="Path 7161" class="cls-7" d="M16.79,13.37a1,1,0,0,0-1.48,1.37l.06.06L17.55,17A1,1,0,1,0,19,15.61L19,15.55Z"/><circle id="Ellipse_144" data-name="Ellipse 144" class="cls-5" cx="16.06" cy="14.07" r="1.01"/></g></svg>