<svg id="_015---Cream-Pot" data-name=" 015---Cream-Pot" xmlns="http://www.w3.org/2000/svg" viewBox="0 0 30 30"><defs><style>.cls-1{fill:#ffd782;}.cls-2{fill:#ffaf5f;}.cls-3{fill:#b4e1fa;}.cls-4{fill:#a0d2f0;}.cls-5{fill:#daf0fd;}.cls-6{fill:#d2555a;}.cls-7{fill:#c7cfe2;}.cls-8{fill:#ff6464;}.cls-9{fill:#eff2fa;}.cls-10{fill:#8f96ac;}.cls-11{fill:#afb9d2;}</style></defs><g id="shops"><path id="Path_6916" data-name="Path 6916" class="cls-1" d="M22.74,22.74H7.26V8.55a.15.15,0,0,1,.15-.14H22.59a.15.15,0,0,1,.15.14h0Z"/><g id="Group_2336" data-name="Group 2336"><rect id="Rectangle_305" data-name="Rectangle 305" class="cls-2" x="7.26" y="20.16" width="15.47" height="2.29"/><path id="Path_6917" data-name="Path 6917" class="cls-2" d="M22.74,13.54a.75.75,0,0,1-.92-.53,1.23,1.23,0,0,1,0-.2.76.76,0,1,1-1.51,0,.76.76,0,1,1-1.51,0,.76.76,0,0,1-.76.76.75.75,0,0,1-.75-.76.76.76,0,0,1-.76.76.75.75,0,0,1-.75-.76.76.76,0,1,1-1.52,0,.75.75,0,0,1-.75.76.76.76,0,0,1-.76-.76.75.75,0,0,1-.75.76.76.76,0,0,1-.76-.76.76.76,0,1,1-1.51,0,.76.76,0,1,1-1.51,0,.75.75,0,0,1-.74.76l-.2,0v.58l.19,0a1.26,1.26,0,0,0,.75-.24,1.31,1.31,0,0,0,1.51,0,1.31,1.31,0,0,0,1.51,0,1.31,1.31,0,0,0,1.51,0,1.31,1.31,0,0,0,1.51,0,1.32,1.32,0,0,0,1.52,0,1.31,1.31,0,0,0,1.51,0,1.31,1.31,0,0,0,1.51,0,1.31,1.31,0,0,0,1.51,0,1.31,1.31,0,0,0,1.51,0,1.21,1.21,0,0,0,.94.22Z"/></g><g id="Group_2337" data-name="Group 2337"><rect id="Rectangle_306" data-name="Rectangle 306" class="cls-3" x="8.7" y="15.29" width="8.02" height="5.73"/><rect id="Rectangle_307" data-name="Rectangle 307" class="cls-3" x="17.87" y="15.29" width="3.44" height="5.73"/></g><rect id="Rectangle_308" data-name="Rectangle 308" class="cls-4" x="17.87" y="15.29" width="3.44" height="0.86"/><path id="Path_6918" data-name="Path 6918" class="cls-5" d="M21.3,18l-2-2.67h-.58l2.58,3.43Z"/><path id="Path_6919" data-name="Path 6919" class="cls-4" d="M18.15,15.29h-.28v1.14L21.3,21V19.49Z"/><path id="Path_6920" data-name="Path 6920" class="cls-3" d="M19.94,16.15l-.64-.86h-.58l.65.86Z"/><path id="Path_6921" data-name="Path 6921" class="cls-5" d="M15.86,21h-.57L11,15.29h.57Z"/><g id="Group_2338" data-name="Group 2338"><path id="Path_6922" data-name="Path 6922" class="cls-4" d="M14.71,21H13.57l-4.3-5.73h1.15Z"/><rect id="Rectangle_309" data-name="Rectangle 309" class="cls-4" x="8.7" y="15.29" width="8.02" height="0.86"/></g><path id="Path_6923" data-name="Path 6923" class="cls-3" d="M12.21,16.15l-.65-.86H11l.64.86Z"/><g id="Group_2339" data-name="Group 2339"><path id="Path_6924" data-name="Path 6924" class="cls-6" d="M13.49,13.57h0a.76.76,0,0,1-.76-.76h0v-.68h1.51v.68a.75.75,0,0,1-.75.76Z"/><path id="Path_6925" data-name="Path 6925" class="cls-6" d="M16.51,13.57h0a.75.75,0,0,1-.75-.76h0v-.68h1.51v.68A.76.76,0,0,1,16.51,13.57Z"/><path id="Path_6926" data-name="Path 6926" class="cls-6" d="M10.47,13.57h0a.76.76,0,0,1-.76-.76h0v-.68h1.51v.68A.76.76,0,0,1,10.47,13.57Z"/><path id="Path_6927" data-name="Path 6927" class="cls-6" d="M7.45,13.57h0a.76.76,0,0,1-.76-.76h0v-.68H8.2v.68a.76.76,0,0,1-.75.76Z"/><path id="Path_6928" data-name="Path 6928" class="cls-6" d="M19.53,13.57h0a.76.76,0,0,1-.75-.76h0v-.68h1.51v.68a.76.76,0,0,1-.76.76Z"/></g><g id="Group_2340" data-name="Group 2340"><path id="Path_6929" data-name="Path 6929" class="cls-7" d="M12,13.57h0a.76.76,0,0,1-.76-.76h0v-.68h1.51v.68a.75.75,0,0,1-.75.76Z"/><path id="Path_6930" data-name="Path 6930" class="cls-7" d="M18,13.57h0a.75.75,0,0,1-.75-.76h0v-.68h1.51v.68a.76.76,0,0,1-.76.76Z"/></g><path id="Path_6931" data-name="Path 6931" class="cls-6" d="M22.55,13.57h0a.76.76,0,0,1-.75-.76h0v-.68h1.51v.68a.76.76,0,0,1-.76.76Z"/><g id="Group_2341" data-name="Group 2341"><path id="Path_6932" data-name="Path 6932" class="cls-7" d="M21,13.57h0a.76.76,0,0,1-.75-.76h0v-.68H21.8v.68A.76.76,0,0,1,21,13.57Z"/><path id="Path_6933" data-name="Path 6933" class="cls-7" d="M9,13.57H9a.76.76,0,0,1-.76-.76h0v-.68H9.71v.68a.76.76,0,0,1-.75.76Z"/><path id="Path_6934" data-name="Path 6934" class="cls-7" d="M15,13.57h0a.76.76,0,0,1-.76-.76h0v-.68h1.52v.68a.76.76,0,0,1-.76.76Z"/></g><g id="Group_2342" data-name="Group 2342"><path id="Path_6935" data-name="Path 6935" class="cls-8" d="M14.24,12.13H12.73l.16-2.29H14.3Z"/><path id="Path_6936" data-name="Path 6936" class="cls-8" d="M17.27,12.13H15.76L15.7,9.84h1.41Z"/><path id="Path_6937" data-name="Path 6937" class="cls-8" d="M11.22,12.13H9.71l.37-2.29h1.4Z"/><path id="Path_6938" data-name="Path 6938" class="cls-8" d="M8.2,12.13H6.69l.57-2.29H8.67Z"/><path id="Path_6939" data-name="Path 6939" class="cls-8" d="M20.29,12.13H18.78l-.26-2.29h1.4Z"/></g><g id="Group_2343" data-name="Group 2343"><path id="Path_6940" data-name="Path 6940" class="cls-9" d="M12.73,12.13H11.22l.26-2.29h1.41Z"/><path id="Path_6941" data-name="Path 6941" class="cls-9" d="M18.78,12.13H17.27l-.16-2.29h1.41Z"/></g><path id="Path_6942" data-name="Path 6942" class="cls-8" d="M23.31,12.13H21.8l-.47-2.29h1.41Z"/><g id="Group_2344" data-name="Group 2344"><path id="Path_6943" data-name="Path 6943" class="cls-9" d="M21.8,12.13H20.29l-.37-2.29h1.41Z"/><path id="Path_6944" data-name="Path 6944" class="cls-9" d="M9.71,12.13H8.2l.47-2.29h1.41Z"/><path id="Path_6945" data-name="Path 6945" class="cls-9" d="M15.76,12.13H14.24l.06-2.29h1.4Z"/></g><g id="Group_2345" data-name="Group 2345"><path id="Path_6946" data-name="Path 6946" class="cls-10" d="M16.43,15.57v5.16H9V15.57h7.45m.29-.57h-8a.29.29,0,0,0-.29.29h0V21a.28.28,0,0,0,.29.28h8A.28.28,0,0,0,17,21h0V15.29a.29.29,0,0,0-.29-.29Z"/><path id="Path_6947" data-name="Path 6947" class="cls-10" d="M21.3,15H17.87a.29.29,0,0,0-.29.29h0v7.16h4V15.29A.29.29,0,0,0,21.3,15ZM21,20.73H18.15V15.57H21Z"/></g><path id="Path_6948" data-name="Path 6948" class="cls-11" d="M19.58,9.84H10.42a.57.57,0,0,1-.58-.57V7.55A.57.57,0,0,1,10.42,7h9.16a.57.57,0,0,1,.58.57V9.27a.57.57,0,0,1-.58.57Z"/><path id="Path_6949" data-name="Path 6949" class="cls-1" d="M19.44,9.27H10.56a.14.14,0,0,1-.14-.14h0V7.69a.14.14,0,0,1,.14-.14h8.88a.14.14,0,0,1,.14.14h0V9.13a.14.14,0,0,1-.14.14Z"/><path id="Path_6950" data-name="Path 6950" class="cls-2" d="M10.56,9.27h8.88a.14.14,0,0,0,.14-.14h0V8.55a.15.15,0,0,1-.14.15H10.56a.15.15,0,0,1-.14-.15h0v.58A.14.14,0,0,0,10.56,9.27Z"/><path id="Path_6951" data-name="Path 6951" class="cls-10" d="M23.17,23H6.83a.14.14,0,0,1-.14-.14h0v-.29a.14.14,0,0,1,.14-.14H23.17a.14.14,0,0,1,.14.14h0v.29a.14.14,0,0,1-.14.14Z"/></g></svg>