<svg id="_015---Cream-Pot" data-name=" 015---Cream-Pot" xmlns="http://www.w3.org/2000/svg" viewBox="0 0 30 30"><defs><style>.cls-1{fill:#3cbe55;}</style></defs><g id="Group_56" data-name="Group 56"><g id="Group_37" data-name="Group 37"><g id="Group_36" data-name="Group 36"><path id="Path_26" data-name="Path 26" class="cls-1" d="M20,8.25a12.21,12.21,0,0,0-2-1.91,10.75,10.75,0,0,0-1.16-.73A8.16,8.16,0,0,0,15.44,5a7,7,0,0,0,.22,1.52,8.6,8.6,0,0,0,.43,1.33,13.93,13.93,0,0,0-1.46.5c-.37.16-.76.31-1.16.52a11.32,11.32,0,0,0-1.22.7,13.58,13.58,0,0,0-1.23.87,12.84,12.84,0,0,0-1.13,1.08,7,7,0,0,0-1,1.22,6.05,6.05,0,0,0-.4.63c-.12.22-.2.44-.31.67a6.37,6.37,0,0,0-.44,1.27,5.33,5.33,0,0,0-.22,1.18,6,6,0,0,0-.1.95v1.42a2.42,2.42,0,0,1,.13-.65l.14-.73A7.94,7.94,0,0,1,8,16.54a5.15,5.15,0,0,1,.44-1,5.68,5.68,0,0,1,.63-1L9.48,14c.13-.16.31-.3.45-.46a6.65,6.65,0,0,1,1-.83A9.42,9.42,0,0,1,12,12a12.54,12.54,0,0,1,1.16-.49,9,9,0,0,1,1.12-.33c.36-.11.71-.15,1-.22l.56-.08-.06.16a8.67,8.67,0,0,0-.42,1.57,8.08,8.08,0,0,0-.11.86,5,5,0,0,0,0,.95,7.89,7.89,0,0,0,.84-.39c.24-.15.49-.29.72-.46a8.85,8.85,0,0,0,1.26-1A11.69,11.69,0,0,0,20,10.1l.07-.11A1.56,1.56,0,0,0,20,8.25Z"/></g></g><g id="Group_55" data-name="Group 55"><g id="Group_54" data-name="Group 54"><path id="Path_35" data-name="Path 35" class="cls-1" d="M22.44,11.53a3.56,3.56,0,0,0-.05-.65,2.84,2.84,0,0,1-.1.65,4.63,4.63,0,0,1-.12.73,7.81,7.81,0,0,1-.25,1,5.4,5.4,0,0,1-.41,1,5.6,5.6,0,0,1-.61,1.06l-.37.52a4,4,0,0,1-.45.47,6,6,0,0,1-.95.86,10.46,10.46,0,0,1-1.08.7c-.4.18-.76.39-1.15.52a8.5,8.5,0,0,1-1.11.37c-.35.11-.7.17-1,.25l-.55.09a.19.19,0,0,1,0-.16,9.68,9.68,0,0,0,.38-1.59,8.4,8.4,0,0,1,.08-.85,7.53,7.53,0,0,0,0-1,7.77,7.77,0,0,0-.82.4l-.72.48A10.27,10.27,0,0,0,12,17.48,11.68,11.68,0,0,0,10.12,20l-.08.1a1.57,1.57,0,0,0,.17,1.8,11.87,11.87,0,0,0,2,1.8,9.55,9.55,0,0,0,1.23.74,7.37,7.37,0,0,0,1.44.55,7.68,7.68,0,0,0-.27-1.52,8.9,8.9,0,0,0-.47-1.31,15,15,0,0,0,1.45-.55c.35-.17.74-.32,1.14-.55a9.14,9.14,0,0,0,1.2-.73c.42-.3.83-.62,1.21-.95a12.68,12.68,0,0,0,1.09-1.11,8.22,8.22,0,0,0,1-1.24c.13-.22.27-.43.38-.65s.19-.46.28-.68a5.24,5.24,0,0,0,.41-1.29,4.69,4.69,0,0,0,.19-1.18,7.45,7.45,0,0,0,.07-1A3.2,3.2,0,0,1,22.44,11.53Z"/></g></g></g></svg>