<svg id="_015---Cream-Pot" data-name=" 015---Cream-Pot" xmlns="http://www.w3.org/2000/svg" viewBox="0 0 30 30"><defs><style>.cls-1{fill:#8d96aa;}</style></defs><g id="delete"><path id="Path_7093" data-name="Path 7093" class="cls-1" d="M17.9,12.1a.49.49,0,0,0-.49.5h0v9.3a.49.49,0,0,0,1,0V12.6A.49.49,0,0,0,17.9,12.1Z"/><path id="Path_7094" data-name="Path 7094" class="cls-1" d="M12.1,12.1a.49.49,0,0,0-.49.5h0v9.3a.49.49,0,1,0,1,0V12.6a.49.49,0,0,0-.49-.5Z"/><path id="Path_7095" data-name="Path 7095" class="cls-1" d="M7.87,10.75V22.87a2.71,2.71,0,0,0,.72,1.87,2.44,2.44,0,0,0,1.76.76h9.3a2.44,2.44,0,0,0,1.76-.76,2.71,2.71,0,0,0,.72-1.87V10.75a1.88,1.88,0,0,0-.48-3.69H19.13V6.44A1.92,1.92,0,0,0,17.21,4.5H12.82a1.93,1.93,0,0,0-2,1.92v.64H8.35a1.88,1.88,0,0,0-.48,3.69ZM19.65,24.52h-9.3a1.57,1.57,0,0,1-1.5-1.62V10.79h12.3V22.87a1.55,1.55,0,0,1-1.46,1.64ZM11.85,6.44a1,1,0,0,1,.94-1h4.39a1,1,0,0,1,1,.93v.65h-6.3ZM8.35,8h13.3a.89.89,0,1,1,0,1.77H8.35A.89.89,0,0,1,8.35,8Z"/><path id="Path_7096" data-name="Path 7096" class="cls-1" d="M15,12.1a.49.49,0,0,0-.49.5h0v9.3a.49.49,0,1,0,1,0V12.6A.49.49,0,0,0,15,12.1Z"/></g></svg>