<svg id="_015---Cream-Pot" data-name=" 015---Cream-Pot" xmlns="http://www.w3.org/2000/svg" viewBox="0 0 30 30"><defs><style>.cls-1{fill:#fdd79b;}.cls-2{fill:#fccd7f;}.cls-3{fill:#fef1da;}.cls-4{fill:#fde6bf;}.cls-5{fill:#ea4444;}.cls-6{fill:#d93131;}.cls-7{fill:#945b44;}.cls-8{fill:#ffc265;}.cls-9{fill:#ffb541;}.cls-10{fill:#fbc700;}</style></defs><path id="Path_6792" data-name="Path 6792" class="cls-1" d="M9,5.76v.52a.45.45,0,0,0,.45.45h.63a.4.4,0,0,1,.4.4h0v2h1.42v-3a.74.74,0,0,0-.73-.74H9.44A.46.46,0,0,0,9,5.75Z"/><path id="Path_6793" data-name="Path 6793" class="cls-2" d="M11.89,6.06v3h-.65v-3a.73.73,0,0,0-.73-.74h.65A.74.74,0,0,1,11.89,6.06Z"/><path id="Path_6794" data-name="Path 6794" class="cls-3" d="M15.1,8.84H7a.7.7,0,0,0-.63.39l-.8,1.47h11l-.79-1.47A.72.72,0,0,0,15.1,8.84Z"/><path id="Path_6795" data-name="Path 6795" class="cls-4" d="M16.52,10.7H5.57l.31-.57h9a.21.21,0,0,0,.21-.2.19.19,0,0,0,0-.1l-.53-1h.56a.76.76,0,0,1,.63.39Z"/><path id="Path_6796" data-name="Path 6796" class="cls-1" d="M13.86,24.69H8.13a.54.54,0,0,1-.45-.24l-.56-.91h7.75l-.56.91A.54.54,0,0,1,13.86,24.69Z"/><path id="Path_6797" data-name="Path 6797" class="cls-5" d="M16.49,12.43l-.13,2.5-.31,7.64A1.1,1.1,0,0,1,15,23.63H7a1.11,1.11,0,0,1-1.1-1.06L5.49,12.43Z"/><path id="Path_6798" data-name="Path 6798" class="cls-6" d="M16.49,12.43l-.09,2-.09.33-.26,7.8A1.09,1.09,0,0,1,15,23.62a1.6,1.6,0,0,0,0-.23l.43-9.9a.24.24,0,0,0-.23-.24H5.53l0-.82Z"/><path id="Path_6799" data-name="Path 6799" class="cls-3" d="M5.68,16.62a20,20,0,0,0,10.73-2.18l-.22,5a20.16,20.16,0,0,1-10.35,1Z"/><path id="Path_6800" data-name="Path 6800" class="cls-1" d="M16.79,12.64H5.31a.51.51,0,0,1-.51-.51V11a.51.51,0,0,1,.51-.51H16.79a.51.51,0,0,1,.51.51h0v1.15A.51.51,0,0,1,16.79,12.64Z"/><path id="Path_6801" data-name="Path 6801" class="cls-7" d="M24.24,22.21h-9.4a1,1,0,0,1-1-1h0v-1a1,1,0,0,1,1-1h9.4a1,1,0,0,1,1,1h0v1a1,1,0,0,1-1,1Z"/><path id="Path_6802" data-name="Path 6802" class="cls-7" d="M24.24,22.21h-9.4a1,1,0,0,1-1-1h0v-1a1,1,0,0,1,1-1h9.4a1,1,0,0,1,1,1h0v1a1,1,0,0,1-1,1Z"/><path id="Path_6803" data-name="Path 6803" class="cls-8" d="M23.56,24.69h-8a1.63,1.63,0,0,1-1.62-1.62v-.55a.53.53,0,0,1,.53-.53H24.65a.53.53,0,0,1,.53.53v.55A1.63,1.63,0,0,1,23.56,24.69Z"/><path id="Path_6804" data-name="Path 6804" class="cls-9" d="M25.18,22.52v.55a1.63,1.63,0,0,1-1.62,1.62h-8a1.6,1.6,0,0,1-1.49-1,1.59,1.59,0,0,0,.78.2h8.05a1.63,1.63,0,0,0,1.62-1.62V22h.18a.53.53,0,0,1,.53.53Z"/><path id="Path_6805" data-name="Path 6805" class="cls-10" d="M15.28,19.31l2.29,1.55a.87.87,0,0,0,1,0l2.05-1.53Z"/><path id="Path_6806" data-name="Path 6806" class="cls-8" d="M25,18a4.72,4.72,0,0,0-2.63-2.63,6.84,6.84,0,0,0-5.57,0A4.72,4.72,0,0,0,14.12,18a3.2,3.2,0,0,0-.19,1.11.42.42,0,0,0,.41.4H24.73a.41.41,0,0,0,.41-.4A3.2,3.2,0,0,0,25,18Z"/><path id="Path_6807" data-name="Path 6807" class="cls-9" d="M25.14,19.14a.41.41,0,0,1-.41.4H14.34a.41.41,0,0,1-.41-.4c0-.13,0-.26,0-.39l.12,0h9.57A.38.38,0,0,0,24,18.4a3,3,0,0,0-.18-1,4.07,4.07,0,0,0-1.77-2.07l.25.1A4.72,4.72,0,0,1,25,18,3.2,3.2,0,0,1,25.14,19.14Z"/></svg>