<svg id="_015---Cream-Pot" data-name=" 015---Cream-Pot" xmlns="http://www.w3.org/2000/svg" viewBox="0 0 30 30"><defs><style>.cls-1{fill:#fff;}</style></defs><g id="comment"><path id="Path_7244" data-name="Path 7244" d="M8.91,9.49l-.38,5,.38,3.16,1.62.28-.16,2.36L14.06,18l6.52-.28.69-.92V10.62l-.69-1.13-2.45-.31L10,9.49Z"/><path id="Path_3" data-name="Path 3" d="M19.88,8.8H10.12a1.86,1.86,0,0,0-1.85,1.86v6a1.84,1.84,0,0,0,1.84,1.84V21.2L14,18.48h5.87a1.84,1.84,0,0,0,1.85-1.84v-6A1.86,1.86,0,0,0,19.88,8.8Zm1.06,7.84a1.06,1.06,0,0,1-1.06,1.06H13.76l-2.86,2v-2h-.78a1.07,1.07,0,0,1-1.07-1.05v-6a1.08,1.08,0,0,1,1.07-1.07h9.76a1.06,1.06,0,0,1,1.06,1.07Z"/><path id="Path_4" data-name="Path 4" class="cls-1" d="M11.87,11.59h6.26v.79H11.87Z"/><path id="Path_5" data-name="Path 5" class="cls-1" d="M11.87,13.28h6.26v.79H11.87Z"/><path id="Path_6" data-name="Path 6" class="cls-1" d="M11.87,15h6.26v.79H11.87Z"/></g></svg>