<svg id="_015---Cream-Pot" data-name=" 015---Cream-Pot" xmlns="http://www.w3.org/2000/svg" viewBox="0 0 30 30"><defs><style>.cls-1{fill:#707070;}</style></defs><g id="Group_2843" data-name="Group 2843"><path id="Path_7232" data-name="Path 7232" class="cls-1" d="M17.93,11.9l3.35-3.66a.32.32,0,0,0,.06-.35.35.35,0,0,0-.31-.2H10.29s-.13,0-.13,0v-.4a1.1,1.1,0,0,0,.93-1.17A1.22,1.22,0,0,0,9.9,4.92,1.28,1.28,0,0,0,8.63,6.14,1.32,1.32,0,0,0,9.5,7.31V24.74a.33.33,0,1,0,.66,0h0V16.1H21a.3.3,0,0,0,.31-.2.34.34,0,0,0-.06-.35Z"/></g></svg>