<svg id="_015---Cream-Pot" data-name=" 015---Cream-Pot" xmlns="http://www.w3.org/2000/svg" viewBox="0 0 30 30"><defs><style>.cls-1{fill:#ffb782;}.cls-2{fill:#de4c3c;}.cls-3{fill:#7a4930;}.cls-4{fill:#4398d1;}.cls-5{fill:#3e8cc7;}.cls-6{fill:#5eb3d1;}.cls-7{fill:#88b337;}.cls-8{fill:#6b962a;}.cls-9{fill:#fdb62f;}.cls-10{fill:#fd7b2f;}.cls-11{fill:#f2a46f;}</style></defs><g id="surface1"><path class="cls-1" d="M22.87,11.13,19.63,7.89v13H24V13.76A3.71,3.71,0,0,0,22.87,11.13Z"/><path class="cls-2" d="M8.57,18.51,6.12,12.16a1.23,1.23,0,0,1,.71-1.59L18.36,6.12a1.24,1.24,0,0,1,1.6.71l2.45,6.35a1.24,1.24,0,0,1-.71,1.59L10.16,19.22A1.24,1.24,0,0,1,8.57,18.51Z"/><path class="cls-3" d="M20.84,9.12,7,14.48l.93,2.39,13.82-5.36Z"/><path class="cls-4" d="M6,14.07V7.28A1.23,1.23,0,0,1,7.28,6H19.63a1.23,1.23,0,0,1,1.24,1.24v6.79a1.23,1.23,0,0,1-1.24,1.24H7.28A1.23,1.23,0,0,1,6,14.07Z"/><path class="cls-5" d="M19.63,6H18.32L9.05,15.31H19.63a1.23,1.23,0,0,0,1.24-1.24V7.28A1.23,1.23,0,0,0,19.63,6Z"/><path class="cls-6" d="M7.28,11H8.51v.62H7.28Z"/><path class="cls-6" d="M7.28,12.84H8.51v.62H7.28Z"/><path class="cls-6" d="M12.84,12.84h1.23v.62H12.84Z"/><path class="cls-6" d="M9.13,11h1.24v.62H9.13Z"/><path class="cls-6" d="M11,11h1.24v.62H11Z"/><path class="cls-6" d="M12.84,11h1.23v.62H12.84Z"/><path class="cls-6" d="M18.71,7.28h.62V8.2h-.62Z"/><path class="cls-6" d="M17.47,7.28h.62V8.2h-.62Z"/><path class="cls-6" d="M16.24,7.28h.61V8.2h-.61Z"/><path class="cls-6" d="M15,7.28h.62V8.2H15Z"/><path class="cls-7" d="M18.4,20.87H24V24H18.4Z"/><path class="cls-1" d="M17.49,11.62a1.34,1.34,0,0,0-1.93,1.85l2.53,2.77a4.17,4.17,0,0,0,.08,4.27l.23.36h4V16.54Z"/><path class="cls-8" d="M19.33,21.8h.61v.62h-.61Z"/><path class="cls-9" d="M7.28,9.25V7.77a.49.49,0,0,1,.49-.49H9.25a.49.49,0,0,1,.5.49V9.25a.5.5,0,0,1-.5.5H7.77A.49.49,0,0,1,7.28,9.25Z"/><path class="cls-10" d="M7.28,8.2H8.2v.62H7.28Z"/><path class="cls-10" d="M8.82,8.2h.93v.62H8.82Z"/><path class="cls-11" d="M22.11,16.54a.29.29,0,0,1-.22-.09l-1.24-1.23a.31.31,0,0,1,0-.44.32.32,0,0,1,.43,0L22.32,16a.29.29,0,0,1,0,.43A.27.27,0,0,1,22.11,16.54Z"/></g></svg>