<svg id="_015---Cream-Pot" data-name=" 015---Cream-Pot" xmlns="http://www.w3.org/2000/svg" viewBox="0 0 30 30"><defs><style>.cls-1{fill:#3cbe55;}</style></defs><g id="Group_2346" data-name="Group 2346"><path id="Path_6955" data-name="Path 6955" class="cls-1" d="M15,6.21h0a8.79,8.79,0,0,0-7.12,14l-1.1,3.27,3.38-1.08A8.8,8.8,0,1,0,15,6.21Zm5.12,12.41a2.48,2.48,0,0,1-1.73,1.25c-.46.09-1.06.17-3.08-.67a11.07,11.07,0,0,1-4.38-3.86,5.07,5.07,0,0,1-1-2.66,2.8,2.8,0,0,1,.9-2.14,1.25,1.25,0,0,1,.89-.31H12c.25,0,.38,0,.55.43s.73,1.77.8,1.9a.54.54,0,0,1,0,.48,1.44,1.44,0,0,1-.28.4c-.13.15-.26.27-.39.43s-.25.29-.1.55A8.11,8.11,0,0,0,14,16.2a6.5,6.5,0,0,0,2.07,1.27.55.55,0,0,0,.62-.1,8.7,8.7,0,0,0,.69-.91.49.49,0,0,1,.63-.19c.24.08,1.49.71,1.75.83s.43.2.49.3A2.12,2.12,0,0,1,20.12,18.62Z"/></g></svg>