<svg id="_015---Cream-Pot" data-name=" 015---Cream-Pot" xmlns="http://www.w3.org/2000/svg" viewBox="0 0 30 30"><defs><style>.cls-1{fill:#3cbe55;}.cls-2{fill:#ffc13f;}</style></defs><path id="Path_6890" data-name="Path 6890" class="cls-1" d="M15,7.59A7.41,7.41,0,1,0,22.41,15h0A7.43,7.43,0,0,0,15,7.59Z"/><g id="Group_2317" data-name="Group 2317"><path id="Path_6891" data-name="Path 6891" class="cls-2" d="M18.19,18.38H11.81a.45.45,0,0,1-.45-.38l-.68-3.91a.48.48,0,0,1,.38-.54.52.52,0,0,1,.28,0l1.79.87,1.47-2.63a.47.47,0,0,1,.66-.14.47.47,0,0,1,.14.14l1.47,2.64,1.79-.87a.47.47,0,0,1,.62.21.55.55,0,0,1,0,.28L18.64,18A.45.45,0,0,1,18.19,18.38Z"/><path id="Path_6893" data-name="Path 6893" class="cls-2" d="M15,11.61a.46.46,0,0,0-.4.22l-1.47,2.64-1.79-.87a.47.47,0,0,0-.62.21.55.55,0,0,0,0,.28L11.36,18a.45.45,0,0,0,.45.39H15Z"/></g></svg>