<svg id="_015---Cream-Pot" data-name=" 015---Cream-Pot" xmlns="http://www.w3.org/2000/svg" viewBox="0 0 30 30"><defs><style>.cls-1{fill:#463c4b;}.cls-2{fill:#cd3232;}.cls-3{fill:#ff4646;}.cls-4{fill:#e6e6eb;}</style></defs><g id="ICON13"><g id="Group_2023" data-name="Group 2023"><path id="Path_6567" data-name="Path 6567" class="cls-1" d="M22.89,9.72A2.73,2.73,0,0,1,21,8.92l.52-.52a2,2,0,0,0,2.76-2.78l.52-.52a2.7,2.7,0,0,1-1.91,4.62Z"/></g><g id="Group_2024" data-name="Group 2024"><path id="Path_6568" data-name="Path 6568" class="cls-2" d="M24.36,7a2.47,2.47,0,0,0-1.78-.73H15.37a1.43,1.43,0,0,0-1,.43L5,16.1a1.8,1.8,0,0,0,0,2.53L11.32,25a1.77,1.77,0,0,0,1.27.53H14A1.79,1.79,0,0,0,15.27,25l9.39-9.39a1.48,1.48,0,0,0,.43-1.05V8.8A2.54,2.54,0,0,0,24.35,7Z"/></g><g id="Group_2025" data-name="Group 2025"><path id="Path_6569" data-name="Path 6569" class="cls-3" d="M14.32,6.71,4.92,16.1a1.8,1.8,0,0,0,0,2.53L11.27,25a1.8,1.8,0,0,0,2.53,0l9.39-9.39a1.48,1.48,0,0,0,.43-1.05V8.8A2.52,2.52,0,0,0,21.1,6.28H15.37a1.43,1.43,0,0,0-1,.43Z"/></g><g id="Group_2026" data-name="Group 2026"><circle id="Ellipse_86" data-name="Ellipse 86" class="cls-2" cx="21.22" cy="8.68" r="1.29"/></g><g id="Group_2027" data-name="Group 2027"><path id="Path_6570" data-name="Path 6570" class="cls-1" d="M21.23,9A.4.4,0,0,1,21,8.92,2.71,2.71,0,0,1,24.8,5.1a.37.37,0,0,1,0,.52.38.38,0,0,1-.46,0h0A2,2,0,0,0,21,8a2.1,2.1,0,0,0,.47.47h0a.37.37,0,0,1,0,.52.36.36,0,0,1-.26.11Z"/></g><g id="Group_2028" data-name="Group 2028"><path id="Path_6571" data-name="Path 6571" class="cls-2" d="M6.41,16.84,15,8.28a.74.74,0,0,1,1,0l5.6,5.6a.74.74,0,0,1,0,1L13,23.45a.74.74,0,0,1-1,0h0L6.41,17.92a.72.72,0,0,1,0-1Z"/></g><g id="Group_2029" data-name="Group 2029"><path id="Path_6572" data-name="Path 6572" class="cls-4" d="M11.06,17a1.48,1.48,0,1,1,1.48-1.48h0A1.49,1.49,0,0,1,11.06,17Zm0-2.21a.74.74,0,1,0,.74.74h0A.74.74,0,0,0,11.06,14.78Z"/></g><g id="Group_2030" data-name="Group 2030"><path id="Path_6573" data-name="Path 6573" class="cls-4" d="M17,17.73a1.48,1.48,0,1,1,1.48-1.48h0A1.47,1.47,0,0,1,17,17.73Zm0-2.21a.74.74,0,1,0,.74.74h0A.74.74,0,0,0,17,15.52Z"/></g><g id="Group_2031" data-name="Group 2031"><path id="Path_6574" data-name="Path 6574" class="cls-4" d="M14,20.81a.37.37,0,0,1-.37-.37h0v-9a.36.36,0,0,1,.35-.39h0a.36.36,0,0,1,.38.34h0v9a.35.35,0,0,1-.31.4Z"/></g></g></svg>