<svg id="_015---Cream-Pot" data-name=" 015---Cream-Pot" xmlns="http://www.w3.org/2000/svg" viewBox="0 0 30 30"><defs><style>.cls-1{fill:#c3ea21;}.cls-2{fill:#8adb53;}.cls-3{fill:#ba7400;}.cls-4{fill:#4fc16e;}.cls-5{fill:#369151;}.cls-6{fill:#804d00;}</style></defs><g id="forest"><path id="Path_7122" data-name="Path 7122" class="cls-1" d="M21.81,12.57a4.41,4.41,0,0,0-8.79,0A4.41,4.41,0,1,0,17.42,20a4.41,4.41,0,0,0,5.82-6.62A4.57,4.57,0,0,0,21.81,12.57Z"/><path id="Path_7123" data-name="Path 7123" class="cls-2" d="M21.81,12.57A4.41,4.41,0,0,0,17.42,8.5V20a4.41,4.41,0,1,0,4.39-7.46Z"/><path id="Path_7124" data-name="Path 7124" class="cls-3" d="M20.08,15.33l-.54-1L18,15.11v-1.7H16.84v3.81l-1.54-.81-.54,1,2.08,1.1v6.39H18v-8.5Z"/><path id="Path_7125" data-name="Path 7125" class="cls-4" d="M9.65,19.53h0a4.4,4.4,0,0,1-4.39-4.39,3.15,3.15,0,0,1,0-.53l.78-6.38A3.58,3.58,0,0,1,9.65,5.07h0a3.59,3.59,0,0,1,3.57,3.16L14,14.61a4.38,4.38,0,0,1-3.82,4.88A3.15,3.15,0,0,1,9.65,19.53Z"/><path id="Path_7126" data-name="Path 7126" class="cls-5" d="M9.65,19.53h0V5.07h0a3.59,3.59,0,0,1,3.57,3.16L14,14.61a4.37,4.37,0,0,1-3.82,4.88A3.15,3.15,0,0,1,9.65,19.53Z"/><path id="Path_7127" data-name="Path 7127" class="cls-6" d="M11.77,14.56l-1.54.81v-3l2.08-1.1-.54-1-1.54.81V9.39H9.07v3.84l-1.54-.81-.54,1,2.08,1.1V24.93h1.16V16.68l2.08-1.09Z"/></g></svg>