<svg id="_015---Cream-Pot" data-name=" 015---Cream-Pot" xmlns="http://www.w3.org/2000/svg" viewBox="0 0 30 30"><defs><style>.cls-1{fill:#b6fa4c;}.cls-2{fill:#a8e83a;}.cls-3{fill:#7d0;}.cls-4{fill:#73cc00;}</style></defs><g id="money"><path id="Path_7104" data-name="Path 7104" class="cls-1" d="M24.68,20.73H5.32a.88.88,0,0,1-.88-.88v-9.7a.88.88,0,0,1,.88-.88H24.68a.88.88,0,0,1,.88.88v9.7A.88.88,0,0,1,24.68,20.73Z"/><path id="Path_7105" data-name="Path 7105" class="cls-2" d="M24.68,9.27H22.47a.88.88,0,0,1,.88.88v9.43a.87.87,0,0,1-.83.59H4.5a.88.88,0,0,0,.82.56H24.68a.88.88,0,0,0,.84-.6s0,0,0-.07a.78.78,0,0,0,0-.22h0V10.15h0A.88.88,0,0,0,24.68,9.27Z"/><path id="Path_7106" data-name="Path 7106" class="cls-3" d="M22.7,10.27H7.3a.31.31,0,0,0-.28.18,2.74,2.74,0,0,1-1.41,1.43.29.29,0,0,0-.18.27v5.7a.29.29,0,0,0,.18.27A2.74,2.74,0,0,1,7,19.55a.31.31,0,0,0,.28.18H22.7a.28.28,0,0,0,.27-.18,2.79,2.79,0,0,1,1.42-1.43.29.29,0,0,0,.18-.27v-5.7a.29.29,0,0,0-.18-.27A2.79,2.79,0,0,1,23,10.45.28.28,0,0,0,22.7,10.27Z"/><path id="Path_7107" data-name="Path 7107" class="cls-4" d="M24.39,11.88A2.79,2.79,0,0,1,23,10.45a.28.28,0,0,0-.27-.18H21a2.76,2.76,0,0,0,1.24,1.1.29.29,0,0,1,.18.27v5.7a.3.3,0,0,1-.18.27A2.79,2.79,0,0,0,20.8,19a.28.28,0,0,1-.27.18H6.85a1.73,1.73,0,0,1,.17.33.31.31,0,0,0,.28.18H22.7a.31.31,0,0,0,.28-.18,2.74,2.74,0,0,1,1.41-1.43.29.29,0,0,0,.18-.27v-5.7A.3.3,0,0,0,24.39,11.88Z"/><circle id="Ellipse_136" data-name="Ellipse 136" class="cls-1" cx="15" cy="15" r="3.58"/></g></svg>