<svg id="_015---Cream-Pot" data-name=" 015---Cream-Pot" xmlns="http://www.w3.org/2000/svg" viewBox="0 0 30 30"><defs><style>.cls-1{fill:#707070;stroke:#707070;}</style></defs><path id="user" class="cls-1" d="M8.16,22A15.87,15.87,0,0,0,15,23.74,14.4,14.4,0,0,0,21.85,22,.27.27,0,0,0,22,21.7a9.33,9.33,0,0,0-2-6.06,6.55,6.55,0,0,0-3.33-2.17,3.78,3.78,0,1,0-3.26,0A6.55,6.55,0,0,0,10,15.64,9.33,9.33,0,0,0,8,21.7.28.28,0,0,0,8.16,22Zm3.63-11.91A3.21,3.21,0,1,1,15,13.25a3.21,3.21,0,0,1-3.21-3.2Zm-1.31,6a5.76,5.76,0,0,1,8.11-.93,5.84,5.84,0,0,1,.93.93,8.73,8.73,0,0,1,1.89,5.51A14.18,14.18,0,0,1,15,23.16a15.71,15.71,0,0,1-6.41-1.63A8.73,8.73,0,0,1,10.48,16Z"/></svg>