<svg id="_015---Cream-Pot" data-name=" 015---Cream-Pot" xmlns="http://www.w3.org/2000/svg" viewBox="0 0 30 30"><defs><style>.cls-1,.cls-3{fill:none;stroke-linecap:round;}.cls-1,.cls-2,.cls-3{stroke:#868686;}.cls-1{stroke-width:1.5px;}.cls-2{fill:#868686;stroke-width:0.75px;}.cls-3{stroke-linejoin:round;stroke-width:2px;}</style></defs><g id="Group_2604" data-name="Group 2604"><g id="Group_2603" data-name="Group 2603"><path id="Path_7180" data-name="Path 7180" class="cls-1" d="M14.93,7v8.27"/><g id="_8" data-name="8"><g id="Group_2401" data-name="Group 2401"><path id="Path_7051" data-name="Path 7051" class="cls-2" d="M15.19,16.49l3.73-4.09a.34.34,0,0,0,0-.49.34.34,0,0,0-.48,0h0l-3.51,3.85-3.51-3.85a.34.34,0,0,0-.48,0h0a.36.36,0,0,0,0,.49l3.73,4.09a.35.35,0,0,0,.26.1A.32.32,0,0,0,15.19,16.49Z"/></g></g></g><path id="Path_7181" data-name="Path 7181" class="cls-3" d="M7.17,17.06V23H22.83v-5.9"/></g></svg>