<?xml version="1.0" encoding="utf-8"?>
<!-- Generator: Adobe Illustrator 19.0.0, SVG Export Plug-In . SVG Version: 6.00 Build 0)  -->
<svg version="1.1" id="_015---Cream-Pot" xmlns="http://www.w3.org/2000/svg" xmlns:xlink="http://www.w3.org/1999/xlink" x="0px"
	 y="0px" viewBox="-228.6 91.4 19 19" style="enable-background:new -228.6 91.4 19 19;" xml:space="preserve">
<style type="text/css">
	.st0{fill:#707070;stroke:#707070;}
</style>
<path id="user" class="st0" d="M-225.8,108c2.1,1.1,4.5,1.7,6.8,1.7c2.4,0,4.7-0.6,6.9-1.7c0.1-0.1,0.2-0.2,0.1-0.3
	c0.1-2.2-0.6-4.3-2-6.1c-0.9-1.1-2-1.8-3.3-2.2c1.9-0.9,2.7-3.2,1.8-5s-3.2-2.7-5-1.8c-1.9,0.9-2.7,3.2-1.8,5c0.4,0.8,1,1.4,1.8,1.8
	c-1.3,0.3-2.5,1.1-3.4,2.2c-1.4,1.7-2.1,3.9-2,6.1C-226,107.8-226,107.9-225.8,108z M-222.2,96.1c0-1.8,1.4-3.2,3.2-3.3
	c1.8,0,3.2,1.4,3.3,3.2c0,1.8-1.4,3.2-3.2,3.3c0,0,0,0,0,0C-220.8,99.3-222.2,97.8-222.2,96.1L-222.2,96.1z M-223.5,102.1
	c2-2.5,5.6-2.9,8.1-0.9c0,0,0,0,0,0c0.3,0.3,0.7,0.6,0.9,0.9c1.2,1.6,1.9,3.5,1.9,5.5c-2,1-4.2,1.6-6.4,1.6
	c-2.2-0.1-4.4-0.6-6.4-1.6C-225.4,105.5-224.8,103.6-223.5,102.1L-223.5,102.1z"/>
</svg>
