<svg id="_015---Cream-Pot" data-name=" 015---Cream-Pot" xmlns="http://www.w3.org/2000/svg" viewBox="0 0 30 30"><defs><style>.cls-1{fill:#fff;}.cls-2{fill:none;stroke:#ededed;}.cls-3,.cls-4{isolation:isolate;}.cls-4{font-size:5.63px;font-family:Muli-Regular, Muli;}.cls-5{fill:#ffc107;}</style></defs><g id="Group_2866" data-name="Group 2866"><g id="Rectangle_396" data-name="Rectangle 396"><rect class="cls-1" x="4.12" y="6.74" width="21.77" height="16.51" rx="6.76"/><rect class="cls-2" x="4.3" y="6.93" width="21.39" height="16.14" rx="6.57"/></g><g id="_4" data-name=" 4" class="cls-3"><text class="cls-4" transform="translate(17.63 16.5)">4</text></g><path id="star" class="cls-5" d="M15.54,13.36,13.14,13l-1.08-2.3a.25.25,0,0,0-.34-.09.22.22,0,0,0-.1.09L10.54,13l-2.4.36a.25.25,0,0,0-.2.28.27.27,0,0,0,.07.14l1.74,1.78-.41,2.53a.24.24,0,0,0,.2.28.3.3,0,0,0,.16,0l2.14-1.19L14,18.35a.24.24,0,0,0,.33-.1.22.22,0,0,0,0-.16l-.41-2.52,1.74-1.79a.25.25,0,0,0,0-.35.27.27,0,0,0-.14-.07Z"/></g></svg>