<svg id="_015---Cream-Pot" data-name=" 015---Cream-Pot" xmlns="http://www.w3.org/2000/svg" viewBox="0 0 30 30"><defs><style>.cls-1{fill:#8d96aa;}</style></defs><g id="Group_2312" data-name="Group 2312"><g id="Group_2311" data-name="Group 2311"><path id="Path_6795" data-name="Path 6795" class="cls-1" d="M22.78,7.22a11,11,0,1,0,0,15.45A11,11,0,0,0,22.78,7.22ZM15,24.28A9.28,9.28,0,1,1,24.28,15,9.27,9.27,0,0,1,15,24.28Z"/></g></g><g id="Group_2314" data-name="Group 2314"><g id="Group_2313" data-name="Group 2313"><path id="Path_6796" data-name="Path 6796" class="cls-1" d="M19.86,16.28a6.44,6.44,0,0,1-1.08,1.82,4.66,4.66,0,0,1-3.68,1.71,5,5,0,0,1-3.8-1.73,6.64,6.64,0,0,1-1.17-1.83l-1.61.6A8.31,8.31,0,0,0,10,19.18a6.68,6.68,0,0,0,5.12,2.35,6.38,6.38,0,0,0,5-2.37,7.68,7.68,0,0,0,1.36-2.35Z"/></g></g><g id="Group_2316" data-name="Group 2316"><g id="Group_2315" data-name="Group 2315"><circle id="Ellipse_112" data-name="Ellipse 112" class="cls-1" cx="11.22" cy="11.74" r="1.38"/></g></g><g id="Group_2318" data-name="Group 2318"><g id="Group_2317" data-name="Group 2317"><circle id="Ellipse_113" data-name="Ellipse 113" class="cls-1" cx="18.78" cy="11.74" r="1.38"/></g></g></svg>