<svg id="_015---Cream-Pot" data-name=" 015---Cream-Pot" xmlns="http://www.w3.org/2000/svg" viewBox="0 0 30 30"><defs><style>.cls-1{fill:#fff;}.cls-2{fill:none;stroke:#ededed;}.cls-3,.cls-4{isolation:isolate;}.cls-4{font-size:6.99px;font-family:Muli-Regular, Muli;}.cls-5{fill:#ffc107;}</style></defs><g id="Group_2863" data-name="Group 2863"><g id="Rectangle_396" data-name="Rectangle 396"><rect class="cls-1" x="1.49" y="4.75" width="27.01" height="20.49" rx="8.38"/><rect class="cls-2" x="1.73" y="4.99" width="26.55" height="20.03" rx="8.15"/></g><g id="_5" data-name=" 5" class="cls-3"><text class="cls-4" transform="translate(18.26 16.86)">5</text></g><path id="star" class="cls-5" d="M15.67,13l-3-.46L11.35,9.67a.29.29,0,0,0-.42-.12.23.23,0,0,0-.12.12L9.47,12.51l-3,.46a.29.29,0,0,0-.25.34.23.23,0,0,0,.08.17L8.49,15.7,8,18.84a.31.31,0,0,0,.25.35.28.28,0,0,0,.2,0l2.66-1.47,2.67,1.47a.3.3,0,0,0,.41-.11.34.34,0,0,0,0-.2l-.51-3.14,2.17-2.22a.31.31,0,0,0,0-.43.3.3,0,0,0-.17-.08Z"/></g></svg>