<svg id="_015---Cream-Pot" data-name=" 015---Cream-Pot" xmlns="http://www.w3.org/2000/svg" viewBox="0 0 30 30"><defs><style>.cls-1{fill:#707070;}</style></defs><g id="logout"><path id="Path_7048" data-name="Path 7048" class="cls-1" d="M23.81,15.61H11.94a.61.61,0,0,1-.58-.64.6.6,0,0,1,.58-.58H23.81a.61.61,0,0,1,.59.63.62.62,0,0,1-.59.59Z"/><path id="Path_7049" data-name="Path 7049" class="cls-1" d="M15.22,18.89a.65.65,0,0,1-.44-.18l-3.27-3.28a.6.6,0,0,1,0-.86l3.27-3.28a.63.63,0,0,1,.87,0,.61.61,0,0,1,0,.87l0,0L12.81,15l2.84,2.84a.62.62,0,0,1,0,.87.62.62,0,0,1-.43.18Z"/><path id="Path_7050" data-name="Path 7050" class="cls-1" d="M14.6,24A9,9,0,1,1,23,11.71a.62.62,0,0,1-.32.81.62.62,0,0,1-.81-.32v0a7.77,7.77,0,1,0,0,5.68.62.62,0,0,1,1.16.41s0,0,0,0A9,9,0,0,1,14.6,24Z"/></g></svg>