<?xml version="1.0" encoding="utf-8"?>
<!-- Generator: Adobe Illustrator 19.0.0, SVG Export Plug-In . SVG Version: 6.00 Build 0)  -->
<svg version="1.1" id="_015---Cream-Pot" xmlns="http://www.w3.org/2000/svg" xmlns:xlink="http://www.w3.org/1999/xlink" x="0px"
	 y="0px" viewBox="-227.5 92.5 17 17" style="enable-background:new -227.5 92.5 17 17;" xml:space="preserve">
<style type="text/css">
	.st0{fill:#3CBE55;}
</style>
<path id="clock" class="st0" d="M-219,92.5c-4.7,0-8.5,3.8-8.5,8.5c0,4.7,3.8,8.5,8.5,8.5c4.7,0,8.5-3.8,8.5-8.5l0,0
	C-210.5,96.3-214.3,92.5-219,92.5z M-215,105.4c-0.3,0.3-0.7,0.3-1,0c0,0,0,0,0,0l0,0l-3.5-3.5c-0.1-0.1-0.2-0.3-0.2-0.5v-4.6
	c0-0.4,0.3-0.7,0.7-0.7s0.7,0.3,0.7,0.7l0,0v4.3l3.3,3.3C-214.7,104.7-214.7,105.1-215,105.4z"/>
</svg>
