<svg id="_015---Cream-Pot" data-name=" 015---Cream-Pot" xmlns="http://www.w3.org/2000/svg" viewBox="0 0 30 30"><defs><style>.cls-1,.cls-3,.cls-8{fill:#3cbe55;}.cls-1{opacity:0.15;}.cls-1,.cls-2,.cls-3{isolation:isolate;}.cls-3{font-size:3.23px;font-family:Muli-Regular, Muli;}.cls-4{letter-spacing:-0.08em;}.cls-5{letter-spacing:0.03em;}.cls-6{letter-spacing:-0.01em;}.cls-7{letter-spacing:-0.01em;}</style></defs><g id="Group_2788" data-name="Group 2788"><path id="Rectangle_374" data-name="Rectangle 374" class="cls-1" d="M3.57,12.31H26.43A2.68,2.68,0,0,1,29.12,15h0a2.68,2.68,0,0,1-2.69,2.69H3.57A2.68,2.68,0,0,1,.88,15h0A2.68,2.68,0,0,1,3.57,12.31Z"/><g id="Terverifikasi" class="cls-2"><text class="cls-3" transform="translate(8.14 16.34)"><tspan class="cls-4">T</tspan><tspan x="1.7" y="0">e</tspan><tspan class="cls-5" x="3.45" y="0">r</tspan><tspan class="cls-6" x="4.72" y="0">v</tspan><tspan x="6.41" y="0">erifi</tspan><tspan class="cls-7" x="11.95" y="0">k</tspan><tspan x="13.59" y="0">asi</tspan></text></g><g id="check"><g id="Group_2473" data-name="Group 2473"><path id="Path_7090" data-name="Path 7090" class="cls-8" d="M5.05,15.92a.31.31,0,0,1-.44,0l-.67-.67a.31.31,0,0,1,0-.44.3.3,0,0,1,.43,0l.4.41a.08.08,0,0,0,.11,0L6,14.13a.31.31,0,0,1,.44,0,.3.3,0,0,1,0,.43Z"/></g></g></g></svg>