<?xml version="1.0" encoding="utf-8"?>
<!-- Generator: Adobe Illustrator 19.0.0, SVG Export Plug-In . SVG Version: 6.00 Build 0)  -->
<svg version="1.1" id="_015---Cream-Pot" xmlns="http://www.w3.org/2000/svg" xmlns:xlink="http://www.w3.org/1999/xlink" x="0px"
	 y="0px" viewBox="-234 93 30 16" style="enable-background:new -234 93 30 16;" xml:space="preserve">
<style type="text/css">
	.st0{fill:#FFC850;}
	.st1{fill:#FEA82F;}
	.st2{fill:#E4EAF8;}
	.st3{fill:#C2C7D0;}
	.st4{fill:#ABB0B7;}
	.st5{fill:#FF9052;}
	.st6{fill:#FF8031;}
	.st7{fill:#ABFFDB;}
	.st8{fill:#92E0C0;}
	.st9{fill:#FFFFFF;}
	.st10{fill:#AFB5BC;}
	.st11{fill:#474D54;}
</style>
<rect x="-228" y="98.3" class="st0" width="2.7" height="9.3"/>
<rect x="-228" y="98.3" class="st1" width="0.8" height="9.3"/>
<rect x="-228" y="98.3" class="st2" width="2.7" height="4.6"/>
<rect x="-228" y="98.3" class="st3" width="1.3" height="4.6"/>
<rect x="-228" y="98.3" class="st4" width="0.8" height="4.6"/>
<path class="st5" d="M-225.4,97.4h-2.6c-0.3,0-0.5,0.2-0.5,0.5c0,0,0,0,0,0V98c0,0.3,0.2,0.5,0.5,0.5h2.6V97.4z"/>
<rect x="-212.7" y="98.3" class="st0" width="2.7" height="9.3"/>
<rect x="-212.7" y="98.3" class="st1" width="0.8" height="9.3"/>
<rect x="-212.7" y="98.3" class="st2" width="2.7" height="4.6"/>
<rect x="-212.7" y="98.3" class="st3" width="1.3" height="4.6"/>
<rect x="-212.7" y="98.3" class="st4" width="0.8" height="4.6"/>
<path class="st5" d="M-210,97.4h-2.7v1.1h2.7c0.3,0,0.5-0.2,0.5-0.5v-0.1C-209.5,97.6-209.7,97.4-210,97.4
	C-210,97.4-210,97.4-210,97.4z"/>
<path class="st6" d="M-228.4,97.5c-0.1,0.1-0.1,0.2-0.1,0.3V98c0,0.3,0.2,0.5,0.5,0.5h2.7v-0.7h-2.6
	C-228.2,97.8-228.3,97.7-228.4,97.5z"/>
<path class="st6" d="M-210,97.8h-2.7v0.7h2.7c0.3,0,0.5-0.2,0.5-0.5v-0.1c0-0.1,0-0.2-0.1-0.3C-209.7,97.7-209.8,97.7-210,97.8z"/>
<path class="st7" d="M-212.9,93.3h-12.2c-0.2,0-0.3,0.1-0.3,0.3v14.1h12.8V93.6C-212.6,93.4-212.8,93.3-212.9,93.3z"/>
<path class="st8" d="M-224.3,93.3h-0.8c-0.2,0-0.3,0.1-0.3,0.3v14.1h0.8V93.6C-224.6,93.4-224.5,93.3-224.3,93.3L-224.3,93.3z"/>
<path class="st9" d="M-224,99.6v8h10v-8H-224z"/>
<path class="st0" d="M-214.2,94.6h-9.6c-0.1,0-0.2,0.1-0.2,0.2c0,0,0,0,0,0v3.5h10v-3.5C-214,94.7-214.1,94.6-214.2,94.6z"/>
<path class="st1" d="M-223,94.6h-0.8c-0.1,0-0.2,0.1-0.2,0.2c0,0,0,0,0,0v3.5h0.8v-3.5C-223.2,94.7-223.1,94.6-223,94.6
	C-223,94.6-223,94.6-223,94.6z"/>
<rect x="-224" y="98.3" class="st2" width="10" height="1.3"/>
<path class="st2" d="M-224,99.6v8h0.8v-8H-224z"/>
<rect x="-224" y="98.3" class="st3" width="0.8" height="1.3"/>
<path class="st0" d="M-216.6,103h-4.8c-0.1,0-0.1,0-0.1,0.1l0,0v4.6h5v-4.6C-216.5,103-216.6,103-216.6,103
	C-216.6,103-216.6,103-216.6,103z"/>
<path class="st1" d="M-219,103h-2.4c-0.1,0-0.1,0-0.1,0.1l0,0v4.6h2.5V103z"/>
<path class="st6" d="M-220.6,103h-0.8c-0.1,0-0.1,0-0.1,0.1l0,0v4.6h0.8v-4.6C-220.7,103-220.7,103-220.6,103L-220.6,103z"/>
<path class="st3" d="M-209.9,107.6H-228c-0.3,0-0.5,0.2-0.5,0.5c0,0,0,0,0,0v0.1c0,0.3,0.2,0.5,0.5,0.5h18.1c0.3,0,0.5-0.2,0.5-0.5
	c0,0,0,0,0,0v-0.1C-209.4,107.9-209.6,107.6-209.9,107.6C-209.9,107.6-209.9,107.6-209.9,107.6z"/>
<path class="st4" d="M-209.9,108.1H-228c-0.2,0-0.3-0.1-0.4-0.2c-0.1,0.1-0.1,0.2-0.1,0.3v0.1c0,0.3,0.2,0.5,0.5,0.5h18.1
	c0.3,0,0.5-0.2,0.5-0.5c0,0,0,0,0,0v-0.1c0-0.1,0-0.2-0.1-0.3C-209.6,108-209.8,108.1-209.9,108.1z"/>
<path class="st10" d="M-216.5,102.2h-5c-0.2,0-0.3-0.1-0.3-0.3c0-0.2,0.1-0.3,0.3-0.3h5c0.2,0,0.3,0.1,0.3,0.3
	C-216.2,102.1-216.3,102.2-216.5,102.2z"/>
<path class="st9" d="M-221.2,96.9c0,0.1-0.1,0.1-0.2,0.1c-0.1,0-0.1,0-0.1-0.1l-0.3-0.5v1.2c0,0.1-0.1,0.1-0.2,0.1
	c-0.1,0-0.2,0-0.2-0.1v-1.8c0-0.1,0.1-0.2,0.2-0.2c0,0,0.1,0,0.1,0c0.2,0,0.2,0,0.4,0.2l0.3,0.5l0.3-0.5c0.1-0.2,0.2-0.2,0.4-0.2
	c0.1,0,0.2,0.1,0.2,0.2c0,0,0,0,0,0v1.8c0,0.1-0.1,0.1-0.2,0.1c-0.1,0-0.2,0-0.2-0.1v-1.1L-221.2,96.9z"/>
<path class="st9" d="M-220.3,97.4L-220.3,97.4l0.6-1.8c0-0.1,0.2-0.2,0.3-0.2c0.1,0,0.2,0,0.3,0.2l0.6,1.8l0,0
	c0,0.1-0.2,0.2-0.3,0.2c-0.1,0-0.1,0-0.1-0.1l-0.1-0.4h-0.6l-0.1,0.4c0,0.1-0.1,0.1-0.1,0.1C-220.1,97.6-220.3,97.6-220.3,97.4z
	 M-219.2,96.8l-0.2-0.8l-0.2,0.8L-219.2,96.8z"/>
<path class="st9" d="M-218.1,97.6c-0.1,0-0.2,0-0.2-0.1v-1.9c0-0.1,0.1-0.1,0.2-0.1c0.1,0,0.2,0,0.2,0.1v1.7h0.7
	c0.1,0,0.1,0.1,0.1,0.2s0,0.2-0.1,0.2H-218.1z"/>
<path class="st9" d="M-216.7,97.6c-0.1,0-0.2,0-0.2-0.1v-1.9c0-0.1,0.1-0.1,0.2-0.1s0.2,0,0.2,0.1v1.7h0.7c0.1,0,0.1,0.1,0.1,0.2
	s-0.1,0.2-0.1,0.2H-216.7z"/>
<path class="st11" d="M-209.9,104.8c0.2,0,0.3-0.1,0.3-0.3l0,0V103l0,0v-4.4c0.3-0.1,0.5-0.4,0.5-0.7v-0.1c0-0.4-0.3-0.8-0.8-0.8
	l0,0h-2.4v-3.4c0-0.3-0.3-0.6-0.6-0.6c0,0,0,0,0,0h-5.4c-0.2,0-0.3,0.1-0.3,0.3c0,0,0,0,0,0c0,0.2,0.1,0.3,0.3,0.3h5.4l0,0v13.8
	h-0.8V94.9c0-0.3-0.2-0.5-0.5-0.5c0,0,0,0,0,0h-9.6c-0.3,0-0.5,0.2-0.5,0.5v12.5h-0.8V93.6h5.4c0.2,0,0.3-0.1,0.3-0.3
	c0-0.2-0.1-0.3-0.3-0.3c0,0,0,0,0,0h-5.4c-0.3,0-0.6,0.2-0.6,0.6c0,0,0,0,0,0V97h-2.3c-0.4,0-0.8,0.3-0.8,0.8l0,0v0.1
	c0,0.3,0.2,0.6,0.5,0.7v8.8c-0.3,0.1-0.5,0.4-0.5,0.7v0.1c0,0.4,0.4,0.8,0.8,0.8c0,0,0,0,0,0h18.1c0.4,0,0.8-0.3,0.8-0.7
	c0,0,0,0,0,0v-0.1c0-0.3-0.2-0.6-0.5-0.7v-1.6c0-0.2-0.1-0.3-0.3-0.3c-0.2,0-0.3,0.1-0.3,0.3v1.5h-2.1v-4.1h2.1v1.3
	C-210.2,104.7-210.1,104.8-209.9,104.8z M-227.8,107.4v-4.1h2.1v4.1H-227.8z M-227.8,98.6h0.8v4h-0.8V98.6z M-225.7,98.6v4h-0.8v-4
	H-225.7z M-223.7,94.9h9.5v3.1h-9.5V94.9z M-223.7,98.6h9.5v8.7h-9.5V98.6z M-228.3,97.8c0-0.1,0.1-0.2,0.2-0.2h2.4v0.5h-2.3
	c-0.1,0-0.2-0.1-0.2-0.2c0,0,0,0,0,0L-228.3,97.8z M-209.9,107.9c0.1,0,0.2,0.1,0.2,0.2l0,0v0.1c0,0.1-0.1,0.2-0.2,0.2l0,0H-228
	c-0.1,0-0.2-0.1-0.2-0.2l0,0v-0.1c0-0.1,0.1-0.2,0.2-0.2l0,0H-209.9L-209.9,107.9z M-209.9,97.6c0.1,0,0.2,0.1,0.2,0.2v0.1
	c0,0.1-0.1,0.2-0.2,0.2c0,0,0,0,0,0h-2.4v-0.5H-209.9z M-212.3,102.7v-4h0.8v4H-212.3z M-211,102.7v-4h0.8v4H-211z"/>
</svg>
