<svg id="_015---Cream-Pot" data-name=" 015---Cream-Pot" xmlns="http://www.w3.org/2000/svg" viewBox="0 0 30 30"><defs><style>.cls-1{fill:#ffc107;}</style></defs><path id="star" class="cls-1" d="M22.33,12.8l-4.76-.73L15.44,7.52a.52.52,0,0,0-.69-.19.5.5,0,0,0-.19.19l-2.13,4.55-4.76.73a.46.46,0,0,0-.4.53h0a.52.52,0,0,0,.13.28l3.46,3.54-.82,5a.49.49,0,0,0,.4.56.57.57,0,0,0,.31-.06L15,20.32l4.25,2.35a.48.48,0,0,0,.65-.18.45.45,0,0,0,.06-.32l-.82-5,3.46-3.55a.48.48,0,0,0,0-.68h0a.51.51,0,0,0-.26-.14Z"/></svg>