<svg id="_015---Cream-Pot" data-name=" 015---Cream-Pot" xmlns="http://www.w3.org/2000/svg" viewBox="0 0 30 30"><defs><style>.cls-1{fill:#e4e4e4;}.cls-2{fill:#ebf0f3;}.cls-3{fill:#d5d6db;}.cls-4{fill:#adadad;}.cls-5{fill:#d4d4d4;}.cls-6{fill:#3e6b82;}</style></defs><g id="shop"><g id="Circle_Grid" data-name="Circle Grid"><circle id="Ellipse_128" data-name="Ellipse 128" class="cls-1" cx="15" cy="15" r="9"/></g><g id="icon"><path id="Path_7060" data-name="Path 7060" class="cls-2" d="M10,11.9h9.46v6.53H10Z"/><path id="Path_7061" data-name="Path 7061" class="cls-3" d="M11.34,14.7H13.6v3.52H11.34Z"/><path id="Path_7062" data-name="Path 7062" class="cls-4" d="M13.4,14.89v3.33H11.53V14.89Z"/><path id="Path_7063" data-name="Path 7063" class="cls-3" d="M14.54,14.7h4.15v2.2H14.54Z"/><path id="Path_7064" data-name="Path 7064" class="cls-4" d="M18.49,14.89v1.82H14.74V14.89Z"/><path id="Path_7065" data-name="Path 7065" class="cls-5" d="M12.42,12.35H10.88l.55-1.44h1.32Z"/><path id="Path_7066" data-name="Path 7066" class="cls-4" d="M14,12.35H12.42l.33-1.44h1.32Z"/><path id="Path_7067" data-name="Path 7067" class="cls-5" d="M15.5,12.35H14l.11-1.44h1.32Z"/><path id="Path_7068" data-name="Path 7068" class="cls-4" d="M17,12.35H15.5l-.11-1.44h1.32Z"/><path id="Path_7069" data-name="Path 7069" class="cls-5" d="M18.57,12.35H17l-.33-1.44H18Z"/><path id="Path_7070" data-name="Path 7070" class="cls-4" d="M10,11.06l-.69,1.29h1.54l.55-1.44H10.28a.29.29,0,0,0-.25.15Z"/><path id="Path_7071" data-name="Path 7071" class="cls-4" d="M19.42,11.06a.28.28,0,0,0-.25-.15H18l.54,1.44h1.54Z"/><path id="Path_7072" data-name="Path 7072" class="cls-4" d="M9.34,12.35v.55a.79.79,0,0,0,.71.83.77.77,0,0,0,.83-.71.24.24,0,0,0,0-.12v-.55Z"/><path id="Path_7073" data-name="Path 7073" class="cls-5" d="M10.88,12.35v.55a.77.77,0,1,0,1.54.12v-.67Z"/><path id="Path_7074" data-name="Path 7074" class="cls-4" d="M12.42,12.35v.55A.77.77,0,0,0,14,13v-.67Z"/><path id="Path_7075" data-name="Path 7075" class="cls-5" d="M14,12.35v.55a.77.77,0,0,0,1.54,0v-.55Z"/><path id="Path_7076" data-name="Path 7076" class="cls-4" d="M15.5,12.35v.55a.77.77,0,0,0,.7.83A.78.78,0,0,0,17,13v-.67Z"/><path id="Path_7077" data-name="Path 7077" class="cls-5" d="M17,12.35v.55a.77.77,0,1,0,1.53.12.24.24,0,0,0,0-.12v-.55Z"/><path id="Path_7078" data-name="Path 7078" class="cls-4" d="M18.57,12.35v.55a.79.79,0,0,0,.71.83.77.77,0,0,0,.83-.71.24.24,0,0,0,0-.12v-.55Z"/><path id="Path_7079" data-name="Path 7079" class="cls-3" d="M9.48,18H20v.52H9.48Z"/><circle id="Ellipse_129" data-name="Ellipse 129" class="cls-6" cx="11.81" cy="16.48" r="0.1"/></g></g></svg>