<svg id="_015---Cream-Pot" data-name=" 015---Cream-Pot" xmlns="http://www.w3.org/2000/svg" viewBox="0 0 30 30"><defs><style>.cls-1{fill:#efefef;}.cls-2{fill:#ddd;}.cls-3{fill:#535454;}.cls-4{fill:#444443;}.cls-5{fill:#a4d9f4;}.cls-6{fill:#7cc9e8;}.cls-7{fill:#666;}.cls-8{fill:#f9d698;}.cls-9{fill:#70b5e8;}.cls-10{fill:#92b620;}.cls-11{fill:#898989;}.cls-12{fill:#f94a46;}.cls-13{fill:#dda36f;}.cls-14{fill:#ffb70d;}</style></defs><g id="iphone"><path id="Path_6837" data-name="Path 6837" class="cls-1" d="M7.47,2.85A2.29,2.29,0,0,0,5.19,5.13V24.87a2.29,2.29,0,0,0,2.28,2.28H14V2.85Z"/><path id="Path_6838" data-name="Path 6838" class="cls-2" d="M6.55,24.87V5.13A2.28,2.28,0,0,1,8.82,2.85H7.47A2.29,2.29,0,0,0,5.19,5.13V24.87a2.29,2.29,0,0,0,2.28,2.28H8.82A2.28,2.28,0,0,1,6.55,24.87Z"/><path id="Path_6839" data-name="Path 6839" class="cls-3" d="M7.7,4.12h0A1.15,1.15,0,0,0,6.55,5.27V8A1.16,1.16,0,0,0,7.7,9.11h0A1.16,1.16,0,0,0,8.85,8V5.27A1.16,1.16,0,0,0,7.7,4.12Z"/><path id="Path_6840" data-name="Path 6840" class="cls-4" d="M7.7,8V5.27a1.14,1.14,0,0,1,.57-1A1.15,1.15,0,0,0,6.7,4.7a1.13,1.13,0,0,0-.15.57V8A1.14,1.14,0,0,0,7.7,9.1,1.13,1.13,0,0,0,8.27,9,1.14,1.14,0,0,1,7.7,8Z"/><path id="Path_6841" data-name="Path 6841" class="cls-3" d="M22.53,2.85H14a2.28,2.28,0,0,0-2.27,2.28V24.87A2.28,2.28,0,0,0,14,27.15h8.53a2.29,2.29,0,0,0,2.28-2.28V5.13A2.29,2.29,0,0,0,22.53,2.85Z"/><path id="Path_6842" data-name="Path 6842" class="cls-4" d="M13,24.87V5.13a2.28,2.28,0,0,1,2.27-2.28H14a2.28,2.28,0,0,0-2.27,2.28V24.87A2.28,2.28,0,0,0,14,27.15h1.26A2.28,2.28,0,0,1,13,24.87Z"/><path id="Path_6843" data-name="Path 6843" class="cls-5" d="M23.55,24.87a1,1,0,0,1-1,1H14a1,1,0,0,1-1-1h0V5.13a1,1,0,0,1,1-1h1.06a.38.38,0,0,1,.38.38v.24a.58.58,0,0,0,.59.59h4.47a.6.6,0,0,0,.59-.59V4.38a.27.27,0,0,1,.27-.27h1.17a1,1,0,0,1,1,1h0Z"/><path id="Path_6844" data-name="Path 6844" class="cls-6" d="M14.2,24.87V5.13a1,1,0,0,1,.92-1H14a1,1,0,0,0-1,1h0V24.87a1,1,0,0,0,1,1h1.21a1,1,0,0,1-1-1Z"/><g id="Group_2269" data-name="Group 2269"><path id="Path_6845" data-name="Path 6845" class="cls-7" d="M19.74,4.48H17.83a.37.37,0,0,1,0-.73h1.91a.36.36,0,0,1,.39.34.37.37,0,0,1-.35.39Z"/><path id="Path_6846" data-name="Path 6846" class="cls-7" d="M16.47,4.42a.38.38,0,0,1-.1-.51.37.37,0,0,1,.61.41.36.36,0,0,1-.23.15A.54.54,0,0,1,16.47,4.42Z"/><path id="Path_6847" data-name="Path 6847" class="cls-7" d="M7.5,5.62a.37.37,0,0,1-.11-.51A.38.38,0,0,1,7.9,5,.37.37,0,0,1,8,5.52a.4.4,0,0,1-.24.16A.43.43,0,0,1,7.5,5.62Z"/></g><path id="Path_6848" data-name="Path 6848" class="cls-8" d="M7.5,6.92A.36.36,0,1,1,8,6.82s0,0,0,0A.41.41,0,0,1,7.5,6.92Z"/><path id="Path_6849" data-name="Path 6849" class="cls-7" d="M7.49,8.21a.37.37,0,0,1-.1-.51.38.38,0,0,1,.51-.1.37.37,0,0,1,.1.51l0,.06A.38.38,0,0,1,7.49,8.21Z"/><path id="Path_6850" data-name="Path 6850" class="cls-9" d="M15.35,8.27h-1a.16.16,0,0,1-.16-.16v-1A.16.16,0,0,1,14.37,7h1a.16.16,0,0,1,.16.16v1A.16.16,0,0,1,15.35,8.27Z"/><path id="Path_6851" data-name="Path 6851" class="cls-1" d="M17.66,8.27h-1a.17.17,0,0,1-.17-.16v-1A.17.17,0,0,1,16.68,7h1a.16.16,0,0,1,.16.16h0v1A.16.16,0,0,1,17.66,8.27Z"/><path id="Path_6852" data-name="Path 6852" class="cls-10" d="M20,8.27H19a.17.17,0,0,1-.17-.16v-1A.17.17,0,0,1,19,7h1a.16.16,0,0,1,.16.16v1A.16.16,0,0,1,20,8.27Z"/><path id="Path_6853" data-name="Path 6853" class="cls-11" d="M22.28,8.27h-1a.17.17,0,0,1-.17-.16v-1A.17.17,0,0,1,21.3,7h1a.16.16,0,0,1,.16.16v1A.16.16,0,0,1,22.28,8.27Z"/><path id="Path_6854" data-name="Path 6854" class="cls-10" d="M15.35,10.6h-1a.16.16,0,0,1-.16-.16v-1a.16.16,0,0,1,.16-.16h1a.16.16,0,0,1,.16.16v1A.16.16,0,0,1,15.35,10.6Z"/><path id="Path_6855" data-name="Path 6855" class="cls-11" d="M17.66,10.6h-1a.17.17,0,0,1-.17-.16v-1a.17.17,0,0,1,.17-.16h1a.16.16,0,0,1,.16.16v1A.16.16,0,0,1,17.66,10.6Z"/><path id="Path_6856" data-name="Path 6856" class="cls-9" d="M20,10.6H19a.17.17,0,0,1-.17-.16v-1A.17.17,0,0,1,19,9.3h1a.16.16,0,0,1,.16.16v1A.16.16,0,0,1,20,10.6Z"/><path id="Path_6857" data-name="Path 6857" class="cls-12" d="M22.28,10.6h-1a.17.17,0,0,1-.17-.16v-1a.17.17,0,0,1,.17-.16h1a.16.16,0,0,1,.16.16v1A.16.16,0,0,1,22.28,10.6Z"/><path id="Path_6858" data-name="Path 6858" class="cls-13" d="M15.35,13h-1a.17.17,0,0,1-.16-.17v-1a.16.16,0,0,1,.16-.16h1a.16.16,0,0,1,.16.16v1A.17.17,0,0,1,15.35,13Z"/><path id="Path_6859" data-name="Path 6859" class="cls-8" d="M17.66,13h-1a.18.18,0,0,1-.17-.17h0v-1a.17.17,0,0,1,.17-.16h1a.16.16,0,0,1,.16.16v1a.17.17,0,0,1-.16.17Z"/><path id="Path_6860" data-name="Path 6860" class="cls-11" d="M20,13H19a.18.18,0,0,1-.17-.17h0v-1a.17.17,0,0,1,.17-.16h1a.16.16,0,0,1,.16.16v1A.17.17,0,0,1,20,13Z"/><path id="Path_6861" data-name="Path 6861" class="cls-8" d="M22.28,13h-1a.18.18,0,0,1-.17-.17h0v-1a.17.17,0,0,1,.17-.16h1a.16.16,0,0,1,.16.16v1A.17.17,0,0,1,22.28,13Z"/><g id="Group_2270" data-name="Group 2270"><path id="Path_6862" data-name="Path 6862" class="cls-9" d="M15.35,15.3h-1a.17.17,0,0,1-.16-.17v-1a.16.16,0,0,1,.16-.16h1a.16.16,0,0,1,.16.16v1A.17.17,0,0,1,15.35,15.3Z"/><path id="Path_6863" data-name="Path 6863" class="cls-9" d="M17.66,15.3h-1a.18.18,0,0,1-.17-.17v-1a.17.17,0,0,1,.17-.16h1a.16.16,0,0,1,.16.16h0v1A.17.17,0,0,1,17.66,15.3Z"/></g><path id="Path_6864" data-name="Path 6864" class="cls-12" d="M20,15.3H19a.18.18,0,0,1-.17-.17v-1A.17.17,0,0,1,19,14h1a.16.16,0,0,1,.16.16v1A.17.17,0,0,1,20,15.3Z"/><path id="Path_6865" data-name="Path 6865" class="cls-1" d="M15.35,17.63h-1a.16.16,0,0,1-.16-.16v-1a.16.16,0,0,1,.16-.16h1a.16.16,0,0,1,.16.16v1a.17.17,0,0,1-.16.17Z"/><path id="Path_6866" data-name="Path 6866" class="cls-10" d="M17.66,17.63h-1a.17.17,0,0,1-.17-.16h0v-1a.17.17,0,0,1,.17-.16h1a.16.16,0,0,1,.16.16h0v1a.17.17,0,0,1-.16.17Z"/><path id="Path_6867" data-name="Path 6867" class="cls-11" d="M20,17.63H19a.17.17,0,0,1-.17-.16h0v-1a.17.17,0,0,1,.17-.16h1a.16.16,0,0,1,.16.16v1a.17.17,0,0,1-.16.17Z"/><path id="Path_6868" data-name="Path 6868" class="cls-14" d="M22.28,15.3h-1a.18.18,0,0,1-.17-.17v-1A.17.17,0,0,1,21.3,14h1a.16.16,0,0,1,.16.16v1A.17.17,0,0,1,22.28,15.3Z"/><path id="Path_6869" data-name="Path 6869" class="cls-10" d="M15.35,24.83h-1a.17.17,0,0,1-.16-.17v-1a.16.16,0,0,1,.16-.16h1a.16.16,0,0,1,.16.16h0v1a.17.17,0,0,1-.16.17Z"/><path id="Path_6870" data-name="Path 6870" class="cls-9" d="M17.66,24.83h-1a.18.18,0,0,1-.17-.17h0v-1a.17.17,0,0,1,.17-.16h1a.16.16,0,0,1,.16.16h0v1a.17.17,0,0,1-.16.17Z"/><path id="Path_6871" data-name="Path 6871" class="cls-10" d="M20,24.83H19a.18.18,0,0,1-.17-.17h0v-1a.17.17,0,0,1,.17-.16h1a.16.16,0,0,1,.16.16v1A.17.17,0,0,1,20,24.83Z"/><path id="Path_6872" data-name="Path 6872" class="cls-1" d="M22.28,24.83h-1a.18.18,0,0,1-.17-.17h0v-1a.17.17,0,0,1,.17-.16h1a.16.16,0,0,1,.16.16v1A.17.17,0,0,1,22.28,24.83Z"/></g></svg>