<svg id="_015---Cream-Pot" data-name=" 015---Cream-Pot" xmlns="http://www.w3.org/2000/svg" viewBox="0 0 30 30"><defs><style>.cls-1{fill:none;stroke:#707070;}</style></defs><g id="like"><g id="Group_2218" data-name="Group 2218"><g id="Group_2217" data-name="Group 2217"><path id="Path_6783" data-name="Path 6783" class="cls-1" d="M7,15c-1.39,0-2.52.83-2.52,1.86v6c0,1,1.13,1.86,2.52,1.86h3a3.16,3.16,0,0,0,1.51-.38V15Z"/></g></g><g id="Group_2220" data-name="Group 2220"><g id="Group_2219" data-name="Group 2219"><path id="Path_6784" data-name="Path 6784" class="cls-1" d="M25.56,17.42A2,2,0,0,0,25,16a2.19,2.19,0,0,0,.57-1.68,2.28,2.28,0,0,0-2.3-2H17.81a12.43,12.43,0,0,0,.7-3.52c0-1.91-1.62-3.52-2.63-3.52a2.83,2.83,0,0,0-1.61.54.44.44,0,0,0-.16.34v3l-2.53,5.49-.11.06v9.42a5.59,5.59,0,0,0,2.2.52h8.07a2,2,0,0,0,1.84-2.85,2,2,0,0,0,.88-2.64A2,2,0,0,0,25.56,17.42Z"/></g></g></g></svg>