<svg id="_015---Cream-Pot" data-name=" 015---Cream-Pot" xmlns="http://www.w3.org/2000/svg" viewBox="0 0 30 30"><defs><style>.cls-1{fill:#d1d1d1;}.cls-2{fill:#fff;}</style></defs><g id="Group_2403" data-name="Group 2403"><g id="hexagon"><g id="Group_2402" data-name="Group 2402"><path id="Path_7052" data-name="Path 7052" class="cls-1" d="M22.74,10.73,15.18,6.41a.33.33,0,0,0-.36,0L7.26,10.73a.35.35,0,0,0-.18.31V19a.35.35,0,0,0,.18.31l7.56,4.32a.33.33,0,0,0,.36,0l7.56-4.32a.35.35,0,0,0,.18-.31V11A.35.35,0,0,0,22.74,10.73Z"/></g></g><path id="star" class="cls-2" d="M19.05,13.64l-2.64-.4-1.18-2.52a.28.28,0,0,0-.38-.1.24.24,0,0,0-.1.1l-1.19,2.52-2.63.4a.27.27,0,0,0-.23.3.35.35,0,0,0,.07.15l1.92,2-.45,2.78a.25.25,0,0,0,.22.3.25.25,0,0,0,.17,0L15,17.81l2.35,1.3a.27.27,0,0,0,.37-.1.25.25,0,0,0,0-.17l-.45-2.78,1.91-2a.27.27,0,0,0,0-.38.29.29,0,0,0-.14-.08Z"/></g></svg>