<svg id="_015---Cream-Pot" data-name=" 015---Cream-Pot" xmlns="http://www.w3.org/2000/svg" viewBox="0 0 30 30"><defs><style>.cls-1{fill:#ffc107;}.cls-2{fill:none;stroke:#ffc107;stroke-width:0.25px;}</style></defs><g id="Group_2516" data-name="Group 2516"><path id="star" class="cls-1" d="M6.17,14.32,4.76,14.1l-.64-1.35a.15.15,0,0,0-.2,0H3.86L3.23,14.1l-1.41.22a.14.14,0,0,0-.12.16h0a.11.11,0,0,0,0,.08l1,1L2.45,17.1a.14.14,0,0,0,.12.16h.09L4,16.55l1.26.69a.15.15,0,0,0,.2,0,.17.17,0,0,0,0-.1l-.24-1.48,1-1a.14.14,0,0,0,0-.19H6.18Z"/><path id="star-2" class="cls-1" d="M11.69,14.32l-1.41-.22-.63-1.35a.17.17,0,0,0-.21,0h0L8.76,14.1l-1.41.22a.15.15,0,0,0-.13.16.11.11,0,0,0,0,.08l1,1L8,17.1a.14.14,0,0,0,.12.16h.09l1.26-.69,1.26.69a.13.13,0,0,0,.18,0v0a.17.17,0,0,0,0-.1l-.25-1.48,1-1.05a.15.15,0,0,0,0-.2.11.11,0,0,0-.08,0Z"/><path id="star-3" class="cls-1" d="M17.21,14.32,15.8,14.1l-.63-1.35a.15.15,0,0,0-.2,0h-.06l-.63,1.35-1.41.22a.14.14,0,0,0-.12.16h0a.11.11,0,0,0,0,.08l1,1-.24,1.49a.14.14,0,0,0,.12.16h.09L15,16.55l1.26.69a.13.13,0,0,0,.18,0v0a.17.17,0,0,0,0-.1l-.24-1.48,1-1a.13.13,0,0,0,0-.18v0h-.08Z"/><path id="star-4" class="cls-1" d="M22.73,14.32l-1.4-.22-.64-1.35a.15.15,0,0,0-.2,0h-.06L19.8,14.1l-1.41.22a.14.14,0,0,0-.12.16h0a.11.11,0,0,0,0,.08l1,1L19,17.1a.14.14,0,0,0,.12.16h.09l1.26-.69,1.26.69a.15.15,0,0,0,.2-.05.17.17,0,0,0,0-.1l-.24-1.48,1-1.05a.14.14,0,0,0,0-.19h0a.11.11,0,0,0-.08,0Z"/><path id="star-5" class="cls-2" d="M28.26,14.32l-1.41-.22-.63-1.35a.17.17,0,0,0-.21,0h0l-.63,1.35L24,14.32a.15.15,0,0,0-.13.16.11.11,0,0,0,0,.08l1,1L24.6,17.1a.14.14,0,0,0,.12.16h.09l1.26-.69,1.26.69a.13.13,0,0,0,.18,0v0a.17.17,0,0,0,0-.1l-.25-1.48,1-1.05a.15.15,0,0,0,0-.2.11.11,0,0,0-.08,0Z"/></g></svg>