<?xml version="1.0" encoding="utf-8"?>
<!-- Generator: Adobe Illustrator 19.0.0, SVG Export Plug-In . SVG Version: 6.00 Build 0)  -->
<svg version="1.1" id="_015---Cream-Pot" xmlns="http://www.w3.org/2000/svg" xmlns:xlink="http://www.w3.org/1999/xlink" x="0px"
	 y="0px" viewBox="-228.8 91.2 20 20" style="enable-background:new -228.8 91.2 20 20;" xml:space="preserve">
<style type="text/css">
	.st0{fill:#3CBE55;}
</style>
<g id="Group_56">
	<g id="Group_37">
		<g id="Group_36">
			<path id="Path_26" class="st0" d="M-214,94.3c-0.6-0.7-1.3-1.4-2-1.9c-0.4-0.3-0.8-0.5-1.2-0.7c-0.4-0.2-0.9-0.5-1.4-0.6
				c0,0.5,0.1,1,0.2,1.5c0.1,0.5,0.3,0.9,0.4,1.3c-0.5,0.1-1,0.3-1.5,0.5c-0.4,0.2-0.8,0.3-1.2,0.5c-0.4,0.2-0.8,0.4-1.2,0.7
				c-0.4,0.3-0.8,0.6-1.2,0.9c-0.4,0.3-0.8,0.7-1.1,1.1c-0.4,0.4-0.7,0.8-1,1.2c-0.1,0.2-0.3,0.4-0.4,0.6c-0.1,0.2-0.2,0.4-0.3,0.7
				c-0.2,0.4-0.3,0.8-0.4,1.3c-0.1,0.4-0.2,0.8-0.2,1.2c-0.1,0.3-0.1,0.6-0.1,1v1.4c0-0.2,0.1-0.4,0.1-0.7l0.1-0.7
				c0.1-0.3,0.2-0.6,0.3-0.9c0.1-0.3,0.3-0.7,0.4-1c0.2-0.4,0.4-0.7,0.6-1l0.4-0.5c0.1-0.2,0.3-0.3,0.4-0.5c0.3-0.3,0.6-0.6,1-0.8
				c0.3-0.3,0.7-0.5,1.1-0.7c0.4-0.2,0.8-0.3,1.2-0.5c0.4-0.1,0.7-0.2,1.1-0.3c0.4-0.1,0.7-0.2,1-0.2l0.6-0.1l-0.1,0.2
				c-0.2,0.5-0.3,1-0.4,1.6c-0.1,0.3-0.1,0.6-0.1,0.9c0,0.3,0,0.6,0,1c0.3-0.1,0.6-0.2,0.8-0.4c0.2-0.2,0.5-0.3,0.7-0.5
				c0.4-0.3,0.9-0.6,1.3-1c0.8-0.7,1.4-1.6,1.9-2.5l0.1-0.1C-213.6,95.4-213.6,94.8-214,94.3z"/>
		</g>
	</g>
	<g id="Group_55">
		<g id="Group_54">
			<path id="Path_35" class="st0" d="M-211.6,97.5c0-0.2,0-0.4-0.1-0.7c0,0.2,0,0.4-0.1,0.7c0,0.2-0.1,0.5-0.1,0.7
				c-0.1,0.3-0.1,0.7-0.3,1c-0.1,0.3-0.2,0.7-0.4,1c-0.2,0.4-0.4,0.7-0.6,1.1l-0.4,0.5c-0.1,0.2-0.3,0.3-0.4,0.5
				c-0.3,0.3-0.6,0.6-0.9,0.9c-0.3,0.3-0.7,0.5-1.1,0.7c-0.4,0.2-0.8,0.4-1.1,0.5c-0.4,0.1-0.7,0.3-1.1,0.4c-0.4,0.1-0.7,0.2-1,0.3
				l-0.6,0.1c0-0.1,0-0.1,0-0.2c0.2-0.5,0.3-1.1,0.4-1.6c0-0.3,0-0.6,0.1-0.8c0-0.3,0-0.7,0-1c-0.3,0.1-0.6,0.3-0.8,0.4l-0.7,0.5
				c-0.4,0.3-0.8,0.7-1.2,1.1c-0.7,0.8-1.4,1.6-1.9,2.5l-0.1,0.1c-0.3,0.6-0.3,1.3,0.2,1.8c0.6,0.7,1.3,1.3,2,1.8
				c0.4,0.3,0.8,0.5,1.2,0.7c0.5,0.2,0.9,0.4,1.4,0.6c0-0.5-0.1-1-0.3-1.5c-0.1-0.4-0.3-0.9-0.5-1.3c0.5-0.2,1-0.3,1.5-0.6
				c0.3-0.2,0.7-0.3,1.1-0.5c0.4-0.2,0.8-0.5,1.2-0.7c0.4-0.3,0.8-0.6,1.2-0.9c0.4-0.3,0.7-0.7,1.1-1.1c0.4-0.4,0.7-0.8,1-1.2
				c0.1-0.2,0.3-0.4,0.4-0.7s0.2-0.5,0.3-0.7c0.2-0.4,0.3-0.8,0.4-1.3c0.1-0.4,0.2-0.8,0.2-1.2c0-0.3,0.1-0.7,0.1-1
				C-211.5,98-211.5,97.8-211.6,97.5z"/>
		</g>
	</g>
</g>
</svg>
