<svg id="_015---Cream-Pot" data-name=" 015---Cream-Pot" xmlns="http://www.w3.org/2000/svg" viewBox="0 0 30 30"><defs><style>.cls-1{fill:#b8bbc4;}.cls-2{fill:#fff;}</style></defs><g id="Group_2907" data-name="Group 2907"><circle id="Ellipse_139" data-name="Ellipse 139" class="cls-1" cx="15" cy="15" r="12.33"/><g id="Group_2544" data-name="Group 2544"><path id="Path_7115" data-name="Path 7115" class="cls-2" d="M8.39,15.38a.32.32,0,0,0,.25.29l1.13.25a4,4,0,0,0,.16.57l-.86.78a.32.32,0,0,0-.08.38,8.08,8.08,0,0,0,.52.9.33.33,0,0,0,.37.13l1.1-.36a4.16,4.16,0,0,0,.42.42l-.35,1.1a.31.31,0,0,0,.12.37,6.29,6.29,0,0,0,.91.52.34.34,0,0,0,.38-.07l.78-.86a5.12,5.12,0,0,0,.56.15l.25,1.13a.32.32,0,0,0,.29.25,4.71,4.71,0,0,0,.53,0,4.53,4.53,0,0,0,.52,0,.32.32,0,0,0,.29-.25L15.93,20q.29-.06.57-.15l.77.85a.32.32,0,0,0,.38.08,6.29,6.29,0,0,0,.91-.52.31.31,0,0,0,.12-.37l-.35-1.1a4.16,4.16,0,0,0,.42-.42l1.1.36a.33.33,0,0,0,.37-.13,7.39,7.39,0,0,0,.52-.91.32.32,0,0,0-.08-.38l-.86-.77a4,4,0,0,0,.16-.57l1.13-.25a.32.32,0,0,0,.25-.29,4.52,4.52,0,0,0,0-1,.33.33,0,0,0-.25-.3L20,13.8a4,4,0,0,0-.16-.57l.86-.78a.32.32,0,0,0,.08-.38,8.08,8.08,0,0,0-.52-.9.33.33,0,0,0-.37-.13l-1.1.36a4.16,4.16,0,0,0-.42-.42l.35-1.1a.31.31,0,0,0-.12-.37A6.29,6.29,0,0,0,17.65,9a.34.34,0,0,0-.38.07l-.77.86-.57-.15-.25-1.13a.33.33,0,0,0-.29-.26,9.19,9.19,0,0,0-1.05,0,.33.33,0,0,0-.29.26l-.24,1.13a4.74,4.74,0,0,0-.57.15l-.78-.86A.34.34,0,0,0,12.08,9a6.29,6.29,0,0,0-.91.52.3.3,0,0,0-.12.36L11.4,11a4.16,4.16,0,0,0-.42.42L9.88,11a.33.33,0,0,0-.37.13,6.19,6.19,0,0,0-.52.9.32.32,0,0,0,.08.38l.86.78a3.41,3.41,0,0,0-.16.57L8.64,14a.32.32,0,0,0-.25.29c0,.18,0,.35,0,.53s0,.35,0,.52ZM9,14.63l1.1-.24a.32.32,0,0,0,.26-.27,4.29,4.29,0,0,1,.23-.87.32.32,0,0,0-.08-.36l-.84-.76c.07-.14.15-.27.23-.4l1.07.35a.33.33,0,0,0,.35-.1,4.91,4.91,0,0,1,.64-.65.31.31,0,0,0,.11-.35l-.35-1.07.4-.23.76.84a.32.32,0,0,0,.36.08,5.06,5.06,0,0,1,.87-.23.33.33,0,0,0,.27-.25L14.64,9h.46l.24,1.11a.31.31,0,0,0,.26.25,5.43,5.43,0,0,1,.88.23.31.31,0,0,0,.35-.08l.76-.84.4.23L17.65,11a.31.31,0,0,0,.1.35,4.91,4.91,0,0,1,.64.65.34.34,0,0,0,.35.1l1.08-.34c.08.12.15.26.22.39l-.83.76a.32.32,0,0,0-.09.36,4.5,4.5,0,0,1,.24.87.32.32,0,0,0,.25.27l1.1.24a2.65,2.65,0,0,1,0,.46l-1.1.24a.32.32,0,0,0-.25.27,4.5,4.5,0,0,1-.24.87.32.32,0,0,0,.09.36l.83.76-.22.39-1.08-.34a.34.34,0,0,0-.35.1,4.91,4.91,0,0,1-.64.65.31.31,0,0,0-.1.35L18,19.81l-.4.23-.76-.84a.33.33,0,0,0-.35-.09,4.59,4.59,0,0,1-.88.24.31.31,0,0,0-.26.25l-.24,1.11h-.46L14.4,19.6a.33.33,0,0,0-.27-.25,4.31,4.31,0,0,1-.87-.24.34.34,0,0,0-.36.09l-.76.84-.4-.23.35-1.07a.31.31,0,0,0-.11-.35,4.91,4.91,0,0,1-.64-.65.33.33,0,0,0-.35-.1L9.92,18a3.81,3.81,0,0,1-.23-.4l.83-.75a.33.33,0,0,0,.09-.36,4.38,4.38,0,0,1-.23-.88.33.33,0,0,0-.26-.26L9,15.09a1.77,1.77,0,0,1,0-.23,1.69,1.69,0,0,1,0-.23Z"/><path id="Path_7118" data-name="Path 7118" class="cls-2" d="M14.86,18.44a3.58,3.58,0,1,0-3.57-3.58h0A3.59,3.59,0,0,0,14.86,18.44Zm0-6.51a2.93,2.93,0,1,1-2.92,2.93h0A2.93,2.93,0,0,1,14.86,11.93Z"/></g></g></svg>