<svg id="_015---Cream-Pot" data-name=" 015---Cream-Pot" xmlns="http://www.w3.org/2000/svg" viewBox="0 0 30 30"><defs><style>.cls-1{fill:#3cbe55;}.cls-2{fill:#fff;}</style></defs><g id="comment"><path id="Path_7244" data-name="Path 7244" class="cls-1" d="M6.88,7.65l-.5,6.71.5,4.21L9,18.94l-.21,3.15,4.92-3.15,8.69-.37.92-1.23V9.16l-.92-1.51-3.26-.42L8.39,7.65Z"/><path id="Path_3" data-name="Path 3" class="cls-1" d="M21.51,6.74h-13A2.48,2.48,0,0,0,6,9.21v8a2.46,2.46,0,0,0,2.46,2.46v3.62l5.2-3.62h7.83A2.47,2.47,0,0,0,24,17.18v-8A2.48,2.48,0,0,0,21.51,6.74Zm1.42,10.44a1.42,1.42,0,0,1-1.42,1.41H13.35L9.53,21.25V18.59h-1a1.42,1.42,0,0,1-1.42-1.41v-8A1.43,1.43,0,0,1,8.49,7.79h13a1.43,1.43,0,0,1,1.42,1.42Z"/><path id="Path_4" data-name="Path 4" class="cls-2" d="M10.83,10.46h8.34v1H10.83Z"/><path id="Path_5" data-name="Path 5" class="cls-2" d="M10.83,12.7h8.34v1.05H10.83Z"/><path id="Path_6" data-name="Path 6" class="cls-2" d="M10.83,15h8.34V16H10.83Z"/></g></svg>