<svg id="_015---Cream-Pot" data-name=" 015---Cream-Pot" xmlns="http://www.w3.org/2000/svg" viewBox="0 0 30 30"><defs><style>.cls-1{fill:#707070;}</style></defs><g id="key"><g id="Group_2787" data-name="Group 2787"><path id="Path_7161" data-name="Path 7161" class="cls-1" d="M20.55,9.46a4.4,4.4,0,0,0-7.3,4.47l-5,5a.36.36,0,0,0-.12.28v2.27a.39.39,0,0,0,.4.4h2.26a.45.45,0,0,0,.29-.12l.56-.57a.4.4,0,0,0,.12-.33l-.07-.6.84-.08a.4.4,0,0,0,.36-.36l.08-.85.61.07a.36.36,0,0,0,.31-.1.37.37,0,0,0,.13-.3v-.74h.74a.39.39,0,0,0,.28-.12l1-1a4.35,4.35,0,0,0,4.44-1A4.42,4.42,0,0,0,20.55,9.46Zm-1.14,2.83a1.19,1.19,0,0,1-1.69,0,1.2,1.2,0,0,1,0-1.7,1.19,1.19,0,0,1,1.69,0,1.21,1.21,0,0,1,0,1.7Z"/></g></g></svg>