<svg id="_015---Cream-Pot" data-name=" 015---Cream-Pot" xmlns="http://www.w3.org/2000/svg" viewBox="0 0 30 30"><defs><style>.cls-1{fill:#463c4b;}.cls-2{fill:#32283c;}.cls-3{fill:#218639;}.cls-4{fill:#3cbe55;}.cls-5{fill:#e6e6eb;}</style></defs><g id="ICON16"><g id="Group_2047" data-name="Group 2047"><path id="Path_6587" data-name="Path 6587" class="cls-1" d="M9.81,14.11a.6.6,0,0,1-.6-.6.69.69,0,0,1,0-.24l2.2-5.09a.6.6,0,0,1,.78-.33.61.61,0,0,1,.33.78h0l-2.21,5.12A.59.59,0,0,1,9.81,14.11Z"/></g><g id="Group_2048" data-name="Group 2048"><path id="Path_6588" data-name="Path 6588" class="cls-1" d="M16,14.11a.59.59,0,0,1-.55-.36l-2.2-5.09a.61.61,0,0,1,1.09-.53h0l2.19,5.15a.61.61,0,0,1-.31.76.69.69,0,0,1-.24.05Z"/></g><g id="Group_2032" data-name="Group 2032"><path id="Path_6575" data-name="Path 6575" class="cls-2" d="M20.19,14.11a.59.59,0,0,1-.55-.36L17.6,9H12a.61.61,0,0,1-.67-.53.61.61,0,0,1,.53-.67.33.33,0,0,1,.14,0h6a.61.61,0,0,1,.55.37l2.19,5.08a.6.6,0,0,1-.31.77.69.69,0,0,1-.24.05Z"/></g><g id="Group_2033" data-name="Group 2033"><path id="Path_6576" data-name="Path 6576" class="cls-3" d="M6.91,14.41l1.41,6.82a1.19,1.19,0,0,0,1.17,1h11a1.19,1.19,0,0,0,1.17-1l1.41-6.82Z"/></g><g id="Group_2034" data-name="Group 2034"><path id="Path_6577" data-name="Path 6577" class="cls-4" d="M6.91,14.41l1.41,6.82a1.19,1.19,0,0,0,1.17,1h6.87a1.19,1.19,0,0,0,1.17-1l1.4-6.82Z"/></g><g id="Group_2035" data-name="Group 2035"><path id="Path_6578" data-name="Path 6578" class="cls-3" d="M23.68,14.41H6.32a.29.29,0,0,1-.3-.3H6V12.92a.31.31,0,0,1,.29-.31H23.68a.29.29,0,0,1,.3.3h0v1.19a.29.29,0,0,1-.3.3Z"/></g><g id="Group_2036" data-name="Group 2036"><path id="Path_6579" data-name="Path 6579" class="cls-3" d="M18.65,15.61l.24-1.2h-12l.25,1.2Z"/></g><g id="Group_2037" data-name="Group 2037"><path id="Path_6580" data-name="Path 6580" class="cls-4" d="M19.49,14.41H6.32a.29.29,0,0,1-.3-.3H6V12.92a.31.31,0,0,1,.29-.31H19.49a.31.31,0,0,1,.3.31v1.19a.29.29,0,0,1-.3.3Z"/></g><g id="Group_2046" data-name="Group 2046"><g id="Group_2041" data-name="Group 2041"><g id="Group_2038" data-name="Group 2038"><path id="Path_6581" data-name="Path 6581" class="cls-5" d="M15.6,17.4H15a.29.29,0,0,1-.3-.28h0v-1.2a.29.29,0,0,1,.28-.3h.62a.29.29,0,0,1,.3.3h0V17.1a.29.29,0,0,1-.3.3Z"/></g><g id="Group_2039" data-name="Group 2039"><path id="Path_6582" data-name="Path 6582" class="cls-5" d="M13.21,17.4H12.6a.28.28,0,0,1-.29-.28h0v-1.2a.28.28,0,0,1,.28-.3h.62a.29.29,0,0,1,.29.3h0V17.1a.29.29,0,0,1-.29.3Z"/></g><g id="Group_2040" data-name="Group 2040"><path id="Path_6583" data-name="Path 6583" class="cls-5" d="M10.81,17.4h-.6a.28.28,0,0,1-.3-.28h0v-1.2a.29.29,0,0,1,.28-.3h.62a.29.29,0,0,1,.3.3V17.1A.29.29,0,0,1,10.81,17.4Z"/></g></g><g id="Group_2045" data-name="Group 2045"><g id="Group_2042" data-name="Group 2042"><path id="Path_6584" data-name="Path 6584" class="cls-5" d="M15.6,20.4H15a.3.3,0,0,1-.3-.3h0V18.9a.3.3,0,0,1,.3-.3h.6a.3.3,0,0,1,.3.3v1.2a.3.3,0,0,1-.3.3Z"/></g><g id="Group_2043" data-name="Group 2043"><path id="Path_6585" data-name="Path 6585" class="cls-5" d="M13.21,20.4H12.6a.29.29,0,0,1-.29-.3h0V18.9a.29.29,0,0,1,.29-.3h.61a.3.3,0,0,1,.29.3v1.2a.3.3,0,0,1-.29.3Z"/></g><g id="Group_2044" data-name="Group 2044"><path id="Path_6586" data-name="Path 6586" class="cls-5" d="M10.81,20.4h-.6a.29.29,0,0,1-.3-.3h0V18.9a.29.29,0,0,1,.3-.3h.6a.31.31,0,0,1,.3.3v1.2a.3.3,0,0,1-.3.3Z"/></g></g></g></g></svg>