<svg id="_015---Cream-Pot" data-name=" 015---Cream-Pot" xmlns="http://www.w3.org/2000/svg" viewBox="0 0 30 30"><defs><style>.cls-1{fill:#707070;}</style></defs><g id="Group_2844" data-name="Group 2844"><path id="Path_7233" data-name="Path 7233" class="cls-1" d="M22,11.51H19.37V8H7.14A1.75,1.75,0,0,0,5.39,9.76h0v9.61H7.14a2.62,2.62,0,1,0,5.24,0h5.24a2.62,2.62,0,0,0,5.24,0h1.75V15ZM9.76,20.68a1.31,1.31,0,1,1,1.31-1.31,1.31,1.31,0,0,1-1.31,1.31Zm10.48,0a1.31,1.31,0,1,1,1.31-1.31,1.31,1.31,0,0,1-1.31,1.31ZM19.37,15V12.82h2.18L23.27,15Z"/></g></svg>