<svg id="_015---Cream-Pot" data-name=" 015---Cream-Pot" xmlns="http://www.w3.org/2000/svg" viewBox="0 0 30 30"><defs><style>.cls-1{fill:#455a64;}.cls-2{fill:#4caf50;}.cls-3{fill:#f44336;}.cls-4{fill:#ffc107;}</style></defs><g id="cart"><path id="Path_7259" data-name="Path 7259" class="cls-1" d="M21.28,7.75a1.68,1.68,0,0,0-2.34,0l-1,.94a.33.33,0,0,0-.09.23v1.89a.32.32,0,0,0,.32.32h1.89a.32.32,0,0,0,.23-.09l.94-.95a1.66,1.66,0,0,0,0-2.34Z"/><path id="Path_7260" data-name="Path 7260" class="cls-2" d="M18.22,7.26H15.64a.33.33,0,0,0-.32.32v2.58a.33.33,0,0,0,.25.32l2.58.64h.07a.32.32,0,0,0,.33-.32V7.58a.33.33,0,0,0-.33-.32Z"/><path id="Path_7261" data-name="Path 7261" class="cls-3" d="M16.52,10.58,13.29,7.36a.31.31,0,0,0-.45,0h0L10.9,9.29a.34.34,0,0,0,0,.46h0L12.19,11a.32.32,0,0,0,.23.09h3.87a.33.33,0,0,0,.23-.55Z"/><g id="Group_2902" data-name="Group 2902"><circle id="Ellipse_163" data-name="Ellipse 163" class="cls-1" cx="19.51" cy="21.13" r="1.61"/><circle id="Ellipse_164" data-name="Ellipse 164" class="cls-1" cx="13.06" cy="21.13" r="1.61"/></g><path id="Path_7262" data-name="Path 7262" class="cls-4" d="M22.33,10.6a.32.32,0,0,0-.24-.11H10.49a.32.32,0,0,0-.33.32s0,0,0,.06l1,5.16a.31.31,0,0,0,.31.26h8.86a1.62,1.62,0,0,0,1.6-1.41l.5-4A.26.26,0,0,0,22.33,10.6Z"/><path id="Path_7263" data-name="Path 7263" class="cls-1" d="M20.8,18.87H13.36a2.26,2.26,0,0,1-2.21-1.81L9.58,9.2H7.91a.33.33,0,1,1,0-.65H9.84a.33.33,0,0,1,.32.26l1.62,8.12a1.61,1.61,0,0,0,1.58,1.29H20.8a.33.33,0,0,1,0,.65Z"/></g></svg>