<svg id="_015---Cream-Pot" data-name=" 015---Cream-Pot" xmlns="http://www.w3.org/2000/svg" viewBox="0 0 30 30"><defs><style>.cls-1{fill:#23aced;}</style></defs><path id="twitter" class="cls-1" d="M15,5.35A9.65,9.65,0,1,0,24.65,15h0A9.65,9.65,0,0,0,15,5.35Zm4.41,7.52v.29a6.25,6.25,0,0,1-6.21,6.3h-.09a6.32,6.32,0,0,1-3.4-1l.53,0A4.41,4.41,0,0,0,13,17.55,2.22,2.22,0,0,1,10.93,16a2.12,2.12,0,0,0,1,0,2.2,2.2,0,0,1-1.78-2.17v0a2.2,2.2,0,0,0,1,.27,2.21,2.21,0,0,1-.68-3A6.28,6.28,0,0,0,15,13.41a2.22,2.22,0,0,1,3.78-2,4.42,4.42,0,0,0,1.4-.54,2.2,2.2,0,0,1-1,1.23,4.6,4.6,0,0,0,1.27-.35,4.59,4.59,0,0,1-1.1,1.14Z"/></svg>