<svg id="_015---Cream-Pot" data-name=" 015---Cream-Pot" xmlns="http://www.w3.org/2000/svg" viewBox="0 0 30 30"><defs><style>.cls-1{fill:#7a0fc9;}.cls-2{fill:#db8725;}</style></defs><g id="Group_2309" data-name="Group 2309"><g id="heart-form-with-squares"><g id="Group_2307" data-name="Group 2307"><path id="Path_6886" data-name="Path 6886" class="cls-1" d="M17.83,6.46A3.77,3.77,0,0,1,15,7.68,4.12,4.12,0,0,1,12.22,6c-3.42-4-7.86.67-7.73,4.85V22c0,2,1.31,3.55,2.88,3.55h10c4.49,0,8.13-4.49,8.13-10V10.55C25.42,6.55,21.2,2.56,17.83,6.46Z"/></g></g><g id="check"><g id="Group_2308" data-name="Group 2308"><path id="Path_6887" data-name="Path 6887" class="cls-2" d="M14.61,20.11a1.68,1.68,0,0,1-2.38,0L8.54,16.42a1.68,1.68,0,0,1,0-2.38,1.7,1.7,0,0,1,2.38,0l2.2,2.2a.42.42,0,0,0,.6,0l6-5.95a1.68,1.68,0,0,1,2.38,2.38Z"/></g></g></g></svg>