<?xml version="1.0" encoding="utf-8"?>
<!-- Generator: Adobe Illustrator 19.0.0, SVG Export Plug-In . SVG Version: 6.00 Build 0)  -->
<svg version="1.1" id="_015---Cream-Pot" xmlns="http://www.w3.org/2000/svg" xmlns:xlink="http://www.w3.org/1999/xlink" x="0px"
	 y="0px" viewBox="-223.5 96.2 9.5 9.7" style="enable-background:new -223.5 96.2 9.5 9.7;" xml:space="preserve">
<g id="Group_2842">
	<path id="Path_7227" d="M-214.8,105.3c0,0.3-0.2,0.5-0.5,0.5c0,0,0,0,0,0h-7c-0.3,0-0.5-0.2-0.5-0.5c0-0.3,0.2-0.5,0.5-0.5l0,0h7
		C-215,104.8-214.8,105-214.8,105.3L-214.8,105.3L-214.8,105.3z"/>
	<path id="Path_7228" d="M-222.8,100.2c0-0.3,0.2-0.5,0.5-0.5c0,0,0,0,0,0h3v-3c0-0.3,0.2-0.5,0.5-0.5l0,0c0.3,0,0.5,0.2,0.5,0.5
		c0,0,0,0,0,0v3h3c0.3,0,0.5,0.2,0.5,0.5c0,0,0,0,0,0c0,0.3-0.2,0.5-0.5,0.5h-3v3c0,0.3-0.2,0.5-0.5,0.5c0,0,0,0,0,0
		c-0.3,0-0.5-0.2-0.5-0.5v-3h-3C-222.6,100.7-222.8,100.5-222.8,100.2C-222.8,100.2-222.8,100.2-222.8,100.2z"/>
</g>
</svg>
