<svg id="_015---Cream-Pot" data-name=" 015---Cream-Pot" xmlns="http://www.w3.org/2000/svg" viewBox="0 0 30 30"><g id="Group_2842" data-name="Group 2842"><path id="Path_7227" data-name="Path 7227" d="M19,19.3a.51.51,0,0,1-.52.52h-7A.52.52,0,0,1,11,19.3a.53.53,0,0,1,.53-.53h7a.52.52,0,0,1,.52.52Z"/><path id="Path_7228" data-name="Path 7228" d="M11,14.21a.51.51,0,0,1,.52-.52h3v-3a.52.52,0,0,1,.52-.52.52.52,0,0,1,.53.52v3h3a.52.52,0,0,1,.52.53.52.52,0,0,1-.52.52h-3v3a.52.52,0,0,1-.53.52.52.52,0,0,1-.52-.52v-3h-3A.52.52,0,0,1,11,14.21Z"/></g></svg>