<?xml version="1.0" encoding="utf-8"?>
<!-- Generator: Adobe Illustrator 19.0.0, SVG Export Plug-In . SVG Version: 6.00 Build 0)  -->
<svg version="1.1" id="_015---Cream-Pot" xmlns="http://www.w3.org/2000/svg" xmlns:xlink="http://www.w3.org/1999/xlink" x="0px"
	 y="0px" viewBox="-225.4 90.9 12.7 20.2" style="enable-background:new -225.4 90.9 12.7 20.2;" xml:space="preserve">
<style type="text/css">
	.st0{fill:#707070;}
</style>
<g id="Group_2843">
	<path id="Path_7232" class="st0" d="M-216.1,97.9l3.3-3.7c0.1-0.1,0.1-0.2,0.1-0.3c-0.1-0.1-0.2-0.2-0.3-0.2h-10.7h-0.1v-0.4
		c0.6-0.1,1-0.6,0.9-1.2c0-0.7-0.5-1.2-1.2-1.2c-0.7,0-1.2,0.5-1.3,1.2c0,0.5,0.4,1,0.9,1.2v17.4c0,0.2,0.1,0.3,0.3,0.3
		s0.3-0.1,0.3-0.3c0,0,0,0,0,0l0,0v-8.6h10.8c0.1,0,0.3-0.1,0.3-0.2c0-0.1,0-0.3-0.1-0.4L-216.1,97.9z"/>
</g>
</svg>
