<svg id="_015---Cream-Pot" data-name=" 015---Cream-Pot" xmlns="http://www.w3.org/2000/svg" viewBox="0 0 30 30"><defs><style>.cls-1{fill:#3cbe55;}</style></defs><g id="Group_2575" data-name="Group 2575"><path id="Path_6439" data-name="Path 6439" class="cls-1" d="M9.44,8.89v9L11,17.2l1.46.43L13,18.68l.4.43h4.45l.92-1.21,1.27-.27,1,.61.79.87h1.89V14.86L23,13.67H17.85V11l-.26-2Z"/><g id="delivery"><g id="Group_1616" data-name="Group 1616"><g id="Group_1615" data-name="Group 1615"><path id="Path_6251" data-name="Path 6251" class="cls-1" d="M19.94,16.8a2.45,2.45,0,1,0,2.45,2.45h0A2.47,2.47,0,0,0,19.94,16.8Zm0,3.66a1.21,1.21,0,1,1,1.22-1.2,1.21,1.21,0,0,1-1.22,1.2Z"/></g></g><g id="Group_1618" data-name="Group 1618"><g id="Group_1617" data-name="Group 1617"><path id="Path_6252" data-name="Path 6252" class="cls-1" d="M11.66,16.8a2.45,2.45,0,1,0,2.44,2.46h0A2.45,2.45,0,0,0,11.66,16.8Zm0,3.66a1.22,1.22,0,1,1,1.11-1.33s0,.08,0,.12A1.23,1.23,0,0,1,11.66,20.46Z"/></g></g><g id="Group_1620" data-name="Group 1620"><g id="Group_1619" data-name="Group 1619"><path id="Path_6253" data-name="Path 6253" class="cls-1" d="M21.59,9.83A.61.61,0,0,0,21,9.49H17.83v1.23h2.83l1.67,3.33,1.12-.55Z"/></g></g><g id="Group_1622" data-name="Group 1622"><g id="Group_1621" data-name="Group 1621"><rect id="Rectangle_190" data-name="Rectangle 190" class="cls-1" x="13.5" y="18.66" width="4.62" height="1.22"/></g></g><g id="Group_1624" data-name="Group 1624"><g id="Group_1623" data-name="Group 1623"><path id="Path_6254" data-name="Path 6254" class="cls-1" d="M9.77,18.66H7.66a.61.61,0,0,0,0,1.22H9.77a.61.61,0,0,0,0-1.22Z"/></g></g><g id="Group_1626" data-name="Group 1626"><g id="Group_1625" data-name="Group 1625"><path id="Path_6255" data-name="Path 6255" class="cls-1" d="M24.56,15l-1.2-1.55a.62.62,0,0,0-.48-.23H18.43V8.88a.62.62,0,0,0-.6-.58H7.66a.62.62,0,0,0,0,1.23h9.57V13.8a.6.6,0,0,0,.61.6h4.75l.89,1.11v3.15h-1.7a.61.61,0,1,0,0,1.22h2.3a.6.6,0,0,0,.6-.61h0v-4A.63.63,0,0,0,24.56,15Z"/></g></g><g id="Group_1628" data-name="Group 1628"><g id="Group_1627" data-name="Group 1627"><path id="Path_6256" data-name="Path 6256" class="cls-1" d="M9.73,15.58H6.92a.61.61,0,0,0-.16,1.21.43.43,0,0,0,.16,0H9.73a.61.61,0,0,0,.16-1.21Z"/></g></g><g id="Group_1630" data-name="Group 1630"><g id="Group_1629" data-name="Group 1629"><path id="Path_6257" data-name="Path 6257" class="cls-1" d="M11.14,13.16H5.92a.62.62,0,0,0-.6.62.6.6,0,0,0,.59.61h5.23a.6.6,0,0,0,.6-.6h0A.62.62,0,0,0,11.14,13.16Z"/></g></g><g id="Group_1632" data-name="Group 1632"><g id="Group_1631" data-name="Group 1631"><path id="Path_6258" data-name="Path 6258" class="cls-1" d="M12.13,10.77H6.92a.62.62,0,0,0-.69.53.61.61,0,0,0,.53.68h5.37a.61.61,0,1,0,.16-1.21Z"/></g></g></g></g></svg>