<?xml version="1.0" encoding="utf-8"?>
<!-- Generator: Adobe Illustrator 19.0.0, SVG Export Plug-In . SVG Version: 6.00 Build 0)  -->
<svg version="1.1" id="_015---Cream-Pot" xmlns="http://www.w3.org/2000/svg" xmlns:xlink="http://www.w3.org/1999/xlink" x="0px"
	 y="0px" viewBox="-226.9 92.4 15.8 17.3" style="enable-background:new -226.9 92.4 15.8 17.3;" xml:space="preserve">
<style type="text/css">
	.st0{fill:#D1D1D1;}
	.st1{fill:#FFFFFF;}
</style>
<g id="Group_2403">
	<g id="hexagon">
		<g id="Group_2402">
			<path id="Path_7052" class="st0" d="M-211.3,96.7l-7.6-4.3c-0.1-0.1-0.3-0.1-0.4,0l-7.6,4.3c-0.1,0.1-0.2,0.2-0.2,0.3v8
				c0,0.1,0.1,0.2,0.2,0.3l7.6,4.3c0.1,0.1,0.3,0.1,0.4,0l7.6-4.3c0.1-0.1,0.2-0.2,0.2-0.3v-8C-211.1,96.9-211.2,96.8-211.3,96.7z"
				/>
		</g>
	</g>
	<path id="star" class="st1" d="M-214.9,99.6l-2.6-0.4l-1.2-2.5c-0.1-0.1-0.2-0.2-0.4-0.1c0,0-0.1,0.1-0.1,0.1l-1.2,2.5l-2.6,0.4
		c-0.1,0-0.2,0.2-0.2,0.3c0,0.1,0,0.1,0.1,0.2l1.9,2l-0.4,2.8c0,0.1,0.1,0.3,0.2,0.3c0,0,0,0,0,0c0.1,0,0.1,0,0.2,0l2.4-1.4l2.4,1.3
		c0.1,0.1,0.3,0,0.4-0.1c0,0,0,0,0,0c0-0.1,0-0.1,0-0.2l-0.4-2.8l1.9-2c0.1-0.1,0.1-0.3,0-0.4C-214.9,99.6-214.9,99.6-214.9,99.6
		L-214.9,99.6z"/>
</g>
</svg>
